<svg width="384" height="384" viewBox="0 0 384 384" fill="none" xmlns="http://www.w3.org/2000/svg">
<path d="M346.67 217C353.44 223.15 357.86 229.79 358.82 238C359.303 243.19 359.175 248.419 358.44 253.58C356.01 273.23 353.34 292.84 350.66 312.45C349.25 322.84 345.61 327.05 334.66 331.24C334.66 337.96 334.66 344.8 334.66 351.63C334.66 359.43 329.58 364.55 321.87 364.63C314.64 364.63 307.4 364.69 300.16 364.63C292.72 364.56 287.56 359.31 287.51 351.85C287.51 345.24 287.51 338.63 287.44 332.02C287.373 331.72 287.265 331.431 287.12 331.16H97.3198C97.3198 337.9 97.3198 344.48 97.3198 351.05C97.3198 359.68 92.3198 364.62 83.5898 364.64C76.5898 364.64 69.5898 364.64 62.5898 364.64C55.3298 364.58 50.1798 359.4 50.1298 352.11C50.1298 345.11 50.1298 338.16 50.1298 331.18C37.2098 327.99 34.1298 318.49 32.8798 306.94C30.8798 287.51 28.0398 268.16 25.6598 248.76C24.1598 236.54 28.0398 226.19 37.7798 217.17H22.3998C16.3998 217.17 14.5498 215.17 15.0398 209.23C16.4798 192.1 25.8298 183.43 43.0398 183.33C50.3998 183.28 57.7598 183.28 65.1198 183.43C66.0899 183.559 67.0755 183.367 67.9272 182.886C68.7789 182.404 69.4504 181.658 69.8398 180.76C73.8398 173.3 78.1098 165.98 82.1798 158.56C86.4798 150.73 91.5998 143.56 98.7998 138.13C105.322 133.015 113.381 130.252 121.67 130.29C168.58 130.38 215.49 130.49 262.4 130.23C274.68 130.16 284.63 134.53 292.3 143.67C297.23 149.54 301.35 156.14 305.43 162.67C308.92 168.26 311.94 174.16 314.93 180.03C315.327 181.052 316.05 181.914 316.986 182.485C317.922 183.056 319.019 183.304 320.11 183.19C328.34 183.09 336.58 183.05 344.8 183.43C357.98 184.03 365.7 190.62 368.71 203.43C369.245 205.604 369.603 207.818 369.78 210.05C370.11 214.87 368.13 217.05 363.34 217.05C358.13 217 352.89 217 346.67 217ZM192.44 320.37H327.55C328.921 320.422 330.293 320.388 331.66 320.27C333.664 320.09 335.554 319.259 337.041 317.902C338.527 316.546 339.528 314.739 339.89 312.76C340.24 310.68 340.42 308.56 340.69 306.47C343.27 286.72 345.69 266.95 348.48 247.23C350.48 233.36 340.72 221.54 326.83 221.54H57.7298C46.5298 221.54 38.3198 227.66 36.8398 238.74C35.9898 245.12 37.0398 251.83 37.7898 258.32C39.7898 275.14 42.1398 291.91 44.0798 308.72C45.0798 317.72 47.6498 320.37 56.5798 320.37H192.44ZM319.74 211C310.86 194.8 302.37 179.19 293.74 163.65C291.753 160.2 289.538 156.886 287.11 153.73C280.49 144.91 272.02 140.49 260.55 140.58C215.03 140.91 169.55 140.79 123.97 140.66C114.31 140.66 106.46 144.11 100.27 151.25C97.2499 154.732 94.5709 158.496 92.2698 162.49C83.6598 177.49 75.2698 192.64 66.8298 207.74C66.2998 208.68 65.8298 209.67 65.2298 210.92H223.76C227.92 192.56 238.76 180.82 258.07 180.37C278.48 179.89 289.92 191.85 294.44 211H319.74ZM282.92 210.93C281.67 199.4 270.82 190.66 258.26 190.82C246.84 190.97 236.06 200.32 235.26 210.93H282.92ZM60.6398 331C60.6398 337.91 60.6398 344.38 60.6398 350.85C60.6398 353.01 61.5498 354.06 63.7598 354.05C70.3598 354.05 76.9598 354.15 83.5498 353.94C84.6698 353.94 86.6598 352.53 86.6898 351.72C86.9398 344.82 86.8298 337.9 86.8298 331H60.6398ZM298 331C298 337.89 297.87 344.47 298.13 351C298.319 351.682 298.679 352.304 299.176 352.808C299.673 353.312 300.291 353.681 300.97 353.88C307.81 354.13 314.67 354.1 321.51 353.88C322.103 353.734 322.649 353.439 323.095 353.022C323.542 352.606 323.874 352.082 324.06 351.5C324.28 344.7 324.18 337.9 324.18 330.95L298 331ZM322.58 193.83C324.72 197.83 326.39 201.26 328.47 204.46C328.926 204.972 329.483 205.384 330.106 205.671C330.729 205.959 331.404 206.115 332.09 206.13C338.69 206.29 345.3 206.21 351.9 206.21H358.09C357.16 198.39 352.51 194.21 344.53 193.89C337.44 193.63 330.34 193.83 322.58 193.83ZM26.9998 206.09C35.9998 206.09 44.8998 206.09 53.8598 206.02C54.3237 205.95 54.7677 205.784 55.1624 205.53C55.5571 205.277 55.8936 204.943 56.1498 204.55C58.1498 201.19 60.0598 197.72 62.2098 193.89C54.2098 193.89 46.7198 193.5 39.2998 193.99C31.4898 194.52 27.0498 199.19 26.9998 206.09Z" fill="black"/>
<path d="M217 105C217.045 108.478 216.043 111.89 214.125 114.792C212.206 117.693 209.458 119.95 206.24 121.27C199.39 123.97 193.24 122.55 188.01 117.59C182.95 112.82 181.23 105.29 184.32 99.0901C187.65 92.4401 191.55 86.0901 195.47 79.7201C197.47 76.4201 201.77 75.8601 203.61 78.9101C208.27 86.6301 212.34 94.7101 216.61 102.68C216.886 103.422 217.019 104.209 217 105ZM199.9 93.0001C197.83 96.5701 196.04 99.4001 194.51 102.37C192.98 105.34 193.29 108.25 196.01 110.43C197.057 111.347 198.393 111.866 199.784 111.897C201.175 111.928 202.533 111.469 203.62 110.6C206.46 108.6 206.88 105.6 205.45 102.6C204.02 99.6001 202 96.5801 199.89 93.0001H199.9Z" fill="black"/>
<path d="M126.65 105.42C127.65 102.53 128.29 99.4202 129.65 96.7902C132.56 91.3102 135.81 86.0102 139.02 80.6902C141.94 75.8502 146.32 75.7602 149.19 80.5002C152.61 86.1302 156.06 91.7602 159.12 97.5902C162.32 103.7 161.94 109.94 157.81 115.52C153.81 120.93 148.23 123.39 141.49 122.23C134.33 120.99 129.71 116.69 127.72 109.69C127.426 108.371 127.212 107.035 127.08 105.69L126.65 105.42ZM144.22 92.9202C142.09 96.5902 140.27 99.5502 138.62 102.6C137.854 103.842 137.588 105.328 137.873 106.758C138.159 108.189 138.976 109.458 140.16 110.31C141.237 111.289 142.633 111.843 144.089 111.869C145.544 111.894 146.959 111.39 148.07 110.45C149.287 109.645 150.148 108.404 150.478 106.983C150.807 105.562 150.579 104.068 149.84 102.81C148.2 99.6402 146.32 96.5802 144.22 92.9202Z" fill="black"/>
<path d="M238.36 104.55C239.12 102.37 239.78 99.2999 241.19 96.6299C244.02 91.2499 247.19 86.0599 250.36 80.8299C253.36 75.8299 257.75 75.7099 260.74 80.6699C264.14 86.3199 267.62 91.9299 270.67 97.7599C271.745 99.8448 272.375 102.13 272.52 104.472C272.665 106.813 272.322 109.159 271.513 111.361C270.704 113.562 269.445 115.572 267.818 117.262C266.191 118.952 264.231 120.285 262.061 121.177C259.892 122.069 257.561 122.501 255.216 122.444C252.87 122.388 250.563 121.845 248.438 120.849C246.314 119.854 244.42 118.428 242.876 116.662C241.332 114.896 240.172 112.828 239.47 110.59C238.984 108.6 238.613 106.583 238.36 104.55ZM255.61 92.9999C253.53 96.5699 251.69 99.4999 250.08 102.56C249.252 103.849 248.968 105.414 249.288 106.912C249.608 108.41 250.508 109.721 251.79 110.56C252.854 111.454 254.2 111.944 255.59 111.944C256.98 111.944 258.325 111.454 259.39 110.56C260.676 109.726 261.582 108.419 261.913 106.922C262.244 105.426 261.974 103.859 261.16 102.56C259.56 99.4599 257.69 96.5299 255.61 92.9999Z" fill="black"/>
<path d="M247.51 48.1802C247.506 51.5807 246.491 54.9032 244.594 57.7252C242.696 60.5471 240.002 62.7408 236.855 64.0274C233.707 65.3139 230.248 65.6351 226.917 64.95C223.586 64.2649 220.534 62.6046 218.15 60.1802C215.711 57.7359 214.097 54.5903 213.534 51.1836C212.971 47.7768 213.487 44.2793 215.01 41.1802C218.28 34.8902 222.01 28.8002 225.67 22.7502C227.93 19.0902 232.43 18.8202 234.67 22.3402C238.67 28.7602 242.46 35.3402 246.08 42.0602C247 43.8502 247.05 46.1302 247.51 48.1802ZM230.34 35.7702C228.25 39.3802 226.34 42.4302 224.69 45.6002C223.15 48.5402 223.96 51.2002 226.43 53.2302C227.495 54.217 228.893 54.7652 230.345 54.7652C231.797 54.7652 233.195 54.217 234.26 53.2302C235.457 52.403 236.297 51.1541 236.612 49.7336C236.928 48.3132 236.695 46.8261 235.96 45.5702C234.32 42.4202 232.42 39.3802 230.34 35.7702Z" fill="black"/>
<path d="M152.21 47.85C152.85 45.6 153.12 43.15 154.21 41.14C157.58 34.9 161.13 28.74 164.88 22.72C167.25 18.92 171.74 18.91 174.08 22.72C177.88 28.86 181.62 35.07 184.89 41.49C188.16 47.91 186.44 55.49 181.46 60.49C179.026 62.8375 175.959 64.4208 172.635 65.0446C169.312 65.6684 165.879 65.3052 162.76 64C159.634 62.6086 156.976 60.3448 155.104 57.4801C153.233 54.6154 152.228 51.2716 152.21 47.85ZM169.49 35.85C167.59 39.08 165.76 42.01 164.09 45.02C162.42 48.03 162.8 50.85 165.37 53.09C166.41 54.1017 167.789 54.6915 169.239 54.745C170.689 54.7986 172.108 54.3122 173.22 53.38C175.87 51.47 176.59 48.27 174.91 45.12C173.23 41.97 171.44 39.17 169.49 35.86V35.85Z" fill="black"/>
<path d="M192.2 281.43H124.85C118.79 281.43 116.69 278.61 118.51 272.93C119.717 269.137 120.95 265.357 122.21 261.59C123.918 256.208 127.313 251.52 131.893 248.218C136.473 244.917 141.995 243.178 147.64 243.26H237.08C242.598 243.204 247.992 244.888 252.498 248.072C257.004 251.257 260.392 255.78 262.18 261C263.614 265 264.997 269 266.33 273C268.15 278.47 266.03 281.43 260.33 281.44L192.2 281.43ZM130.87 270.78H253.87C252.02 259.16 245.78 253.78 234.42 253.78H150.19C138.74 253.73 132.64 259.09 130.87 270.78Z" fill="black"/>
<path d="M194.28 289.67H277.73C278.85 289.574 279.977 289.604 281.09 289.76C282.276 290.008 283.339 290.658 284.1 291.6C284.861 292.542 285.273 293.718 285.266 294.93C285.259 296.141 284.833 297.312 284.061 298.245C283.289 299.178 282.218 299.816 281.03 300.05C280.036 300.183 279.03 300.21 278.03 300.13H111.16C110.039 300.216 108.912 300.176 107.8 300.01C106.645 299.736 105.618 299.079 104.884 298.145C104.151 297.212 103.756 296.058 103.763 294.871C103.77 293.684 104.179 292.535 104.923 291.61C105.667 290.686 106.702 290.041 107.86 289.78C108.97 289.623 110.093 289.586 111.21 289.67H194.28Z" fill="black"/>
<path d="M75.1202 290.59C72.4636 290.603 69.8306 290.092 67.3716 289.087C64.9126 288.082 62.676 286.601 60.7896 284.731C58.9032 282.86 57.4042 280.636 56.3782 278.186C55.3522 275.735 54.8193 273.107 54.8102 270.45C54.7564 267.739 55.2446 265.045 56.2463 262.525C57.2479 260.005 58.7428 257.711 60.6431 255.777C62.5434 253.843 64.811 252.308 67.3126 251.262C69.8143 250.216 72.4997 249.68 75.2112 249.686C77.9227 249.692 80.6056 250.24 83.1026 251.297C85.5996 252.354 87.8604 253.899 89.7521 255.841C91.6439 257.784 93.1286 260.085 94.1191 262.609C95.1096 265.133 95.5859 267.829 95.5202 270.54C95.4595 275.899 93.2796 281.017 89.457 284.774C85.6344 288.531 80.4799 290.622 75.1202 290.59ZM75.0002 280C76.2725 280.038 77.5394 279.818 78.7246 279.354C79.9098 278.889 80.9888 278.19 81.8968 277.298C82.8048 276.406 83.523 275.339 84.0082 274.162C84.4934 272.986 84.7356 271.723 84.7202 270.45C84.7118 268.58 84.1523 266.754 83.1115 265.2C82.0708 263.646 80.595 262.434 78.8688 261.714C77.1425 260.995 75.2425 260.8 73.4063 261.155C71.5701 261.51 69.8793 262.398 68.5452 263.709C67.2112 265.019 66.2933 266.694 65.9062 268.524C65.5191 270.354 65.6801 272.257 66.369 273.995C67.0578 275.734 68.2441 277.231 69.7793 278.299C71.3145 279.367 73.1305 279.959 75.0002 280Z" fill="black"/>
<path d="M309.49 290.59C306.835 290.589 304.207 290.062 301.756 289.04C299.306 288.019 297.082 286.522 295.213 284.637C293.343 282.752 291.866 280.515 290.864 278.056C289.863 275.597 289.359 272.965 289.38 270.31C289.368 266.275 290.557 262.327 292.795 258.97C295.033 255.612 298.22 252.996 301.949 251.454C305.678 249.913 309.781 249.515 313.737 250.312C317.692 251.109 321.322 253.064 324.163 255.929C327.004 258.795 328.929 262.44 329.693 266.402C330.456 270.365 330.024 274.465 328.451 278.18C326.878 281.896 324.235 285.06 320.859 287.27C317.482 289.48 313.525 290.635 309.49 290.59ZM300.15 270.18C300.112 272.066 300.637 273.921 301.656 275.509C302.676 277.096 304.145 278.345 305.876 279.095C307.607 279.846 309.522 280.064 311.378 279.723C313.233 279.382 314.946 278.496 316.297 277.179C317.648 275.862 318.576 274.173 318.965 272.327C319.353 270.48 319.183 268.56 318.477 266.81C317.771 265.061 316.56 263.561 314.999 262.501C313.438 261.441 311.597 260.87 309.71 260.86C308.469 260.84 307.237 261.066 306.084 261.524C304.931 261.983 303.879 262.664 302.991 263.531C302.102 264.397 301.394 265.43 300.906 266.572C300.419 267.713 300.162 268.939 300.15 270.18Z" fill="black"/>
</svg>
