<svg width="384" height="384" viewBox="0 0 384 384" fill="none" xmlns="http://www.w3.org/2000/svg">
<path d="M286.68 326.43H96.5098C96.5098 333.3 96.8298 340.12 96.3698 346.9C96.1598 349.9 95.1398 353.58 93.1398 355.63C90.6887 357.993 87.5238 359.477 84.1398 359.85C76.8198 360.46 69.4298 360.09 62.0698 360.03C54.7098 359.97 49.4598 354.68 49.4198 347.23C49.4198 340.37 49.4198 333.51 49.4198 326.47C48.2798 326.08 47.2198 325.77 46.2098 325.36C38.3998 322.24 33.9998 316.5 32.9998 308.24C30.5498 288.84 28.3598 269.41 25.6198 250.05C23.9398 238.16 24.2398 226.92 32.2198 217.05C33.5198 215.45 34.9498 213.95 36.9098 211.75C31.0898 211.75 26.0398 211.75 20.9798 211.75C15.6498 211.75 13.9798 209.99 14.2498 204.82C15.1798 187.82 25.1198 178.29 42.0998 178.16C49.7098 178.09 57.3298 178.26 64.9298 178.04C65.7133 177.958 66.4703 177.71 67.1499 177.311C67.8295 176.913 68.4159 176.374 68.8698 175.73C73.1698 168.44 77.2498 161.02 81.3098 153.58C85.9098 145.18 91.3998 137.58 99.3098 131.9C105.581 127.304 113.165 124.85 120.94 124.9C167.23 124.98 213.52 125.25 259.81 124.77C274.87 124.61 286.4 130.31 294.62 142.13C301.62 152.22 307.5 163.13 313.44 173.92C315.29 177.27 317.22 178.34 320.92 178.28C329.52 178.15 338.18 177.97 346.7 178.88C359.07 180.21 365.94 187.32 368.24 199.68C370.15 209.94 369.54 212.68 357.93 212.08C354.23 211.9 350.51 212.08 346.09 212.08C348.09 214.39 349.82 216.08 351.32 217.99C358.77 227.27 359.4 237.85 357.75 249.15C354.82 269.15 352.35 289.15 349.69 309.15C348.62 317.22 344.12 322.65 336.6 325.37C334.35 326.18 333.8 327.18 333.85 329.37C333.96 335.37 333.92 341.37 333.85 347.37C333.79 354.8 328.55 360.09 321.15 360.14C313.916 360.2 306.68 360.2 299.44 360.14C297.754 360.174 296.078 359.866 294.514 359.235C292.95 358.604 291.53 357.662 290.34 356.466C289.151 355.271 288.216 353.847 287.592 352.28C286.967 350.713 286.668 349.036 286.71 347.35C286.64 340.41 286.68 333.58 286.68 326.43ZM191.61 315.88H326.34C327.46 315.88 328.59 315.88 329.71 315.88C335.28 315.56 338.47 312.28 339.17 306.75C341.45 288.84 343.9 270.95 346.17 253.05C346.87 247.63 348.26 242.05 347.71 236.76C346.36 223.62 337.46 216.31 324.11 216.31H57.6798C45.9298 216.31 37.5598 222.62 36.0198 234.18C35.1698 240.56 36.2698 247.27 37.0198 253.77C38.9698 270.72 41.3498 287.61 43.2998 304.56C44.2998 313.09 47.0498 315.9 55.7598 315.9L191.61 315.88ZM293.56 205.57H318.47C318.301 205.013 318.094 204.468 317.85 203.94C310 189.5 302.24 175 294.25 160.67C291.804 156.331 289.064 152.165 286.05 148.2C279.52 139.49 271.05 135.2 259.76 135.28C214.25 135.61 168.76 135.5 123.21 135.35C113.39 135.35 105.48 138.92 99.2598 146.22C96.2814 149.733 93.6273 153.508 91.3298 157.5C82.8398 172.29 74.5698 187.21 66.2298 202.09C65.6098 203.2 65.0298 204.33 64.2898 205.7H222.87C227.32 186.7 238.61 175.23 258.67 174.95C275.9 174.71 286.05 184.1 293.56 205.57ZM282.12 205.69C280.34 193.38 268.72 184.69 255.81 185.57C245.36 186.3 234.7 196.33 234.54 205.69H282.12ZM59.8398 326.54C59.8398 333.38 59.7098 339.97 59.9698 346.54C60.1662 347.226 60.5348 347.851 61.0406 348.355C61.5464 348.859 62.1726 349.226 62.8598 349.42C69.5798 349.68 76.3298 349.68 83.0498 349.42C84.0498 349.42 85.8598 347.52 85.8998 346.42C86.1698 339.85 86.0298 333.27 86.0298 326.51L59.8398 326.54ZM297.18 326.54C297.18 333.41 297.06 340.11 297.31 346.81C297.31 347.76 299.1 349.41 300.11 349.45C306.96 349.68 313.83 349.66 320.68 349.45C321.279 349.287 321.827 348.973 322.272 348.539C322.716 348.105 323.042 347.565 323.22 346.97C323.43 340.17 323.33 333.36 323.33 326.55L297.18 326.54ZM357.23 201.38C356.51 194.69 353.58 190.49 347.12 189.83C338.92 188.99 330.58 189.63 322.05 189.63C323.92 193.06 325.71 196.58 327.75 199.95C328.069 200.356 328.472 200.688 328.931 200.924C329.39 201.161 329.894 201.296 330.41 201.32C339.25 201.41 348.08 201.37 357.23 201.37V201.38ZM25.9998 201.34C35.0998 201.34 44.1798 201.34 53.2498 201.28C53.6543 201.226 54.0424 201.086 54.3877 200.869C54.7329 200.651 55.027 200.362 55.2498 200.02C57.2498 196.64 59.1398 193.17 61.2498 189.44C52.7298 189.44 44.6398 188.91 36.6698 189.6C30.0498 190.18 26.5798 194.69 25.9998 201.34Z" fill="black"/>
<path d="M303.78 70.5499C306.41 74.4799 308.88 78.3799 311.6 82.0799C312.453 83.0362 313.65 83.6152 314.93 83.6899C320.54 83.8499 326.15 83.7499 331.77 83.7599C338.68 83.7599 340.99 87.6799 337.42 93.7099C328.17 109.36 314.28 117.76 296.2 117.77C278.12 117.78 264.2 109.42 255.02 93.7699C253.66 91.4599 252.41 90.4499 249.61 90.4599C210.943 90.5732 172.276 90.5732 133.61 90.4599C130.83 90.4599 129.53 91.4599 128.2 93.7599C110.49 125.13 65.5698 125.96 46.7298 95.3299C46.0538 94.2556 45.4395 93.1439 44.8898 91.9999C42.8298 87.5999 45.0898 83.8299 49.8898 83.7499C55.6198 83.6699 61.3698 83.8799 67.0998 83.6499C68.7035 83.4961 70.1914 82.7468 71.2698 81.5499C73.7383 78.5664 75.9875 75.4082 77.9998 72.0999C78.5898 71.0999 78.1698 69.5699 78.1998 68.2799C78.1998 68.1799 78.0698 68.0699 77.9998 67.9699C75.4698 64.2999 73.6698 59.3299 70.1698 57.3399C66.9598 55.4999 61.9198 56.8399 57.6798 56.7999C55.0598 56.7999 52.4398 56.8499 49.8198 56.7999C45.0098 56.6699 42.7598 53.1499 44.9998 48.8999C52.2298 35.0999 63.5898 26.4499 78.9398 23.9999C99.9998 20.6599 118.23 29.9999 128.88 48.5199C129.287 49.1285 129.824 49.6402 130.451 50.0186C131.078 50.3971 131.781 50.6331 132.51 50.7099C171.94 50.8299 211.36 50.7699 250.78 50.8799C253.3 50.8799 253.86 49.4499 254.78 47.8099C272.47 16.1399 317.6 14.9199 336.5 45.5799C337.161 46.6366 337.766 47.7282 338.31 48.8499C340.31 53.1599 338.21 56.6999 333.45 56.7599C327.59 56.8499 321.72 56.6599 315.87 56.8799C314.371 57.0168 312.986 57.7346 312.01 58.8799C309.12 62.6199 306.53 66.5899 303.78 70.5499ZM59.4098 46.3199C64.2298 46.3199 68.2898 46.4299 72.3498 46.3199C73.5921 46.2252 74.8357 46.4874 75.934 47.0755C77.0324 47.6637 77.9399 48.5534 78.5498 49.6399C82.1831 55.2665 85.9098 60.8565 89.7298 66.4099C90.6442 67.526 91.1364 68.9285 91.12 70.3712C91.1035 71.814 90.5795 73.2049 89.6398 74.2999C85.6398 79.8599 81.6398 85.4599 77.8198 91.1299C77.1695 92.1911 76.2341 93.0482 75.1201 93.6034C74.0062 94.1586 72.7586 94.3895 71.5198 94.2699C67.7298 94.1299 63.9398 94.2699 60.1498 94.2699L59.1998 95.8199C60.4163 96.4275 61.5773 97.1402 62.6698 97.9499C81.6698 114.46 110.33 108.22 120.54 85.1799C122.18 81.4799 124.33 79.9699 128.46 79.9799C170.26 80.1065 212.053 80.1065 253.84 79.9799C258.49 79.9799 260.95 81.3799 262.92 85.7299C273.19 108.42 302.64 114.22 320.99 97.3699C321.83 96.5999 322.53 95.6899 323.79 94.2899C318.85 94.2899 314.79 94.1899 310.67 94.2899C309.429 94.3842 308.188 94.1194 307.094 93.5271C306 92.9349 305.099 92.0401 304.5 90.9499C300.913 85.3965 297.246 79.9065 293.5 74.4799C291.6 71.7499 291.63 69.3099 293.58 66.6099C297.58 61.0499 301.52 55.4299 305.34 49.7399C306.04 48.5637 307.064 47.6139 308.289 47.0039C309.514 46.3939 310.889 46.1495 312.25 46.2999C315.87 46.4899 319.51 46.2999 323.77 46.2999C322.64 45.0699 322.17 44.4799 321.63 43.9699C317.353 39.8849 312.151 36.8952 306.468 35.2557C300.785 33.6162 294.79 33.3756 288.994 34.5544C283.199 35.7332 277.774 38.2965 273.183 42.0255C268.592 45.7545 264.972 50.5387 262.63 55.9699C261.03 59.5899 258.97 61.3099 254.76 61.2999C212.473 61.1732 170.18 61.1732 127.88 61.2999C124.4 61.2999 122.41 59.9599 121 56.8099C113.42 39.8099 98.4498 31.5499 80.2298 34.3299C72.1598 35.5999 65.3298 39.3799 59.4098 46.3199Z" fill="black"/>
<path d="M191.45 276.93H124.11C117.92 276.93 115.84 274.03 117.75 268.1C118.93 264.433 120.13 260.766 121.35 257.1C123.026 251.706 126.408 247.001 130.986 243.692C135.564 240.383 141.092 238.649 146.74 238.75H236.53C241.919 238.741 247.18 240.391 251.598 243.478C256.015 246.564 259.375 250.936 261.22 256C262.75 260.21 264.22 264.44 265.6 268.69C267.28 273.83 265 276.9 259.54 276.91L191.45 276.93ZM253.05 266.33C250.99 254.46 244.93 249.23 233.52 249.23H149.32C137.91 249.23 131.67 254.74 130.07 266.33H253.05Z" fill="black"/>
<path d="M193.76 294.9H110.7C109.58 294.972 108.456 294.948 107.34 294.83C106.11 294.624 104.993 293.985 104.192 293.03C103.39 292.074 102.956 290.864 102.967 289.616C102.977 288.369 103.433 287.167 104.251 286.225C105.069 285.284 106.196 284.665 107.43 284.48C108.051 284.413 108.676 284.396 109.3 284.43H278C278.499 284.405 279 284.405 279.5 284.43C282.5 284.75 284.25 286.43 284.39 289.51C284.451 290.197 284.365 290.889 284.14 291.541C283.915 292.193 283.555 292.791 283.083 293.294C282.611 293.797 282.038 294.195 281.401 294.461C280.765 294.728 280.079 294.857 279.39 294.84C275.03 294.98 270.67 294.84 266.3 294.84L193.76 294.9Z" fill="black"/>
<path d="M309 285.9C305.004 285.896 301.1 284.708 297.778 282.487C294.457 280.265 291.869 277.109 290.339 273.418C288.81 269.726 288.409 265.664 289.187 261.745C289.964 257.826 291.886 254.225 294.708 251.396C297.531 248.568 301.128 246.64 305.046 245.854C308.964 245.069 313.027 245.462 316.721 246.984C320.416 248.506 323.577 251.088 325.805 254.405C328.033 257.722 329.228 261.624 329.24 265.62C329.186 270.975 327.037 276.095 323.254 279.886C319.471 283.676 314.355 285.835 309 285.9ZM318.33 266.09C318.379 264.21 317.869 262.357 316.865 260.766C315.861 259.176 314.407 257.919 312.689 257.154C310.97 256.389 309.063 256.152 307.21 256.471C305.356 256.79 303.638 257.652 302.274 258.947C300.91 260.243 299.961 261.914 299.547 263.748C299.133 265.583 299.272 267.5 299.947 269.256C300.622 271.011 301.802 272.528 303.339 273.612C304.876 274.697 306.7 275.302 308.58 275.35C311.09 275.385 313.513 274.436 315.331 272.704C317.148 270.973 318.214 268.598 318.3 266.09H318.33Z" fill="black"/>
<path d="M74.28 245.46C78.2783 245.472 82.1833 246.669 85.5014 248.9C88.8195 251.13 91.4018 254.295 92.9218 257.993C94.4418 261.691 94.8314 265.757 94.0412 269.676C93.251 273.595 91.3165 277.193 88.4823 280.013C85.6481 282.833 82.0414 284.75 78.1182 285.521C74.1949 286.291 70.1312 285.882 66.4406 284.343C62.7501 282.805 59.5985 280.207 57.3841 276.878C55.1698 273.549 53.9921 269.638 54 265.64C54.0291 260.28 56.1782 255.148 59.978 251.367C63.7779 247.586 68.9195 245.463 74.28 245.46ZM83.88 265.76C83.8634 263.896 83.2991 262.077 82.2573 260.531C81.2155 258.985 79.7421 257.779 78.0204 257.063C76.2987 256.347 74.4046 256.154 72.5737 256.506C70.7428 256.858 69.0558 257.741 67.7225 259.044C66.3893 260.348 65.4685 262.014 65.0748 263.837C64.6811 265.659 64.8319 267.557 65.5082 269.295C66.1846 271.032 67.3568 272.532 68.8791 273.609C70.4013 274.686 72.2065 275.291 74.07 275.35C75.3467 275.375 76.6157 275.146 77.8029 274.676C78.9901 274.205 80.0718 273.504 80.9849 272.611C81.898 271.718 82.6243 270.653 83.1213 269.477C83.6184 268.3 83.8763 267.037 83.88 265.76Z" fill="black"/>
</svg>
