<svg width="384" height="384" viewBox="0 0 384 384" fill="none" xmlns="http://www.w3.org/2000/svg">
<path d="M85.3298 257.77C85.3298 264.24 85.3298 270.34 85.3298 276.45C85.3298 283.99 80.5498 288.86 73.0198 288.95C66.4098 289.02 59.7998 288.95 53.1898 288.95C45.6498 288.95 40.8098 284.23 40.5798 276.69C40.4798 273.57 40.5198 270.45 40.5198 267.34C40.5198 264.23 40.5198 261.12 40.5198 257.89C29.6598 255 25.6598 247.44 24.5698 236.93C22.7598 219.61 20.5098 202.3 17.6398 185.13C15.4898 172.32 17.6398 161.21 27.3898 151.2C22.2898 151.2 17.8898 151.2 13.4898 151.2C8.42981 151.2 6.56981 149.2 6.76981 144.09C7.40981 128.09 16.5298 118.99 32.4898 118.52C39.7198 118.3 46.9598 118.52 54.1898 118.26C54.9208 118.188 55.6278 117.96 56.2628 117.591C56.8977 117.221 57.4458 116.72 57.8698 116.12C61.7598 109.46 65.4198 102.66 69.0898 95.8701C74.8898 85.1401 81.9598 75.5501 93.7398 70.8701C97.7763 69.2511 102.072 68.3737 106.42 68.2801C149.7 67.8401 193 68.0001 236.24 67.2001C251.55 66.9301 262.87 72.9301 271.1 85.0001C277.33 94.1301 282.62 103.91 288.1 113.54C289.46 115.93 290.87 116.81 293.6 116.74C301.45 116.56 309.34 116.22 317.15 116.81C334.37 118.11 339.59 130.1 339.88 143.81C339.88 145.14 338.88 146.49 338.15 148.18C347.05 152.56 356.29 157.08 365.49 161.65C378.62 168.17 376.41 165.31 376.49 179.39C376.61 197.98 376.79 216.57 376.49 235.15C376.1 255.92 367.15 272.72 350.49 284.9C335.91 295.55 320.67 305.28 305.81 315.56C302.42 317.91 299.66 317.75 296.32 315.43C282.51 305.84 268.66 296.28 254.62 287C244.336 280.274 236.244 270.687 231.34 259.42C230.46 257.42 229.46 256.62 227.2 256.64C180.68 256.993 134.16 257.297 87.6398 257.55C86.9998 257.56 86.3898 257.67 85.3298 257.77ZM251.51 154.23L251.35 153.55C250.41 153.55 249.48 153.55 248.54 153.55C181.84 154.01 115.14 154.68 48.4398 154.78C34.5398 154.78 26.0898 166.22 27.5898 177.78C30.2098 197.893 32.8965 217.993 35.6498 238.08C36.7398 245.99 39.1998 247.85 47.2698 247.78C96.2565 247.313 145.256 246.86 194.27 246.42C204.84 246.33 215.42 246.42 226.03 246.42C225.78 242.02 225.38 238.08 225.36 234.13C225.3 214.06 225.51 193.98 225.21 173.91C225.14 168.72 226.93 165.91 231.57 163.91C238.33 161 244.87 157.48 251.51 154.23ZM202.6 143.09C206.13 126.38 218.3 114.97 233.37 113.84C240.509 113.236 247.646 115.031 253.65 118.94C262.3 124.5 267.13 132.62 269.03 142.42C274.76 143.18 281.53 140.83 288.52 135.62C280.29 121.36 272.06 107.02 263.7 92.7601C262.328 90.6705 260.754 88.7211 259 86.9401C256.422 83.8811 253.169 81.4624 249.497 79.8746C245.825 78.2868 241.834 77.5732 237.84 77.7901C224.62 78.1801 211.4 78.2101 198.18 78.3001C168.106 78.5201 138.043 78.6935 107.99 78.8201C99.9898 78.8201 93.2698 81.5301 88.0698 87.4401C84.757 91.1357 81.8255 95.1561 79.3198 99.4401C71.6298 113 64.2398 126.7 56.7298 140.33C56.0898 141.49 55.5098 142.69 54.6698 144.33L202.6 143.09ZM235.79 206.79C235.79 216.27 235.43 225.79 235.87 235.22C236.64 251.96 243.72 265.87 257.19 275.79C270.66 285.71 284.74 294.62 298.5 304.06C300.41 305.37 301.74 305.44 303.73 304.06C316.93 294.91 330.39 286.11 343.48 276.8C358 266.45 365.56 252 366 234.2C366.41 215.26 366 196.3 366.14 177.35C366.14 174.82 365.51 173.4 363.14 172.24C343.31 162.67 323.59 152.89 303.75 143.35C302.011 142.631 300.058 142.631 298.32 143.35C278.32 152.91 258.5 162.7 238.56 172.35C236.44 173.35 235.79 174.62 235.82 176.92C235.86 186.84 235.79 196.82 235.79 206.79ZM257.79 142.79C256.09 132.08 245.2 123.45 235.16 124.37C224.04 125.37 213.87 134.37 214.24 142.79H257.79ZM51.4398 258C51.4398 264.41 51.3698 270.47 51.5398 276.53C51.5398 277.19 52.8698 278.35 53.6098 278.37C59.8398 278.52 66.0698 278.55 72.2898 278.37C72.8586 278.229 73.3818 277.945 73.809 277.544C74.2363 277.143 74.5534 276.639 74.7298 276.08C74.9398 270.15 74.8398 264.2 74.8398 258.02L51.4398 258ZM18.6198 140C26.9898 140 35.0598 140 43.1298 140C43.534 139.994 43.9322 139.902 44.2978 139.729C44.6634 139.557 44.988 139.308 45.2498 139C47.0598 136 48.6898 132.82 50.4898 129.51C43.1098 129.51 36.2698 129.23 29.4898 129.6C23.0598 129.9 19.2298 133.84 18.6198 140ZM328.13 137.7C327.85 132.35 324.85 128.79 320.13 128.17C312.29 127.17 304.3 127.23 295.58 126.82L297.98 131.15C303.47 129.57 307.46 132.97 311.51 135.28C316.89 138.36 322.33 138.26 328.13 137.73V137.7Z" fill="black"/>
<path d="M83.1399 200.7C83.1696 203.256 82.6871 205.791 81.7209 208.158C80.7547 210.524 79.3244 212.673 77.5143 214.477C75.7042 216.281 73.5511 217.705 71.1819 218.664C68.8128 219.623 66.2755 220.098 63.7199 220.06C58.5576 219.973 53.6397 217.846 50.0417 214.143C46.4437 210.44 44.4584 205.463 44.5199 200.3C44.573 195.179 46.6583 190.288 50.3171 186.704C53.976 183.121 58.9086 181.137 64.0299 181.19C69.1513 181.243 74.0418 183.328 77.6256 186.987C81.2094 190.646 83.193 195.579 83.1399 200.7ZM72.6899 200.7C72.6466 198.989 72.0991 197.329 71.116 195.928C70.133 194.528 68.7582 193.448 67.1641 192.826C65.57 192.203 63.8276 192.065 62.1554 192.429C60.4831 192.793 58.9555 193.642 57.7642 194.871C56.5728 196.099 55.7708 197.652 55.4586 199.335C55.1464 201.017 55.3379 202.755 56.0093 204.329C56.6806 205.903 57.8018 207.244 59.2322 208.184C60.6626 209.123 62.3386 209.619 64.0499 209.61C66.378 209.55 68.5889 208.576 70.2054 206.9C71.822 205.224 72.7144 202.979 72.6899 200.65V200.7Z" fill="black"/>
<path d="M173.27 235.78H135.51C131.42 235.78 128.95 233.93 128.88 230.87C128.81 227.81 131.28 225.64 135.32 225.62C161.36 225.48 187.4 225.383 213.44 225.33C216.81 225.33 219.18 227.56 219.12 230.43C219.06 233.3 216.72 235.49 212.9 235.54C203.3 235.68 193.71 235.67 184.11 235.71H173.27V235.78Z" fill="black"/>
<path d="M119.18 195C119.18 197.23 119.3 199.47 119.18 201.69C119.199 202.955 118.716 204.176 117.837 205.087C116.958 205.998 115.755 206.524 114.49 206.55C111.4 206.83 109.15 205.07 108.9 202.26C108.461 197.197 108.428 192.108 108.8 187.04C108.98 184.38 111.06 182.6 113.97 182.7C114.627 182.667 115.284 182.769 115.9 182.999C116.517 183.229 117.08 183.582 117.556 184.037C118.031 184.491 118.409 185.038 118.666 185.644C118.923 186.25 119.053 186.902 119.05 187.56C119.24 190.02 119.05 192.56 119.05 195H119.18Z" fill="black"/>
<path d="M132.54 194.42C132.54 192.18 132.42 189.93 132.54 187.7C132.558 187.016 132.712 186.343 132.993 185.719C133.275 185.096 133.678 184.535 134.179 184.069C134.68 183.604 135.269 183.243 135.911 183.008C136.554 182.772 137.237 182.668 137.92 182.7C140.92 182.88 142.81 184.6 142.92 187.63C143.13 192.1 143.18 196.63 143.08 201.06C143 204.13 140.39 206.72 137.63 206.55C134.37 206.35 132.8 204.21 132.54 201.15C132.36 198.93 132.54 196.68 132.54 194.44V194.42Z" fill="black"/>
<path d="M167.08 194.31C167.08 196.55 167.21 198.8 167.08 201.04C166.86 204.12 165.08 205.77 161.95 205.82C158.82 205.87 156.87 204.01 156.67 201.12C156.345 196.516 156.345 191.894 156.67 187.29C156.86 184.36 158.9 182.59 162.01 182.68C165.12 182.77 166.84 184.5 167.01 187.58C167.14 189.81 167.01 192.06 167.01 194.31H167.08Z" fill="black"/>
<path d="M191 194.3C191 196.54 191.14 198.8 191 201.03C190.76 204.09 188.94 205.77 185.85 205.82C185.188 205.884 184.52 205.809 183.888 205.601C183.256 205.393 182.675 205.056 182.18 204.611C181.686 204.167 181.289 203.624 181.015 203.018C180.741 202.412 180.597 201.755 180.59 201.09C180.258 196.487 180.242 191.866 180.54 187.26C180.74 184.32 182.77 182.57 185.89 182.67C189.01 182.77 190.73 184.49 190.89 187.56C191.02 189.8 190.89 192.05 190.89 194.3H191Z" fill="black"/>
<path d="M204.39 194C204.39 191.88 204.29 189.76 204.39 187.64C204.388 186.952 204.529 186.271 204.802 185.64C205.076 185.008 205.476 184.44 205.98 183.971C206.483 183.501 207.077 183.141 207.726 182.912C208.375 182.683 209.064 182.59 209.75 182.64C212.84 182.74 214.7 184.36 214.83 187.46C215.01 191.82 215.07 196.2 214.96 200.56C214.88 203.74 213.12 205.66 209.82 205.8C206.82 205.92 204.67 203.71 204.39 200.36C204.39 200.11 204.39 199.86 204.39 199.61V194Z" fill="black"/>
<path d="M249 224C249.003 210.266 254.448 197.094 264.145 187.367C273.841 177.641 286.996 172.155 300.73 172.11C329.73 172.11 353.1 195.11 353.21 223.7C353.33 252.48 330.11 276.1 301.58 276.22C294.684 276.297 287.842 275.001 281.451 272.409C275.061 269.816 269.25 265.978 264.356 261.119C259.463 256.259 255.586 250.475 252.949 244.102C250.313 237.729 248.97 230.896 249 224ZM259.66 224.1C259.646 235.06 263.967 245.581 271.679 253.368C279.392 261.155 289.87 265.577 300.83 265.67C323.61 265.84 342.42 247.12 342.53 224.17C342.64 201.67 324.01 182.76 301.66 182.67C296.179 182.602 290.739 183.623 285.655 185.672C280.571 187.721 275.944 190.758 272.041 194.607C268.139 198.457 265.039 203.042 262.921 208.097C260.802 213.153 259.708 218.578 259.7 224.06L259.66 224.1Z" fill="black"/>
<path d="M294.67 229.66L313.48 212.45C315.32 210.76 317.13 209.04 319.03 207.45C321.66 205.21 324.65 205.2 326.72 207.31C328.99 209.63 328.93 212.69 326.22 215.23C319.49 221.54 312.64 227.72 305.83 233.96C303.35 236.23 300.92 238.57 298.37 240.76C295.37 243.35 292.87 243.3 290.16 240.46C285.246 235.306 280.42 230.086 275.68 224.8C273.23 222.05 273.43 218.98 275.86 216.88C278.29 214.78 281.04 215.09 283.5 217.65C287.21 221.5 290.8 225.48 294.67 229.66Z" fill="black"/>
</svg>
