<svg width="148" height="103" viewBox="0 0 148 103" fill="none" xmlns="http://www.w3.org/2000/svg">
<path d="M11.8184 47.3966C11.8184 47.3966 9.87947 45.4354 9.32506 57.2977C8.79822 68.494 8.0294 84.6377 10.7157 91.5617C11.0011 92.3129 11.5239 92.95 12.2043 93.3756C12.9157 93.8105 13.7075 94.0966 14.5322 94.2166C16.8662 94.5818 26.1013 94.3762 26.1013 94.3762C26.1013 94.3762 31.3452 94.3762 31.4248 90.0548C31.4891 86.4946 31.4248 78.7572 31.4248 78.7572L11.8184 47.3966Z" fill="#263238"/>
<g opacity="0.3">
<path opacity="0.3" d="M11.8179 47.3966C11.8179 47.3966 9.87898 45.4354 9.32457 57.2977C8.79773 68.494 8.02891 84.6377 10.7152 91.5618C11.0006 92.3129 11.5234 92.95 12.2038 93.3756C12.9152 93.8105 13.7071 94.0966 14.5317 94.2166C16.8658 94.5818 26.1008 94.3762 26.1008 94.3762C26.1008 94.3762 31.3447 94.3762 31.4243 90.0548C31.4886 86.4946 31.4243 78.7572 31.4243 78.7572L11.8179 47.3966Z" fill="black"/>
</g>
<path d="M118.498 47.3966C118.498 47.3966 116.559 45.4354 116.005 57.2977C115.481 68.494 114.712 84.6377 117.396 91.5617C117.682 92.3123 118.205 92.9489 118.884 93.3756C119.596 93.8105 120.387 94.0966 121.212 94.2166C123.549 94.5818 132.784 94.3762 132.784 94.3762C132.784 94.3762 138.025 94.3762 138.105 90.0548C138.169 86.4946 138.105 78.7572 138.105 78.7572L118.498 47.3966Z" fill="#263238"/>
<g opacity="0.3">
<path opacity="0.3" d="M118.498 47.3966C118.498 47.3966 116.559 45.4354 116.004 57.2977C115.481 68.494 114.712 84.6377 117.395 91.5618C117.682 92.3123 118.204 92.9489 118.884 93.3756C119.595 93.8105 120.387 94.0966 121.212 94.2166C123.549 94.5818 132.784 94.3762 132.784 94.3762C132.784 94.3762 138.025 94.3762 138.104 90.0548C138.169 86.4946 138.104 78.7572 138.104 78.7572L118.498 47.3966Z" fill="black"/>
</g>
<path d="M147.028 26.8793C147.028 26.8793 146.44 28.8834 145.23 29.0921C144.02 29.3008 134.485 29.5955 134.485 29.5955L133.566 31.5168H131.771L130.466 23.8132L131.578 24.0434C131.765 24.0817 131.94 24.1647 132.088 24.2855C132.237 24.4063 132.354 24.5612 132.429 24.737C132.512 24.9313 132.645 25.0999 132.815 25.2256C132.985 25.3512 133.184 25.4294 133.394 25.4521L147.028 26.8793Z" fill="#263238"/>
<path d="M146.62 27.177C146.788 27.1649 146.952 27.1181 147.101 27.0397C147.25 26.9613 147.382 26.8528 147.487 26.7212C147.593 26.5896 147.67 26.4376 147.714 26.2746C147.759 26.1117 147.769 25.9414 147.744 25.7744C147.438 23.5738 146.28 19.2954 142.041 18.6632C139.422 18.2338 136.757 18.1656 134.12 18.4606C133.461 18.5435 133.134 19.145 133.054 19.8049C132.693 22.8311 132.987 26.5846 133.857 27.045C134.726 27.5054 143.523 27.4225 146.62 27.177Z" fill="#F3123C"/>
<path d="M140.935 18.6816C141.026 18.7745 141.108 18.8774 141.177 18.9885C141.327 19.188 141.529 19.4888 141.768 19.8663C143.007 21.8405 143.937 23.9935 144.524 26.2501C144.635 26.6829 144.714 27.0358 144.76 27.2813C144.792 27.407 144.81 27.5356 144.815 27.665C144.762 27.5463 144.723 27.4216 144.699 27.2936C144.635 27.0542 144.54 26.7074 144.417 26.2808C144.092 25.1696 143.7 24.0791 143.244 23.0152C142.784 21.9537 142.259 20.9216 141.673 19.9246C141.449 19.5409 141.262 19.234 141.128 19.0222C141.054 18.9143 140.989 18.8004 140.935 18.6816Z" fill="#263238"/>
<path d="M144.883 55.4347C144.883 55.4347 146.819 53.4735 147.376 65.3358C147.9 76.5321 148.669 92.6759 145.983 99.5999C145.697 100.351 145.175 100.988 144.494 101.414C143.784 101.849 142.993 102.136 142.169 102.258C139.832 102.62 130.597 102.414 130.597 102.414C130.597 102.414 125.356 102.414 125.277 98.0929C125.212 94.5327 125.277 86.7984 125.277 86.7984L144.883 55.4347Z" fill="#263238"/>
<path d="M144.884 55.4347L144.795 55.5882C144.73 55.6925 144.638 55.8398 144.522 56.0363C144.277 56.4291 143.909 57.0092 143.456 57.7611C142.519 59.2712 141.153 61.4718 139.428 64.2432C135.97 69.7922 131.078 77.6339 125.338 86.8353V86.7984C125.338 90.1745 125.338 93.701 125.338 97.3625C125.32 97.8185 125.338 98.2752 125.393 98.7282C125.46 99.1792 125.606 99.6146 125.825 100.014C126.299 100.812 127.026 101.428 127.89 101.764C129.62 102.537 131.596 102.31 133.517 102.377C135.544 102.396 137.551 102.402 139.523 102.347C140.5 102.341 141.476 102.265 142.442 102.12C142.912 102.027 143.37 101.88 143.805 101.681C144.24 101.494 144.641 101.236 144.991 100.917C145.331 100.596 145.606 100.212 145.802 99.7871C145.895 99.572 145.975 99.3516 146.041 99.1272L146.262 98.4582C146.339 98.2371 146.402 98.0116 146.452 97.7829L146.617 97.1047C146.737 96.6566 146.813 96.1993 146.893 95.7481C147.077 94.8458 147.175 93.9373 147.294 93.0442C147.349 92.5991 147.383 92.151 147.429 91.7091C147.475 91.2671 147.518 90.8252 147.539 90.3863C147.787 86.8721 147.821 83.5236 147.8 80.39C147.778 77.2564 147.683 74.3407 147.582 71.6767C147.481 69.0127 147.371 66.6065 147.276 64.4918C147.195 62.6846 147.022 60.8827 146.758 59.0932C146.519 57.6292 146.231 56.4874 145.818 55.8214C145.736 55.674 145.627 55.5437 145.496 55.4378C145.4 55.3606 145.279 55.3203 145.156 55.3242C145.056 55.3316 144.961 55.3703 144.884 55.4347C144.9 55.4151 144.92 55.3985 144.942 55.3856C145.005 55.3421 145.079 55.3156 145.156 55.3089C145.284 55.2995 145.41 55.3377 145.511 55.4163C145.651 55.5216 145.768 55.6529 145.858 55.803C146.283 56.4752 146.583 57.6169 146.832 59.0839C147.107 60.8748 147.289 62.6789 147.377 64.4887C147.487 66.6034 147.603 69.0096 147.714 71.6736C147.824 74.3377 147.919 77.2534 147.95 80.39C147.98 83.5267 147.95 86.8752 147.705 90.3955C147.683 90.8374 147.634 91.2763 147.594 91.7214C147.554 92.1664 147.518 92.6145 147.463 93.0626C147.343 93.9588 147.242 94.8672 147.061 95.7757C146.982 96.2299 146.905 96.6965 146.786 97.1415C146.731 97.3686 146.672 97.5957 146.617 97.8228C146.569 98.0539 146.506 98.2815 146.427 98.5042L146.207 99.1794C146.136 99.4085 146.055 99.6338 145.962 99.8546C145.758 100.298 145.471 100.698 145.116 101.033C144.754 101.364 144.34 101.633 143.891 101.828C143.444 102.031 142.976 102.182 142.494 102.279C141.52 102.427 140.536 102.504 139.551 102.509C137.572 102.565 135.569 102.559 133.535 102.54L130.653 102.497C129.69 102.477 128.74 102.277 127.85 101.908C126.952 101.561 126.197 100.921 125.706 100.091C125.478 99.6749 125.326 99.2219 125.256 98.7528C125.2 98.2926 125.18 97.8288 125.197 97.3655C125.197 93.704 125.197 90.1684 125.197 86.7954V86.7769V86.7585L139.339 64.191C141.079 61.4288 142.458 59.2374 143.401 57.7458C143.876 57 144.237 56.423 144.485 56.0332L144.767 55.5943C144.831 55.4838 144.884 55.4347 144.884 55.4347Z" fill="#455A64"/>
<path d="M3.11087 55.4347C3.11087 55.4347 1.17504 53.4735 0.614504 65.3358C0.0907261 76.5321 -0.678094 92.6759 2.00818 99.5999C2.29357 100.351 2.81637 100.988 3.49682 101.414C4.20716 101.849 4.99791 102.136 5.82166 102.258C8.15875 102.62 17.3938 102.414 17.3938 102.414C17.3938 102.414 22.6346 102.414 22.7143 98.0929C22.7786 94.5327 22.7143 86.7984 22.7143 86.7984L3.11087 55.4347Z" fill="#263238"/>
<path d="M146.666 45.2144L142.377 42.3877C141.4 37.9958 133.446 28.8834 133.446 28.8834C133.446 28.8834 125.175 8.86947 118.017 4.14911C110.859 -0.571252 75.9647 0.0241641 75.9647 0.0241641L74.1269 0.05179C74.1269 0.05179 37.1439 -0.562044 29.9978 4.14911C22.8518 8.86027 14.5694 28.8834 14.5694 28.8834C14.5694 28.8834 6.60547 37.9958 5.64062 42.3877L1.35238 45.2144C0.92348 45.4937 0.573785 45.8791 0.337139 46.3334C0.100494 46.7878 -0.0150893 47.2956 0.00157828 47.8079C0.264999 55.2199 1.68624 84.6377 4.1673 87.9494C6.54421 91.1106 29.0024 89.4348 35.1039 89.4256C43.8611 89.4256 71.1282 89.0543 71.1282 89.0543L111.202 88.953C115.747 88.465 140.745 91.5311 143.832 87.9494C146.528 84.8219 147.738 55.2199 147.998 47.8079C148.017 47.2974 147.904 46.7906 147.671 46.3364C147.437 45.8822 147.091 45.4958 146.666 45.2144Z" fill="#F3123C"/>
<path d="M116.09 5.49341C116.001 5.3382 115.875 5.2081 115.722 5.11525C115.569 5.0224 115.396 4.96983 115.217 4.96244L74.6412 3.21916H74.3196V3.24372L32.7757 4.96244C32.5973 4.96983 32.4237 5.0224 32.271 5.11525C32.1183 5.2081 31.9917 5.3382 31.9028 5.49341L21.3261 23.9912C21.2437 24.1335 21.1997 24.2948 21.1983 24.4593C21.1969 24.6238 21.2383 24.7859 21.3183 24.9295C21.3983 25.0731 21.5142 25.1935 21.6547 25.2786C21.7952 25.3638 21.9553 25.4109 22.1195 25.4153C23.2834 25.4491 25.0048 25.4675 27.0203 25.3846C30.2732 25.2496 56.1558 25.3109 69.817 25.357V25.3846L74.0102 25.3693L78.2035 25.3846V25.357C91.8647 25.3109 117.744 25.2496 120.997 25.3846C123.104 25.4705 124.899 25.4491 126.06 25.4122C126.206 25.4071 126.348 25.3644 126.473 25.2881C126.598 25.2118 126.701 25.1046 126.772 24.9768C126.843 24.8491 126.88 24.705 126.879 24.5587C126.879 24.4124 126.84 24.2687 126.768 24.1416L116.09 5.49341Z" fill="#455A64"/>
<path d="M0.95752 26.8793C0.95752 26.8793 1.54562 28.8834 2.75552 29.0921C3.96541 29.3008 13.4945 29.5955 13.4945 29.5955L14.4134 31.5168H16.2359L17.5408 23.8132L16.4289 24.0434C16.2417 24.0817 16.0665 24.1647 15.9182 24.2855C15.7699 24.4063 15.653 24.5612 15.5774 24.737C15.4943 24.9313 15.3612 25.0999 15.1916 25.2256C15.0221 25.3512 14.8222 25.4294 14.6125 25.4521L0.95752 26.8793Z" fill="#263238"/>
<path d="M25.2622 21.9042L122.85 21.6372L123.641 23.5799L76.4883 23.8899L24.3433 23.5492L25.2622 21.9042Z" fill="#F3123C"/>
<g opacity="0.5">
<path opacity="0.5" d="M25.2622 21.9042L122.572 21.6372L123.641 23.5799L76.4883 23.8899L24.3433 23.5492L25.2622 21.9042Z" fill="black"/>
</g>
<path d="M61.8319 22.3461C61.8319 21.2811 61.4215 18.2611 60.4321 17.457C59.6694 16.8431 57.8653 16.6529 56.9739 16.6007H56.8912C56.4195 16.6007 53.2646 16.6928 52.3212 17.46C51.3318 18.2642 50.9214 21.2842 50.9214 22.3492V22.383C50.9222 22.7015 51.0491 23.0067 51.2741 23.2317C51.4992 23.4567 51.8042 23.583 52.1221 23.583H60.6312C60.9491 23.583 61.2541 23.4567 61.4791 23.2317C61.7042 23.0067 61.8311 22.7015 61.8319 22.383V22.3461Z" fill="#263238"/>
<g opacity="0.3">
<path opacity="0.3" d="M61.8319 22.3461C61.8319 21.2811 61.4215 18.2611 60.4321 17.457C59.6694 16.8431 57.8653 16.6529 56.9739 16.6007H56.8912C56.4195 16.6007 53.2646 16.6928 52.3212 17.46C51.3318 18.2642 50.9214 21.2842 50.9214 22.3492V22.383C50.9222 22.7015 51.0491 23.0067 51.2741 23.2317C51.4992 23.4567 51.8042 23.583 52.1221 23.583H60.6312C60.9491 23.583 61.2541 23.4567 61.4791 23.2317C61.7042 23.0067 61.8311 22.7015 61.8319 22.383V22.3461Z" fill="black"/>
</g>
<path d="M57.5337 21.5604C57.5337 19.8141 56.8599 14.8758 55.2457 13.5592C53.9959 12.5402 51.0432 12.2394 49.5852 12.1535H49.4473C48.6724 12.1535 43.5112 12.3008 41.9644 13.5622C40.3471 14.8789 39.6732 19.8172 39.6763 21.5635V21.6157C39.6763 22.1375 39.8831 22.6378 40.2513 23.0068C40.6196 23.3757 41.119 23.583 41.6397 23.583H55.5703C56.0911 23.583 56.5905 23.3757 56.9587 23.0068C57.3269 22.6378 57.5337 22.1375 57.5337 21.6157V21.5604Z" fill="#263238"/>
<g opacity="0.3">
<path opacity="0.3" d="M40.4701 72.6251C40.4701 72.6251 9.22715 68.5093 7.95906 68.3559C6.02629 68.1226 4.99098 69.3748 4.99098 70.8695C4.99098 71.9192 4.85008 75.9305 4.76738 78.2109C4.74197 78.8713 4.89435 79.5263 5.20854 80.1074C5.52273 80.6884 5.98716 81.174 6.55313 81.5133C7.42156 82.0086 8.34739 82.3951 9.30985 82.6643C11.9379 83.4377 27.7738 84.1712 31.0574 84.3155C31.4415 84.3331 31.8173 84.1999 32.1049 83.9441C33.2873 82.9006 36.4514 80.0524 37.4468 78.6437C40.709 74.0215 40.4792 72.6251 40.4792 72.6251H40.4701ZM24.2544 81.1819L9.14751 78.7265L9.74174 70.4398L30.264 72.3059L24.2544 81.1819Z" fill="black"/>
</g>
<g opacity="0.3">
<path opacity="0.3" d="M5.46259 51.3435C5.46259 51.3435 3.93108 56.0516 13.7481 58.243C23.7029 60.462 38.4331 64.4826 38.4331 64.4826L30.5212 58.8323C30.5212 58.8323 7.76599 55.0265 7.19933 51.54C6.54997 47.5501 7.19933 43.066 7.19933 43.066L5.46259 51.3435Z" fill="black"/>
</g>
<path d="M43.8669 72.4839C43.8304 72.4815 43.7943 72.4742 43.7597 72.4624L43.4534 72.3887L42.2588 72.0818C41.2174 71.8271 39.7165 71.4526 37.8511 71.0414C34.1203 70.2004 28.9346 69.1784 23.1761 68.2392C20.2969 67.7697 17.5493 67.3369 15.0407 67.0116L11.4845 66.5236C10.4595 66.3459 9.4219 66.2505 8.38169 66.2381C7.52563 66.2194 6.68405 66.4613 5.96802 66.9318C5.43699 67.302 4.98504 67.7746 4.63866 68.3221C4.33971 68.7884 4.13761 69.3103 4.04443 69.8567C4.05122 69.7126 4.07277 69.5697 4.10876 69.4301C4.20462 69.0268 4.36605 68.6421 4.58659 68.2914C4.92872 67.7296 5.38094 67.243 5.91595 66.8612C6.64038 66.3753 7.49468 66.1207 8.36637 66.1307C9.41324 66.1332 10.4582 66.2214 11.4907 66.3947L15.0499 66.8704C17.5585 67.1773 20.3091 67.6162 23.1884 68.0981C28.9499 69.0403 34.1356 70.0807 37.8633 70.9493C39.7287 71.3759 41.2327 71.7688 42.2619 72.0388L43.4473 72.3703L43.7536 72.4593C43.7923 72.4622 43.8304 72.4705 43.8669 72.4839Z" fill="#263238"/>
<path d="M4.21328 60.3116C4.20495 60.2536 4.20495 60.1947 4.21328 60.1367C4.21328 60.0047 4.21328 59.8297 4.21328 59.6333C4.21328 59.1975 4.21328 58.5653 4.21328 57.7918C4.23166 56.2296 4.31436 54.072 4.51959 51.6965C4.72481 49.321 5.02499 47.1818 5.28228 45.641C5.41093 44.8707 5.52426 44.2507 5.61003 43.821L5.71417 43.33C5.72111 43.2717 5.73659 43.2149 5.76012 43.1612C5.76759 43.2192 5.76759 43.278 5.76012 43.3361C5.74174 43.465 5.71724 43.6307 5.68661 43.8333C5.61922 44.2845 5.52427 44.9044 5.41093 45.6595C5.18121 47.194 4.90553 49.3424 4.69418 51.7118C4.48283 54.0812 4.38788 56.2327 4.33581 57.7918C4.31436 58.556 4.29905 59.1822 4.2868 59.6333C4.2868 59.839 4.2868 60.0047 4.2868 60.1367C4.26932 60.1977 4.24465 60.2564 4.21328 60.3116Z" fill="#263238"/>
<path d="M11.0496 39.1099C11.0365 38.9844 11.0365 38.8579 11.0496 38.7324C11.0495 38.5846 11.0588 38.437 11.0772 38.2904C11.0986 38.1185 11.1078 37.9221 11.1476 37.7073C11.3327 36.5913 11.5999 35.4906 11.9471 34.4141C12.3422 33.1527 12.7679 32.0324 13.0896 31.2283C13.2519 30.8262 13.3959 30.504 13.4908 30.283C13.5319 30.1639 13.5897 30.0513 13.6624 29.9485C13.6353 30.0713 13.5974 30.1915 13.549 30.3076C13.4541 30.5654 13.3346 30.8876 13.1968 31.2682C12.8905 32.0815 12.4953 33.2048 12.1002 34.4632C11.7511 35.5309 11.4647 36.6182 11.2426 37.7196C11.0863 38.5697 11.0802 39.1099 11.0496 39.1099Z" fill="#263238"/>
<path d="M12.9064 41.2583C12.9064 41.2583 7.78193 39.3861 7.12644 43.3668C6.47095 47.3475 6.53834 51.3098 7.39905 52.7032C8.25976 54.0966 16.1716 55.9902 16.1716 55.9902L29.8541 59.0042C29.8541 59.0042 30.8404 59.2098 30.2462 58.0834C29.5815 56.8312 25.9579 48.8238 23.8628 46.8779C19.9973 43.2901 12.9064 41.2583 12.9064 41.2583Z" fill="#F5F5F5"/>
<g opacity="0.3">
<path opacity="0.3" d="M17.957 56.38C17.957 56.38 17.9785 46.9976 17.2923 45.9449C16.6062 44.8921 8.54126 41.1631 8.54126 41.1631C8.54126 41.1631 9.3254 40.4941 10.9365 40.801C13.1941 41.2384 15.3845 41.971 17.4516 42.9801C19.6784 44.1249 23.2407 45.7638 24.5701 47.6605C25.149 48.4831 26.362 50.4535 27.5137 52.5896C29.0146 55.3672 30.4358 58.3351 30.4358 58.5008C30.4358 58.8415 30.5154 59.1515 29.1861 58.8691C26.1047 58.2215 17.957 56.38 17.957 56.38Z" fill="black"/>
</g>
<path d="M22.4141 55.5329C24.2478 55.5329 25.7344 54.0434 25.7344 52.206C25.7344 50.3685 24.2478 48.879 22.4141 48.879C20.5803 48.879 19.0938 50.3685 19.0938 52.206C19.0938 54.0434 20.5803 55.5329 22.4141 55.5329Z" fill="#F5F5F5"/>
<path d="M25.7316 52.206C25.7024 51.9355 25.6574 51.667 25.5968 51.4018C25.4056 50.6845 24.9795 50.0522 24.3869 49.6064C23.9518 49.2792 23.442 49.0663 22.9038 48.987C22.3656 48.9076 21.8162 48.9644 21.3055 49.1521C20.7029 49.373 20.1795 49.7683 19.8015 50.2877C19.3935 50.8437 19.1734 51.5158 19.1734 52.206C19.1734 52.8961 19.3935 53.5682 19.8015 54.1242C20.1818 54.6413 20.7045 55.036 21.3055 55.2598C21.852 55.4603 22.442 55.5112 23.0147 55.4071C23.5139 55.3136 23.9841 55.1033 24.3869 54.7933C24.9795 54.3475 25.4056 53.7152 25.5968 52.9978C25.6574 52.7326 25.7024 52.4641 25.7316 52.1937C25.7502 52.469 25.7254 52.7455 25.658 53.0131C25.508 53.6401 25.181 54.2106 24.716 54.6564C24.2511 55.1021 23.6679 55.4043 23.0361 55.5268C22.441 55.6409 21.8262 55.5921 21.2565 55.3856C20.9475 55.2777 20.6572 55.1224 20.3958 54.9252C20.1191 54.7258 19.8761 54.4834 19.6759 54.207C19.2443 53.6249 19.0112 52.9189 19.0112 52.1937C19.0112 51.4684 19.2443 50.7625 19.6759 50.1803C20.0757 49.6403 20.6254 49.2304 21.2565 49.0018C21.8262 48.7952 22.441 48.7464 23.0361 48.8606C23.5529 48.9605 24.0388 49.1813 24.4543 49.5051C25.0592 49.9699 25.4846 50.6304 25.658 51.3742C25.7266 51.6458 25.7515 51.9266 25.7316 52.206Z" fill="#263238"/>
<path d="M22.4134 52.0617C22.9916 52.0621 23.5591 52.2177 24.0569 52.5124C24.5546 52.8072 24.9644 53.2302 25.2437 53.7375C25.5141 53.2449 25.6517 52.6902 25.643 52.1281C25.6343 51.566 25.4795 51.0159 25.194 50.532C24.9085 50.0481 24.502 49.6471 24.0147 49.3685C23.5274 49.0899 22.976 48.9434 22.415 48.9434C21.8539 48.9434 21.3025 49.0899 20.8152 49.3685C20.3279 49.6471 19.9214 50.0481 19.6359 50.532C19.3504 51.0159 19.1956 51.566 19.1869 52.1281C19.1782 52.6902 19.3158 53.2449 19.5862 53.7375C19.8647 53.2302 20.274 52.8071 20.7712 52.5124C21.2685 52.2176 21.8356 52.062 22.4134 52.0617Z" fill="#E0E0E0"/>
<path d="M23.8438 52.0955C23.8438 52.379 23.7599 52.6561 23.6027 52.8918C23.4455 53.1275 23.2221 53.3112 22.9607 53.4197C22.6994 53.5281 22.4118 53.5565 22.1343 53.5012C21.8568 53.4459 21.6019 53.3094 21.4019 53.109C21.2018 52.9085 21.0656 52.6531 21.0104 52.3751C20.9552 52.0971 20.9835 51.8089 21.0918 51.547C21.2001 51.2851 21.3834 51.0612 21.6186 50.9037C21.8539 50.7462 22.1304 50.6622 22.4133 50.6622C22.7927 50.6622 23.1566 50.8132 23.4248 51.082C23.6931 51.3508 23.8438 51.7153 23.8438 52.0955Z" fill="white"/>
<path d="M23.8443 52.0955C23.8289 52.0955 23.8443 51.9697 23.7707 51.7548C23.6839 51.4531 23.4997 51.1886 23.247 51.0029C23.0446 50.8524 22.8045 50.7611 22.5535 50.7394C22.3024 50.7176 22.0502 50.7662 21.8251 50.8797C21.6 50.9931 21.4108 51.1671 21.2786 51.382C21.1463 51.597 21.0763 51.8445 21.0763 52.097C21.0763 52.3495 21.1463 52.5971 21.2786 52.812C21.4108 53.027 21.6 53.2009 21.8251 53.3144C22.0502 53.4278 22.3024 53.4764 22.5535 53.4547C22.8045 53.4329 23.0446 53.3417 23.247 53.1912C23.4997 53.0054 23.6839 52.741 23.7707 52.4392C23.832 52.2244 23.8289 52.0955 23.8443 52.0955C23.8596 52.0955 23.8443 52.1292 23.8443 52.1876C23.8461 52.2772 23.8379 52.3668 23.8197 52.4546C23.7488 52.7819 23.5656 53.0741 23.3021 53.2802C23.1056 53.4356 22.873 53.5385 22.6261 53.5793C22.3791 53.6201 22.1259 53.5974 21.89 53.5134C21.5984 53.4092 21.3461 53.2171 21.1677 52.9635C20.9893 52.7099 20.8936 52.4073 20.8936 52.097C20.8936 51.7868 20.9893 51.4841 21.1677 51.2305C21.3461 50.977 21.5984 50.7849 21.89 50.6806C22.1259 50.5966 22.3791 50.574 22.6261 50.6148C22.873 50.6556 23.1056 50.7585 23.3021 50.9139C23.5656 51.12 23.7488 51.4121 23.8197 51.7395C23.8377 51.8262 23.846 51.9148 23.8443 52.0034C23.8534 52.0648 23.8504 52.0955 23.8443 52.0955Z" fill="#263238"/>
<path d="M23.6666 49.8519C23.6084 49.9532 23.3082 49.8519 22.8549 49.8366C22.2864 49.775 21.7126 49.886 21.2079 50.1553C20.7032 50.4245 20.291 50.8396 20.0247 51.3466C19.7949 51.7395 19.7 52.0372 19.5836 52.031C19.4672 52.0249 19.3692 51.6904 19.4978 51.141C19.5915 50.7821 19.7581 50.4465 19.9874 50.1552C20.2166 49.864 20.5034 49.6233 20.8299 49.4484C21.1563 49.2735 21.5153 49.168 21.8844 49.1387C22.2534 49.1094 22.6245 49.1568 22.9744 49.278C23.5043 49.4744 23.7248 49.7629 23.6666 49.8519Z" fill="white"/>
<path d="M24.5056 50.3737C24.3218 50.4995 24.1564 50.5732 24.1258 50.5425C24.0952 50.5118 24.1656 50.346 24.2851 50.1588C24.4045 49.9716 24.5914 49.8826 24.6833 49.9716C24.7752 50.0606 24.6802 50.2478 24.5056 50.3737Z" fill="white"/>
<path d="M74.6716 41.7432C74.6278 41.7473 74.5837 41.7473 74.5399 41.7432H74.157L72.6745 41.7586L67.2345 41.777H49.279L39.3916 41.7586H35.0788H33.1246C32.5312 41.7118 31.9411 41.8831 31.4645 42.2404L29.0998 44.2384L28.1227 45.0579C27.8349 45.2793 27.5042 45.4382 27.1517 45.5244C26.8721 45.5913 26.5834 45.612 26.2971 45.5858L25.6845 45.5551L25.3016 45.5306H25.1699H25.3016H25.6845L26.2971 45.549C26.5792 45.5683 26.8625 45.5424 27.1364 45.4722C27.4788 45.3839 27.799 45.225 28.0767 45.0057L29.0416 44.1801L31.4032 42.1606C31.8969 41.7831 32.5114 41.5997 33.1307 41.645H39.3916H49.279L67.2345 41.688L72.6745 41.7217H74.157H74.5399L74.6716 41.7432Z" fill="#263238"/>
<path d="M138.876 85.491C138.711 85.1441 138.362 84.8955 137.673 84.9723C135.758 85.1902 115.689 85.6383 112.923 84.9723C110.157 84.3063 100.944 73.8312 97.0446 73.1161C93.7733 72.5176 77.867 72.1954 72.8222 72.3427C67.7773 72.1984 51.8741 72.5176 48.6028 73.1161C44.7035 73.8312 35.6278 85.3314 32.8619 86.0066C30.0959 86.6818 9.88913 85.1994 7.97474 84.9815C7.28249 84.9048 6.93331 85.1534 6.77097 85.5002C6.69689 85.6699 6.66572 85.8553 6.68022 86.0399C6.69472 86.2246 6.75444 86.4028 6.8541 86.5588C6.95375 86.7148 7.09027 86.8438 7.25154 86.9343C7.41282 87.0248 7.59389 87.0741 7.77871 87.0777C12.0669 87.1974 28.5583 87.3846 31.6458 87.3325L73.5757 86.5652C81.9469 86.6173 110.549 86.8015 113.579 86.8445C117.15 86.8936 133.593 87.1974 137.866 87.0777C138.052 87.0745 138.234 87.0251 138.396 86.9341C138.559 86.8431 138.696 86.7132 138.796 86.5561C138.896 86.399 138.956 86.2195 138.97 86.0337C138.984 85.8478 138.952 85.6614 138.876 85.491Z" fill="#263238"/>
<path d="M67.1953 4.59106C67.3607 4.59106 67.8569 7.47914 70.1818 7.4239C72.5066 7.36865 78.1824 7.4239 78.1824 7.4239V3.81457L67.1953 4.59106Z" fill="#263238"/>
<path d="M1.35926 27.177C1.19121 27.1649 1.02746 27.1181 0.878252 27.0397C0.729043 26.9613 0.597579 26.8528 0.492078 26.7212C0.386578 26.5896 0.309308 26.4376 0.265097 26.2746C0.220886 26.1117 0.210687 25.9414 0.235133 25.7744C0.541436 23.5738 1.69926 19.2954 5.93849 18.6632C8.55723 18.2338 11.2223 18.1656 13.8595 18.4606C14.518 18.5435 14.8458 19.145 14.9254 19.8049C15.2869 22.8311 14.9928 26.5846 14.1229 27.045C13.253 27.5054 4.45599 27.4225 1.35926 27.177Z" fill="#F3123C"/>
<path d="M30.7143 3.81457C30.7078 3.84049 30.6975 3.86531 30.6837 3.88823L30.5796 4.09079L30.1661 4.86729C29.7954 5.55171 29.2686 6.52156 28.6345 7.7124L23.4825 17.0641L19.1024 24.9426L15.5922 27.6466L14.6181 28.3862L14.3578 28.5735C14.33 28.598 14.2991 28.6186 14.2659 28.6348C14.2918 28.6075 14.3194 28.5819 14.3486 28.5581L14.5936 28.3556L15.5462 27.5913L19.0258 24.8291L19.0074 24.8506L23.3631 16.9567L28.5702 7.62646L30.1599 4.80898L30.601 4.04475L30.7174 3.84833C30.7158 3.83714 30.7148 3.82587 30.7143 3.81457Z" fill="#263238"/>
<path d="M36.3662 2.08664C36.1221 2.20791 35.8692 2.31051 35.6097 2.39356C34.9986 2.61594 34.4205 2.92053 33.8913 3.29896C33.382 3.70225 32.9288 4.17189 32.5436 4.69542C32.3938 4.92288 32.228 5.1393 32.0474 5.34302C32.1526 5.09002 32.2884 4.8509 32.4517 4.63097C33.1673 3.48988 34.2774 2.65293 35.5699 2.28C35.8259 2.18143 36.0936 2.11644 36.3662 2.08664Z" fill="#263238"/>
<g opacity="0.3">
<path opacity="0.3" d="M19.0563 24.9334L18.75 25.136C18.6305 24.9887 25.8256 40.1012 29.2133 44.088L31.4371 42.1944C26.6496 37.5354 23.0597 30.2953 19.0563 24.9334Z" fill="black"/>
</g>
<path d="M33.3301 84.34C33.3882 84.319 33.4445 84.2933 33.4985 84.2633C33.655 84.165 33.8053 84.0574 33.9488 83.941C34.3317 83.6341 34.8677 83.1676 35.5569 82.5446C36.923 81.2954 38.8589 79.4416 41.1868 77.0876C41.7687 76.4983 42.3711 75.8763 42.9939 75.2216C43.6194 74.5164 44.2841 73.8473 44.9849 73.2174C45.776 72.582 46.666 72.0812 47.6191 71.735C48.6308 71.3741 49.6873 71.1541 50.7587 71.0813C51.307 71.0414 51.8645 71.0383 52.422 71.0322L54.1219 71.0168L57.626 70.983L64.9926 70.9125L90.8477 70.7007L98.6829 70.6516H101.366C101.492 70.6516 101.556 70.6516 101.556 70.6516H101.366H100.812L98.6829 70.6884L90.8477 70.7836L64.9926 71.0444L57.626 71.1119L54.1219 71.1426H52.422C51.8614 71.1426 51.3131 71.1426 50.7679 71.1887C49.7103 71.2579 48.6672 71.4727 47.6681 71.8271C46.7276 72.1659 45.849 72.6573 45.0676 73.2818C44.369 73.9056 43.7064 74.5686 43.0828 75.2676C42.4702 75.9213 41.8576 76.5382 41.2664 77.1275C38.9293 79.4723 36.9781 81.3169 35.5998 82.5507C34.9075 83.1645 34.3593 83.6341 33.9672 83.9257C33.822 84.0395 33.6684 84.1421 33.5077 84.2326C33.459 84.2835 33.3977 84.3206 33.3301 84.34Z" fill="#263238"/>
<g opacity="0.3">
<path opacity="0.3" d="M16.827 66.0386C15.9161 65.0647 14.9013 64.194 13.8007 63.4421C12.6765 62.727 11.0623 61.9076 10.0423 62.5582C9.52636 63.123 9.11184 63.773 8.81713 64.4795C8.75206 64.5929 8.71184 64.7189 8.69917 64.8491C8.68649 64.9793 8.70164 65.1107 8.74362 65.2345C8.88758 65.5261 9.2582 65.6028 9.57982 65.6427L16.6095 66.5266C16.7473 66.545 16.9158 66.545 16.9832 66.4254C17.0506 66.3057 16.9342 66.143 16.827 66.0386Z" fill="white"/>
</g>
<g opacity="0.3">
<path opacity="0.3" d="M44.2314 61.5822C62.1808 66.3671 81.1318 65.167 99.5743 63.0493C102.423 62.7209 105.52 62.2452 107.465 60.1336" fill="black"/>
</g>
<path d="M111.104 45.0057C104.096 44.0113 89.3563 43.5203 74.7364 43.5295C60.1166 43.5387 45.3742 44.0113 38.366 45.0057C37.8484 45.0771 37.3522 45.2593 36.9111 45.54C36.47 45.8207 36.0944 46.1933 35.8099 46.6325C35.5254 47.0716 35.3386 47.567 35.2622 48.0849C35.1859 48.6029 35.2217 49.1312 35.3673 49.634C35.3673 49.6586 35.3673 49.6831 35.3888 49.7107C36.1545 52.2305 39.1777 60.2809 43.9928 61.4871C46.2258 62.0487 58.8087 62.5858 72.2339 62.6933V62.7148H74.7364H77.2359V62.6933C90.6611 62.5858 103.247 62.0487 105.48 61.4871C110.292 60.2809 113.315 52.2305 114.081 49.7107C114.081 49.6831 114.096 49.6586 114.102 49.634C114.248 49.1312 114.284 48.6029 114.208 48.0849C114.131 47.567 113.944 47.0716 113.66 46.6325C113.375 46.1933 113 45.8207 112.559 45.54C112.118 45.2593 111.621 45.0771 111.104 45.0057Z" fill="#263238"/>
<path d="M112.877 60.4221L112.693 60.5234L112.142 60.8057L111.248 61.263C111.067 61.3521 110.88 61.4564 110.672 61.5515L110.004 61.8585C107.343 63.0625 104.585 64.0359 101.758 64.768C97.561 65.8335 93.2825 66.547 88.9671 66.9011C84.1 67.3523 78.7243 67.4505 73.0914 67.429C67.4585 67.4075 62.0798 67.1466 57.2311 66.5082C52.933 65.974 48.6958 65.0285 44.5777 63.6846C41.8034 62.7728 39.1149 61.6174 36.5433 60.2318C36.087 59.9924 35.6918 59.7561 35.3457 59.5566C34.9996 59.3571 34.7147 59.1852 34.485 59.0379L33.9612 58.7095L33.7866 58.5929C33.7866 58.5929 33.8509 58.6236 33.9704 58.6942L34.5003 59.0011C34.7331 59.1423 35.021 59.308 35.3702 59.5075C35.7194 59.707 36.1145 59.9341 36.574 60.1674C39.1518 61.5299 41.8419 62.6677 44.6144 63.568C48.7299 64.894 52.9615 65.8261 57.2525 66.3517C62.089 66.987 67.4585 67.2387 73.0914 67.2725C78.7243 67.3062 84.0938 67.2019 88.9549 66.7568C93.2626 66.4103 97.5347 65.7092 101.728 64.6606C104.553 63.9406 107.313 62.9848 109.979 61.8032L110.647 61.5147C110.859 61.4196 111.045 61.3214 111.226 61.2324L112.13 60.7904L112.684 60.5203L112.877 60.4221Z" fill="#263238"/>
<path d="M113.741 48.931C113.741 48.977 96.2447 49.0107 74.6657 49.0107C53.0866 49.0107 35.5845 48.977 35.5845 48.931C35.5845 48.8851 53.0774 48.8514 74.6657 48.8514C96.2539 48.8514 113.741 48.882 113.741 48.931Z" fill="#455A64"/>
<path d="M113.741 46.5402C113.741 46.583 96.2447 46.6198 74.6657 46.6198C53.0866 46.6198 35.5845 46.583 35.5845 46.5402C35.5845 46.4973 53.0774 46.4605 74.6657 46.4605C96.2539 46.4605 113.741 46.4973 113.741 46.5402Z" fill="#455A64"/>
<path d="M102.681 44.1554C102.681 44.1983 90.1562 44.235 74.7125 44.235C59.2687 44.235 46.7378 44.1983 46.7378 44.1554C46.7378 44.1125 59.2595 44.0758 74.7125 44.0758C90.1654 44.0758 102.681 44.1095 102.681 44.1554Z" fill="#455A64"/>
<path d="M113.741 51.3434C113.741 51.3862 96.2447 51.423 74.6657 51.423C53.0866 51.423 35.5845 51.3862 35.5845 51.3434C35.5845 51.3005 53.0774 51.2637 74.6657 51.2637C96.2539 51.2637 113.741 51.3005 113.741 51.3434Z" fill="#455A64"/>
<path d="M112.005 53.7619C112.005 53.8048 95.2041 53.8415 74.4827 53.8415C53.7613 53.8415 36.9575 53.8048 36.9575 53.7619C36.9575 53.719 53.7552 53.6822 74.4827 53.6822C95.2102 53.6822 112.005 53.719 112.005 53.7619Z" fill="#455A64"/>
<path d="M111.245 56.1803C111.245 56.2232 94.8973 56.26 74.7364 56.26C54.5756 56.26 38.2251 56.2232 38.2251 56.1803C38.2251 56.1375 54.5694 56.1007 74.7364 56.1007C94.9034 56.1007 111.245 56.1344 111.245 56.1803Z" fill="#455A64"/>
<path d="M109.351 58.5989C109.351 58.6417 93.8459 58.6785 74.7387 58.6785C55.6315 58.6785 40.1265 58.6417 40.1265 58.5989C40.1265 58.556 55.6285 58.5192 74.754 58.5192C93.8796 58.5192 109.351 58.5529 109.351 58.5989Z" fill="#455A64"/>
<path d="M107.012 61.0143C107.012 61.0602 92.649 61.0939 74.9324 61.0939C57.2158 61.0939 42.8472 61.0602 42.8472 61.0143C42.8472 60.9683 57.2097 60.9346 74.9324 60.9346C92.6551 60.9346 107.012 60.9714 107.012 61.0143Z" fill="#455A64"/>
<path d="M15.0346 86.0679V86.0894C15.0711 86.2138 15.0787 86.3449 15.0569 86.4726C15.0351 86.6004 14.9844 86.7215 14.9088 86.8266C14.8331 86.9317 14.7344 87.0182 14.6203 87.0792C14.5062 87.1403 14.3797 87.1744 14.2504 87.179L9.15967 87.093C8.95851 87.0684 8.77167 86.976 8.62977 86.831C8.48786 86.686 8.3993 86.4971 8.3786 86.2951L8.3449 86.0096C8.33678 85.8866 8.35498 85.7633 8.39829 85.6479C8.44159 85.5325 8.50901 85.4277 8.59601 85.3405C8.68302 85.2533 8.78761 85.1858 8.90277 85.1424C9.01794 85.099 9.14104 85.0807 9.26381 85.0889L14.3086 85.4541C14.4772 85.4714 14.6367 85.5392 14.7662 85.6487C14.8957 85.7582 14.9892 85.9043 15.0346 86.0679Z" fill="white"/>
<path d="M110.02 83.103C110.02 83.1459 93.6047 83.1826 73.355 83.1826C53.1053 83.1826 36.6875 83.1459 36.6875 83.103C36.6875 83.0601 53.1023 83.0233 73.355 83.0233C93.6078 83.0233 110.02 83.057 110.02 83.103Z" fill="#455A64"/>
<path d="M52.8511 85.7795H50.7009L50.5508 83.1032H53.0135L52.8511 85.7795Z" fill="#455A64"/>
<path d="M72.967 85.7795H70.8167L70.6636 83.1032H73.1293L72.967 85.7795Z" fill="#455A64"/>
<path d="M93.0808 85.7795H90.9305L90.7773 83.1032H93.2431L93.0808 85.7795Z" fill="#455A64"/>
<path d="M108.884 82.1333C104.994 78.7756 99.7558 73.6102 97.0572 73.1161C93.7859 72.5176 77.8796 72.1954 72.8379 72.3427C67.7931 72.1984 51.8867 72.5176 48.6154 73.1161C46.1068 73.5765 41.454 78.5025 37.7202 82.1333H108.884Z" fill="#455A64"/>
<path d="M5.3645 80.3747C5.41675 80.3183 5.47418 80.2669 5.53603 80.2212L6.04143 79.7977L7.96195 78.2355H7.98033H8.00177L18.5784 79.5368L24.3553 80.2703H24.3706L29.5502 83.1277L31.0174 83.9503L31.4033 84.1743C31.4494 84.1966 31.4926 84.2245 31.532 84.2572C31.483 84.2404 31.4358 84.2188 31.3911 84.1927L30.9959 83.9902L29.5073 83.2045L24.3002 80.3992H24.3247L18.5447 79.678L7.9742 78.3214H8.01402L6.06594 79.856L5.55441 80.2366C5.49411 80.2866 5.43068 80.3328 5.3645 80.3747Z" fill="#263238"/>
<path d="M31.5511 74.5157C31.5511 74.5157 32.5926 72.754 31.5511 72.3089C30.3566 71.7964 10.4162 69.3994 9.59841 69.3288C7.98113 69.1845 7.39609 69.9181 7.01627 71.8209C6.63646 73.7238 5.79106 78.4442 7.39609 79.8161C9.00112 81.188 11.5005 81.7957 16.4382 82.0996C21.3758 82.4034 23.9763 82.5722 26.4083 81.2003C28.8404 79.8284 31.5511 74.5157 31.5511 74.5157Z" fill="#263238"/>
<path d="M30.5223 58.8323C30.4733 58.8538 30.1915 58.3381 29.7075 57.3928C29.2235 56.4475 28.5374 55.0818 27.6461 53.4183C27.1928 52.5896 26.6996 51.6811 26.1146 50.7358C25.5224 49.7276 24.8687 48.7569 24.1573 47.8293C23.7761 47.3454 23.3471 46.9012 22.8769 46.5035C22.3803 46.0887 21.8472 45.7199 21.2842 45.4016C20.7114 45.0671 20.0927 44.751 19.4739 44.4195C18.8552 44.088 18.2242 43.7627 17.584 43.4466C16.351 42.8265 15.0732 42.3002 13.7614 41.8721C13.1371 41.6736 12.5033 41.5066 11.8623 41.3718C11.2691 41.2256 10.6599 41.1544 10.049 41.1601C9.51835 41.1406 8.99577 41.2944 8.55991 41.5983C8.12405 41.9022 7.7985 42.3397 7.63225 42.845C7.44718 43.3262 7.30271 43.8221 7.20036 44.3274C7.09316 44.8277 6.98289 45.3219 6.87262 45.7792L5.822 50.1404C5.57696 51.1717 5.43912 51.7425 5.38092 51.7333C5.32273 51.7241 5.36255 51.1348 5.51876 50.0821C5.67497 49.0294 5.94452 47.5163 6.31208 45.6595C6.40091 45.1929 6.4928 44.7049 6.58776 44.1985C6.6806 43.6499 6.82205 43.1107 7.01045 42.5872C7.22034 41.9819 7.59872 41.4494 8.10089 41.0526C8.66049 40.6572 9.32463 40.4372 10.0092 40.4204C10.6806 40.402 11.3517 40.4691 12.0063 40.6199C12.6739 40.7527 13.3344 40.9196 13.985 41.1202C15.3434 41.5559 16.6656 42.0977 17.9393 42.7407C18.5918 43.0476 19.2258 43.3975 19.8476 43.729C20.4694 44.0604 21.0728 44.3827 21.6854 44.7356C22.2831 45.0828 22.8489 45.4824 23.3762 45.9295C23.8788 46.3678 24.3356 46.8563 24.7393 47.3874C25.4573 48.3513 26.1101 49.3623 26.6935 50.4136C27.2479 51.3896 27.7165 52.3195 28.1423 53.1758C28.9754 54.8853 29.585 56.2941 29.9801 57.2793C30.3752 58.2645 30.5713 58.8077 30.5223 58.8323Z" fill="#263238"/>
<path d="M12.5229 48.7716C13.2605 48.773 13.9841 48.9731 14.6179 49.3511C15.2516 49.7291 15.7722 50.271 16.1251 50.92C16.4692 50.2928 16.6442 49.5867 16.633 48.8711C16.6218 48.1554 16.4247 47.4551 16.0611 46.8391C15.6975 46.2231 15.18 45.7126 14.5596 45.358C13.9391 45.0034 13.2372 44.8169 12.5229 44.8169C11.8087 44.8169 11.1067 45.0034 10.4863 45.358C9.86588 45.7126 9.34837 46.2231 8.98478 46.8391C8.62119 47.4551 8.42408 48.1554 8.41286 48.8711C8.40164 49.5867 8.57672 50.2928 8.92082 50.92C9.27365 50.271 9.79425 49.7291 10.428 49.3511C11.0618 48.9731 11.7854 48.773 12.5229 48.7716Z" fill="#E0E0E0"/>
<path d="M12.5236 50.564C13.5014 50.564 14.294 49.7697 14.294 48.79C14.294 47.8102 13.5014 47.016 12.5236 47.016C11.5458 47.016 10.7532 47.8102 10.7532 48.79C10.7532 49.7697 11.5458 50.564 12.5236 50.564Z" fill="white"/>
<path d="M14.2936 48.79C14.2936 48.79 14.2936 48.6335 14.2109 48.3634C14.1029 47.9875 13.8747 47.6576 13.5615 47.4242C13.3084 47.2343 13.0076 47.1187 12.6927 47.0904C12.3778 47.0621 12.0612 47.1222 11.7784 47.2639C11.4957 47.4057 11.2579 47.6236 11.0917 47.8931C10.9255 48.1626 10.8375 48.4732 10.8375 48.79C10.8375 49.1068 10.9255 49.4174 11.0917 49.6869C11.2579 49.9564 11.4957 50.1743 11.7784 50.3161C12.0612 50.4578 12.3778 50.5179 12.6927 50.4896C13.0076 50.4613 13.3084 50.3457 13.5615 50.1558C13.8747 49.9224 14.1029 49.5925 14.2109 49.2166C14.2844 48.9496 14.2783 48.79 14.2936 48.79C14.3089 48.79 14.2936 48.8299 14.2936 48.9036C14.2948 49.0141 14.2824 49.1244 14.2568 49.232C14.1694 49.6347 13.9426 49.9934 13.6166 50.2448C13.4235 50.3937 13.2027 50.5026 12.9671 50.5653C12.7315 50.6279 12.4859 50.6429 12.2444 50.6095C12.003 50.5761 11.7706 50.4949 11.5608 50.3706C11.3509 50.2463 11.1679 50.0815 11.0223 49.8857C10.7644 49.5285 10.643 49.0905 10.6801 48.6513C10.7172 48.2121 10.9103 47.8007 11.2243 47.492C11.5383 47.1833 11.9525 46.9977 12.3915 46.9689C12.8304 46.9402 13.2652 47.0701 13.6166 47.3352C13.9426 47.5866 14.1694 47.9453 14.2568 48.348C14.2823 48.4556 14.2946 48.5659 14.2936 48.6764C14.3028 48.7501 14.2997 48.79 14.2936 48.79Z" fill="#263238"/>
<path d="M16.6338 48.9312C16.6041 48.5954 16.5509 48.262 16.4745 47.9337C16.2388 47.0428 15.7114 46.257 14.9767 45.7024C14.4746 45.3214 13.8902 45.0638 13.2706 44.9505C12.5594 44.8227 11.8272 44.8852 11.1479 45.1316C10.7822 45.2636 10.4384 45.4498 10.1279 45.684C9.79979 45.9227 9.51226 46.2129 9.27638 46.5434C8.76696 47.2349 8.4921 48.0717 8.4921 48.9312C8.4921 49.7906 8.76696 50.6275 9.27638 51.319C9.51147 51.6501 9.79912 51.9404 10.1279 52.1783C10.4377 52.4137 10.7817 52.6 11.1479 52.7308C11.7828 52.9641 12.466 53.034 13.1349 52.9343C13.8038 52.8346 14.437 52.5683 14.9767 52.1599C15.7121 51.606 16.2397 50.82 16.4745 49.9287C16.5511 49.6004 16.6043 49.267 16.6338 48.9312C16.6411 49.019 16.6411 49.1073 16.6338 49.1951C16.6342 49.2979 16.626 49.4006 16.6093 49.502C16.5943 49.6469 16.5687 49.7906 16.5327 49.9317C16.3456 50.7049 15.9407 51.4078 15.3661 51.9569C14.7916 52.5059 14.0716 52.8779 13.292 53.0285C12.5578 53.17 11.7992 53.1106 11.0958 52.8566C10.3169 52.5743 9.63902 52.067 9.14773 51.3988C8.61659 50.6815 8.32983 49.812 8.32983 48.9189C8.32983 48.0257 8.61659 47.1563 9.14773 46.439C9.39527 46.0974 9.69505 45.797 10.036 45.549C10.3582 45.3065 10.7157 45.115 11.0958 44.9812C11.7995 44.7286 12.5577 44.6693 13.292 44.8093C14.0741 44.9588 14.7966 45.3309 15.3729 45.8813C15.9493 46.4316 16.3552 47.1367 16.5419 47.9122C16.5779 48.0534 16.6034 48.197 16.6185 48.3419C16.6352 48.4433 16.6434 48.546 16.643 48.6488C16.6484 48.743 16.6454 48.8375 16.6338 48.9312Z" fill="#263238"/>
<path d="M14.0911 46.0032C14.0298 46.1045 13.6684 45.9725 13.0986 45.9173C12.3766 45.8191 11.6421 45.9509 10.9989 46.294C10.3558 46.6372 9.83662 47.1743 9.5149 47.8294C9.24229 48.3358 9.1504 48.7102 9.03401 48.701C8.91761 48.6918 8.81653 48.2836 8.98806 47.6237C9.1095 47.1915 9.31699 46.7884 9.59804 46.4387C9.87909 46.089 10.2279 45.7999 10.6234 45.5889C11.0189 45.3778 11.453 45.2492 11.8994 45.2106C12.3459 45.1721 12.7955 45.2246 13.2212 45.3648C13.8491 45.5889 14.1309 45.9203 14.0911 46.0032Z" fill="white"/>
<path d="M15.106 46.6569C14.9222 46.7797 14.7476 46.8411 14.7017 46.7981C14.6557 46.7551 14.7017 46.5771 14.8334 46.393C14.9651 46.2088 15.1397 46.1229 15.2591 46.2273C15.3786 46.3316 15.2867 46.5311 15.106 46.6569Z" fill="white"/>
<path d="M38.4332 64.4826C38.3811 64.6974 32.8829 63.4913 26.1565 61.7879C19.4301 60.0845 14.0208 58.5315 14.0913 58.3166C14.1617 58.1018 19.6384 59.3111 26.3679 61.0114C33.0974 62.7117 38.4883 64.277 38.4332 64.4826Z" fill="#263238"/>
<path d="M6.03015 41.9427C6.02673 41.9111 6.02673 41.8792 6.03015 41.8476C6.03934 41.7546 6.05469 41.6623 6.0761 41.5713C6.15482 41.22 6.2816 40.8812 6.45285 40.5647C6.73041 40.06 7.13483 39.6368 7.62599 39.337C7.77604 39.2513 7.93042 39.1735 8.08851 39.1038C8.25697 39.0546 8.4285 38.9779 8.61535 38.9411C8.80493 38.897 8.99735 38.8663 9.1912 38.849C9.39506 38.8322 9.59995 38.8322 9.8038 38.849C10.7077 38.9439 11.6015 39.1185 12.4748 39.3708C13.4212 39.6224 14.4167 39.9386 15.4551 40.2915C17.5288 41.0158 19.7832 41.8844 22.0866 42.9525C22.3714 43.0906 22.6563 43.2287 22.932 43.3791C23.2073 43.5328 23.4687 43.7105 23.713 43.9101C24.1939 44.2927 24.6315 44.727 25.0179 45.2052C25.7285 46.1812 26.3564 47.1388 26.969 48.0534C28.1942 49.8949 29.2326 51.5645 30.0811 52.9947C30.9295 54.425 31.5758 55.6066 32.0138 56.4261C32.2344 56.8343 32.3998 57.1565 32.5101 57.3744L32.6356 57.623C32.6511 57.6513 32.6634 57.6811 32.6724 57.712C32.6522 57.6874 32.6347 57.6607 32.6203 57.6322L32.4825 57.3898L31.9587 56.469C31.5054 55.6588 30.8407 54.4894 29.9831 53.0653C29.1254 51.6412 28.0687 49.9716 26.8465 48.1547C26.2339 47.2339 25.5937 46.2764 24.8954 45.3219C24.5155 44.8533 24.0862 44.4273 23.615 44.0512C23.377 43.8588 23.1228 43.6873 22.8554 43.5387C22.5828 43.3914 22.301 43.2532 22.0161 43.1151C19.725 42.0501 17.4736 41.1785 15.4061 40.4511C14.3708 40.0889 13.3814 39.7698 12.4411 39.5119C11.5762 39.2569 10.6906 39.0782 9.79462 38.9779C9.59581 38.9627 9.39613 38.9627 9.19732 38.9779C9.00855 38.9921 8.82115 39.0208 8.63679 39.0639C8.46283 39.1052 8.29108 39.1554 8.1222 39.2142C7.96599 39.291 7.8159 39.3493 7.66887 39.4352C7.18792 39.7211 6.78821 40.1258 6.50798 40.6107C6.34208 40.9117 6.21448 41.2324 6.12817 41.5652C6.09754 41.6849 6.07916 41.7739 6.06691 41.8353C6.05843 41.8723 6.04611 41.9083 6.03015 41.9427Z" fill="#263238"/>
<path d="M7.0463 18.6816C6.99405 18.8 6.93044 18.9131 6.85639 19.0192C6.72468 19.2309 6.53477 19.5379 6.31117 19.9215C5.12959 21.9159 4.20339 24.0514 3.55444 26.2777C3.43192 26.7043 3.33697 27.0512 3.27264 27.2906C3.24871 27.4185 3.20963 27.5432 3.15625 27.6619C3.16167 27.5325 3.18015 27.404 3.21138 27.2783C3.25733 27.0327 3.33697 26.6798 3.44724 26.247C4.03356 23.9899 4.96337 21.8367 6.20396 19.8632C6.43982 19.4857 6.64198 19.1849 6.79207 18.9854C6.86504 18.8748 6.95034 18.7729 7.0463 18.6816Z" fill="#263238"/>
<g opacity="0.3">
<path opacity="0.3" d="M4.75546 43.6799C4.44916 43.7811 2.789 44.8185 2.0845 45.2144C1.72293 45.3982 1.40137 45.6521 1.13847 45.9614C0.875573 46.2706 0.676563 46.6291 0.552984 47.016C0.350823 47.7987 0.574423 48.6181 0.794961 49.3915C1.5209 51.9236 2.36324 56.4752 3.08918 59.0072C3.6589 54.4035 4.27763 46.5956 4.74934 43.6799" fill="white"/>
</g>
<path d="M27.569 80.1046C27.569 80.1507 22.8274 79.5276 16.9923 78.7204C11.1573 77.9132 6.43408 77.2196 6.43408 77.1674C6.43408 77.1153 11.1757 77.7444 17.0138 78.5547C22.8519 79.365 27.569 80.0617 27.569 80.1046Z" fill="#455A64"/>
<path d="M26.0589 81.2647C25.9928 81.2729 25.9259 81.2729 25.8598 81.2647L25.2931 81.2003L23.2072 80.9486L16.3276 80.1261C13.6413 79.8191 11.2093 79.5122 9.45111 79.2575C8.57202 79.1347 7.8614 79.0334 7.37438 78.9506L6.80772 78.8585C6.74182 78.8526 6.67696 78.8381 6.61475 78.8155C6.68103 78.8107 6.74756 78.8107 6.81384 78.8155L7.3805 78.8769L9.46643 79.1286L16.346 79.9511C19.0323 80.258 21.4643 80.565 23.2225 80.8228C24.1016 80.9425 24.8091 81.0468 25.2992 81.1297L25.8628 81.2218C25.9294 81.23 25.995 81.2443 26.0589 81.2647Z" fill="#455A64"/>
<path d="M22.7478 82.1333C22.0693 82.1292 21.3918 82.0789 20.7201 81.9829C19.4673 81.8571 17.7397 81.676 15.8192 81.4397C13.8987 81.2034 12.1834 81.0039 10.9367 80.8412L9.45731 80.6386C9.27573 80.6187 9.09565 80.587 8.91821 80.5435C9.10059 80.5389 9.28301 80.5502 9.46343 80.5773L10.949 80.7276L15.8499 81.2832L20.7354 81.8724L22.2118 82.0596C22.5579 82.1026 22.7631 82.1333 22.7478 82.1333Z" fill="#455A64"/>
<path d="M28.6711 78.7848C28.6711 78.8278 23.6814 78.2078 17.54 77.3976C11.3987 76.5873 6.4243 75.8968 6.43043 75.863C6.43655 75.8293 11.4201 76.44 17.5615 77.2472C23.7029 78.0544 28.6772 78.7388 28.6711 78.7848Z" fill="#455A64"/>
<path d="M29.5354 77.5572C29.5354 77.6002 24.3681 76.9587 18.0123 76.1208C11.6565 75.283 6.50145 74.5678 6.50757 74.5218C6.5137 74.4758 11.6718 75.1356 18.0307 75.9612C24.3896 76.7868 29.5416 77.5142 29.5354 77.5572Z" fill="#455A64"/>
<path d="M30.5057 76.1086C30.5057 76.1515 25.1975 75.4947 18.6579 74.6262C12.1183 73.7576 6.82542 73.0333 6.83155 72.9872C6.83767 72.9412 12.1398 73.6011 18.6793 74.4696C25.2189 75.3382 30.5118 76.0656 30.5057 76.1086Z" fill="#455A64"/>
<path d="M31.2446 74.6292C31.2446 74.6722 25.8383 73.997 19.1854 73.1192C12.5325 72.2414 7.14158 71.4956 7.14771 71.4526C7.15384 71.4097 12.5509 72.0849 19.2069 72.9627C25.8628 73.8404 31.2599 74.5863 31.2446 74.6292Z" fill="#455A64"/>
<path d="M32.0042 73.1499C32.0042 73.1928 26.5581 72.5115 19.8501 71.6153C13.1421 70.7191 7.70823 69.9794 7.71436 69.9365C7.72049 69.8935 13.1604 70.5748 19.8715 71.471C26.5826 72.3672 32.0103 73.1069 32.0042 73.1499Z" fill="#455A64"/>
<path d="M14.4378 69.7769C14.4807 69.7769 13.9508 72.444 13.2585 75.7126C12.5663 78.9813 11.9659 81.6238 11.92 81.6146C11.8741 81.6054 12.407 78.9475 13.1023 75.6789C13.7976 72.4102 14.398 69.7677 14.4378 69.7769Z" fill="#455A64"/>
<path d="M12.432 69.4393C12.4749 69.4393 11.948 72.1064 11.2527 75.375C10.5574 78.6437 9.96012 81.2893 9.91724 81.2801C9.87436 81.2709 10.4012 78.613 11.0965 75.3413C11.7918 72.0696 12.3891 69.4301 12.432 69.4393Z" fill="#455A64"/>
<path d="M10.4163 69.1047C10.4622 69.1047 9.96294 71.6276 9.30439 74.7213C8.64584 77.815 8.07918 80.3133 8.03936 80.3041C7.99954 80.2949 8.49269 77.7812 9.15124 74.6875C9.80979 71.5938 10.3826 69.0955 10.4163 69.1047Z" fill="#455A64"/>
<path d="M8.25368 69.562C8.25368 69.6757 8.24031 69.7891 8.21386 69.8996C8.16792 70.1482 8.11585 70.4521 8.05152 70.8204C7.90756 71.6276 7.72071 72.6619 7.51243 73.8251C7.30414 74.9883 7.09586 76.0625 6.92739 76.8267C6.84163 77.2073 6.76811 77.5173 6.71298 77.729C6.69344 77.841 6.66053 77.9503 6.61496 78.0544C6.61286 77.9406 6.62625 77.827 6.65478 77.7168C6.69766 77.4651 6.7528 77.1613 6.81712 76.796C6.96108 75.9888 7.14793 74.9545 7.35622 73.7883C7.5645 72.622 7.76972 71.5508 7.94125 70.7897C8.02702 70.406 8.09747 70.0991 8.1526 69.8874C8.17202 69.775 8.20601 69.6656 8.25368 69.562Z" fill="#455A64"/>
<path d="M16.7539 70.1912C16.7968 70.1912 16.2883 72.7632 15.6175 75.9183C14.9467 79.0734 14.3708 81.6238 14.328 81.6146C14.2851 81.6054 14.7935 79.0427 15.4613 75.8845C16.129 72.7263 16.711 70.182 16.7539 70.1912Z" fill="#455A64"/>
<path d="M19.0597 70.6577C19.1026 70.6577 18.591 73.2389 17.9202 76.4001C17.2494 79.5613 16.6675 82.121 16.6246 82.1118C16.5817 82.1026 17.0932 79.5307 17.764 76.3694C18.4348 73.2082 19.0168 70.6485 19.0597 70.6577Z" fill="#455A64"/>
<path d="M21.4424 70.7836C21.4853 70.7836 20.9799 73.3432 20.3152 76.4769C19.6506 79.6105 19.0747 82.1456 19.0318 82.1364C18.989 82.1272 19.4944 79.5798 20.159 76.4431C20.8237 73.3064 21.3934 70.7744 21.4424 70.7836Z" fill="#455A64"/>
<path d="M23.777 71.0905C23.8199 71.0905 23.3176 73.6348 22.6559 76.7531C21.9943 79.8713 21.4307 82.3911 21.3787 82.3819C21.3266 82.3727 21.8381 79.8376 22.4997 76.7193C23.1613 73.6011 23.7341 71.0813 23.777 71.0905Z" fill="#455A64"/>
<path d="M26.0868 71.5509C26.1297 71.5509 25.661 73.9294 25.0423 76.8451C24.4236 79.7608 23.8845 82.121 23.8416 82.1118C23.7987 82.1026 24.2643 79.7301 24.8861 76.8145C25.5079 73.8988 26.0378 71.5416 26.0868 71.5509Z" fill="#455A64"/>
<path d="M28.4483 71.7442C28.4911 71.7442 28.0562 73.9694 27.4773 76.6948C26.8984 79.4202 26.393 81.6238 26.3501 81.6054C26.3072 81.587 26.7422 79.3803 27.3211 76.6549C27.9 73.9295 28.4054 71.735 28.4483 71.7442Z" fill="#455A64"/>
<path d="M30.7726 72.1248C30.6444 73.1098 30.4635 74.0872 30.2305 75.0528C30.0512 76.0304 29.8191 76.9976 29.5352 77.95C29.6631 76.9652 29.8431 75.9878 30.0742 75.0221C30.2553 74.0445 30.4884 73.0774 30.7726 72.1248Z" fill="#455A64"/>
<path d="M107.122 80.9208C107.122 80.9668 91.9021 81.0005 73.1227 81.0005C54.3432 81.0005 39.123 80.9668 39.123 80.9208C39.123 80.8749 54.3402 80.8412 73.1227 80.8412C91.9052 80.8412 107.122 80.878 107.122 80.9208Z" fill="#263238"/>
<path d="M105.789 79.3801C105.789 79.423 91.2216 79.4598 73.2569 79.4598C55.2922 79.4598 40.7397 79.423 40.7397 79.3801C40.7397 79.3372 55.3014 79.3005 73.2722 79.3005C91.243 79.3005 105.789 79.3342 105.789 79.3801Z" fill="#263238"/>
<path d="M103.765 77.8026C103.765 77.8455 89.9809 77.8822 72.9964 77.8822C56.0119 77.8822 42.2222 77.8455 42.2222 77.8026C42.2222 77.7597 56.0058 77.7229 72.9964 77.7229C89.9871 77.7229 103.765 77.7566 103.765 77.8026Z" fill="#263238"/>
<path d="M102.414 76.225C102.414 76.2679 89.2916 76.3047 73.1065 76.3047C56.9215 76.3047 43.7964 76.2679 43.7964 76.225C43.7964 76.1822 56.9184 76.1454 73.1065 76.1454C89.2947 76.1454 102.414 76.1791 102.414 76.225Z" fill="#263238"/>
<path d="M100.163 74.7119C100.163 74.7579 87.9968 74.7916 72.991 74.7916C57.9852 74.7916 45.8188 74.7579 45.8188 74.7119C45.8188 74.666 57.9821 74.6323 72.991 74.6323C87.9998 74.6323 100.163 74.6782 100.163 74.7119Z" fill="#263238"/>
<path d="M97.6173 73.2203C97.6173 73.2632 86.6272 73.2999 73.0702 73.2999C59.5132 73.2999 48.52 73.2632 48.52 73.2203C48.52 73.1774 59.5102 73.1407 73.0702 73.1407C86.6302 73.1407 97.6173 73.1774 97.6173 73.2203Z" fill="#263238"/>
<g opacity="0.3">
<path opacity="0.3" d="M78.1827 25.3846L21.2471 25.2987C22.1098 26.2032 23.1501 26.9189 24.3025 27.4006C25.4549 27.8824 26.6944 28.1197 27.9429 28.0977C31.9003 28.0732 70.4148 28.0977 77.1719 28.0977H78.1827C84.4251 28.0977 117.564 28.0763 120.989 28.0977C122.074 28.1168 123.149 27.8817 124.128 27.4112C125.107 26.9407 125.963 26.2479 126.628 25.3877L78.1827 25.3846Z" fill="black"/>
</g>
<path d="M126.829 24.1692L116.056 5.44737C115.974 5.30363 115.857 5.18303 115.715 5.09667C115.574 5.01032 115.413 4.96099 115.248 4.95323L78.1852 3.36341L74.6321 3.20995C74.2063 3.19153 73.7775 3.19153 73.3517 3.20995L69.7986 3.36341L32.7359 4.95323C32.5707 4.96127 32.41 5.01071 32.2688 5.09704C32.1275 5.18336 32.0101 5.30381 31.9273 5.44737L21.1546 24.1692C21.0745 24.3084 21.0295 24.465 21.0236 24.6256C21.0177 24.7862 21.0511 24.9457 21.1209 25.0904C21.1907 25.235 21.2947 25.3604 21.4239 25.4555C21.5531 25.5507 21.7036 25.6127 21.8622 25.6363C22.0153 25.6608 22.1685 25.6823 22.3523 25.7007C23.2895 25.8051 60.8882 25.7376 73.9949 25.7007C87.1017 25.7283 124.7 25.7959 125.638 25.7007C125.812 25.6823 125.975 25.6608 126.128 25.6393C126.286 25.6145 126.436 25.5514 126.564 25.4556C126.692 25.3597 126.796 25.234 126.865 25.0893C126.934 24.9446 126.967 24.7852 126.96 24.6249C126.954 24.4646 126.909 24.3082 126.829 24.1692ZM121.87 23.3835L73.9888 23.7058L26.1075 23.3835C25.9352 23.3826 25.7662 23.3363 25.6174 23.2493C25.4685 23.1624 25.3451 23.0377 25.2595 22.8879C25.1739 22.7381 25.129 22.5683 25.1295 22.3957C25.13 22.223 25.1757 22.0535 25.2621 21.9042C27.3236 18.3255 32.5123 9.36668 33.3424 8.33237C34.8464 6.45712 58.153 6.21158 70.5582 6.21158C70.6334 6.2302 70.7105 6.23948 70.788 6.2392C71.5139 6.2392 72.6105 6.22386 73.9888 6.22079C75.3672 6.21772 76.4637 6.22079 77.1897 6.2392C77.2671 6.23948 77.3443 6.2302 77.4194 6.21158C89.8186 6.21158 113.131 6.45712 114.635 8.33237C115.465 9.36668 120.654 18.3255 122.716 21.9042C122.802 22.0535 122.848 22.223 122.848 22.3957C122.849 22.5683 122.804 22.7381 122.718 22.8879C122.633 23.0377 122.509 23.1624 122.36 23.2493C122.211 23.3363 122.042 23.3826 121.87 23.3835Z" fill="#263238"/>
<path d="M86.146 22.3461C86.146 21.2811 86.5564 18.2611 87.5458 17.457C88.3085 16.8431 90.1126 16.6529 91.004 16.6007H91.0867C91.5584 16.6007 94.7133 16.6928 95.6567 17.46C96.6001 18.2273 97.0565 21.2842 97.0565 22.3492V22.383C97.0557 22.7015 96.9288 23.0067 96.7037 23.2317C96.4786 23.4567 96.1737 23.583 95.8558 23.583H87.3467C87.0288 23.583 86.7238 23.4567 86.4988 23.2317C86.2737 23.0067 86.1468 22.7015 86.146 22.383V22.3461Z" fill="#263238"/>
<g opacity="0.3">
<path opacity="0.3" d="M86.1455 22.3461C86.1455 21.2811 86.556 18.2611 87.5453 17.457C88.308 16.8431 90.1121 16.6529 91.0035 16.6007H91.0862C91.5579 16.6007 94.7128 16.6928 95.6562 17.46C96.5996 18.2273 97.056 21.2842 97.056 22.3492V22.383C97.0552 22.7015 96.9283 23.0067 96.7032 23.2317C96.4782 23.4567 96.1732 23.583 95.8553 23.583H87.3462C87.0283 23.583 86.7234 23.4567 86.4983 23.2317C86.2732 23.0067 86.1463 22.7015 86.1455 22.383V22.3461Z" fill="black"/>
</g>
<path d="M90.4438 21.5604C90.4438 19.8141 91.1177 14.8758 92.7319 13.5592C93.9816 12.5402 96.9344 12.2394 98.3924 12.1535H98.5303C99.3052 12.1535 104.466 12.3008 106.013 13.5622C107.631 14.8789 108.304 19.8172 108.301 21.5635V21.6157C108.301 22.1375 108.094 22.6378 107.726 23.0068C107.358 23.3757 106.859 23.583 106.338 23.583H92.4073C91.8865 23.583 91.3871 23.3757 91.0189 23.0068C90.6507 22.6378 90.4438 22.1375 90.4438 21.6157V21.5604Z" fill="#263238"/>
<g opacity="0.3">
<path opacity="0.3" d="M107.513 72.6251C107.513 72.6251 107.284 74.0215 110.546 78.6437C111.541 80.0524 114.705 82.9006 115.888 83.9441C116.175 84.1998 116.551 84.3331 116.935 84.3155C120.216 84.1712 136.052 83.4377 138.683 82.6643C139.645 82.3951 140.571 82.0086 141.439 81.5133C142.005 81.174 142.47 80.6884 142.784 80.1074C143.098 79.5263 143.251 78.8713 143.225 78.2109C143.142 75.9305 143.002 71.9192 143.002 70.8695C143.002 69.3748 141.966 68.1073 140.037 68.3559C138.756 68.5093 107.513 72.6251 107.513 72.6251ZM117.725 72.3181L138.248 70.4521L138.842 78.7388L123.738 81.1941L117.725 72.3181Z" fill="black"/>
</g>
<g opacity="0.3">
<path opacity="0.3" d="M142.515 51.3435C142.515 51.3435 144.062 56.0516 134.245 58.243C124.29 60.462 109.56 64.4826 109.56 64.4826L117.471 58.8323C117.471 58.8323 140.23 55.0265 140.793 51.54C141.443 47.5501 140.793 43.066 140.793 43.066L142.515 51.3435Z" fill="black"/>
</g>
<path d="M104.11 72.4839C104.142 72.4673 104.176 72.455 104.211 72.447L104.518 72.358L105.703 72.0266C106.738 71.7565 108.236 71.3636 110.102 70.937C113.829 70.0685 119.015 69.028 124.777 68.0858C127.659 67.6193 130.406 67.1896 132.915 66.8581L136.477 66.3824C137.509 66.2092 138.553 66.1209 139.599 66.1185C140.47 66.1084 141.325 66.363 142.049 66.8489C142.584 67.2308 143.036 67.7173 143.378 68.2791C143.599 68.6299 143.76 69.0146 143.856 69.4178C143.892 69.5574 143.914 69.7004 143.921 69.8444C143.827 69.2981 143.625 68.7762 143.326 68.3098C142.98 67.7633 142.529 67.2908 142 66.9195C141.283 66.4495 140.44 66.2077 139.583 66.2259C138.543 66.2384 137.506 66.3338 136.48 66.5113L132.937 67.0177C130.428 67.343 127.68 67.7758 124.801 68.2454C119.043 69.1845 113.857 70.2066 110.126 71.0475C108.261 71.4588 106.757 71.8332 105.718 72.088L104.527 72.3949L104.221 72.4685C104.185 72.4786 104.148 72.4837 104.11 72.4839Z" fill="#263238"/>
<path d="M143.765 60.3116C143.753 60.254 143.748 60.1954 143.749 60.1367C143.749 60.0047 143.749 59.8297 143.749 59.6333C143.749 59.176 143.722 58.5499 143.7 57.7918C143.655 56.2327 143.553 54.0812 143.342 51.7118C143.131 49.3424 142.855 47.2032 142.625 45.6595C142.512 44.9044 142.417 44.2845 142.35 43.8333C142.319 43.6287 142.295 43.463 142.276 43.3361C142.264 43.2787 142.258 43.2199 142.261 43.1612C142.284 43.2149 142.3 43.2717 142.307 43.33L142.411 43.821C142.497 44.2507 142.61 44.8707 142.739 45.641C142.996 47.1756 143.29 49.324 143.501 51.6965C143.713 54.0689 143.808 56.2296 143.808 57.7918C143.808 58.5714 143.808 59.2036 143.808 59.6333C143.808 59.839 143.808 60.0047 143.792 60.1367C143.792 60.196 143.782 60.2549 143.765 60.3116Z" fill="#263238"/>
<path d="M136.919 39.1099C136.888 39.1099 136.882 38.5758 136.723 37.7257C136.501 36.6244 136.215 35.537 135.865 34.4693C135.473 33.211 135.066 32.0877 134.769 31.2743C134.631 30.8938 134.512 30.5715 134.42 30.3137C134.37 30.1979 134.331 30.0777 134.303 29.9546C134.376 30.0574 134.434 30.17 134.475 30.2891C134.576 30.5101 134.714 30.8324 134.876 31.2344C135.182 32.0385 135.623 33.1588 136.019 34.4202C136.371 35.4943 136.643 36.593 136.833 37.7073C136.873 37.9221 136.882 38.1185 136.904 38.2904C136.922 38.437 136.931 38.5846 136.931 38.7324C136.94 38.8583 136.936 38.9848 136.919 39.1099Z" fill="#263238"/>
<path d="M135.081 41.2583C135.081 41.2583 140.205 39.3861 140.861 43.3668C141.516 47.3475 141.449 51.3098 140.588 52.7032C139.728 54.0966 131.807 55.9902 131.807 55.9902L118.124 59.0042C118.124 59.0042 117.138 59.2098 117.732 58.0834C118.397 56.8312 122.02 48.8238 124.115 46.8779C127.981 43.2901 135.081 41.2583 135.081 41.2583Z" fill="#F5F5F5"/>
<g opacity="0.3">
<path opacity="0.3" d="M130.021 56.38C130.021 56.38 129.999 46.9976 130.688 45.9449C131.378 44.8922 139.436 41.1631 139.436 41.1631C139.436 41.1631 138.652 40.4941 137.041 40.801C134.784 41.2384 132.593 41.971 130.526 42.9801C128.299 44.1249 124.737 45.7638 123.408 47.6605C122.829 48.4953 121.604 50.4658 120.464 52.6142C118.963 55.3917 117.542 58.3596 117.542 58.5254C117.542 58.866 117.462 59.176 118.792 58.8937C121.873 58.2215 130.021 56.38 130.021 56.38Z" fill="black"/>
</g>
<path d="M125.564 55.5329C127.398 55.5329 128.884 54.0434 128.884 52.206C128.884 50.3685 127.398 48.879 125.564 48.879C123.73 48.879 122.244 50.3685 122.244 52.206C122.244 54.0434 123.73 55.5329 125.564 55.5329Z" fill="#F5F5F5"/>
<path d="M122.245 52.206C122.226 51.9306 122.251 51.6541 122.318 51.3865C122.492 50.6427 122.917 49.9822 123.522 49.5174C123.969 49.1694 124.497 48.9408 125.056 48.8527C125.615 48.7647 126.188 48.8202 126.72 49.014C127.351 49.2426 127.901 49.6526 128.3 50.1926C128.732 50.7748 128.965 51.4807 128.965 52.206C128.965 52.9312 128.732 53.6372 128.3 54.2193C128.1 54.4957 127.857 54.7381 127.581 54.9375C127.319 55.1347 127.029 55.29 126.72 55.3979C126.15 55.6044 125.535 55.6532 124.94 55.5391C124.423 55.4391 123.938 55.2183 123.522 54.8946C122.917 54.4298 122.492 53.7692 122.318 53.0254C122.251 52.7578 122.226 52.4813 122.245 52.206C122.274 52.4764 122.319 52.7449 122.38 53.0101C122.575 53.7296 123.006 54.3622 123.605 54.8056C124.008 55.1161 124.48 55.3265 124.98 55.4194C125.552 55.5234 126.141 55.4725 126.686 55.2721C126.98 55.1673 127.256 55.0171 127.504 54.827C127.768 54.6349 128 54.4018 128.19 54.1365C128.598 53.5805 128.818 52.9084 128.818 52.2182C128.818 51.5281 128.598 50.856 128.19 50.3C127.999 50.0343 127.767 49.8003 127.504 49.6064C127.255 49.4183 126.98 49.2692 126.686 49.1644C126.175 48.9767 125.626 48.9199 125.088 48.9993C124.55 49.0786 124.04 49.2915 123.605 49.6187C123.006 50.062 122.575 50.6946 122.38 51.4141C122.319 51.6753 122.274 51.9396 122.245 52.206Z" fill="#263238"/>
<path d="M125.564 52.0617C124.986 52.0621 124.418 52.2177 123.921 52.5124C123.423 52.8072 123.013 53.2302 122.734 53.7375C122.463 53.2449 122.326 52.6902 122.334 52.1281C122.343 51.566 122.498 51.0159 122.783 50.532C123.069 50.0481 123.475 49.6471 123.963 49.3685C124.45 49.0899 125.001 48.9434 125.562 48.9434C126.123 48.9434 126.675 49.0899 127.162 49.3685C127.649 49.6471 128.056 50.0481 128.341 50.532C128.627 51.0159 128.782 51.566 128.79 52.1281C128.799 52.6902 128.662 53.2449 128.391 53.7375C128.113 53.23 127.704 52.8067 127.206 52.512C126.709 52.2172 126.142 52.0617 125.564 52.0617Z" fill="#E0E0E0"/>
<path d="M124.134 52.0955C124.134 52.379 124.218 52.6561 124.375 52.8918C124.533 53.1275 124.756 53.3112 125.017 53.4197C125.279 53.5281 125.566 53.5565 125.844 53.5012C126.121 53.4459 126.376 53.3094 126.576 53.109C126.776 52.9085 126.912 52.6531 126.968 52.3751C127.023 52.0971 126.995 51.8089 126.886 51.547C126.778 51.2851 126.595 51.0612 126.359 50.9037C126.124 50.7462 125.848 50.6622 125.565 50.6622C125.185 50.6622 124.822 50.8132 124.553 51.082C124.285 51.3508 124.134 51.7153 124.134 52.0955Z" fill="white"/>
<path d="M124.135 52.0955C124.135 52.0955 124.135 52.0648 124.135 52.0034C124.133 51.9148 124.141 51.8262 124.159 51.7394C124.23 51.4121 124.413 51.12 124.677 50.9138C124.873 50.7587 125.106 50.656 125.353 50.6152C125.6 50.5744 125.853 50.5969 126.089 50.6806C126.38 50.7849 126.633 50.9769 126.811 51.2305C126.989 51.4841 127.085 51.7868 127.085 52.097C127.085 52.4073 126.989 52.7099 126.811 52.9635C126.633 53.2171 126.38 53.4091 126.089 53.5134C125.853 53.5974 125.6 53.62 125.353 53.5792C125.106 53.5385 124.873 53.4356 124.677 53.2802C124.413 53.074 124.23 52.7819 124.159 52.4546C124.141 52.3668 124.133 52.2772 124.135 52.1875C124.135 52.1292 124.135 52.0955 124.135 52.0955C124.135 52.0955 124.135 52.2244 124.208 52.4392C124.296 52.7404 124.48 53.0044 124.732 53.1912C124.934 53.3428 125.175 53.435 125.427 53.4574C125.679 53.4798 125.932 53.4316 126.158 53.318C126.384 53.2045 126.575 53.0301 126.707 52.8145C126.84 52.5989 126.911 52.3504 126.911 52.097C126.911 51.8436 126.84 51.5952 126.707 51.3795C126.575 51.1639 126.384 50.9895 126.158 50.876C125.932 50.7625 125.679 50.7142 125.427 50.7366C125.175 50.759 124.934 50.8512 124.732 51.0029C124.48 51.1896 124.296 51.4536 124.208 51.7548C124.147 51.9696 124.15 52.0985 124.135 52.0955Z" fill="#263238"/>
<path d="M124.312 49.8519C124.256 49.7691 124.474 49.4806 125.001 49.2841C125.35 49.1624 125.721 49.1143 126.09 49.143C126.459 49.1717 126.819 49.2765 127.145 49.4509C127.472 49.6252 127.759 49.8653 127.989 50.1562C128.219 50.447 128.386 50.7823 128.48 51.141C128.609 51.6904 128.48 52.031 128.395 52.031C128.309 52.031 128.183 51.7395 127.953 51.3466C127.687 50.8396 127.275 50.4245 126.77 50.1553C126.266 49.886 125.692 49.775 125.123 49.8366C124.667 49.8519 124.361 49.9471 124.312 49.8519Z" fill="white"/>
<path d="M123.479 50.3737C123.298 50.2479 123.209 50.0668 123.301 49.9716C123.393 49.8765 123.58 49.9716 123.699 50.1588C123.819 50.3461 123.886 50.5149 123.859 50.5425C123.831 50.5701 123.663 50.4995 123.479 50.3737Z" fill="white"/>
<path d="M73.3052 41.7432H73.4369H73.8198H75.3023L80.7422 41.7094L98.6977 41.6665H108.585H114.864C115.484 41.6212 116.098 41.8046 116.592 42.1821L118.954 44.2016L119.918 45.0272C120.196 45.2465 120.516 45.4053 120.859 45.4937C121.133 45.5638 121.416 45.5897 121.698 45.5704L122.311 45.552H122.693H122.828H122.7L122.314 45.5766L121.701 45.6073C121.415 45.6335 121.126 45.6128 120.846 45.5459C120.494 45.4596 120.163 45.3008 119.875 45.0794L118.898 44.2599L116.528 42.2619C116.052 41.9053 115.463 41.734 114.87 41.78H112.913H108.6L98.713 41.7985H80.7422L75.3023 41.78L73.8198 41.7647H73.4369L73.3052 41.7432Z" fill="#263238"/>
<path d="M9.10149 85.491C9.26689 85.1441 9.61607 84.8955 10.3083 84.9723C12.2227 85.1902 32.2886 85.6383 35.0545 84.9723C37.8205 84.3063 47.0341 73.8312 50.9333 73.1161C54.2046 72.5176 70.1109 72.1954 75.1557 72.3427C80.2005 72.1984 96.1038 72.5176 99.3751 73.1161C103.274 73.8312 112.35 85.3314 115.116 86.0066C117.882 86.6818 138.089 85.1994 140.003 84.9815C140.695 84.9048 141.045 85.1534 141.207 85.5002C141.281 85.6699 141.312 85.8553 141.298 86.0399C141.283 86.2246 141.223 86.4028 141.124 86.5588C141.024 86.7148 140.888 86.8438 140.726 86.9343C140.565 87.0248 140.384 87.0741 140.199 87.0777C135.911 87.1974 119.42 87.3846 116.332 87.3325L74.4022 86.5652C66.031 86.6173 37.4284 86.8015 34.3991 86.8445C30.8276 86.8936 14.3852 87.1974 10.1123 87.0777C9.9263 87.0745 9.74402 87.0251 9.58168 86.9341C9.41935 86.8431 9.28202 86.7132 9.18194 86.5561C9.08186 86.399 9.02214 86.2195 9.0081 86.0337C8.99406 85.8478 9.02614 85.6614 9.10149 85.491Z" fill="#263238"/>
<path d="M80.7835 4.59106C80.6181 4.59106 80.7528 7.47914 78.428 7.4239C76.1032 7.36865 71.72 7.4239 71.72 7.4239L69.7964 3.81457L80.7835 4.59106Z" fill="#263238"/>
<path d="M79.7549 8.41831C79.9144 8.41854 80.0716 8.45645 80.2137 8.52898C80.3558 8.6015 80.4788 8.7066 80.5728 8.83572C81.1272 9.59073 82.2329 11.1621 82.2636 11.6532C82.2845 11.8027 82.275 11.9548 82.2357 12.1005C82.1963 12.2462 82.1279 12.3823 82.0346 12.5008C81.9413 12.6193 81.825 12.7175 81.6927 12.7897C81.5605 12.8619 81.415 12.9065 81.265 12.9208C80.6248 13.0006 68.3574 12.9208 67.0893 12.9208C67.0109 12.9209 66.9328 12.9116 66.8565 12.8931C66.5196 12.8103 65.6497 12.5341 65.7171 11.9386C65.7753 11.3985 66.7218 9.74726 67.2149 8.91245C67.3054 8.76153 67.4334 8.63669 67.5864 8.55009C67.7394 8.46349 67.9122 8.41809 68.0879 8.41831H79.7549Z" fill="#263238"/>
<path d="M117.264 3.81457C117.282 3.83412 117.297 3.85576 117.31 3.87902L117.426 4.07545L117.867 4.83967L119.457 7.65715L124.649 16.9874C126.287 19.9553 127.8 22.696 129.004 24.8813L128.986 24.8598L132.466 27.622L133.418 28.3862L133.666 28.5888C133.694 28.613 133.721 28.6386 133.746 28.6655C133.713 28.6493 133.682 28.6287 133.654 28.6042L133.394 28.4169L132.42 27.6773L128.909 24.9733L124.529 17.0948L119.359 7.7124C118.709 6.52156 118.183 5.56399 117.812 4.86729L117.398 4.09079L117.294 3.88823C117.281 3.86531 117.27 3.84049 117.264 3.81457Z" fill="#263238"/>
<path d="M111.612 2.08664C111.884 2.11545 112.152 2.17941 112.408 2.27693C113.7 2.64832 114.81 3.48298 115.526 4.62177C115.69 4.84169 115.825 5.08081 115.931 5.33381C115.75 5.13009 115.584 4.91367 115.434 4.68622C114.685 3.61072 113.612 2.80401 112.371 2.38435C112.111 2.30443 111.857 2.20491 111.612 2.08664Z" fill="#263238"/>
<g opacity="0.3">
<path opacity="0.3" d="M128.923 24.9334L129.229 25.136C129.349 24.9887 122.153 40.1012 118.766 44.088L116.542 42.1944C121.33 37.5354 124.919 30.2953 128.923 24.9334Z" fill="black"/>
</g>
<path d="M114.647 84.34C114.584 84.3331 114.523 84.311 114.47 84.2756C114.309 84.1851 114.156 84.0825 114.01 83.9687C113.618 83.6771 113.07 83.2106 112.378 82.5937C110.996 81.366 109.051 79.5245 106.711 77.1705C106.126 76.5812 105.52 75.9643 104.895 75.3106C104.271 74.6116 103.609 73.9486 102.91 73.3248C102.129 72.7003 101.25 72.2088 100.309 71.87C99.3103 71.5157 98.2673 71.3009 97.2097 71.2317C96.6644 71.1918 96.1162 71.1918 95.5556 71.1856H93.8556L90.3515 71.1549L82.985 71.0874L57.1299 70.8265L49.2947 70.7222L47.1506 70.6854H46.5962H46.4062C46.4062 70.6854 46.4706 70.6854 46.5962 70.6854H49.2794L57.1146 70.7345L82.9696 70.9462L90.3393 71.0168L93.8403 71.0506L95.5679 71.0291C96.1254 71.0291 96.6828 71.0291 97.2311 71.0782C98.3026 71.1511 99.359 71.371 100.371 71.7319C101.324 72.0782 102.214 72.579 103.005 73.2143C103.706 73.8443 104.37 74.5134 104.996 75.2185C105.608 75.8722 106.221 76.4953 106.803 77.0845C109.131 79.4386 111.067 81.2924 112.433 82.5415C113.116 83.1553 113.658 83.6372 114.041 83.938C114.185 84.0544 114.335 84.162 114.491 84.2602C114.541 84.2907 114.593 84.3174 114.647 84.34Z" fill="#263238"/>
<g opacity="0.3">
<path opacity="0.3" d="M131.15 66.0386C132.061 65.0647 133.076 64.194 134.176 63.4421C135.3 62.727 136.914 61.9076 137.934 62.5582C138.45 63.123 138.865 63.773 139.16 64.4795C139.225 64.5929 139.265 64.7189 139.278 64.8491C139.29 64.9793 139.275 65.1107 139.233 65.2345C139.089 65.5261 138.719 65.6028 138.397 65.6427L131.352 66.5266C131.214 66.545 131.046 66.545 130.978 66.4254C130.911 66.3057 131.043 66.143 131.15 66.0386Z" fill="white"/>
</g>
<path d="M132.937 86.0679V86.0894C132.901 86.2138 132.893 86.3449 132.915 86.4726C132.937 86.6004 132.987 86.7215 133.063 86.8266C133.139 86.9317 133.237 87.0182 133.352 87.0792C133.466 87.1403 133.592 87.1744 133.721 87.179L138.812 87.093C139.013 87.0684 139.2 86.976 139.342 86.831C139.484 86.686 139.573 86.4971 139.593 86.2951L139.627 86.0096C139.635 85.8866 139.617 85.7633 139.574 85.6479C139.53 85.5325 139.463 85.4277 139.376 85.3405C139.289 85.2533 139.184 85.1858 139.069 85.1424C138.954 85.099 138.831 85.0807 138.708 85.0889L133.669 85.4541C133.5 85.4702 133.339 85.5375 133.208 85.6471C133.077 85.7567 132.983 85.9034 132.937 86.0679Z" fill="white"/>
<path d="M37.9585 83.103C37.9585 83.057 54.3763 83.0233 74.623 83.0233C94.8696 83.0233 111.291 83.057 111.291 83.103C111.291 83.1489 94.8757 83.1826 74.623 83.1826C54.3702 83.1826 37.9585 83.1459 37.9585 83.103Z" fill="#455A64"/>
<path d="M95.1277 85.7795H97.2779L97.428 83.1032H94.9653L95.1277 85.7795Z" fill="#455A64"/>
<path d="M75.0124 85.7795H77.1627L77.3128 83.1032H74.8501L75.0124 85.7795Z" fill="#455A64"/>
<path d="M54.8972 85.7795H57.0475L57.2006 83.1032H54.7349L54.8972 85.7795Z" fill="#455A64"/>
<path d="M39.0947 82.1333C42.9848 78.7756 48.2226 73.6102 50.9211 73.1161C54.1924 72.5176 70.0987 72.1954 75.1435 72.3427C80.1853 72.1984 96.0916 72.5176 99.3629 73.1161C101.872 73.5765 106.524 78.5025 110.258 82.1333H39.0947Z" fill="#455A64"/>
<path d="M142.613 80.3747C142.55 80.3329 142.489 80.2867 142.432 80.2366L141.905 79.8345L139.957 78.2999H139.997L129.427 79.6565L123.647 80.3778H123.671L118.464 83.183L116.975 83.9687L116.58 84.1712C116.536 84.1973 116.488 84.2189 116.439 84.2357C116.479 84.2025 116.522 84.1736 116.568 84.1498L116.954 83.9288L118.421 83.1062L123.601 80.2489L129.378 79.5153L139.982 78.2263H140.006H140.022L141.942 79.7885L142.432 80.2366C142.497 80.2769 142.557 80.3231 142.613 80.3747Z" fill="#263238"/>
<path d="M116.434 74.5157C116.434 74.5157 115.392 72.754 116.434 72.3089C117.628 71.7964 137.568 69.3994 138.386 69.3288C140.004 69.1845 140.589 69.9181 140.968 71.8209C141.348 73.7238 142.194 78.4442 140.589 79.8161C138.984 81.188 136.484 81.7957 131.547 82.0996C126.609 82.4034 124.008 82.5722 121.576 81.2003C119.144 79.8284 116.434 74.5157 116.434 74.5157Z" fill="#263238"/>
<path d="M117.456 58.8323C117.407 58.8108 117.591 58.2491 117.989 57.2639C118.387 56.2787 118.997 54.87 119.827 53.1605C120.253 52.3073 120.721 51.3773 121.279 50.3982C121.86 49.3463 122.512 48.3353 123.23 47.3721C123.634 46.8402 124.092 46.3516 124.596 45.9142C125.122 45.4664 125.687 45.0668 126.284 44.7203C126.896 44.3673 127.509 44.0482 128.121 43.7136C128.734 43.3791 129.377 43.0476 130.03 42.7253C131.304 42.0828 132.626 41.541 133.984 41.1048C134.635 40.9043 135.295 40.7373 135.963 40.6046C136.618 40.4537 137.291 40.3867 137.963 40.4051C138.646 40.4223 139.31 40.6423 139.868 41.0373C140.371 41.4344 140.75 41.9667 140.962 42.5719C141.148 43.0958 141.288 43.635 141.381 44.1832C141.476 44.6896 141.568 45.1776 141.657 45.6441C142.025 47.501 142.3 49.0202 142.453 50.0668C142.607 51.1134 142.64 51.7088 142.588 51.718C142.536 51.7272 142.392 51.1563 142.147 50.1251L141.106 45.7607C140.995 45.3034 140.888 44.8093 140.778 44.309C140.676 43.7995 140.532 43.2995 140.346 42.8144C140.18 42.3091 139.854 41.8715 139.418 41.5676C138.983 41.2638 138.46 41.11 137.929 41.1294C137.318 41.1237 136.709 41.1949 136.116 41.3412C135.475 41.4759 134.841 41.6429 134.217 41.8414C132.901 42.2739 131.619 42.8054 130.382 43.4313C129.742 43.7382 129.111 44.0758 128.492 44.4042C127.873 44.7326 127.267 45.0518 126.682 45.3863C126.119 45.7053 125.586 46.0741 125.089 46.4881C124.619 46.8851 124.191 47.3294 123.812 47.814C123.098 48.7408 122.444 49.7116 121.851 50.7205C121.279 51.6658 120.786 52.562 120.32 53.4029C119.429 55.0664 118.742 56.4353 118.259 57.3775C117.775 58.3197 117.505 58.8538 117.456 58.8323Z" fill="#263238"/>
<path d="M135.455 48.7716C134.717 48.773 133.994 48.9731 133.36 49.3511C132.726 49.7291 132.206 50.271 131.853 50.92C131.509 50.2928 131.334 49.5867 131.345 48.8711C131.356 48.1554 131.553 47.4551 131.917 46.8391C132.28 46.2231 132.798 45.7126 133.418 45.358C134.039 45.0034 134.741 44.8169 135.455 44.8169C136.169 44.8169 136.871 45.0034 137.491 45.358C138.112 45.7126 138.629 46.2231 138.993 46.8391C139.357 47.4551 139.554 48.1554 139.565 48.8711C139.576 49.5867 139.401 50.2928 139.057 50.92C138.704 50.271 138.184 49.7291 137.55 49.3511C136.916 48.9731 136.192 48.773 135.455 48.7716Z" fill="#E0E0E0"/>
<path d="M133.685 48.79C133.685 49.1408 133.789 49.4838 133.983 49.7755C134.178 50.0673 134.454 50.2947 134.778 50.4289C135.101 50.5632 135.457 50.5983 135.801 50.5299C136.144 50.4614 136.46 50.2925 136.707 50.0444C136.955 49.7963 137.124 49.4802 137.192 49.1361C137.26 48.792 137.225 48.4353 137.091 48.1111C136.957 47.787 136.73 47.5099 136.439 47.315C136.148 47.1201 135.806 47.016 135.455 47.016C134.986 47.016 134.536 47.2029 134.204 47.5356C133.872 47.8683 133.685 48.3195 133.685 48.79Z" fill="white"/>
<path d="M133.685 48.79C133.685 48.79 133.685 48.7501 133.685 48.6765C133.684 48.5659 133.696 48.4556 133.722 48.3481C133.809 47.9453 134.036 47.5866 134.362 47.3352C134.714 47.0701 135.148 46.9402 135.587 46.9689C136.026 46.9977 136.44 47.1833 136.754 47.492C137.068 47.8007 137.261 48.2121 137.299 48.6513C137.336 49.0905 137.214 49.5285 136.956 49.8857C136.742 50.1826 136.441 50.4064 136.096 50.5272C135.807 50.6311 135.496 50.6597 135.192 50.6103C134.889 50.561 134.604 50.4352 134.362 50.2448C134.036 49.9935 133.809 49.6347 133.722 49.232C133.696 49.1244 133.684 49.0141 133.685 48.9036C133.685 48.8299 133.685 48.79 133.685 48.79C133.685 48.79 133.685 48.9496 133.771 49.2166C133.876 49.5929 134.104 49.9234 134.417 50.1558C134.67 50.3457 134.971 50.4613 135.286 50.4896C135.601 50.5179 135.918 50.4579 136.2 50.3161C136.483 50.1743 136.721 49.9565 136.887 49.6869C137.053 49.4174 137.141 49.1068 137.141 48.79C137.141 48.4732 137.053 48.1626 136.887 47.8931C136.721 47.6236 136.483 47.4057 136.2 47.2639C135.918 47.1222 135.601 47.0621 135.286 47.0904C134.971 47.1187 134.67 47.2343 134.417 47.4242C134.104 47.6566 133.876 47.9871 133.771 48.3634C133.694 48.6243 133.7 48.79 133.685 48.79Z" fill="#263238"/>
<path d="M131.345 48.9312C131.337 48.8433 131.337 48.7551 131.345 48.6672C131.345 48.5644 131.353 48.4618 131.369 48.3603C131.386 48.2156 131.412 48.0721 131.446 47.9306C131.633 47.1575 132.038 46.4545 132.613 45.9055C133.187 45.3564 133.907 44.9844 134.687 44.8338C135.421 44.6938 136.179 44.7532 136.883 45.0057C137.263 45.1389 137.621 45.3305 137.943 45.5735C138.284 45.8215 138.583 46.1219 138.831 46.4636C139.362 47.1808 139.649 48.0503 139.649 48.9434C139.649 49.8366 139.362 50.7061 138.831 51.4233C138.341 52.0932 137.663 52.601 136.883 52.8812C136.227 53.1197 135.521 53.1885 134.832 53.0812C134.142 52.9739 133.491 52.694 132.938 52.2673C132.191 51.6939 131.664 50.8798 131.446 49.9624C131.412 49.8209 131.386 49.6774 131.369 49.5327C131.353 49.4313 131.345 49.3286 131.345 49.2258C131.338 49.138 131.338 49.0497 131.345 48.9619C131.376 49.2975 131.43 49.6307 131.504 49.9593C131.739 50.8507 132.267 51.6367 133.002 52.1906C133.542 52.599 134.175 52.8653 134.844 52.965C135.513 53.0647 136.196 52.9948 136.831 52.7615C137.197 52.6307 137.541 52.4444 137.851 52.209C138.18 51.9711 138.467 51.6808 138.702 51.3497C139.212 50.6582 139.487 49.8213 139.487 48.9619C139.487 48.1024 139.212 47.2655 138.702 46.5741C138.466 46.2436 138.179 45.9534 137.851 45.7147C137.54 45.4805 137.196 45.2943 136.831 45.1622C136.151 44.9159 135.419 44.8534 134.708 44.9812C134.089 45.0945 133.504 45.352 133.002 45.7331C132.267 46.2877 131.74 47.0735 131.504 47.9644C131.431 48.283 131.378 48.6059 131.345 48.9312Z" fill="#263238"/>
<path d="M133.905 46.0032C133.85 45.9203 134.129 45.5889 134.772 45.3648C135.198 45.2246 135.647 45.1721 136.094 45.2106C136.54 45.2492 136.974 45.3778 137.37 45.5889C137.765 45.7999 138.114 46.089 138.395 46.4387C138.676 46.7884 138.884 47.1915 139.005 47.6237C139.177 48.2836 139.06 48.701 138.959 48.701C138.858 48.701 138.751 48.3358 138.478 47.8294C138.157 47.1743 137.637 46.6372 136.994 46.294C136.351 45.9509 135.617 45.8191 134.895 45.9173C134.325 45.9725 133.963 46.1045 133.905 46.0032Z" fill="white"/>
<path d="M132.874 46.6569C132.693 46.5311 132.616 46.3285 132.72 46.2273C132.825 46.126 133.027 46.2058 133.146 46.393C133.266 46.5802 133.321 46.7551 133.278 46.7981C133.235 46.8411 133.057 46.7828 132.874 46.6569Z" fill="white"/>
<path d="M109.545 64.4826C109.49 64.2678 114.9 62.7148 121.626 61.0114C128.352 59.308 133.85 58.1018 133.906 58.3167C133.961 58.5315 128.548 60.0845 121.822 61.7879C115.096 63.4913 109.6 64.6974 109.545 64.4826Z" fill="#263238"/>
<path d="M141.948 41.9427C141.938 41.9117 141.931 41.8799 141.927 41.8476C141.927 41.7862 141.896 41.6972 141.865 41.5775C141.775 41.2341 141.64 40.904 141.464 40.5954C141.184 40.1105 140.784 39.7057 140.303 39.4199C140.165 39.3339 139.997 39.2756 139.85 39.1989C139.681 39.1401 139.509 39.0899 139.335 39.0485C139.151 39.0054 138.964 38.9767 138.775 38.9626C138.576 38.9473 138.376 38.9473 138.178 38.9626C137.282 39.0629 136.396 39.2416 135.531 39.4966C134.591 39.7544 133.601 40.0736 132.566 40.4358C130.499 41.1631 128.247 42.0348 125.956 43.0998C125.671 43.2379 125.389 43.376 125.117 43.5233C124.849 43.672 124.595 43.8435 124.357 44.0359C123.886 44.4119 123.457 44.838 123.077 45.3065C122.378 46.261 121.738 47.2309 121.126 48.1393C119.9 49.9624 118.847 51.6351 117.989 53.05C117.131 54.4649 116.458 55.6434 116.013 56.4537L115.49 57.3744L115.352 57.6169C115.337 57.6453 115.32 57.6721 115.3 57.6967C115.309 57.6654 115.323 57.6355 115.34 57.6077C115.37 57.5432 115.41 57.4604 115.462 57.3591C115.572 57.1412 115.738 56.8189 115.958 56.4107C116.396 55.5913 117.046 54.4127 117.891 52.9794C118.737 51.5461 119.787 49.8673 121.003 48.0381C121.616 47.1173 122.228 46.1659 122.954 45.1899C123.341 44.7117 123.778 44.2774 124.259 43.8947C124.503 43.6951 124.765 43.5174 125.04 43.3637C125.316 43.2133 125.601 43.0752 125.886 42.9371C128.189 41.8691 130.443 41.0005 132.517 40.2762C133.555 39.9201 134.551 39.604 135.497 39.3554C136.371 39.1031 137.264 38.9285 138.168 38.8337C138.372 38.8168 138.577 38.8168 138.781 38.8337C138.976 38.8511 139.169 38.8819 139.36 38.9257C139.544 38.9626 139.715 39.0393 139.884 39.0884C140.042 39.1575 140.196 39.2354 140.346 39.3217C140.837 39.6214 141.242 40.0446 141.519 40.5493C141.691 40.8659 141.817 41.2047 141.896 41.556C141.918 41.647 141.933 41.7392 141.942 41.8322C141.951 41.8683 141.954 41.9058 141.948 41.9427Z" fill="#263238"/>
<g opacity="0.3">
<path opacity="0.3" d="M143.223 43.6798C143.529 43.7811 145.19 44.8185 145.894 45.2144C146.256 45.3982 146.577 45.6521 146.84 45.9614C147.103 46.2706 147.302 46.6291 147.426 47.016C147.628 47.7986 147.404 48.6181 147.184 49.3915C146.458 51.9236 145.615 56.4751 144.889 59.0072C144.323 54.4035 143.704 46.5955 143.229 43.6798" fill="white"/>
</g>
<path d="M120.413 80.1046C120.413 80.0616 125.133 79.3711 130.968 78.57C136.803 77.769 141.541 77.1398 141.548 77.1828C141.554 77.2257 136.827 77.9194 130.989 78.7173C125.151 79.5153 120.419 80.1507 120.413 80.1046Z" fill="#455A64"/>
<path d="M121.911 81.2647C121.975 81.2443 122.04 81.2299 122.107 81.2217L122.67 81.1297C123.16 81.0529 123.871 80.9486 124.747 80.8228C126.505 80.5772 128.937 80.2703 131.624 79.9511L138.503 79.1286L140.589 78.8769L141.156 78.8155C141.222 78.8107 141.288 78.8107 141.355 78.8155C141.293 78.8387 141.228 78.8531 141.162 78.8585L140.598 78.9506C140.108 79.0304 139.397 79.1317 138.518 79.2575C136.76 79.4999 134.331 79.8069 131.642 80.1261L124.762 80.9486L122.676 81.2003L122.11 81.2647C122.044 81.2728 121.977 81.2728 121.911 81.2647Z" fill="#455A64"/>
<path d="M125.234 82.1333C125.216 82.1333 125.421 82.1026 125.767 82.0597L127.246 81.8724L132.129 81.2832L137.03 80.7276L138.515 80.5773C138.697 80.55 138.88 80.5387 139.064 80.5435C138.886 80.587 138.706 80.6187 138.525 80.6386L137.048 80.8412C135.798 81.0039 134.071 81.2156 132.147 81.4397C130.224 81.6637 128.511 81.8571 127.246 81.9829C126.58 82.0782 125.907 82.1285 125.234 82.1333Z" fill="#455A64"/>
<path d="M119.307 78.7848C119.307 78.7388 124.275 78.0483 130.417 77.2503C136.558 76.4523 141.545 75.8201 141.551 75.8661C141.557 75.9121 136.583 76.5996 130.438 77.4007C124.294 78.2017 119.313 78.8278 119.307 78.7848Z" fill="#455A64"/>
<path d="M118.446 77.5572C118.446 77.5142 123.589 76.7991 129.947 75.9612C136.306 75.1234 141.468 74.4788 141.474 74.5218C141.48 74.5648 136.328 75.2799 129.969 76.1208C123.61 76.9618 118.449 77.6001 118.446 77.5572Z" fill="#455A64"/>
<path d="M117.471 76.1085C117.471 76.0656 122.761 75.329 129.298 74.4696C135.834 73.6103 141.142 72.9351 141.148 72.9872C141.155 73.0394 135.859 73.7668 129.319 74.6262C122.779 75.4855 117.477 76.1515 117.471 76.1085Z" fill="#455A64"/>
<path d="M116.727 74.6292C116.727 74.5832 122.112 73.8374 128.765 72.9627C135.418 72.088 140.818 71.4097 140.824 71.4526C140.83 71.4956 135.439 72.2445 128.786 73.1192C122.133 73.9939 116.733 74.6722 116.727 74.6292Z" fill="#455A64"/>
<path d="M115.974 73.1499C115.974 73.1069 121.401 72.355 128.109 71.4711C134.817 70.5871 140.26 69.9058 140.267 69.9365C140.273 69.9672 134.839 70.7314 128.131 71.6153C121.423 72.4992 115.98 73.1929 115.974 73.1499Z" fill="#455A64"/>
<path d="M133.55 69.7769C133.593 69.7769 134.194 72.4102 134.886 75.6789C135.578 78.9475 136.111 81.6054 136.068 81.6146C136.025 81.6238 135.425 78.9813 134.73 75.7126C134.034 72.444 133.498 69.8014 133.55 69.7769Z" fill="#455A64"/>
<path d="M135.546 69.4393C135.589 69.4393 136.187 72.0726 136.882 75.3413C137.577 78.6099 138.107 81.2709 138.061 81.2801C138.015 81.2893 137.421 78.6467 136.726 75.375C136.03 72.1033 135.504 69.4485 135.546 69.4393Z" fill="#455A64"/>
<path d="M137.554 69.1048C137.597 69.1048 138.166 71.5939 138.822 74.6876C139.477 77.7813 139.977 80.2949 139.934 80.3041C139.891 80.3133 139.321 77.815 138.666 74.7213C138.01 71.6276 137.511 69.114 137.554 69.1048Z" fill="#455A64"/>
<path d="M139.724 69.562C139.772 69.6656 139.806 69.775 139.825 69.8874C139.88 70.0991 139.954 70.406 140.037 70.7897C140.208 71.5508 140.419 72.6128 140.622 73.7883C140.824 74.9637 141.017 75.9888 141.161 76.796C141.225 77.1521 141.28 77.4559 141.323 77.7168C141.352 77.827 141.365 77.9406 141.363 78.0544C141.317 77.9503 141.284 77.841 141.265 77.729C141.21 77.5173 141.136 77.2073 141.05 76.8267C140.882 76.0625 140.671 75.0006 140.465 73.8251C140.26 72.6496 140.07 71.6276 139.926 70.8204C139.862 70.4613 139.81 70.1574 139.764 69.8996C139.737 69.7891 139.724 69.6757 139.724 69.562Z" fill="#455A64"/>
<path d="M131.225 70.1912C131.268 70.1912 131.838 72.7325 132.518 75.8845C133.198 79.0365 133.697 81.6054 133.651 81.6146C133.605 81.6238 133.039 79.0734 132.362 75.9183C131.685 72.7632 131.182 70.2004 131.225 70.1912Z" fill="#455A64"/>
<path d="M128.918 70.6577C128.961 70.6577 129.531 73.2051 130.214 76.3694C130.897 79.5337 131.396 82.1026 131.353 82.1118C131.31 82.121 130.741 79.5644 130.058 76.4001C129.374 73.2358 128.875 70.6669 128.918 70.6577Z" fill="#455A64"/>
<path d="M126.541 70.7836C126.584 70.7836 127.154 73.3095 127.825 76.4431C128.496 79.5767 128.995 82.1272 128.952 82.1364C128.909 82.1456 128.339 79.6135 127.669 76.4769C126.998 73.3402 126.505 70.7928 126.541 70.7836Z" fill="#455A64"/>
<path d="M124.201 71.0905C124.244 71.0905 124.813 73.6041 125.478 76.7193C126.143 79.8345 126.642 82.3727 126.599 82.3819C126.556 82.3911 125.987 79.8713 125.322 76.7531C124.657 73.6348 124.158 71.0997 124.201 71.0905Z" fill="#455A64"/>
<path d="M121.909 71.5509C121.952 71.5509 122.488 73.8957 123.107 76.8145C123.725 79.7332 124.194 82.1026 124.151 82.1118C124.108 82.121 123.572 79.7639 122.951 76.8452C122.329 73.9264 121.848 71.5601 121.909 71.5509Z" fill="#455A64"/>
<path d="M119.53 71.7442C119.573 71.7442 120.079 73.9386 120.657 76.6548C121.236 79.371 121.671 81.5962 121.628 81.6054C121.586 81.6146 121.08 79.414 120.501 76.6947C119.922 73.9755 119.487 71.7534 119.53 71.7442Z" fill="#455A64"/>
<path d="M117.206 72.1248C117.49 73.0774 117.723 74.0445 117.904 75.0221C118.136 75.9878 118.316 76.9652 118.444 77.95C118.16 76.9976 117.927 76.0304 117.748 75.0528C117.515 74.0872 117.334 73.1098 117.206 72.1248Z" fill="#455A64"/>
<path d="M40.856 80.9208C40.856 80.878 56.0762 80.8412 74.8556 80.8412C93.635 80.8412 108.855 80.878 108.855 80.9208C108.855 80.9637 93.6381 81.0005 74.8556 81.0005C56.0731 81.0005 40.856 80.9668 40.856 80.9208Z" fill="#263238"/>
<path d="M42.1885 79.3801C42.1885 79.3342 56.7563 79.3005 74.7209 79.3005C92.6856 79.3005 107.253 79.3342 107.253 79.3801C107.253 79.4261 92.6917 79.4598 74.7209 79.4598C56.7501 79.4598 42.1885 79.423 42.1885 79.3801Z" fill="#263238"/>
<path d="M44.2139 77.8026C44.2139 77.7566 57.9975 77.7229 74.9851 77.7229C91.9726 77.7229 105.756 77.7566 105.756 77.8026C105.756 77.8485 91.9726 77.8822 74.9851 77.8822C57.9975 77.8822 44.2139 77.8455 44.2139 77.8026Z" fill="#263238"/>
<path d="M45.5645 76.225C45.5645 76.1791 58.6865 76.1454 74.8715 76.1454C91.0566 76.1454 104.182 76.1791 104.182 76.225C104.182 76.271 91.0627 76.3047 74.8715 76.3047C58.6803 76.3047 45.5645 76.2679 45.5645 76.225Z" fill="#263238"/>
<path d="M47.8125 74.7119C47.8125 74.669 59.9789 74.6323 74.9846 74.6323C89.9904 74.6323 102.157 74.669 102.157 74.7119C102.157 74.7548 89.9935 74.7916 74.9846 74.7916C59.9758 74.7916 47.8125 74.7671 47.8125 74.7119Z" fill="#263238"/>
<path d="M50.3613 73.2203C50.3613 73.1774 61.3515 73.1407 74.9084 73.1407C88.4654 73.1407 99.4586 73.1774 99.4586 73.2203C99.4586 73.2632 88.4685 73.2999 74.9084 73.2999C61.3484 73.2999 50.3613 73.2632 50.3613 73.2203Z" fill="#263238"/>
<path d="M74.3839 7.17837H73.5508V8.67918H74.3839V7.17837Z" fill="#263238"/>
<g opacity="0.3">
<path opacity="0.3" d="M27.4487 35.3164C27.4487 35.3164 28.9527 34.8039 28.6556 33.6775C31.8249 35.3369 35.3564 36.1807 38.932 36.1328C44.8529 36.0438 66.5514 37.3605 66.5514 37.3605L69.0386 40.804C69.0386 40.804 32.2975 39.9692 30.9375 40.8593L27.4487 35.3164Z" fill="white"/>
</g>
<g opacity="0.3">
<path opacity="0.3" d="M13.6653 38.0541C13.359 38.0541 23.0259 41.3841 24.2787 42.4307L26.2544 41.998L19.3534 30.5347L18.5631 30.3474C18.5631 30.3474 16.1923 38.0694 13.6653 38.0541Z" fill="white"/>
</g>
<g opacity="0.3">
<path opacity="0.3" d="M36.9106 3.20075C37.0944 3.20075 74.7544 1.58637 74.6931 1.08917C74.6319 0.591968 57.9016 0.656421 50.5534 1.08917C45.952 1.38319 41.3861 2.08988 36.9106 3.20075Z" fill="white"/>
</g>
<g opacity="0.2">
<path opacity="0.2" d="M21.1367 24.1692L51.767 16.5976L57.5378 3.93121L32.7762 4.96244C32.6138 4.95374 32.4527 4.99609 32.3154 5.08357C32.1781 5.17106 32.0715 5.29932 32.0105 5.45044L21.1367 24.1692Z" fill="white"/>
</g>
</svg>
