<svg width="512" height="512" viewBox="0 0 512 512" fill="none" xmlns="http://www.w3.org/2000/svg">
<path d="M86.5 93.9002C77.3 95.5002 75.5 97.4002 60.5 121C53.6 131.9 47.2 141.4 46.2 142.2C45.3 143.1 38.2 146.6 30.5 150.1C22.8 153.5 15.3 157.2 13.9 158.2C9.4 161.2 8 166.5 8 180.6C8 194.5 8.9 197.6 14.1 202.6C16.6 205 17.9 205.5 22.7 205.5H28.3L29.5 201.3C32.5 191.2 40.7 181.9 50.8 177.2C55.7 174.9 57.8 174.5 66 174.5C74.4 174.5 76.3 174.8 81.7 177.4C91.4 181.8 99.5 191.2 102.5 201.5L103.7 205.5L151.4 205.8C192.8 206 199 205.8 199 204.5C199 203.7 199.9 200.6 201.1 197.5C204 189.8 211.5 181.9 219.8 177.8C225.9 174.8 227.2 174.5 236 174.5C244.6 174.5 246.1 174.8 252 177.6C262.1 182.5 269.5 191 272.5 201.3C273.6 205 274.1 205.5 276.9 205.8C279.6 206.1 280.8 205.5 283.9 202.2C288.5 197.4 289 195.1 289 180.3C289 167.8 287.8 163.2 283.7 160.6C282.4 159.7 269 155.6 253.9 151.4C236.6 146.7 225.8 143.2 224.6 142.1C223.6 141 216 131.3 207.6 120.4C199.3 109.6 190.9 99.4002 188.9 97.8002C186.5 95.9002 183.5 94.6002 179.4 94.0002C172.8 92.9002 92.8 92.9002 86.5 93.9002Z" fill="#fff"/>
<path d="M366.9 179.9L364 182.8V209.9V237H413C440 237 462 236.8 462 236.6C462 234.7 433.3 181 431.4 179.2C428.9 177 428.6 177 399.4 177H369.8L366.9 179.9Z" fill="#fff"/>
<path d="M62.0001 189C41.8001 192.8 38.0001 220.3 56.3001 229.5C66.3001 234.4 78.3001 231.3 84.1001 222.2C94.4001 205.9 80.8001 185.5 62.0001 189Z" fill="#fff"/>
<path d="M232.001 189C219.901 191.2 212.401 202.7 215.101 214.8C216.601 221.5 220.401 226.5 226.301 229.5C243.201 237.9 262.001 222.4 256.901 204.3C254.001 193.7 242.901 187 232.001 189Z" fill="#fff"/>
<path d="M322.9 203.5C318.7 205.8 318 209.6 318 230.1V249H161.5H4.9L2.5 251.5C0.7 253.2 0 255 0 257.7C0.1 261.9 1.3 264 4.7 265.8C6.3 266.7 47.6 267 169 267H331.1L333.5 264.6C334.8 263.3 336.1 260.7 336.5 258.9C336.8 257 337 244.5 336.8 231.2L336.5 206.8L333.7 204.4C330.5 201.7 326.8 201.4 322.9 203.5Z" fill="#fff"/>
<path d="M364 310.5V368H374.3L384.5 367.9L388.3 360C392.7 350.6 400.5 342.1 409.1 337.2C415.6 333.5 428.2 330 435 330C449.3 330 464.4 336.4 473.9 346.6C479.1 352.2 486 363.7 486 366.9C486 367.6 489.5 368 496.5 368C506.4 368 507.2 367.8 509.5 365.5L512 363.1V316.6V270L509.8 268.6C508.5 267.8 500 264 490.8 260.1L474.1 253H419.1H364V310.5Z" fill="#fff"/>
<path d="M35.5006 294.2C31.1006 296.7 31.1006 297.2 31.0006 329C31.0006 369.2 30.3006 368 52.3006 368H64.5006L68.4006 359.9C77.0005 341.9 96.0006 330 116.001 330C135.701 330 155.301 342.6 163.601 360.5L167.101 368H257.501H348.001V330.5V293H192.801C77.9005 293.1 37.0006 293.4 35.5006 294.2Z" fill="#fff"/>
<path d="M104.9 346.4C89.4005 352.4 80.6005 363.5 79.3005 378.8C77.3005 402.6 97.9005 421.5 121.8 417.8C145.9 414.1 159.6 387.3 148.8 365.2C145.6 358.7 138 351.4 131.2 348.2C124.3 345.1 110.8 344.1 104.9 346.4Z" fill="#fff"/>
<path d="M424.9 346.4C413.5 350.8 407.3 356.3 402.6 366C399.8 371.9 399.5 373.4 399.5 382C399.5 390.1 399.9 392.3 402.1 397C409.1 411.8 424.5 420 441.4 417.8C449.3 416.7 455.4 413.6 461.5 407.5C467.6 401.4 470.7 395.3 471.8 387.4C474 370.5 465.8 354.9 451 348.1C444.3 345.1 430.7 344.2 424.9 346.4Z" fill="#fff"/>
</svg>