<svg width="500" height="500" viewBox="0 0 500 500" fill="none" xmlns="http://www.w3.org/2000/svg">
<path d="M372.8 114C322.72 80.93 252.8 46.38 186.29 42.11C119.78 37.84 91.36 59.66 74.38 76C50.84 98.65 21.52 145.19 62.19 228.44C93.04 291.58 51.65 310.7 25.64 357.44C-2.90995 408.7 52.87 468.87 162.06 474C277.48 479.4 372.86 437 439.15 372C478.61 333.33 485.15 287.25 484.24 265.12C482.07 213.23 445.54 162 372.8 114Z" fill="#263238"/>
<path opacity="0.3" d="M169.29 246.77C153.072 246.77 137.218 241.961 123.733 232.951C110.248 223.94 99.7383 211.134 93.532 196.15C87.3256 181.166 85.7017 164.679 88.8657 148.773C92.0297 132.866 99.8394 118.255 111.307 106.787C122.775 95.3193 137.386 87.5096 153.293 84.3456C169.199 81.1816 185.687 82.8055 200.67 89.0119C215.654 95.2183 228.46 105.728 237.471 119.213C246.481 132.698 251.29 148.552 251.29 164.77C251.266 186.51 242.619 207.354 227.247 222.726C211.874 238.099 191.031 246.746 169.29 246.77V246.77ZM169.29 83.77C153.27 83.77 137.609 88.5206 124.289 97.421C110.969 106.321 100.587 118.972 94.4558 133.773C88.3251 148.573 86.7211 164.86 89.8465 180.572C92.9719 196.285 100.686 210.718 112.014 222.046C123.342 233.374 137.775 241.088 153.488 244.214C169.2 247.339 185.487 245.735 200.287 239.604C215.088 233.474 227.739 223.092 236.639 209.771C245.54 196.451 250.29 180.79 250.29 164.77C250.266 143.296 241.724 122.708 226.539 107.524C211.353 92.3405 190.764 83.8012 169.29 83.78V83.77Z" fill="#D21B60"/>
<path opacity="0.2" d="M169.29 252.74C151.885 252.74 134.871 247.579 120.4 237.909C105.928 228.24 94.6492 214.496 87.9887 198.416C81.3282 182.336 79.5855 164.642 82.981 147.572C86.3765 130.502 94.7577 114.822 107.065 102.515C119.372 90.2076 135.052 81.8264 152.122 78.4309C169.192 75.0354 186.886 76.7781 202.966 83.4386C219.046 90.0991 232.79 101.378 242.459 115.85C252.129 130.321 257.29 147.335 257.29 164.74C257.272 188.073 247.994 210.446 231.495 226.945C214.996 243.444 192.623 252.721 169.29 252.74V252.74ZM169.29 77.8C152.083 77.8 135.263 82.9024 120.955 92.4621C106.648 102.022 95.4974 115.609 88.9126 131.507C82.3277 147.404 80.6048 164.896 83.9618 181.773C87.3187 198.649 95.6046 214.151 107.772 226.318C119.939 238.485 135.441 246.771 152.317 250.128C169.194 253.485 186.686 251.762 202.584 245.177C218.481 238.593 232.068 227.442 241.628 213.135C251.188 198.828 256.29 182.007 256.29 164.8C256.272 141.732 247.1 119.614 230.788 103.302C214.476 86.9905 192.358 77.8185 169.29 77.8V77.8Z" fill="#D21B60"/>
<path opacity="0.1" d="M169.29 260.12C150.431 260.122 131.995 254.532 116.314 244.056C100.632 233.58 88.4093 218.689 81.1909 201.266C73.9726 183.843 72.0829 164.671 75.7609 146.174C79.4389 127.678 88.5193 110.687 101.854 97.3509C115.188 84.015 132.178 74.9328 150.674 71.2529C169.171 67.573 188.343 69.4606 205.767 76.6772C223.19 83.8937 238.082 96.1149 248.56 111.795C259.038 127.476 264.63 145.911 264.63 164.77C264.604 190.049 254.551 214.284 236.677 232.16C218.803 250.035 194.569 260.091 169.29 260.12ZM169.29 70.43C150.628 70.428 132.385 75.9602 116.868 86.3267C101.351 96.6933 89.2562 111.429 82.1139 128.669C74.9715 145.91 73.1022 164.881 76.7424 183.184C80.3826 201.487 89.3688 218.3 102.564 231.496C115.76 244.691 132.573 253.677 150.876 257.318C169.179 260.958 188.15 259.089 205.391 251.946C222.631 244.804 237.367 232.709 247.733 217.192C258.1 201.675 263.632 183.432 263.63 164.77C263.601 139.758 253.652 115.78 235.966 98.0937C218.28 80.4079 194.302 70.4591 169.29 70.43V70.43Z" fill="#D21B60"/>
<path opacity="0.1" d="M169.29 269.28C148.62 269.282 128.413 263.154 111.225 251.672C94.0368 240.189 80.6399 223.868 72.7283 204.771C64.8166 185.675 62.7456 164.661 66.777 144.387C70.8084 124.114 80.7612 105.491 95.3768 90.8738C109.992 76.2568 128.614 66.3022 148.888 62.2689C169.161 58.2355 190.175 60.3046 209.272 68.2144C228.369 76.1242 244.692 89.5195 256.176 106.706C267.66 123.893 273.79 144.099 273.79 164.77C273.761 192.477 262.742 219.041 243.151 238.634C223.56 258.227 196.997 269.248 169.29 269.28V269.28ZM169.29 61.28C148.817 61.278 128.804 67.3471 111.78 78.7197C94.7568 90.0923 81.4881 106.258 73.6522 125.172C65.8162 144.085 63.7649 164.898 67.7578 184.978C71.7506 205.057 81.6082 223.502 96.0839 237.979C110.56 252.456 129.003 262.316 149.083 266.31C169.162 270.305 189.975 268.256 208.889 260.422C227.804 252.588 243.971 239.32 255.345 222.298C266.719 205.276 272.79 185.263 272.79 164.79C272.764 137.345 261.852 111.032 242.448 91.6231C223.045 72.214 196.735 61.2944 169.29 61.26V61.28Z" fill="#D21B60"/>
<path d="M222.821 218.299C252.388 188.732 252.388 140.795 222.821 111.229C193.255 81.6623 145.318 81.6623 115.751 111.229C86.1845 140.795 86.1845 188.732 115.751 218.299C145.318 247.866 193.255 247.866 222.821 218.299Z" fill="#D21B60"/>
<path opacity="0.7" d="M222.821 218.299C252.388 188.732 252.388 140.795 222.821 111.229C193.255 81.6623 145.318 81.6623 115.751 111.229C86.1845 140.795 86.1845 188.732 115.751 218.299C145.318 247.866 193.255 247.866 222.821 218.299Z" fill="white"/>
<path d="M161 119.27C157.19 112.12 150.78 101.27 145.76 92.82C141.18 94.3181 136.753 96.2502 132.54 98.59C141.81 112.38 150.79 124.92 153.19 129.17C156.12 134.38 167.93 132.29 161 119.27Z" fill="#D21B60"/>
<path d="M224.75 216.29C211.92 203.82 188.06 180.5 178 170C163.93 155.25 150.62 154.69 146.59 149.24C143.67 145.24 128.93 120.71 120.13 107.24C117.962 109.094 115.899 111.067 113.95 113.15C120.6 125.44 131.33 145.15 133.76 149.24C137.35 155.24 133.76 161.89 129.29 155.45C126.52 151.45 114.17 135.73 105.23 124.45C102.297 129.065 99.8731 133.983 98 139.12C110.84 157.95 127.74 176.76 133.73 178.89C140.45 181.28 151.39 169.82 158.68 176.59C164.15 181.67 194.77 213.2 209.79 228.7C215.287 225.221 220.315 221.05 224.75 216.29V216.29Z" fill="#D21B60"/>
<path d="M169.28 240.48C178.728 240.485 188.093 238.718 196.89 235.27C184.44 224.05 164.65 206.48 158.72 202.65C149.86 196.91 146.72 214.11 138.92 212.65C132.05 211.41 112.69 190.08 93.5901 163.97C93.5901 164.23 93.5901 164.47 93.5901 164.72C93.5822 174.665 95.5341 184.515 99.3343 193.705C103.134 202.896 108.708 211.248 115.737 218.283C122.766 225.319 131.113 230.9 140.3 234.709C149.487 238.518 159.335 240.479 169.28 240.48V240.48Z" fill="#D21B60"/>
<path d="M200.2 95.67C199.84 99.76 201.59 104.61 207.43 112.35C216.57 124.48 224.43 132.78 227.28 137.75C230.13 142.72 219.18 141.69 223.08 149.75C225.57 154.88 236.62 166.62 244.35 174.5C246.462 158.358 243.306 141.965 235.351 127.762C227.396 113.558 215.068 102.302 200.2 95.67V95.67Z" fill="#D21B60"/>
<path d="M188.43 137.75C185.3 129.69 194.68 123.96 191.04 114.58C188.82 108.87 182.55 97.58 177.98 89.58C175.093 89.2394 172.188 89.0658 169.28 89.06C166.147 89.0677 163.018 89.2681 159.91 89.66C166.6 102.27 174.15 116.88 175.4 121.87C176.96 128.12 165.77 135.05 169.28 139.4C172.22 143.04 217.55 191.03 232.34 206.67C235.61 201.774 238.295 196.511 240.34 190.99C227.26 178.73 191 144.34 188.43 137.75Z" fill="#D21B60"/>
<g opacity="0.05">
<path opacity="0.05" d="M161 119.27C157.19 112.12 150.78 101.27 145.76 92.82C141.18 94.3181 136.753 96.2502 132.54 98.59C141.81 112.38 150.79 124.92 153.19 129.17C156.12 134.38 167.93 132.29 161 119.27Z" fill="white"/>
<path opacity="0.05" d="M224.75 216.29C211.92 203.82 188.06 180.5 178 170C163.93 155.25 150.62 154.69 146.59 149.24C143.67 145.24 128.93 120.71 120.13 107.24C117.962 109.094 115.899 111.067 113.95 113.15C120.6 125.44 131.33 145.15 133.76 149.24C137.35 155.24 133.76 161.89 129.29 155.45C126.52 151.45 114.17 135.73 105.23 124.45C102.297 129.065 99.8731 133.983 98 139.12C110.84 157.95 127.74 176.76 133.73 178.89C140.45 181.28 151.39 169.82 158.68 176.59C164.15 181.67 194.77 213.2 209.79 228.7C215.287 225.221 220.315 221.05 224.75 216.29V216.29Z" fill="white"/>
<path opacity="0.05" d="M169.28 240.48C178.728 240.485 188.093 238.718 196.89 235.27C184.44 224.05 164.65 206.48 158.72 202.65C149.86 196.91 146.72 214.11 138.92 212.65C132.05 211.41 112.69 190.08 93.5901 163.97C93.5901 164.23 93.5901 164.47 93.5901 164.72C93.5822 174.665 95.5341 184.515 99.3343 193.705C103.134 202.896 108.708 211.248 115.737 218.283C122.766 225.319 131.113 230.9 140.3 234.709C149.487 238.518 159.335 240.479 169.28 240.48V240.48Z" fill="white"/>
<path opacity="0.05" d="M200.2 95.67C199.84 99.76 201.59 104.61 207.43 112.35C216.57 124.48 224.43 132.78 227.28 137.75C230.13 142.72 219.18 141.69 223.08 149.75C225.57 154.88 236.62 166.62 244.35 174.5C246.462 158.358 243.306 141.965 235.351 127.762C227.396 113.558 215.068 102.302 200.2 95.67V95.67Z" fill="white"/>
<path opacity="0.05" d="M188.43 137.75C185.3 129.69 194.68 123.96 191.04 114.58C188.82 108.87 182.55 97.58 177.98 89.58C175.093 89.2394 172.188 89.0658 169.28 89.06C166.147 89.0677 163.018 89.2681 159.91 89.66C166.6 102.27 174.15 116.88 175.4 121.87C176.96 128.12 165.77 135.05 169.28 139.4C172.22 143.04 217.55 191.03 232.34 206.67C235.61 201.774 238.295 196.511 240.34 190.99C227.26 178.73 191 144.34 188.43 137.75Z" fill="white"/>
</g>
<g opacity="0.2">
<path opacity="0.2" d="M177.59 210.28C181.4 217.42 187.81 228.33 192.83 236.73C197.409 235.245 201.836 233.326 206.05 231C196.78 217.21 187.8 204.67 185.4 200.42C182.45 195.17 170.64 197.26 177.59 210.28Z" fill="white"/>
<path opacity="0.2" d="M113.82 113.26C126.65 125.73 150.51 149.05 160.56 159.58C174.63 174.33 187.94 174.89 191.97 180.34C194.89 184.29 209.63 208.87 218.43 222.34C220.598 220.486 222.662 218.513 224.61 216.43C217.96 204.14 207.24 184.43 204.8 180.34C201.21 174.34 204.8 167.69 209.27 174.13C212.04 178.13 224.39 193.85 233.33 205.13C236.255 200.501 238.669 195.569 240.53 190.42C227.69 171.59 210.79 152.78 204.8 150.65C198.09 148.26 187.14 159.72 179.8 152.95C174.33 147.87 143.71 116.34 128.69 100.84C123.226 104.331 118.229 108.505 113.82 113.26V113.26Z" fill="white"/>
<path opacity="0.2" d="M169.29 89.06C159.841 89.0586 150.476 90.8292 141.68 94.28C154.14 105.5 173.92 123.07 179.85 126.9C188.71 132.63 191.85 115.44 199.65 116.85C206.52 118.09 225.88 139.42 244.98 165.52C244.98 165.27 244.98 165.03 244.98 164.77C244.98 144.694 237.006 125.44 222.812 111.242C208.618 97.0442 189.366 89.0653 169.29 89.06Z" fill="white"/>
<path opacity="0.2" d="M138.37 233.88C138.73 229.79 136.98 224.94 131.14 217.2C122 205.07 114.14 196.77 111.29 191.8C108.44 186.83 119.39 187.86 115.49 179.8C113 174.66 102 162.92 94.2201 155C92.1055 171.144 95.2606 187.539 103.216 201.744C111.171 215.95 123.501 227.207 138.37 233.84V233.88Z" fill="white"/>
<path opacity="0.2" d="M150.14 191.8C153.27 199.86 143.89 205.59 147.54 214.97C149.75 220.68 156.02 231.97 160.59 239.97C166.594 240.676 172.662 240.649 178.66 239.89C171.97 227.28 164.42 212.67 163.17 207.68C161.61 201.42 172.8 194.5 169.29 190.14C166.35 186.5 121.02 138.52 106.23 122.88C102.96 127.776 100.275 133.039 98.23 138.56C111.31 150.82 147.58 185.21 150.14 191.8Z" fill="white"/>
</g>
<path opacity="0.1" d="M244.14 176.15C238.55 204.15 188.08 229.81 147.62 212.49C104.62 194.06 96.5002 135.89 117.56 109.49C108.744 117.74 102.028 127.979 97.9737 139.352C93.9195 150.726 92.6444 162.904 94.2547 174.87C95.8651 186.837 100.314 198.245 107.231 208.142C114.147 218.039 123.331 226.138 134.015 231.764C144.699 237.389 156.573 240.378 168.647 240.48C180.721 240.582 192.644 237.795 203.422 232.352C214.2 226.908 223.519 218.965 230.602 209.187C237.686 199.408 242.327 188.078 244.14 176.14V176.15Z" fill="black"/>
<path opacity="0.5" d="M213.726 136.575C217.773 119.429 207.154 102.248 190.007 98.2006C172.86 94.1536 155.679 104.773 151.632 121.92C147.585 139.067 158.205 156.248 175.351 160.295C192.498 164.342 209.679 153.722 213.726 136.575Z" fill="white"/>
<path opacity="0.5" d="M222.76 178.14C230.829 178.14 237.37 171.599 237.37 163.53C237.37 155.461 230.829 148.92 222.76 148.92C214.691 148.92 208.15 155.461 208.15 163.53C208.15 171.599 214.691 178.14 222.76 178.14Z" fill="white"/>
<path opacity="0.1" d="M93.5801 164.77C93.5774 181.243 98.9473 197.267 108.875 210.412C118.803 223.557 132.747 233.105 148.593 237.608C164.438 242.112 181.32 241.324 196.677 235.366C212.034 229.407 225.029 218.602 233.69 204.59C231.99 207.25 210.57 240.94 157.64 231.25C102.53 221.16 93.5801 164.79 94.5001 152.9C93.8845 156.827 93.5769 160.795 93.5801 164.77V164.77Z" fill="black"/>
<path d="M328.2 235.32C318.09 233.98 313.2 230.01 296.26 239.54C292.26 241.8 284.13 246.54 274.09 252.4C274.09 252.4 262.4 264.56 247.57 272.31C219.57 286.98 189.34 302.42 189.34 302.42C189.856 302.859 190.45 303.198 191.09 303.42C199.44 306.79 230.42 318.32 244.03 313.42C259.87 307.77 328.2 235.32 328.2 235.32Z" fill="#D21B60"/>
<path opacity="0.5" d="M201.06 297.23C201.06 297.23 245.57 276 250.26 273C253.899 270.774 257.342 268.241 260.55 265.43C262.11 263.93 261.72 268.95 253.55 273.53C242.51 279.74 201.06 297.23 201.06 297.23Z" fill="white"/>
<path d="M262.47 255.6C262.47 257.04 262.59 259.03 262.73 261.6C263.029 264.419 262.321 267.253 260.73 269.6C259.344 271.626 257.51 273.306 255.37 274.51C238.89 284.65 189.3 302.37 189.3 302.37L191.05 303.37L248.05 291.58L268 278.48L268.47 256.89L265.37 255.24L262.47 255.6Z" fill="#37474F"/>
<path d="M268.54 256.9V257.99C268.185 259.231 267.468 260.339 266.48 261.17C265.968 261.481 265.379 261.644 264.78 261.64C263.68 261.64 262.73 261.08 262.67 260.18C262.67 259.94 262.67 259.7 262.67 259.47C262.57 257.76 262.53 256.63 262.53 255.6L265.53 255.25L268.54 256.9Z" fill="#D21B60"/>
<path opacity="0.3" d="M268.54 256.9V257.99C268.185 259.231 267.468 260.339 266.48 261.17C265.968 261.481 265.379 261.644 264.78 261.64C263.68 261.64 262.73 261.08 262.67 260.18C262.67 259.94 262.67 259.7 262.67 259.47C262.57 257.76 262.53 256.63 262.53 255.6L265.53 255.25L268.54 256.9Z" fill="black"/>
<path d="M338.31 242.41C335 234.58 328.93 234.59 318.93 236.01C317.77 236.18 292.22 241.52 277.93 247.01C267.13 251.15 263.93 254.28 263.09 254.78C261.09 255.93 264.4 257.84 266.59 256.78C266.59 258.48 266.64 259.93 266.59 261.22C266.32 268.97 265.05 270.14 261.33 274.31C259.81 276.03 255.23 278.31 252.73 279.75C248.06 282.37 237.08 286.99 224.68 291.75C219.37 293.8 193.83 303.38 191.1 303.35L259.1 345.91L280.49 362L381.17 267.3L338.31 242.41Z" fill="#D21B60"/>
<path opacity="0.15" d="M357.76 277L345.45 284.15L319.68 268.44C319.68 268.44 330.08 273.83 338.04 275.44C346 277.05 350.85 276.99 354.52 275.12L357.76 277Z" fill="black"/>
<path d="M266.58 256.78L274.54 251.43L340.09 287.21L329.64 293.24L329.65 333.66L266.58 297.24V256.78Z" fill="#D21B60"/>
<path opacity="0.25" d="M266.58 256.78L274.54 251.43L340.09 287.21L329.64 293.24L329.65 333.66L266.58 297.24V256.78Z" fill="black"/>
<path opacity="0.5" d="M339.68 286.99L274.54 251.43L266.58 256.78V256.81L329.66 293.23L339.52 287.54L339.68 286.99Z" fill="#D21B60"/>
<path d="M269.93 258.77V287.11L326.07 319.48V291.14L269.93 258.77Z" fill="#37474F"/>
<path d="M269.93 258.77L276.94 254.72L333.08 287.09L326.07 291.14L269.93 258.77Z" fill="#455A64"/>
<path opacity="0.5" d="M284.93 245.32C279.67 246.94 276.14 247.94 277.45 248.65C278.76 249.36 312.45 240.17 319.06 238.96C325.67 237.75 330.73 237.23 322.56 235.41C315.27 233.79 310.56 234.31 306.24 235.83C301.92 237.35 293.69 241.83 293.69 241.83C293.69 241.83 314.76 236.63 315.55 236.53C316.34 236.43 318.33 236.53 313.38 237.93C308.43 239.33 290.18 243.7 284.93 245.32Z" fill="white"/>
<path opacity="0.15" d="M295.82 241.3C298.74 241.69 300.5 243.23 300.72 244.14L301.16 254.25L349.31 281.93L348.26 282.54L300.05 254.75L299.7 244.4C299.7 244.4 299.9 242.62 295.82 241.3Z" fill="black"/>
<path opacity="0.3" d="M249.38 318.57C249.38 318.57 250.44 296.87 251.24 280.57C245.98 283.27 235.92 287.46 224.67 291.81C220.04 293.6 200.06 301.1 193.18 302.98L191.09 303.41L230.96 328.41L249.38 318.57Z" fill="black"/>
<path d="M310.86 339.57L303.03 339.41L291.12 332.59C290.009 332.033 288.794 331.714 287.552 331.654C286.311 331.594 285.07 331.793 283.91 332.24L269.47 338.76L259.58 338.56V344.34C259.629 344.746 259.784 345.132 260.03 345.458C260.276 345.785 260.604 346.041 260.98 346.2L286.9 361.2C287.949 361.742 289.128 361.98 290.304 361.888C291.481 361.797 292.608 361.378 293.56 360.68L309.66 347.61C310.011 347.352 310.299 347.019 310.503 346.635C310.707 346.25 310.823 345.825 310.84 345.39V345.39L310.86 339.57Z" fill="#37474F"/>
<path d="M261 340.42L286.92 355.42C287.969 355.962 289.147 356.2 290.324 356.108C291.501 356.017 292.628 355.598 293.58 354.9L309.68 341.83C310.079 341.577 310.401 341.221 310.611 340.798C310.822 340.376 310.913 339.904 310.875 339.433C310.837 338.963 310.671 338.512 310.395 338.129C310.119 337.746 309.744 337.445 309.31 337.26L291.14 326.85C290.029 326.293 288.813 325.974 287.572 325.914C286.33 325.854 285.09 326.053 283.93 326.5L261.18 336.77C259.12 337.65 259 339.3 261 340.42Z" fill="#455A64"/>
<path d="M310.86 339.57V345.34C310.844 345.775 310.729 346.2 310.522 346.584C310.316 346.967 310.024 347.297 309.67 347.55L293.58 360.61C292.669 361.308 291.574 361.725 290.43 361.81V356.04C291.573 355.949 292.666 355.533 293.58 354.84L309.67 341.77C310.021 341.516 310.31 341.187 310.516 340.806C310.722 340.425 310.84 340.003 310.86 339.57Z" fill="#263238"/>
<path d="M319.68 341.16C319.718 341.417 319.688 341.679 319.591 341.92C319.494 342.161 319.335 342.371 319.13 342.53L312.53 346.34C312.746 346.19 312.914 345.981 313.015 345.738C313.116 345.496 313.145 345.229 313.1 344.97L311.66 312.72C311.588 311.985 311.352 311.276 310.969 310.644C310.587 310.013 310.068 309.475 309.45 309.07L287.57 296.8C287.332 296.636 287.055 296.537 286.767 296.515C286.479 296.492 286.191 296.545 285.93 296.67L292.49 292.89C292.753 292.755 293.048 292.692 293.344 292.71C293.639 292.727 293.925 292.824 294.17 292.99L316 305.26C316.621 305.663 317.142 306.2 317.527 306.832C317.911 307.464 318.148 308.174 318.22 308.91L319.68 341.16Z" fill="#263238"/>
<path d="M287.57 296.78L309.45 309.06C310.065 309.468 310.582 310.007 310.964 310.638C311.346 311.269 311.584 311.976 311.66 312.71L313.09 345C313.15 346.34 312.26 346.88 311.09 346.21L282.63 330.1C282.035 329.715 281.557 329.174 281.248 328.535C280.939 327.897 280.812 327.186 280.88 326.48L285.11 298C285.113 297.716 285.194 297.438 285.345 297.197C285.496 296.956 285.711 296.762 285.966 296.635C286.221 296.509 286.505 296.456 286.788 296.481C287.072 296.507 287.342 296.61 287.57 296.78V296.78Z" fill="#37474F"/>
<path d="M317.56 306.84L310.98 310.64C310.601 310.001 310.077 309.46 309.45 309.06L287.57 296.79C287.332 296.626 287.055 296.527 286.767 296.505C286.479 296.482 286.191 296.535 285.93 296.66L292.49 292.88C292.753 292.744 293.048 292.682 293.344 292.7C293.639 292.717 293.925 292.814 294.17 292.98L316 305.26C316.645 305.647 317.181 306.191 317.56 306.84V306.84Z" fill="#455A64"/>
<path d="M308.53 298.85V290.85C308.53 285.07 304.84 278.26 300.29 275.64C298.2 274.43 296.29 274.33 294.85 275.12L289.85 278.04L292.08 282.3V289.39C292.119 290.121 292.329 290.832 292.694 291.466C293.059 292.1 293.568 292.639 294.18 293.04L299.18 295.93L303 303.1L308 300.21C308.198 300.049 308.352 299.838 308.444 299.6C308.537 299.362 308.567 299.103 308.53 298.85V298.85Z" fill="#263238"/>
<path d="M300.29 287L306.75 283.27C305.41 280.118 303.161 277.437 300.29 275.57C298.2 274.36 296.29 274.26 294.85 275.05L289.85 277.97L292.08 282.23V283.63L300.29 287Z" fill="#455A64"/>
<path d="M303.59 301.73V293.73C303.59 287.95 299.9 281.14 295.35 278.51C290.8 275.88 287.11 278.44 287.11 284.22V292.22C287.15 292.952 287.362 293.663 287.728 294.297C288.095 294.932 288.606 295.47 289.22 295.87L301.48 302.95C302.64 303.61 303.59 303.07 303.59 301.73Z" fill="#37474F"/>
<path d="M288 303.62C286.088 310.736 285.172 318.083 285.28 325.45C285.331 326.205 285.534 326.941 285.878 327.615C286.222 328.289 286.699 328.886 287.28 329.37C291.124 332.22 295.285 334.616 299.68 336.51C299.93 336.65 300.214 336.719 300.5 336.711C300.786 336.702 301.065 336.617 301.307 336.463C301.549 336.309 301.744 336.093 301.873 335.838C302.002 335.582 302.06 335.296 302.04 335.01C302.482 327.127 302.505 319.226 302.11 311.34C301.93 309.813 301.171 308.414 299.99 307.43C297.171 305.367 294.137 303.617 290.94 302.21C290.658 302.077 290.349 302.008 290.037 302.009C289.724 302.01 289.416 302.08 289.134 302.215C288.853 302.35 288.605 302.546 288.408 302.79C288.212 303.033 288.073 303.316 288 303.62Z" fill="#D21B60"/>
<path opacity="0.15" d="M301.89 335.75C301.987 335.515 302.045 335.265 302.06 335.01C302.502 327.127 302.525 319.226 302.13 311.34C302.055 310.584 301.823 309.852 301.45 309.19C300.59 307.97 300.29 318.3 300.29 324.59C300.29 330.88 300.38 337.11 301.41 336.39L301.53 336.29C301.664 336.12 301.784 335.939 301.89 335.75Z" fill="black"/>
<g opacity="0.15">
<path opacity="0.15" d="M286.76 324.92C286.76 324.92 286.95 325.03 287.26 325.24C287.57 325.45 288.03 325.74 288.57 326.09C289.64 326.79 291.08 327.69 292.57 328.53C294.06 329.37 295.57 330.16 296.69 330.73C297.26 331.02 297.74 331.27 298.08 331.43L298.61 331.7C298.61 331.7 298.39 331.7 298.03 331.58C297.67 331.46 297.13 331.37 296.51 331.16C295.807 330.936 295.116 330.675 294.44 330.38C294.07 330.21 293.68 330.05 293.31 329.84C292.94 329.63 292.55 329.44 292.17 329.23C291.42 328.79 290.69 328.33 290.03 327.85C289.43 327.413 288.852 326.946 288.3 326.45C287.82 326.03 287.44 325.63 287.18 325.36C286.92 325.09 286.76 324.92 286.76 324.92Z" fill="black"/>
<path opacity="0.15" d="M286.76 320.84C286.76 320.84 286.95 320.95 287.26 321.16C287.57 321.37 288.03 321.66 288.57 322.01C289.64 322.71 291.08 323.61 292.57 324.45C294.06 325.29 295.57 326.08 296.69 326.66C297.26 326.94 297.74 327.2 298.08 327.35L298.61 327.63L298.03 327.5C297.66 327.41 297.13 327.29 296.51 327.09C295.807 326.862 295.116 326.598 294.44 326.3C294.07 326.13 293.68 325.97 293.31 325.77C292.94 325.57 292.55 325.37 292.17 325.16C291.42 324.72 290.69 324.25 290.03 323.77C289.43 323.336 288.853 322.873 288.3 322.38C287.82 321.95 287.44 321.55 287.18 321.28C286.92 321.01 286.76 320.84 286.76 320.84Z" fill="black"/>
<path opacity="0.15" d="M287.6 317.47C287.6 317.47 287.78 317.57 288.07 317.76C288.36 317.95 288.78 318.21 289.28 318.53C290.28 319.17 291.6 319.99 292.97 320.73C294.34 321.47 295.75 322.14 296.81 322.66L298.1 323.3L298.59 323.55C298.59 323.55 298.39 323.55 298.05 323.44C297.71 323.33 297.22 323.26 296.65 323.09C295.992 322.906 295.344 322.686 294.71 322.43C294.37 322.29 294 322.15 293.65 321.97C293.3 321.79 292.94 321.62 292.58 321.44C292.22 321.26 291.89 321.05 291.58 320.83C291.27 320.61 290.93 320.4 290.58 320.19C290.026 319.795 289.498 319.364 289 318.9C288.55 318.5 288.21 318.13 288 317.9C287.79 317.67 287.6 317.47 287.6 317.47Z" fill="black"/>
<path opacity="0.15" d="M287.94 313.67C287.94 313.67 288.11 313.76 288.4 313.95C288.69 314.14 289.09 314.38 289.56 314.69C290.56 315.3 291.81 316.09 293.14 316.79C294.47 317.49 295.84 318.12 296.87 318.61L298.12 319.23L298.59 319.47L298.07 319.37C297.74 319.3 297.26 319.21 296.71 319.05C296.073 318.875 295.446 318.668 294.83 318.43C294.5 318.3 294.14 318.17 293.83 318.01C293.52 317.85 293.14 317.68 292.83 317.5C292.52 317.32 292.15 317.13 291.83 316.93C291.51 316.73 291.19 316.51 290.89 316.31C290.355 315.921 289.841 315.504 289.35 315.06C288.92 314.67 288.59 314.31 288.35 314.06L287.94 313.67Z" fill="black"/>
<path opacity="0.15" d="M288.52 310L288.95 310.26L290.06 310.95C291.146 311.659 292.271 312.307 293.43 312.89C294.68 313.53 295.99 314.08 296.97 314.54C297.95 315 298.59 315.36 298.59 315.36C298.59 315.36 297.86 315.25 296.81 314.98C295.516 314.658 294.26 314.202 293.06 313.62C292.74 313.44 292.41 313.27 292.11 313.08C291.801 312.907 291.504 312.713 291.22 312.5C290.71 312.14 290.226 311.746 289.77 311.32C289.321 310.912 288.903 310.47 288.52 310V310Z" fill="black"/>
<path opacity="0.15" d="M289.87 306.55C289.87 306.55 290.43 306.87 291.22 307.36C292.01 307.85 293.06 308.49 294.15 309.05C295.24 309.61 296.36 310.15 297.2 310.57C298.04 310.99 298.59 311.32 298.59 311.32C298.054 311.249 297.522 311.142 297 311C295.875 310.706 294.785 310.29 293.75 309.76C293.47 309.6 293.19 309.45 292.92 309.28C292.658 309.124 292.404 308.954 292.16 308.77C291.72 308.468 291.302 308.134 290.91 307.77C290.531 307.392 290.184 306.984 289.87 306.55Z" fill="black"/>
</g>
<path d="M281.4 333C277.32 333.73 273.27 335.82 269.26 338.83C269.013 338.994 268.809 339.217 268.669 339.479C268.529 339.741 268.455 340.033 268.455 340.33C268.455 340.627 268.529 340.92 268.669 341.181C268.809 341.443 269.013 341.666 269.26 341.83C274.111 345.403 279.347 348.422 284.87 350.83C286.302 351.372 287.89 351.329 289.29 350.71C292.712 348.963 295.856 346.719 298.62 344.05C298.84 343.833 299.009 343.569 299.115 343.278C299.221 342.988 299.261 342.677 299.233 342.369C299.204 342.061 299.107 341.763 298.949 341.497C298.792 341.231 298.577 341.003 298.32 340.83C294.509 338.002 290.402 335.598 286.07 333.66C284.591 333.06 282.987 332.833 281.4 333V333Z" fill="#D21B60"/>
<g opacity="0.2">
<path opacity="0.2" d="M271.45 340.29L272.14 340.5C272.58 340.64 273.21 340.83 273.95 341.11C275.756 341.797 277.508 342.619 279.19 343.57C280.871 344.523 282.473 345.61 283.98 346.82C285.2 347.82 285.93 348.58 285.93 348.58L283.71 347.2C282.38 346.37 280.6 345.3 278.79 344.28C276.98 343.26 275.14 342.28 273.79 341.54L272.11 340.64C271.68 340.43 271.45 340.29 271.45 340.29Z" fill="black"/>
<path opacity="0.2" d="M275.34 338.05L276.04 338.25C276.47 338.4 277.11 338.59 277.84 338.87C279.647 339.555 281.399 340.377 283.08 341.33C284.765 342.277 286.367 343.364 287.87 344.58C288.566 345.132 289.234 345.72 289.87 346.34L287.6 345C286.27 344.17 284.49 343.09 282.68 342.07C280.87 341.05 279.04 340.07 277.68 339.33L276 338.4L275.34 338.05Z" fill="black"/>
<path opacity="0.2" d="M278.69 336.15L279.39 336.35C279.82 336.49 280.45 336.69 281.19 336.97C282.996 337.657 284.748 338.479 286.43 339.43C288.113 340.38 289.716 341.467 291.22 342.68C291.916 343.232 292.584 343.82 293.22 344.44L291 343.06C289.67 342.23 287.89 341.15 286.08 340.13C284.27 339.11 282.44 338.13 281.08 337.39L279.4 336.5L278.69 336.15Z" fill="black"/>
<path opacity="0.2" d="M282.34 334.59L282.98 334.77C283.38 334.9 283.98 335.07 284.64 335.32C286.303 335.943 287.915 336.695 289.46 337.57C291.003 338.448 292.472 339.451 293.85 340.57C294.472 341.085 295.066 341.632 295.63 342.21L295.06 341.86L293.58 340.95C292.35 340.2 290.72 339.22 289.06 338.28C287.4 337.34 285.72 336.44 284.45 335.76L282.92 334.92L282.34 334.59Z" fill="black"/>
</g>
<path d="M275.77 319.74L267.94 319.59L256 312.77C254.888 312.211 253.671 311.89 252.427 311.83C251.183 311.77 249.941 311.971 248.78 312.42L234.35 318.93L224.45 318.74V324.51C224.494 324.916 224.646 325.303 224.89 325.63C225.135 325.958 225.463 326.213 225.84 326.37L251.76 341.37C252.809 341.91 253.989 342.147 255.165 342.054C256.342 341.96 257.469 341.54 258.42 340.84L274.52 327.77C274.874 327.517 275.165 327.186 275.371 326.803C275.578 326.42 275.693 325.995 275.71 325.56L275.77 319.74Z" fill="#37474F"/>
<path d="M225.88 320.59L251.8 335.59C252.849 336.13 254.029 336.367 255.205 336.274C256.382 336.18 257.509 335.76 258.46 335.06L274.56 322C274.959 321.747 275.281 321.391 275.491 320.968C275.702 320.546 275.793 320.074 275.755 319.603C275.717 319.133 275.551 318.682 275.275 318.299C274.999 317.916 274.624 317.615 274.19 317.43L256 307C254.888 306.441 253.671 306.12 252.427 306.06C251.183 306 249.941 306.201 248.78 306.65L226.07 316.9C224 317.82 223.94 319.47 225.88 320.59Z" fill="#455A64"/>
<path d="M275.77 319.75V325.51C275.755 325.944 275.641 326.369 275.437 326.752C275.232 327.135 274.942 327.467 274.59 327.72L258.49 340.79C257.583 341.488 256.491 341.905 255.35 341.99V336.21C256.492 336.13 257.585 335.712 258.49 335.01L274.56 322C274.92 321.742 275.216 321.406 275.426 321.016C275.636 320.626 275.753 320.193 275.77 319.75V319.75Z" fill="#263238"/>
<path d="M278.27 318C278.308 318.257 278.277 318.519 278.181 318.76C278.084 319.001 277.925 319.211 277.72 319.37L271.11 323.18C271.327 323.031 271.497 322.823 271.598 322.58C271.699 322.336 271.728 322.069 271.68 321.81L270.25 289.56C270.172 288.825 269.933 288.117 269.549 287.486C269.165 286.855 268.647 286.317 268.03 285.91L252.48 276.91C252.241 276.748 251.965 276.65 251.677 276.628C251.389 276.605 251.101 276.657 250.84 276.78V276.78L257.39 273C257.654 272.867 257.949 272.807 258.245 272.826C258.54 272.846 258.825 272.944 259.07 273.11L274.62 282.11C275.238 282.515 275.757 283.053 276.139 283.684C276.522 284.316 276.758 285.025 276.83 285.76L278.27 318Z" fill="#263238"/>
<path d="M252.48 277L268.03 286C268.649 286.401 269.17 286.937 269.555 287.567C269.939 288.197 270.177 288.906 270.25 289.64L271.68 321.9C271.74 323.24 270.84 323.79 269.68 323.12L247.54 310.33C246.943 309.947 246.464 309.406 246.155 308.767C245.846 308.128 245.72 307.416 245.79 306.71L250.02 278.21C250.024 277.927 250.107 277.65 250.259 277.411C250.411 277.171 250.626 276.978 250.88 276.853C251.134 276.728 251.418 276.675 251.701 276.701C251.983 276.727 252.253 276.831 252.48 277Z" fill="#37474F"/>
<path d="M276.15 283.71L269.57 287.52C269.193 286.876 268.664 286.333 268.03 285.94L252.48 276.94C252.241 276.778 251.965 276.68 251.677 276.658C251.389 276.635 251.101 276.687 250.84 276.81V276.81L257.39 273.03C257.654 272.897 257.949 272.837 258.245 272.856C258.54 272.876 258.825 272.974 259.07 273.14L274.62 282.14C275.246 282.537 275.77 283.074 276.15 283.71V283.71Z" fill="#455A64"/>
<path d="M273.43 279V271C273.43 265.22 269.75 258.41 265.2 255.78C263.11 254.57 261.2 254.47 259.76 255.26L254.76 258.18L256.99 262.44V269.52C257.028 270.252 257.239 270.965 257.605 271.599C257.972 272.234 258.485 272.772 259.1 273.17L264.1 276.07L267.87 283.29L272.87 280.4C273.081 280.239 273.245 280.024 273.343 279.777C273.442 279.531 273.472 279.262 273.43 279Z" fill="#263238"/>
<path d="M265.2 267.21L271.65 263.49C270.32 260.333 268.073 257.647 265.2 255.78C263.11 254.57 261.2 254.47 259.76 255.26L254.76 258.18L256.99 262.44V263.83L265.2 267.21Z" fill="#455A64"/>
<path d="M268.49 281.9V273.9C268.49 268.12 264.8 261.31 260.26 258.69C255.72 256.07 252.02 258.61 252.02 264.39V272.39C252.059 273.122 252.271 273.834 252.638 274.468C253.004 275.102 253.516 275.641 254.13 276.04L266.38 283.12C267.55 283.79 268.49 283.24 268.49 281.9Z" fill="#37474F"/>
<path d="M253 283.79C251.09 290.907 250.171 298.253 250.27 305.62C250.322 306.376 250.526 307.113 250.87 307.789C251.214 308.464 251.69 309.063 252.27 309.55C256.112 312.398 260.269 314.794 264.66 316.69C264.911 316.826 265.193 316.893 265.478 316.883C265.763 316.873 266.04 316.787 266.281 316.634C266.522 316.481 266.717 316.266 266.847 316.013C266.977 315.759 267.037 315.475 267.02 315.19C267.465 307.304 267.492 299.399 267.1 291.51C266.915 289.985 266.153 288.59 264.97 287.61C262.166 285.549 259.149 283.795 255.97 282.38C255.686 282.241 255.375 282.168 255.059 282.166C254.743 282.164 254.43 282.233 254.145 282.369C253.859 282.504 253.608 282.702 253.41 282.948C253.212 283.195 253.071 283.482 253 283.79V283.79Z" fill="#D21B60"/>
<path opacity="0.15" d="M266.79 315.93C266.895 315.697 266.953 315.446 266.96 315.19C267.405 307.304 267.432 299.399 267.04 291.51C266.96 290.758 266.729 290.03 266.36 289.37C265.49 288.14 265.19 298.47 265.2 304.77C265.21 311.07 265.28 317.29 266.31 316.56L266.43 316.46C266.571 316.299 266.692 316.121 266.79 315.93V315.93Z" fill="black"/>
<g opacity="0.15">
<path opacity="0.15" d="M251.67 305.09L252.17 305.41C252.48 305.63 252.94 305.91 253.47 306.26C254.55 306.96 255.98 307.87 257.47 308.71C258.96 309.55 260.47 310.33 261.6 310.91C262.17 311.19 262.6 311.45 262.99 311.61C263.38 311.77 263.51 311.88 263.51 311.88L262.93 311.75C262.57 311.66 262.04 311.54 261.42 311.34C260.716 311.114 260.025 310.85 259.35 310.55C258.98 310.38 258.59 310.22 258.21 310.02C257.83 309.82 257.45 309.62 257.07 309.41C256.33 308.97 255.59 308.5 254.94 308.02C254.338 307.589 253.761 307.125 253.21 306.63C252.72 306.2 252.35 305.8 252.09 305.53C251.83 305.26 251.67 305.09 251.67 305.09Z" fill="black"/>
<path opacity="0.15" d="M251.67 301L252.17 301.32L253.47 302.16C254.55 302.86 255.98 303.77 257.47 304.61C258.96 305.45 260.47 306.24 261.6 306.81C262.17 307.09 262.6 307.35 262.99 307.51C263.38 307.67 263.51 307.78 263.51 307.78L262.93 307.66C262.57 307.56 262.04 307.45 261.42 307.24C260.716 307.018 260.025 306.757 259.35 306.46C258.98 306.28 258.59 306.12 258.21 305.92C257.83 305.72 257.45 305.52 257.07 305.31C256.33 304.87 255.59 304.41 254.94 303.93C254.34 303.493 253.763 303.025 253.21 302.53C252.72 302.1 252.35 301.7 252.09 301.44L251.67 301Z" fill="black"/>
<path opacity="0.15" d="M252.51 297.65L252.98 297.94C253.26 298.13 253.69 298.39 254.18 298.71C255.18 299.35 256.5 300.17 257.87 300.9C259.24 301.63 260.65 302.32 261.72 302.83L263.01 303.47C263.32 303.62 263.49 303.72 263.49 303.72L262.96 303.62C262.62 303.54 262.13 303.44 261.55 303.27C260.97 303.1 260.32 302.88 259.62 302.61C259.28 302.46 258.91 302.33 258.56 302.15L257.49 301.62C257.14 301.42 256.79 301.22 256.49 301.01C256.19 300.8 255.83 300.58 255.49 300.36C254.939 299.961 254.408 299.534 253.9 299.08C253.46 298.68 253.11 298.31 252.9 298.08L252.51 297.65Z" fill="black"/>
<path opacity="0.15" d="M252.85 293.84L253.3 294.12C253.58 294.31 253.99 294.55 254.47 294.86C255.47 295.48 256.71 296.27 258.04 296.96C259.37 297.65 260.75 298.29 261.78 298.79L263.02 299.4C263.33 299.55 263.49 299.65 263.49 299.65L262.97 299.55C262.65 299.47 262.17 299.38 261.62 299.22C260.983 299.049 260.356 298.846 259.74 298.61C259.4 298.47 259.05 298.35 258.74 298.18L257.74 297.68C257.4 297.49 257.06 297.3 256.74 297.1C256.42 296.9 256.11 296.68 255.81 296.48C255.271 296.097 254.756 295.679 254.27 295.23C253.84 294.84 253.51 294.48 253.27 294.23C253.03 293.98 252.85 293.84 252.85 293.84Z" fill="black"/>
<path opacity="0.15" d="M253.43 290.21L253.86 290.47L254.96 291.17C255.87 291.74 257.07 292.48 258.33 293.11C259.59 293.74 260.9 294.3 261.88 294.76C262.86 295.22 263.49 295.57 263.49 295.57C262.894 295.477 262.303 295.354 261.72 295.2C260.426 294.875 259.169 294.416 257.97 293.83C257.64 293.66 257.32 293.49 256.97 293.3C256.62 293.11 256.37 292.91 256.09 292.72C255.583 292.357 255.098 291.963 254.64 291.54C254.206 291.126 253.802 290.681 253.43 290.21V290.21Z" fill="black"/>
<path opacity="0.15" d="M254.78 286.72C254.78 286.72 255.34 287.04 256.13 287.54C256.92 288.04 257.97 288.66 259.06 289.23C260.15 289.8 261.26 290.32 262.06 290.75C262.86 291.18 263.45 291.49 263.45 291.49C262.927 291.421 262.409 291.317 261.9 291.18C260.771 290.889 259.677 290.473 258.64 289.94C258.36 289.79 258.09 289.63 257.82 289.47C257.55 289.31 257.3 289.12 257.05 288.95C256.608 288.632 256.19 288.281 255.8 287.9C255.428 287.536 255.086 287.141 254.78 286.72V286.72Z" fill="black"/>
</g>
<path d="M246.31 313.13C242.22 313.86 238.18 315.95 234.17 318.96C233.922 319.124 233.719 319.347 233.579 319.609C233.439 319.871 233.365 320.163 233.365 320.46C233.365 320.757 233.439 321.05 233.579 321.311C233.719 321.573 233.922 321.796 234.17 321.96C239.019 325.537 244.255 328.556 249.78 330.96C251.211 331.506 252.801 331.463 254.2 330.84C257.626 329.099 260.771 326.854 263.53 324.18C263.752 323.965 263.924 323.703 264.031 323.414C264.139 323.124 264.181 322.814 264.153 322.506C264.125 322.198 264.028 321.9 263.871 321.634C263.713 321.369 263.497 321.142 263.24 320.97C259.432 318.13 255.328 315.709 251 313.75C249.51 313.166 247.9 312.954 246.31 313.13V313.13Z" fill="#D21B60"/>
<g opacity="0.2">
<path opacity="0.2" d="M236.35 320.47L237.05 320.67C237.48 320.81 238.12 321.01 238.85 321.29C240.655 321.975 242.407 322.794 244.09 323.74C245.775 324.69 247.378 325.781 248.88 327C249.576 327.552 250.244 328.14 250.88 328.76L248.65 327.38C247.32 326.55 245.54 325.47 243.73 324.45C241.92 323.43 240.09 322.45 238.73 321.71L237.06 320.82L236.35 320.47Z" fill="black"/>
<path opacity="0.2" d="M240.25 318.23C240.25 318.23 240.5 318.29 240.94 318.43C241.38 318.57 242.01 318.76 242.75 319.05C244.559 319.732 246.314 320.552 248 321.5C249.681 322.453 251.283 323.54 252.79 324.75C253.47 325.306 254.121 325.897 254.74 326.52L252.52 325.13C251.19 324.3 249.41 323.23 247.6 322.21C245.79 321.19 243.95 320.21 242.6 319.47L240.92 318.57L240.25 318.23Z" fill="black"/>
<path opacity="0.2" d="M243.6 316.32L244.29 316.53C244.73 316.67 245.36 316.86 246.1 317.14C247.906 317.827 249.658 318.649 251.34 319.6C253.021 320.553 254.623 321.64 256.13 322.85C257.35 323.85 258.08 324.61 258.08 324.61L255.86 323.23C254.53 322.4 252.75 321.33 250.94 320.3C249.13 319.27 247.29 318.3 245.94 317.57L244.26 316.67C243.82 316.46 243.6 316.32 243.6 316.32Z" fill="black"/>
<path opacity="0.2" d="M247.25 314.76L247.89 314.94C248.29 315.07 248.89 315.24 249.55 315.5C251.209 316.121 252.817 316.87 254.36 317.74C255.906 318.613 257.375 319.616 258.75 320.74C259.374 321.252 259.972 321.796 260.54 322.37L260 322L258.51 321.09C257.29 320.33 255.66 319.35 253.99 318.42C252.32 317.49 250.66 316.57 249.39 315.89L247.86 315.06C247.45 314.89 247.25 314.76 247.25 314.76Z" fill="black"/>
</g>
<path d="M285.38 328.94C285.38 328.94 271.16 333.12 266 335C260.84 336.88 258.48 339.06 258 342.57C257.731 344.626 257.594 346.697 257.59 348.77L282.77 368.77L314.17 337.31L285.38 328.94Z" fill="#F5F5F5"/>
<path d="M269.16 358C269.16 358 271.4 350 273.55 346.17C275.7 342.34 285.63 338.63 285.63 338.63C284.166 337.351 283.17 335.619 282.8 333.71C282.454 335.257 282.712 336.877 283.52 338.24C283.52 338.24 276.91 340.02 273.52 342.17C269.08 344.96 267.31 356.5 267.31 356.5L269.16 358Z" fill="#E0E0E0"/>
<path d="M287 299.21C284.6 298.21 282.73 299.47 279.46 302.84L270.75 311.84L251.75 318.27L254.09 324.74C254.09 324.74 268.48 322.36 271.69 321.57C274.848 320.958 277.782 319.504 280.18 317.36C283.34 314.64 287.46 310.36 287.46 310.36L287 299.21Z" fill="#EBEBEB"/>
<path d="M249.38 318.57C248.454 318.101 247.4 317.95 246.38 318.14C245.984 318.243 245.618 318.441 245.315 318.716C245.012 318.991 244.781 319.336 244.64 319.72C244.584 319.98 244.496 320.231 244.38 320.47C244.275 320.622 244.146 320.757 244 320.87C243.255 321.314 242.581 321.867 242 322.51C241.616 323.161 241.418 323.905 241.43 324.66C241.293 325.945 241.475 327.243 241.96 328.44C242.215 329.038 242.63 329.554 243.16 329.931C243.689 330.309 244.312 330.533 244.96 330.58C245.442 330.57 245.917 330.468 246.36 330.28C247.109 329.955 247.809 329.527 248.44 329.01C249.099 328.59 249.808 328.254 250.55 328.01C252.132 327.238 253.448 326.013 254.33 324.49C254.74 323.14 253.43 319.32 252.42 318.95C251.82 318.73 249.83 318.77 249.38 318.57Z" fill="#455A64"/>
<path d="M251.72 319.41C252.562 320.004 253.248 320.794 253.72 321.71C254.064 322.671 254.203 323.692 254.13 324.71L253.7 325.31C254.162 325.163 254.56 324.863 254.83 324.46C255.4 323.72 255.11 321.54 254.58 320.57C254.05 319.6 252.69 318.28 251.87 318.45C251.626 318.513 251.408 318.649 251.246 318.841C251.083 319.033 250.983 319.27 250.96 319.52L251.72 319.41Z" fill="#37474F"/>
<path d="M260.22 345.66C258.397 345.604 256.621 345.07 255.07 344.11C249.22 340.73 244.63 332.79 244.63 326.03C244.63 322.43 245.94 319.69 248.31 318.32C250.68 316.95 253.71 317.19 256.83 318.99C262.69 322.37 267.27 330.31 267.27 337.07C267.27 340.67 265.96 343.41 263.59 344.78C262.565 345.369 261.402 345.673 260.22 345.66V345.66ZM251.68 321C251.119 320.989 250.564 321.123 250.07 321.39C248.86 322.1 248.16 323.8 248.16 326.05C248.16 331.48 252.16 338.36 256.83 341.05C258.83 342.18 260.61 342.42 261.83 341.72C263.05 341.02 263.74 339.32 263.74 337.06C263.74 331.63 259.74 324.75 255.07 322.06C254.05 321.421 252.882 321.056 251.68 321Z" fill="#263238"/>
<path d="M256 327.69C256.971 328.326 257.78 329.181 258.36 330.187C258.94 331.193 259.276 332.321 259.34 333.48C259.34 335.61 257.84 336.48 256 335.41C255.028 334.774 254.22 333.919 253.64 332.913C253.06 331.907 252.724 330.779 252.66 329.62C252.61 327.49 254.11 326.63 256 327.69Z" fill="#263238"/>
<path d="M255.56 332.47L246.99 321.81L248.37 320.7L256.34 330.63L264.15 329.93L264.31 331.69L255.56 332.47Z" fill="#263238"/>
<path d="M256.83 331.55H255.07V342.59H256.83V331.55Z" fill="#263238"/>
<path d="M244.63 322.67C245.63 322.61 246.5 322.81 247.15 324.67C247.65 326.14 248.15 330.39 245.25 330.59C241.77 330 244.63 322.67 244.63 322.67Z" fill="#455A64"/>
<path d="M285.51 327.74C284.65 328.4 284.64 330.27 285.88 331.59C287.12 332.91 290.81 335.59 296.77 336.41C303.46 337.32 308.77 335.41 311.27 333.65C313.77 331.89 312.44 330.08 312.44 330.08L285.51 327.74Z" fill="#263238"/>
<path d="M294.32 305.76C294.63 309.91 292.03 313.49 288.52 313.76C285.01 314.03 282.87 310.68 282.52 306.53C282.17 302.38 284.52 298.28 287.44 299.24C288.322 299.207 289.202 299.35 290.029 299.661C290.855 299.972 291.611 300.446 292.251 301.053C292.892 301.66 293.405 302.39 293.761 303.198C294.116 304.006 294.306 304.877 294.32 305.76V305.76Z" fill="#263238"/>
<path d="M287 299.21C285.91 300.33 284.49 303.34 284.88 307.87C285.285 311.15 285.392 314.46 285.2 317.76C284.99 320.35 284.31 324.37 285.49 327.76C286.12 329.54 290.3 333.07 296.64 334.31C302.98 335.55 311.27 332.64 312.76 329.55C314.25 326.46 314.76 318.04 314.45 314.05C314.14 310.06 313.1 301.94 309.74 298.47C300.5 293 293.29 294.45 287 299.21Z" fill="white"/>
<path d="M289.66 316.79C287.87 316.87 285.88 317.04 284.24 318.57C282.6 320.1 282.64 322.95 283.04 324.1C283.195 324.566 283.456 324.989 283.804 325.336C284.151 325.683 284.574 325.945 285.04 326.1C284.818 324.813 284.757 323.502 284.86 322.2C285.04 321.28 285.07 319.14 289.55 319.2C289.365 318.402 289.403 317.568 289.66 316.79V316.79Z" fill="#E0E0E0"/>
<path d="M306.18 303.19C301.39 305.96 293.63 305.96 288.83 303.19C285.83 301.44 284.83 299.3 285.63 297.04C287 298.903 288.788 300.417 290.851 301.46C292.914 302.504 295.193 303.048 297.505 303.048C299.817 303.048 302.096 302.504 304.159 301.46C306.222 300.417 308.01 298.903 309.38 297.04C310.2 299.3 309.22 301.44 306.18 303.19Z" fill="#455A64"/>
<path d="M305.25 300.84C312.16 296.568 314.3 287.504 310.028 280.593C305.757 273.682 296.692 271.543 289.782 275.814C282.871 280.086 280.731 289.151 285.003 296.061C289.274 302.972 298.339 305.111 305.25 300.84Z" fill="#455A64"/>
<path d="M297.51 273.64C295.122 273.668 292.774 274.264 290.662 275.379C288.549 276.494 286.732 278.095 285.36 280.05C284.91 281.19 286 283.44 290.71 286.05C294.37 288.05 299.43 287.44 302.34 286.66C305.25 285.88 307.86 298.59 301.7 302.47C305.088 301.463 307.999 299.27 309.903 296.292C311.806 293.314 312.573 289.75 312.065 286.253C311.556 282.756 309.805 279.558 307.133 277.246C304.46 274.933 301.044 273.661 297.51 273.66V273.64Z" fill="#F5F5F5"/>
<path opacity="0.3" d="M285.36 282.94C284.36 282.72 282.76 290.16 285.36 294.7C287.96 299.24 284.72 289.7 292.36 289.95C299.53 290.16 302.52 288.57 302.79 287.81C303.21 286.63 299.13 289.47 292.9 287.69C286.67 285.91 286 283.09 285.36 282.94Z" fill="white"/>
<path opacity="0.3" d="M285.22 284.55C285.22 284.55 283.07 293.88 288.44 298.64C293.81 303.4 301.75 301.41 301.75 301.41C297.279 301.531 292.913 300.048 289.44 297.23C284.32 292.89 285.22 284.55 285.22 284.55Z" fill="white"/>
<path d="M298.47 273.69C301.58 274.44 306.8 279.6 308.29 284.07C309.399 287.099 309.571 290.391 308.785 293.519C307.998 296.647 306.289 299.466 303.88 301.61C306.809 300.203 309.19 297.865 310.65 294.962C312.109 292.058 312.566 288.753 311.947 285.563C311.329 282.372 309.671 279.477 307.233 277.329C304.794 275.181 301.713 273.901 298.47 273.69V273.69Z" fill="#E6E6E6"/>
<path d="M297.51 303.28C294.557 303.28 291.671 302.404 289.215 300.764C286.76 299.123 284.847 296.792 283.717 294.064C282.587 291.335 282.291 288.333 282.867 285.437C283.443 282.541 284.865 279.881 286.953 277.793C289.041 275.705 291.701 274.283 294.597 273.707C297.494 273.131 300.495 273.427 303.224 274.557C305.952 275.687 308.283 277.6 309.924 280.055C311.564 282.511 312.44 285.397 312.44 288.35C312.435 292.308 310.86 296.103 308.061 298.901C305.263 301.7 301.468 303.275 297.51 303.28ZM297.51 273.86C294.644 273.86 291.843 274.71 289.46 276.302C287.077 277.894 285.22 280.157 284.123 282.805C283.026 285.453 282.739 288.366 283.299 291.177C283.858 293.988 285.238 296.57 287.264 298.596C289.291 300.622 291.872 302.003 294.683 302.562C297.494 303.121 300.407 302.834 303.055 301.737C305.703 300.64 307.966 298.783 309.558 296.4C311.15 294.017 312 291.216 312 288.35C311.995 284.509 310.466 280.826 307.75 278.11C305.034 275.394 301.351 273.865 297.51 273.86V273.86Z" fill="#F5F5F5"/>
<path d="M290.63 316.71H290.05C289.929 316.695 289.806 316.727 289.708 316.8C289.609 316.872 289.542 316.98 289.52 317.1C289.408 317.762 289.408 318.438 289.52 319.1C289.536 319.208 289.588 319.308 289.668 319.382C289.748 319.457 289.851 319.502 289.96 319.51L290.89 319.6L290.63 316.71Z" fill="#D21B60"/>
<path d="M292.73 312.11L300.95 314.11C301.544 314.287 302.069 314.643 302.452 315.13C302.835 315.617 303.058 316.211 303.09 316.83V321.71C303.107 321.976 303.059 322.242 302.951 322.486C302.842 322.729 302.675 322.942 302.465 323.107C302.256 323.271 302.009 323.382 301.747 323.43C301.484 323.477 301.214 323.46 300.96 323.38L292.73 321.38C292.136 321.203 291.612 320.847 291.228 320.36C290.845 319.873 290.622 319.279 290.59 318.66V313.78C290.572 313.513 290.62 313.245 290.729 313.001C290.839 312.757 291.006 312.543 291.217 312.378C291.429 312.213 291.677 312.103 291.94 312.056C292.204 312.009 292.475 312.028 292.73 312.11V312.11Z" fill="#37474F"/>
<path d="M293.25 314.25C293.608 314.353 293.924 314.566 294.154 314.858C294.383 315.151 294.515 315.508 294.53 315.88C294.536 316.039 294.505 316.197 294.438 316.341C294.372 316.485 294.272 316.611 294.147 316.708C294.021 316.806 293.875 316.873 293.719 316.902C293.563 316.932 293.402 316.925 293.25 316.88C292.891 316.78 292.573 316.568 292.343 316.275C292.113 315.982 291.982 315.623 291.97 315.25C291.964 315.091 291.995 314.934 292.062 314.79C292.129 314.646 292.229 314.52 292.354 314.422C292.479 314.324 292.625 314.258 292.781 314.228C292.937 314.198 293.098 314.206 293.25 314.25V314.25Z" fill="#D21B60"/>
<path d="M293.25 317.8C293.606 317.905 293.921 318.119 294.15 318.411C294.379 318.703 294.512 319.059 294.53 319.43C294.536 319.589 294.505 319.746 294.438 319.891C294.372 320.035 294.272 320.161 294.146 320.258C294.021 320.356 293.875 320.423 293.719 320.452C293.563 320.482 293.402 320.475 293.25 320.43C292.896 320.325 292.585 320.11 292.361 319.818C292.136 319.525 292.01 319.169 292 318.8C291.995 318.645 292.026 318.491 292.091 318.349C292.156 318.208 292.253 318.084 292.375 317.987C292.496 317.89 292.638 317.823 292.79 317.79C292.942 317.758 293.1 317.761 293.25 317.8V317.8Z" fill="#D21B60"/>
<path d="M329 294.08C329 297.46 330 305.72 328.94 310.85C327.88 315.98 325.07 318.27 314.54 324.41C304.01 330.55 279.76 344.58 279.76 344.58L311.34 345.37L328.7 336.47L334.61 317.28L335.07 295.69L332 294L329 294.08Z" fill="#37474F"/>
<path d="M335.1 295.69V296.78C334.737 298.039 334.006 299.161 333 300C332.487 300.31 331.899 300.473 331.3 300.47C330.2 300.47 329.24 299.91 329.19 299.02C329.19 298.77 329.19 298.53 329.19 298.3C329.08 296.59 329.04 295.15 329.04 294.12H332.04L335.1 295.69Z" fill="#D21B60"/>
<path opacity="0.3" d="M335.1 295.69V296.78C334.737 298.039 334.006 299.161 333 300C332.487 300.31 331.899 300.473 331.3 300.47C330.2 300.47 329.24 299.91 329.19 299.02C329.19 298.77 329.19 298.53 329.19 298.3C329.08 296.59 329.04 295.15 329.04 294.12H332.04L335.1 295.69Z" fill="black"/>
<path d="M400.62 314.14L373.88 298.7L388.74 290.12L403.2 299.25L400.62 314.14Z" fill="#D21B60"/>
<path opacity="0.35" d="M400.62 314.14L373.88 298.7L388.74 290.12L403.2 299.25L400.62 314.14Z" fill="black"/>
<path d="M389.35 310.48L393.19 302.85L384.05 297.56C381.14 295.89 377.27 296.08 373.05 298.56C364.05 303.77 356.71 317.21 356.7 328.56C356.7 334.51 358.7 338.71 361.92 340.62L362.05 340.7L371.42 346.11L375.42 338.06C383.13 332.2 389.05 320.62 389.35 310.48Z" fill="#37474F"/>
<path opacity="0.5" d="M389.35 310.48L393.19 302.85L384.05 297.56C381.14 295.89 377.27 296.08 373.05 298.56C364.05 303.77 356.71 317.21 356.7 328.56C356.7 334.51 358.7 338.71 361.92 340.62L362.05 340.7L371.42 346.11L375.42 338.06C383.13 332.2 389.05 320.62 389.35 310.48Z" fill="#263238"/>
<path d="M398.88 315.17C398.88 324.97 393.43 336.32 386.15 342.6C385.034 343.564 383.832 344.424 382.56 345.17C373.56 350.38 366.21 345.39 366.22 334.02C366.22 325.43 370.39 315.64 376.33 309.13L376.38 309.08C378.17 307.08 380.254 305.364 382.56 303.99C391.56 298.81 398.88 303.8 398.88 315.17Z" fill="#37474F"/>
<path d="M382.53 310.88C388.28 307.57 392.93 311.02 392.93 318.6C392.93 326.18 388.28 335.02 382.53 338.33C376.78 341.64 372.13 338.19 372.13 330.61C372.13 323.03 376.79 314.2 382.53 310.88Z" fill="#455A64"/>
<path d="M387 322C387 325.79 385 330 382.54 331.44C382.127 331.733 381.635 331.896 381.129 331.906C380.623 331.917 380.125 331.776 379.7 331.5C378.7 330.82 378.09 329.28 378.09 327.15C378.09 323.36 380.09 319.15 382.54 317.72C383.094 317.362 383.754 317.204 384.41 317.27V317.27C385.93 317.51 387 319.27 387 322Z" fill="white"/>
<path d="M386 321.64C386 325.43 384 329.64 381.55 331.08C380.993 331.431 380.336 331.589 379.68 331.53C378.68 330.85 378.07 329.31 378.07 327.18C378.07 323.39 380.07 319.18 382.52 317.75C383.074 317.392 383.734 317.234 384.39 317.3V317.3C385.38 318 386 319.52 386 321.64Z" fill="#E0E0E0"/>
<path d="M398.88 315.17C398.88 324.97 393.43 336.32 386.15 342.6C391.202 336.868 394.761 329.978 396.51 322.54C397.9 315.98 397.38 306.54 391.75 304.2C386.12 301.86 378.7 306.83 376.35 309.11C378.14 307.11 380.224 305.394 382.53 304.02C391.56 298.81 398.88 303.8 398.88 315.17Z" fill="#455A64"/>
<path d="M403.31 277.06C400 269.24 386.18 261.11 380.31 264.06C378.47 264.97 373.25 268.13 366.67 271.92L329.67 293.25C327.67 294.41 330.98 296.31 333.17 295.25C333.17 307.14 333.17 312.41 328.84 317.25C327.31 318.97 326.05 319.59 323.57 321.02L292.19 339.02C288.19 341.32 281.78 344.24 281.78 344.24V382.71L362 336.45C362 335.395 362.053 334.34 362.16 333.29C363.37 320.79 371.48 306.96 381.32 301.29C391.98 295.13 400.63 300.89 400.63 314.15L402.36 313.15C408.54 309.45 406.62 284.88 403.31 277.06Z" fill="#D21B60"/>
<path d="M386 263.74C384.122 263.193 382.113 263.295 380.3 264.03C378.46 264.95 373.24 268.12 366.66 271.9L357.76 277L310.57 249.81C310.57 249.81 328.87 240.47 335.37 237.96C341.87 235.45 384.11 258.87 386 263.74Z" fill="#455A64"/>
<path d="M322.56 248.69C322.56 248.69 334 241.5 336.56 241.3C339.12 241.1 351.11 245.93 358.16 250.13C365.21 254.33 374.63 260.13 375.11 261.76C375.59 263.39 365.57 268.18 362.79 269.83C362.79 269.83 367 266.37 368.43 265.09C369.86 263.81 371.97 262.63 371.59 261.76C371.21 260.89 363.82 256.32 355.39 251.43C346.96 246.54 338.26 243.14 336.56 243.36C333.756 244.044 331.018 244.978 328.38 246.15C326.31 247.05 322.56 248.69 322.56 248.69Z" fill="#37474F"/>
<path opacity="0.5" d="M283 346.79L339.55 314.16C340.383 314.995 340.884 316.103 340.96 317.28L283 346.79Z" fill="white"/>
<path opacity="0.5" d="M338.3 290.12C339.1 290.69 340.09 290.62 347.35 287.12C351.21 285.25 356.15 282.81 361.74 280.02C374.47 273.66 382.33 269.02 384.2 270.68C386.07 272.34 378.06 281.21 371.3 288.95C363.757 297.196 355.265 304.521 346 310.77C346.836 311.761 347.471 312.906 347.87 314.14C347.87 314.14 376.76 297.14 385.99 288.93C395.22 280.72 400.29 273.15 393.17 269.18C386.05 265.21 384.31 263.97 373.86 269.65C367.36 273.18 355.02 279.76 346.65 284.4C337.49 289.5 337.67 289.68 338.3 290.12Z" fill="white"/>
<path opacity="0.15" d="M281.58 249.28C281.58 249.28 326.39 236.66 329.58 238.53C332.77 240.4 290.44 259.1 290.44 259.1L281.58 249.28Z" fill="black"/>
<path opacity="0.15" d="M287.32 373C285.72 373.85 285.39 370.41 284.48 363.72C283.873 357.773 283.596 351.797 283.65 345.82C282.55 350.82 283.01 362.99 283.65 370.77C284.29 378.55 285.76 377.84 287.32 376.68L334.63 347.84L287.32 373Z" fill="black"/>
<path opacity="0.15" d="M323.43 321C333.36 316.3 332.87 308.45 333.14 300C333.14 298.53 333.14 297 333.14 295.29L378.79 273.23C379.004 273.105 379.257 273.064 379.5 273.114C379.743 273.165 379.958 273.305 380.104 273.505C380.25 273.706 380.316 273.954 380.289 274.2C380.263 274.447 380.145 274.675 379.96 274.84C374.42 280.5 363.96 290.96 354.18 299.33C344.529 307.368 334.246 314.615 323.43 321V321Z" fill="black"/>
<path opacity="0.15" d="M341.85 312.54C341.85 312.54 344.16 314.54 343.69 319.84C343.13 326.17 335.09 346.84 335.09 346.84C335.09 346.84 345.18 324.96 345.89 319.69C346.143 318.253 346.096 316.779 345.751 315.361C345.407 313.943 344.773 312.611 343.89 311.45L341.85 312.54Z" fill="black"/>
<path opacity="0.15" d="M373.88 305.48C373.88 305.48 372.95 300.95 371.64 299.25C370.33 297.55 359.64 295.72 359.64 295.72C359.64 295.72 368.88 298.58 370.38 300.18C371.702 301.839 372.874 303.613 373.88 305.48Z" fill="black"/>
<path opacity="0.15" d="M353.75 279.33C356.072 279.626 358.23 280.68 359.89 282.33C359.89 282.33 360.02 280.33 355.09 278.54L353.75 279.33Z" fill="black"/>
<path opacity="0.15" d="M394.06 299.25C394.06 299.25 400.97 295.31 402.45 292.71C403.93 290.11 404.56 281.45 404.56 281.45C404.56 281.45 405.15 291.37 403.43 293.75C401.71 296.13 394.06 299.25 394.06 299.25Z" fill="black"/>
<path d="M266.47 251.16V251.4C266.491 251.79 266.603 252.17 266.797 252.509C266.992 252.847 267.263 253.136 267.59 253.35L335.47 292.53C335.817 292.707 336.201 292.8 336.59 292.8C336.979 292.8 337.363 292.707 337.71 292.53L345.98 287.76C346.307 287.546 346.578 287.257 346.773 286.919C346.967 286.58 347.079 286.2 347.1 285.81V285.57C347.079 285.181 346.966 284.803 346.771 284.466C346.577 284.129 346.306 283.843 345.98 283.63L278.11 244.44C277.761 244.263 277.376 244.17 276.985 244.17C276.594 244.17 276.208 244.263 275.86 244.44L267.59 249.22C267.264 249.433 266.993 249.719 266.798 250.056C266.604 250.393 266.491 250.771 266.47 251.16Z" fill="#37474F"/>
<path d="M267.59 250.51L335.47 289.7C335.817 289.877 336.201 289.97 336.59 289.97C336.979 289.97 337.363 289.877 337.71 289.7L345.98 284.92C346.6 284.57 346.6 283.99 345.98 283.63L278.11 244.44C277.761 244.263 277.376 244.17 276.985 244.17C276.594 244.17 276.208 244.263 275.86 244.44L267.59 249.22C267 249.58 267 250.16 267.59 250.51Z" fill="#455A64"/>
<path d="M347.1 285.57V285.81C347.081 286.199 346.969 286.578 346.775 286.916C346.58 287.253 346.307 287.539 345.98 287.75L337.71 292.54C337.363 292.716 336.979 292.805 336.59 292.8V290C336.979 290.005 337.363 289.916 337.71 289.74L345.98 284.95C346.51 284.65 346.59 284.17 346.2 283.81C346.462 284.027 346.676 284.295 346.831 284.597C346.986 284.9 347.077 285.231 347.1 285.57Z" fill="#263238"/>
<path d="M268.69 346.43C256.707 337.482 244.263 329.167 231.41 321.52C218.576 314.208 205.075 308.134 191.09 303.38C191.65 305.5 194.99 308.86 199.49 312.51C202.67 315.11 206.26 317.76 210.41 320.51C220.22 327.36 229.5 332.08 232.87 334.09C249.73 343.23 265.87 349.77 268.71 346.41L268.69 346.43Z" fill="#455A64"/>
<path d="M268.69 346.43C267.89 345.93 242.25 330.06 229.94 322.66C218.21 315.61 194.03 304.66 191.09 303.38C205.118 308.025 218.629 314.104 231.41 321.52C244.263 329.167 256.707 337.482 268.69 346.43V346.43Z" fill="#37474F"/>
<path d="M195.2 296.19L194.6 298.7C193.22 301.29 190.16 304.56 189.06 304.29C187.96 304.02 187.48 302.62 187.17 300.85C187.029 300.007 186.945 299.155 186.92 298.3C186.82 295.53 188.06 289.06 191.92 287.3C192.306 287.135 192.733 287.096 193.142 287.188C193.551 287.279 193.921 287.497 194.2 287.81C194.712 288.326 195.092 288.957 195.31 289.65C195.94 291.61 195.29 296.09 195.2 296.19Z" fill="#D21B60"/>
<path opacity="0.2" d="M195.2 296.19C194.99 297.19 194.6 298.7 194.6 298.7C193.22 301.29 190.16 304.56 189.06 304.29C187.96 304.02 187.48 302.62 187.17 300.85C187.029 300.007 186.945 299.155 186.92 298.3C186.82 295.53 188.06 289.06 191.92 287.3C192.306 287.135 192.733 287.096 193.142 287.188C193.551 287.279 193.921 287.497 194.2 287.81C194.712 288.326 195.092 288.957 195.31 289.65C195.94 291.61 195.29 296.09 195.2 296.19Z" fill="black"/>
<path d="M194.6 298.7C193.22 301.29 190.16 304.56 189.06 304.29C187.96 304.02 187.48 302.62 187.17 300.85C187.029 300.007 186.945 299.155 186.92 298.3C186.82 295.53 188.06 289.06 191.92 287.3C192.306 287.135 192.733 287.096 193.142 287.188C193.551 287.279 193.921 287.497 194.2 287.81L193.67 289C190.98 290.15 190.25 294.31 190.5 297.47C190.75 300.63 193.05 300.33 194.6 298.7Z" fill="#D21B60"/>
<path opacity="0.35" d="M194.6 298.7C193.22 301.29 190.16 304.56 189.06 304.29C187.96 304.02 187.48 302.62 187.17 300.85C187.029 300.007 186.945 299.155 186.92 298.3C186.82 295.53 188.06 289.06 191.92 287.3C192.306 287.135 192.733 287.096 193.142 287.188C193.551 287.279 193.921 287.497 194.2 287.81L193.67 289C190.98 290.15 190.25 294.31 190.5 297.47C190.75 300.63 193.05 300.33 194.6 298.7Z" fill="black"/>
<path d="M195.29 289.67C194.29 288.67 191.91 288.59 189.87 291.38C187.83 294.17 187.17 298.97 187.17 300.83C187.021 299.988 186.934 299.135 186.91 298.28C186.82 295.5 188.05 289.04 191.91 287.28C193.51 286.6 194.83 288.24 195.29 289.67Z" fill="#37474F"/>
<path d="M281.75 382.78L255 367.33L269.86 358.75L281.75 365.64V382.78Z" fill="#D21B60"/>
<path opacity="0.35" d="M281.75 382.78L255 367.33L269.86 358.75L281.75 365.64V382.78Z" fill="black"/>
<path d="M270.74 378.94L274.58 371.31L265.44 366C262.53 364.33 258.66 364.52 254.44 367C245.44 372.21 238.09 385.66 238.09 397C238.09 403 240.09 407.15 243.31 409.06L243.44 409.14L252.8 414.55L256.86 406.5C264.52 400.66 270.44 389.08 270.74 378.94Z" fill="#37474F"/>
<path opacity="0.5" d="M270.74 378.94L274.58 371.31L265.44 366C262.53 364.33 258.66 364.52 254.44 367C245.44 372.21 238.09 385.66 238.09 397C238.09 403 240.09 407.15 243.31 409.06L243.44 409.14L252.8 414.55L256.86 406.5C264.52 400.66 270.44 389.08 270.74 378.94Z" fill="#263238"/>
<path d="M280.26 383.63C280.26 393.43 274.82 404.78 267.53 411.06C266.419 412.026 265.221 412.887 263.95 413.63C254.95 418.84 247.6 413.85 247.6 402.48C247.6 393.89 251.78 384.11 257.72 377.59L257.77 377.54C259.56 375.54 261.644 373.824 263.95 372.45C273 367.27 280.26 372.26 280.26 383.63Z" fill="#37474F"/>
<path d="M263.92 379.34C269.66 376.03 274.32 379.48 274.32 387.06C274.32 394.64 269.66 403.48 263.92 406.8C258.18 410.12 253.52 406.66 253.52 399.08C253.52 391.5 258.17 382.66 263.92 379.34Z" fill="#455A64"/>
<path d="M268.37 390.49C268.37 394.28 266.37 398.49 263.92 399.93C263.507 400.223 263.016 400.386 262.509 400.396C262.003 400.407 261.505 400.265 261.08 399.99C260.08 399.31 259.46 397.77 259.46 395.64C259.46 391.85 261.46 387.64 263.92 386.21C264.474 385.852 265.134 385.694 265.79 385.76V385.76C267.31 386 268.37 387.74 268.37 390.49Z" fill="white"/>
<path d="M267.4 390.11C267.4 393.9 265.4 398.11 262.95 399.54C262.393 399.891 261.736 400.049 261.08 399.99C260.08 399.31 259.46 397.77 259.46 395.64C259.46 391.85 261.46 387.64 263.92 386.21C264.474 385.852 265.134 385.694 265.79 385.76V385.76C266.77 386.45 267.4 388 267.4 390.11Z" fill="#E0E0E0"/>
<path d="M280.26 383.63C280.26 393.43 274.82 404.78 267.53 411.06C272.589 405.331 276.151 398.44 277.9 391C279.28 384.44 278.76 375 273.14 372.66C267.52 370.32 260.09 375.29 257.74 377.57C259.53 375.57 261.614 373.854 263.92 372.48C273 367.27 280.26 372.26 280.26 383.63Z" fill="#455A64"/>
<path d="M281.8 344.31C281.8 344.31 280.25 344.02 280.61 342.67C280.61 342.67 268.78 346.36 268.71 346.44C265.88 349.8 249.71 343.27 232.87 334.12C229.5 332.12 220.22 327.39 210.42 320.54C206.26 317.76 202.67 315.1 199.48 312.54C196.784 310.355 194.308 307.909 192.09 305.24C191.55 304.58 190.44 302.77 191.09 301.3C157.66 325.08 139.33 334.92 143.26 362.04C143.26 362.04 143.45 367.04 143.8 372.16C144.68 384.81 151.89 388.29 164.03 395.3L175.62 402C184.94 407.38 200.19 411.77 213.93 411.33C229.42 410.83 242.93 404.93 243.39 401.33C243.576 399.717 243.863 398.117 244.25 396.54C245.261 392.467 246.801 388.543 248.83 384.87C251.681 379.45 255.722 374.746 260.65 371.11C261.26 370.69 261.87 370.3 262.48 369.95C272.43 364.2 280.63 368.82 281.69 380.23C281.76 381.06 281.8 381.92 281.8 382.81V344.31Z" fill="#D21B60"/>
<path d="M259.1 346L210.37 362C193.37 357.91 181 350.1 171.81 339.73L198.86 312C199.06 312.17 199.27 312.35 199.49 312.52C202.67 315.12 206.26 317.77 210.41 320.52C220.22 327.37 229.5 332.09 232.87 334.1C242.68 339.44 252.26 343.88 259.1 346Z" fill="#37474F"/>
<path d="M178.09 334.88C178.09 334.88 178.69 335.32 179.73 336.13C180.23 336.54 180.88 337 181.59 337.55C182.3 338.1 183.12 338.7 184.01 339.36C184.9 340.02 185.89 340.69 186.9 341.45C187.91 342.21 189.03 342.92 190.19 343.67C190.76 344.05 191.34 344.44 191.94 344.81C192.54 345.18 193.15 345.55 193.76 345.95C194.99 346.69 196.23 347.47 197.52 348.15C198.81 348.83 200.07 349.59 201.35 350.26C202.63 350.93 203.88 351.6 205.13 352.17C206.38 352.74 207.56 353.36 208.72 353.88C209.88 354.4 210.96 354.88 211.97 355.35C212.98 355.82 213.92 356.19 214.75 356.56L216.91 357.48L218.79 358.31C218.79 358.31 218.05 358.21 216.79 357.98C216.14 357.86 215.36 357.72 214.47 357.5C213.58 357.28 212.57 357.08 211.47 356.75C210.37 356.42 209.21 356.12 208 355.67L206.12 355.02C205.49 354.79 204.85 354.52 204.2 354.26C203.55 354 202.88 353.71 202.2 353.41C201.52 353.11 200.86 352.83 200.2 352.49C198.88 351.83 197.53 351.15 196.2 350.4C194.87 349.65 193.63 348.84 192.37 348.05C191.11 347.26 189.95 346.38 188.83 345.53C187.71 344.68 186.67 343.79 185.67 342.97C184.67 342.15 183.79 341.3 183.01 340.49C182.23 339.68 181.48 338.96 180.88 338.27C180.28 337.58 179.73 337 179.33 336.49C178.54 335.48 178.09 334.88 178.09 334.88Z" fill="#263238"/>
<path d="M187.51 327.59C187.51 327.59 188.18 328.03 189.33 328.83L194.1 332.07C195.1 332.75 196.17 333.43 197.3 334.19L200.89 336.49L202.8 337.68C203.46 338.07 204.12 338.46 204.8 338.87C206.12 339.68 207.49 340.47 208.86 341.24L210.86 342.42L212.92 343.53C214.29 344.26 215.63 345 216.92 345.67C218.21 346.34 219.51 347.01 220.73 347.6L224.17 349.3L229.37 351.8C230.63 352.41 231.37 352.8 231.37 352.8C231.37 352.8 230.58 352.63 229.22 352.31C228.54 352.14 227.71 351.94 226.77 351.66C225.83 351.38 224.77 351.1 223.64 350.66C222.51 350.22 221.25 349.86 219.98 349.35C218.71 348.84 217.33 348.35 215.98 347.71C215.28 347.41 214.6 347.08 213.89 346.71C213.18 346.34 212.47 346.05 211.78 345.71L209.65 344.61L207.54 343.45C206.147 342.637 204.78 341.807 203.44 340.96C202.1 340.12 200.83 339.21 199.6 338.34C198.37 337.47 197.23 336.56 196.14 335.71C195.05 334.86 194.06 334.01 193.14 333.2C192.22 332.39 191.43 331.66 190.73 330.97C190.03 330.28 189.43 329.69 188.95 329.17C188 328.19 187.51 327.59 187.51 327.59Z" fill="#263238"/>
<path d="M196.93 320.3C196.93 320.3 197.67 320.74 198.93 321.53L204.17 324.79L207.66 326.94L211.57 329.32L215.78 331.81C217.2 332.67 218.68 333.49 220.15 334.32C221.62 335.15 223.08 336.01 224.54 336.8L228.83 339.15L236.5 343.23L241.95 346.12C243.27 346.82 244.02 347.24 244.02 347.24C244.02 347.24 243.19 347.02 241.76 346.59C241.04 346.38 240.17 346.11 239.19 345.76C238.21 345.41 237.08 345.06 235.89 344.59L234.02 343.88L232.02 343.06C230.66 342.5 229.24 341.86 227.79 341.19C226.34 340.52 224.79 339.81 223.35 339C221.91 338.19 220.35 337.4 218.85 336.57C217.35 335.74 215.85 334.84 214.46 333.94C213.07 333.04 211.66 332.12 210.32 331.23C208.98 330.34 207.74 329.42 206.56 328.54C205.38 327.66 204.28 326.81 203.29 325.99C202.3 325.17 201.39 324.43 200.6 323.74C199.81 323.05 199.14 322.45 198.6 321.93C197.54 320.91 196.93 320.3 196.93 320.3Z" fill="#263238"/>
<path opacity="0.85" d="M213.14 372.12C208.81 374.12 192.92 383.02 191.41 385.66C189.9 388.3 202.46 389.15 209.41 388.32C214.86 387.66 226.18 380.73 227.41 378.75C228.86 376.33 217.44 370.17 213.14 372.12Z" fill="#D21B60"/>
<path opacity="0.85" d="M147.27 360C149.5 360.9 153.52 354.1 156.27 349.25C159.02 344.4 160.47 342.53 160.61 340.2C160.75 337.87 157.03 333.73 154.32 333.68C151.81 333.68 145.73 342.53 145.48 350.37C145.22 357.06 146.25 359.57 147.27 360Z" fill="#D21B60"/>
<path opacity="0.85" d="M213.14 372.12C208.81 374.12 192.92 383.02 191.41 385.66C189.9 388.3 202.46 389.15 209.41 388.32C214.86 387.66 226.18 380.73 227.41 378.75C228.86 376.33 217.44 370.17 213.14 372.12Z" fill="white"/>
<path opacity="0.85" d="M221.84 373.52C218.03 372.14 214.57 374.08 206.57 378.65C198.57 383.22 193.15 386.83 194.79 387.92C192.33 387.42 190.84 386.68 191.42 385.66C192.93 383.01 208.82 374.1 213.14 372.12C215.16 371.21 218.75 372.08 221.84 373.52Z" fill="white"/>
<path opacity="0.85" d="M227.37 378.74C226.16 380.74 214.83 387.66 209.37 388.31C207.564 388.513 205.748 388.617 203.93 388.62C206.74 388.22 213.87 384.11 218.46 381.62C222.87 379.22 226.73 376.83 225.29 375.52C226.93 376.72 227.87 377.94 227.37 378.74Z" fill="white"/>
<path opacity="0.85" d="M147.27 360C149.5 360.9 153.52 354.1 156.27 349.25C159.02 344.4 160.47 342.53 160.61 340.2C160.75 337.87 157.03 333.73 154.32 333.68C151.81 333.68 145.73 342.53 145.48 350.37C145.22 357.06 146.25 359.57 147.27 360Z" fill="white"/>
<path opacity="0.85" d="M146.76 347.83C146.087 349.726 145.647 351.698 145.45 353.7C145.45 352.7 145.45 351.62 145.45 350.35C145.7 342.51 151.78 333.62 154.29 333.66C155.049 333.712 155.782 333.956 156.42 334.37C155.16 333.93 153.99 334.89 153 336.27C150.618 339.953 148.532 343.818 146.76 347.83V347.83Z" fill="white"/>
<path opacity="0.85" d="M160.57 340.19C160.43 342.51 158.94 344.37 156.24 349.19C153.54 354.01 149.5 360.85 147.24 359.95C146.64 359.71 146.06 358.77 145.71 356.73C146.52 358.56 147.64 358.16 148.81 357.13C149.98 356.1 155.41 347.43 157.4 343.55C159.39 339.67 159.1 336.78 157.75 335.36C159.39 336.8 160.65 338.82 160.57 340.19Z" fill="white"/>
<path opacity="0.15" d="M226.6 381.29C233.773 381.86 240.482 385.066 245.43 390.29C239.663 386.324 233.309 383.287 226.6 381.29V381.29Z" fill="black"/>
<path opacity="0.15" d="M193.86 310.81C193.86 310.81 169.52 329.86 156.23 352.81L193.86 310.81Z" fill="black"/>
<path opacity="0.15" d="M195.58 374.78C195.58 374.78 225.36 357.96 261.76 350.35L195.58 374.78Z" fill="black"/>
<path opacity="0.15" d="M196.93 378.35C181.81 372.614 167.805 364.29 155.54 353.75C161.413 360.357 168.42 365.86 176.23 370C189.68 377.27 196.93 378.35 196.93 378.35Z" fill="black"/>
<path opacity="0.15" d="M143.22 358.31C145.22 364.11 152.36 372.93 162.92 379.14C173.48 385.35 187.17 393.88 202.71 394.39C218.25 394.9 228.95 383.39 228.95 383.39C228.95 383.39 220.95 396.14 202.71 396.55C184.47 396.96 173.22 388.21 162.38 381.63C151.11 374.78 144.9 368.07 143.22 358.31Z" fill="black"/>
<path d="M175.62 402C179.126 403.971 182.808 405.608 186.62 406.89C184.5 406.07 184.43 404.38 184.19 401.57C183.92 398.4 184.46 396.95 180.76 394.57C177.06 392.19 156.28 380.69 153.19 378.65C150.1 376.61 149.28 381.72 146.76 382.24C150.06 387.52 155.95 390.63 164.04 395.3L175.62 402Z" fill="#455A64"/>
<path opacity="0.5" d="M241.9 386.28C245.6 376.9 252.6 369.54 258.45 367.5C252.11 368 243.72 374.5 240.45 385.38C240.46 385.38 241.4 386 241.9 386.28Z" fill="white"/>
<path opacity="0.5" d="M239.87 387.65C239.041 391.483 238.855 395.427 239.32 399.32C239.327 395.577 239.952 391.86 241.17 388.32L239.87 387.65Z" fill="white"/>
<path opacity="0.5" d="M195.45 379.8C180.333 374.058 166.329 365.734 154.06 355.2C159.94 361.798 166.949 367.295 174.76 371.43C188.21 378.72 195.45 379.8 195.45 379.8Z" fill="white"/>
<path opacity="0.5" d="M160.3 336.41C159.3 334.71 157.71 333.61 157.43 332.82C156.84 331.14 190.72 308.96 192.04 308.82C193.36 308.68 168.41 330.91 165.19 335.37C161.97 339.83 161.14 337.79 160.3 336.41Z" fill="white"/>
<path opacity="0.5" d="M225.54 373C229.74 375.37 230.38 378 233.63 375.41C236.88 372.82 260.45 355.94 266.02 353.55C272.3 350.86 268.49 350.19 252.91 355.94C238.82 361.14 220.67 367.94 219.62 369.35C218.57 370.76 222.08 371 225.54 373Z" fill="white"/>
<path opacity="0.5" d="M209.4 362.56C194 360 180.27 350.18 171 340.18C171 340.18 176.3 349.24 188.75 355.99C201.2 362.74 209.4 362.56 209.4 362.56Z" fill="white"/>
<path d="M286.94 342C284.47 343.44 276.03 347.83 272.94 347.83C271.39 347.83 267.85 349.56 259.13 346.03C264.69 347.68 269.81 347.45 271.74 344.09L277.24 312.22C277.396 311.533 277.486 310.834 277.51 310.13V309.9C277.484 308.844 277.145 307.82 276.536 306.956C275.927 306.093 275.076 305.43 274.09 305.05C255.51 297.92 239.43 289.74 226.58 280.17C223.45 277.834 220.446 275.333 217.58 272.68V272.68C217.47 272.58 217.34 272.48 217.22 272.39C216.989 272.216 216.741 272.065 216.48 271.94L216.26 271.85C216.17 271.805 216.077 271.768 215.98 271.74C215.835 271.68 215.684 271.633 215.53 271.6C215.423 271.563 215.312 271.536 215.2 271.52H215C214.927 271.515 214.853 271.515 214.78 271.52L214.39 271.47C213.583 271.399 212.77 271.517 212.016 271.816C211.263 272.114 210.589 272.585 210.05 273.19C202.67 282.03 191.12 301.19 191.05 301.37C190.32 303.05 191.81 304.96 191.99 305.22C192.887 306.339 193.842 307.41 194.85 308.43C196.69 310.29 198.72 312.02 198.85 312.09C193.26 309.2 189.71 305.3 189.33 302.52C189.525 302.126 189.746 301.745 189.99 301.38C195.99 290.46 208.77 272.83 210.75 271.08L211.11 270.77C212.603 269.469 214.499 268.724 216.478 268.66C218.457 268.596 220.397 269.218 221.97 270.42C229.707 276.408 237.854 281.848 246.35 286.7C256.59 292.38 270.58 298.29 278.81 301.62C282.81 303.23 284.32 307.26 283.3 311.41C282.8 313.46 282.18 315.55 281.3 318.5C278.75 327.05 277.3 341.66 276.59 344.08C276.27 345.27 280.5 344.38 281.3 344.38C282.49 344.27 284.56 343.29 286.94 342Z" fill="#37474F"/>
<path opacity="0.8" d="M277.48 310.11C277.476 310.815 277.385 311.517 277.21 312.2C277.365 311.514 277.456 310.814 277.48 310.11V310.11Z" fill="#455A64"/>
<path opacity="0.8" d="M277.48 310.11C277.476 310.815 277.385 311.517 277.21 312.2C277.365 311.514 277.456 310.814 277.48 310.11V310.11Z" fill="#455A64"/>
<path opacity="0.8" d="M277.48 310.11C277.476 310.815 277.385 311.517 277.21 312.2C277.365 311.514 277.456 310.814 277.48 310.11V310.11Z" fill="#455A64"/>
<path opacity="0.3" d="M277.48 309.87C277.502 310.656 277.411 311.44 277.21 312.2L271.71 344.07C269.78 347.43 264.71 347.66 259.1 346.01C241.78 340.84 212.73 322.24 207.04 318.23C203.97 316.07 201.19 313.97 198.84 312.01C197.27 310.7 195.91 309.36 194.76 308.19C191.76 305.13 190.25 302.75 191.1 301.27C192.53 298.75 198.81 288.62 204.31 280.74C206.31 277.87 208.31 275.19 210.1 273.09C211.029 272.073 212.316 271.456 213.69 271.368C215.065 271.28 216.42 271.729 217.47 272.62V272.62C220.336 275.273 223.34 277.773 226.47 280.11C239.31 289.68 255.39 297.86 273.98 304.99C274.985 305.359 275.857 306.021 276.481 306.891C277.105 307.762 277.453 308.799 277.48 309.87V309.87Z" fill="#455A64"/>
<path opacity="0.2" d="M201.59 314.21C203.27 315.51 205.09 316.86 207.04 318.21C208.83 319.47 212.93 322.21 218.25 325.45C225.52 313.31 238.25 294.74 241.93 290.1C236.862 287.24 231.967 284.085 227.27 280.65C215.1 292 201.66 314.09 201.59 314.21Z" fill="white"/>
<path opacity="0.2" d="M221.06 327.18C222.393 327.98 223.76 328.797 225.16 329.63C229.33 322.73 238.52 307.81 248.43 293.63C247.15 292.96 245.89 292.29 244.65 291.63C236.046 302.972 228.167 314.846 221.06 327.18V327.18Z" fill="white"/>
<path opacity="0.3" d="M274.06 305C255.47 297.87 239.39 289.69 226.55 280.12C223.42 277.784 220.416 275.283 217.55 272.63V272.63C217.454 272.555 217.354 272.484 217.25 272.42C220.57 276.61 229.69 286.49 247.07 294.98C264.45 303.47 273.49 306.22 274.66 309.35C275.83 312.48 275.12 313.06 273.75 323.56C272.87 330.26 271.27 341.42 268.98 343.46C266.69 345.5 262.3 346.69 239.77 337.68C245.962 341.004 252.43 343.787 259.1 346C264.66 347.65 269.78 347.42 271.71 344.06L277.21 312.19C277.411 311.43 277.502 310.646 277.48 309.86C277.456 308.802 277.117 307.776 276.509 306.91C275.9 306.045 275.047 305.38 274.06 305V305Z" fill="white"/>
<path d="M292.43 343.18C291.19 349.07 284.67 350.31 279.78 350.18C277.948 350.203 276.128 349.888 274.41 349.25C272.52 348.16 273.41 345.9 274.41 344.59C276.13 342.38 283.81 337.93 288.63 337.78C291.44 337.67 293.29 339.05 292.43 343.18Z" fill="#D21B60"/>
<path opacity="0.2" d="M292.43 343.18C291.19 349.07 284.67 350.31 279.78 350.18C277.948 350.203 276.128 349.888 274.41 349.25C272.52 348.16 273.41 345.9 274.41 344.59C276.13 342.38 283.81 337.93 288.63 337.78C291.44 337.67 293.29 339.05 292.43 343.18Z" fill="black"/>
<path d="M292.43 343.18C291.19 349.07 284.67 350.31 279.78 350.18C277.948 350.203 276.128 349.888 274.41 349.25C272.52 348.16 273.41 345.9 274.41 344.59C273.46 346.39 278.5 347.51 282.98 345.9C287.46 344.29 290.81 340.82 288.63 337.78C291.44 337.67 293.29 339.05 292.43 343.18Z" fill="#D21B60"/>
<path opacity="0.35" d="M292.43 343.18C291.19 349.07 284.67 350.31 279.78 350.18C277.948 350.203 276.128 349.888 274.41 349.25C272.52 348.16 273.41 345.9 274.41 344.59C273.46 346.39 278.5 347.51 282.98 345.9C287.46 344.29 290.81 340.82 288.63 337.78C291.44 337.67 293.29 339.05 292.43 343.18Z" fill="black"/>
<path d="M292.43 343.18C291.19 349.07 284.67 350.31 279.78 350.18C284.65 350.04 288.52 347.24 289.99 344.18C291.46 341.12 290.34 338.18 288.62 337.78C291.44 337.67 293.29 339.05 292.43 343.18Z" fill="#37474F"/>
<path d="M314.85 331.13C313.279 331.929 311.591 332.476 309.85 332.75C308.46 332.94 308.13 334.31 309.41 334.88C310.69 335.45 311.6 335.07 311.48 335.54C311.36 336.01 309.48 337.19 307.69 338.09C306.1 338.9 303.69 341.14 307.14 343.4C310.59 345.66 314.68 343.2 316.75 341.76C319.004 339.981 320.684 337.578 321.58 334.85L314.85 331.13Z" fill="#455A64"/>
<path d="M315.76 329.23C314.81 328.89 314.08 330.17 314.22 331.36C314.332 332.055 314.586 332.719 314.966 333.311C315.346 333.903 315.845 334.41 316.43 334.8C317.145 335.319 317.986 335.637 318.866 335.719C319.745 335.802 320.631 335.647 321.43 335.27C321.853 335.106 322.198 334.788 322.396 334.38C322.594 333.972 322.632 333.504 322.5 333.07L315.76 329.23Z" fill="#37474F"/>
<path d="M315 302.48C317.61 303.56 324.17 308.71 326.47 310.87C328.77 313.03 330.7 315.74 330.98 317.5C331.21 318.98 329.44 325.19 322.5 333.07C321.842 333.832 320.928 334.326 319.93 334.46C319.017 334.515 318.11 334.279 317.34 333.787C316.569 333.295 315.974 332.571 315.64 331.72C315.494 331.318 315.428 330.891 315.447 330.464C315.466 330.037 315.569 329.617 315.75 329.23C317.1 326.97 320.65 321.51 320.75 319.54C319.75 317.38 315.75 315.62 313.6 314.54C312.024 314.206 310.615 313.333 309.613 312.072C308.611 310.811 308.079 309.24 308.11 307.63C308.08 301.73 313.57 301.1 315 302.48Z" fill="#F0F0F0"/>
<path d="M315 302.48C314.691 302.23 314.326 302.058 313.936 301.978C313.546 301.898 313.143 301.912 312.76 302.02C310.07 302.88 308.64 306.02 309.68 310.02C309.852 311.068 310.313 312.047 311.011 312.847C311.709 313.647 312.616 314.237 313.63 314.55C310.96 315.18 308.05 313.46 307.14 309.96C306.14 305.96 308 301.43 311.41 300.54C312.14 300.405 312.894 300.523 313.547 300.876C314.201 301.229 314.713 301.795 315 302.48V302.48Z" fill="#263238"/>
<path d="M437.65 255.84C437.662 255.541 437.763 255.252 437.94 255.011C438.117 254.769 438.361 254.585 438.643 254.483C438.924 254.381 439.229 254.364 439.52 254.436C439.811 254.508 440.073 254.664 440.275 254.885C440.477 255.107 440.608 255.383 440.652 255.679C440.696 255.975 440.652 256.278 440.524 256.548C440.395 256.819 440.19 257.045 439.933 257.199C439.676 257.352 439.379 257.426 439.08 257.41C438.683 257.389 438.31 257.213 438.042 256.919C437.775 256.625 437.634 256.237 437.65 255.84Z" fill="#D21B60"/>
<path d="M431.49 254.81C431.498 254.636 431.557 254.469 431.661 254.329C431.764 254.189 431.906 254.082 432.07 254.023C432.234 253.964 432.411 253.955 432.58 253.997C432.749 254.038 432.902 254.129 433.019 254.258C433.136 254.386 433.213 254.546 433.239 254.718C433.265 254.89 433.24 255.066 433.166 255.224C433.092 255.381 432.974 255.514 432.825 255.604C432.676 255.694 432.504 255.738 432.33 255.73C432.214 255.725 432.101 255.697 431.996 255.648C431.891 255.599 431.797 255.53 431.719 255.444C431.641 255.359 431.581 255.259 431.541 255.15C431.502 255.041 431.485 254.926 431.49 254.81V254.81Z" fill="#D21B60"/>
<path d="M143.29 437.74C143.46 437.911 143.575 438.128 143.622 438.365C143.668 438.601 143.644 438.846 143.551 439.069C143.459 439.291 143.302 439.481 143.102 439.615C142.901 439.749 142.666 439.82 142.425 439.82C142.184 439.82 141.948 439.749 141.748 439.615C141.547 439.481 141.391 439.291 141.298 439.069C141.206 438.846 141.181 438.601 141.228 438.365C141.274 438.128 141.39 437.911 141.56 437.74C141.673 437.626 141.808 437.536 141.956 437.474C142.105 437.412 142.264 437.38 142.425 437.38C142.586 437.38 142.745 437.412 142.893 437.474C143.042 437.536 143.176 437.626 143.29 437.74V437.74Z" fill="#D21B60"/>
<path d="M154.62 443.1C154.899 443.38 155.09 443.736 155.167 444.124C155.244 444.512 155.204 444.914 155.052 445.279C154.901 445.645 154.645 445.957 154.316 446.177C153.987 446.396 153.6 446.513 153.205 446.513C152.809 446.513 152.423 446.396 152.094 446.177C151.765 445.957 151.509 445.645 151.357 445.279C151.206 444.914 151.166 444.512 151.243 444.124C151.32 443.736 151.51 443.38 151.79 443.1C151.976 442.914 152.196 442.767 152.439 442.666C152.682 442.565 152.942 442.513 153.205 442.513C153.468 442.513 153.728 442.565 153.971 442.666C154.214 442.767 154.434 442.914 154.62 443.1Z" fill="#D21B60"/>
<path d="M334.34 198.57C334.566 198.479 334.813 198.457 335.051 198.506C335.29 198.556 335.508 198.675 335.678 198.848C335.849 199.022 335.964 199.242 336.009 199.481C336.055 199.72 336.028 199.968 335.933 200.192C335.838 200.416 335.678 200.606 335.475 200.739C335.271 200.873 335.032 200.943 334.789 200.94C334.546 200.938 334.309 200.864 334.108 200.727C333.907 200.589 333.751 200.396 333.66 200.17C333.538 199.868 333.541 199.529 333.669 199.229C333.796 198.929 334.038 198.692 334.34 198.57V198.57Z" fill="#D21B60"/>
<path d="M343.86 190.43C344.227 190.282 344.63 190.247 345.017 190.328C345.404 190.409 345.758 190.604 346.035 190.886C346.312 191.169 346.499 191.528 346.572 191.916C346.645 192.305 346.601 192.707 346.446 193.071C346.29 193.435 346.03 193.744 345.699 193.961C345.368 194.177 344.98 194.29 344.584 194.286C344.188 194.281 343.803 194.16 343.477 193.936C343.15 193.713 342.897 193.397 342.75 193.03C342.553 192.538 342.559 191.988 342.767 191.5C342.975 191.013 343.368 190.628 343.86 190.43Z" fill="#D21B60"/>
<path d="M348.12 397.52C348.12 397.916 348.003 398.302 347.783 398.631C347.563 398.96 347.251 399.216 346.885 399.368C346.52 399.519 346.118 399.559 345.73 399.482C345.342 399.404 344.985 399.214 344.706 398.934C344.426 398.655 344.235 398.298 344.158 397.91C344.081 397.522 344.121 397.12 344.272 396.755C344.424 396.389 344.68 396.077 345.009 395.857C345.338 395.637 345.724 395.52 346.12 395.52C346.65 395.52 347.159 395.731 347.534 396.106C347.909 396.481 348.12 396.99 348.12 397.52Z" fill="#D21B60"/>
<path d="M342.14 403C342.142 403.238 342.073 403.472 341.942 403.671C341.811 403.869 341.623 404.025 341.404 404.117C341.184 404.209 340.942 404.233 340.708 404.187C340.475 404.141 340.26 404.027 340.091 403.859C339.923 403.69 339.809 403.475 339.763 403.242C339.717 403.008 339.741 402.766 339.833 402.546C339.925 402.327 340.081 402.139 340.28 402.008C340.478 401.877 340.712 401.808 340.95 401.81C341.266 401.81 341.568 401.935 341.791 402.159C342.015 402.382 342.14 402.684 342.14 403Z" fill="#D21B60"/>
<path d="M338.76 395.52C338.76 395.718 338.701 395.911 338.591 396.076C338.481 396.24 338.325 396.368 338.142 396.444C337.96 396.52 337.759 396.539 337.565 396.501C337.371 396.462 337.193 396.367 337.053 396.227C336.913 396.087 336.818 395.909 336.779 395.715C336.74 395.521 336.76 395.32 336.836 395.137C336.912 394.955 337.04 394.798 337.204 394.689C337.369 394.579 337.562 394.52 337.76 394.52C338.025 394.52 338.279 394.625 338.467 394.813C338.654 395 338.76 395.255 338.76 395.52Z" fill="#D21B60"/>
<path d="M63.78 377.75C63.78 378.146 63.6627 378.532 63.443 378.861C63.2232 379.19 62.9109 379.446 62.5454 379.598C62.1799 379.749 61.7778 379.789 61.3899 379.712C61.0019 379.634 60.6455 379.444 60.3658 379.164C60.0861 378.885 59.8956 378.528 59.8185 378.14C59.7413 377.752 59.7809 377.35 59.9323 376.985C60.0836 376.619 60.34 376.307 60.6689 376.087C60.9978 375.867 61.3845 375.75 61.78 375.75C62.3105 375.75 62.8192 375.961 63.1942 376.336C63.5693 376.711 63.78 377.22 63.78 377.75Z" fill="#D21B60"/>
<path d="M57.7999 383.22C57.7999 383.457 57.7295 383.689 57.5977 383.887C57.4658 384.084 57.2784 384.238 57.0591 384.329C56.8399 384.419 56.5986 384.443 56.3658 384.397C56.133 384.351 55.9192 384.236 55.7514 384.069C55.5836 383.901 55.4693 383.687 55.423 383.454C55.3767 383.221 55.4004 382.98 55.4912 382.761C55.5821 382.542 55.7359 382.354 55.9332 382.222C56.1306 382.09 56.3626 382.02 56.5999 382.02C56.9182 382.02 57.2234 382.146 57.4484 382.371C57.6735 382.597 57.7999 382.902 57.7999 383.22V383.22Z" fill="#D21B60"/>
<path d="M54.4099 375.75C54.4099 375.948 54.3513 376.141 54.2414 376.306C54.1315 376.47 53.9753 376.598 53.7926 376.674C53.6099 376.75 53.4088 376.769 53.2148 376.731C53.0208 376.692 52.8427 376.597 52.7028 376.457C52.563 376.317 52.4677 376.139 52.4291 375.945C52.3905 375.751 52.4103 375.55 52.486 375.367C52.5617 375.185 52.6899 375.028 52.8543 374.919C53.0188 374.809 53.2121 374.75 53.4099 374.75C53.6751 374.75 53.9295 374.855 54.117 375.043C54.3046 375.23 54.4099 375.485 54.4099 375.75Z" fill="#D21B60"/>
<path d="M290.85 124.91C290.85 125.153 290.778 125.391 290.643 125.593C290.507 125.796 290.315 125.953 290.091 126.046C289.866 126.14 289.619 126.164 289.38 126.116C289.141 126.069 288.922 125.952 288.75 125.78C288.578 125.608 288.461 125.389 288.414 125.15C288.366 124.911 288.39 124.664 288.484 124.439C288.577 124.215 288.734 124.022 288.937 123.887C289.139 123.752 289.377 123.68 289.62 123.68C289.946 123.68 290.259 123.81 290.49 124.04C290.72 124.271 290.85 124.584 290.85 124.91Z" fill="#D21B60"/>
<path d="M296.62 108.84L299.39 111.57L303.2 110.84C303.281 110.824 303.365 110.83 303.442 110.859C303.52 110.889 303.587 110.939 303.637 111.005C303.687 111.07 303.718 111.149 303.726 111.231C303.733 111.314 303.717 111.396 303.68 111.47L301.94 115L303.82 118.4C303.861 118.473 303.881 118.556 303.876 118.639C303.872 118.722 303.844 118.803 303.796 118.871C303.748 118.939 303.681 118.992 303.604 119.024C303.527 119.056 303.442 119.065 303.36 119.05L299.52 118.47L296.86 121.3C296.804 121.361 296.732 121.406 296.652 121.428C296.572 121.45 296.487 121.449 296.407 121.425C296.328 121.401 296.257 121.355 296.202 121.292C296.148 121.229 296.113 121.152 296.1 121.07L295.47 117.24L292 115.54C291.926 115.502 291.865 115.445 291.822 115.374C291.779 115.304 291.756 115.223 291.756 115.14C291.756 115.057 291.779 114.976 291.822 114.906C291.865 114.835 291.926 114.778 292 114.74L295.45 112.96L295.93 109.1C295.946 109.029 295.979 108.962 296.027 108.907C296.075 108.851 296.136 108.809 296.204 108.783C296.273 108.757 296.347 108.749 296.419 108.759C296.492 108.769 296.561 108.797 296.62 108.84Z" fill="#D21B60"/>
<path d="M127.22 289.17L127.65 292.17L130.34 293.5C130.4 293.527 130.45 293.57 130.486 293.625C130.521 293.68 130.54 293.745 130.54 293.81C130.54 293.876 130.521 293.94 130.486 293.995C130.45 294.05 130.4 294.093 130.34 294.12L127.65 295.44L127.21 298.44C127.201 298.503 127.175 298.562 127.134 298.611C127.093 298.66 127.04 298.696 126.979 298.716C126.919 298.735 126.854 298.738 126.792 298.723C126.731 298.708 126.674 298.676 126.63 298.63L124.53 296.48L121.53 296.98C121.466 296.992 121.401 296.986 121.341 296.962C121.281 296.938 121.229 296.897 121.191 296.845C121.153 296.792 121.131 296.73 121.127 296.665C121.124 296.601 121.138 296.536 121.17 296.48L122.57 293.82L121.17 291.16C121.142 291.103 121.131 291.04 121.136 290.977C121.141 290.914 121.164 290.854 121.201 290.803C121.238 290.751 121.288 290.711 121.346 290.686C121.404 290.661 121.467 290.652 121.53 290.66L124.53 291.17L126.63 289.02C126.673 288.975 126.727 288.943 126.786 288.926C126.846 288.909 126.909 288.908 126.969 288.923C127.029 288.939 127.083 288.969 127.128 289.013C127.172 289.056 127.204 289.11 127.22 289.17V289.17Z" fill="#D21B60"/>
<path d="M434.85 230L437.03 232.07L439.97 231.44C440.032 231.426 440.097 231.43 440.158 231.451C440.218 231.473 440.271 231.511 440.31 231.561C440.35 231.611 440.375 231.671 440.382 231.735C440.389 231.798 440.378 231.863 440.35 231.92L439.07 234.64L440.57 237.24C440.603 237.295 440.619 237.358 440.617 237.422C440.616 237.486 440.596 237.549 440.56 237.602C440.525 237.655 440.475 237.697 440.416 237.724C440.358 237.75 440.293 237.759 440.23 237.75L437.23 237.36L435.23 239.6C435.188 239.648 435.133 239.683 435.072 239.702C435.011 239.72 434.946 239.721 434.885 239.704C434.823 239.688 434.768 239.654 434.724 239.607C434.681 239.561 434.652 239.503 434.64 239.44L434.09 236.44L431.34 235.22C431.283 235.192 431.235 235.149 431.201 235.095C431.168 235.041 431.15 234.979 431.15 234.915C431.15 234.852 431.168 234.789 431.201 234.735C431.235 234.682 431.283 234.638 431.34 234.61L433.98 233.17L434.29 230.17C434.306 230.114 434.336 230.064 434.377 230.022C434.418 229.981 434.468 229.951 434.524 229.934C434.58 229.917 434.638 229.914 434.695 229.926C434.752 229.937 434.805 229.963 434.85 230V230Z" fill="#D21B60"/>
<path opacity="0.5" d="M437.65 255.84C437.662 255.541 437.763 255.252 437.94 255.011C438.117 254.769 438.361 254.585 438.643 254.483C438.924 254.381 439.229 254.364 439.52 254.436C439.811 254.508 440.073 254.664 440.275 254.885C440.477 255.107 440.608 255.383 440.652 255.679C440.696 255.975 440.652 256.278 440.524 256.548C440.395 256.819 440.19 257.045 439.933 257.199C439.676 257.352 439.379 257.426 439.08 257.41C438.683 257.389 438.31 257.213 438.042 256.919C437.775 256.625 437.634 256.237 437.65 255.84Z" fill="white"/>
<path opacity="0.5" d="M431.49 254.81C431.498 254.636 431.557 254.469 431.661 254.329C431.764 254.189 431.906 254.082 432.07 254.023C432.234 253.964 432.411 253.955 432.58 253.997C432.749 254.038 432.902 254.129 433.019 254.258C433.136 254.386 433.213 254.546 433.239 254.718C433.265 254.89 433.24 255.066 433.166 255.224C433.092 255.381 432.974 255.514 432.825 255.604C432.676 255.694 432.504 255.738 432.33 255.73C432.214 255.725 432.101 255.697 431.996 255.648C431.891 255.599 431.797 255.53 431.719 255.444C431.641 255.359 431.581 255.259 431.541 255.15C431.502 255.041 431.485 254.926 431.49 254.81V254.81Z" fill="white"/>
<path opacity="0.5" d="M143.29 437.74C143.46 437.911 143.575 438.128 143.622 438.365C143.668 438.601 143.644 438.846 143.551 439.069C143.459 439.291 143.302 439.481 143.102 439.615C142.901 439.749 142.666 439.82 142.425 439.82C142.184 439.82 141.948 439.749 141.748 439.615C141.547 439.481 141.391 439.291 141.298 439.069C141.206 438.846 141.181 438.601 141.228 438.365C141.274 438.128 141.39 437.911 141.56 437.74C141.673 437.626 141.808 437.536 141.956 437.474C142.105 437.412 142.264 437.38 142.425 437.38C142.586 437.38 142.745 437.412 142.893 437.474C143.042 437.536 143.176 437.626 143.29 437.74V437.74Z" fill="white"/>
<path opacity="0.5" d="M154.62 443.1C154.899 443.38 155.09 443.736 155.167 444.124C155.244 444.512 155.204 444.914 155.052 445.279C154.901 445.645 154.645 445.957 154.316 446.177C153.987 446.396 153.6 446.513 153.205 446.513C152.809 446.513 152.423 446.396 152.094 446.177C151.765 445.957 151.509 445.645 151.357 445.279C151.206 444.914 151.166 444.512 151.243 444.124C151.32 443.736 151.51 443.38 151.79 443.1C151.976 442.914 152.196 442.767 152.439 442.666C152.682 442.565 152.942 442.513 153.205 442.513C153.468 442.513 153.728 442.565 153.971 442.666C154.214 442.767 154.434 442.914 154.62 443.1Z" fill="white"/>
<path opacity="0.5" d="M334.34 198.57C334.566 198.479 334.813 198.457 335.051 198.506C335.29 198.556 335.508 198.675 335.678 198.848C335.849 199.022 335.964 199.242 336.009 199.481C336.055 199.72 336.028 199.968 335.933 200.192C335.838 200.416 335.678 200.606 335.475 200.739C335.271 200.873 335.032 200.943 334.789 200.94C334.546 200.938 334.309 200.864 334.108 200.727C333.907 200.589 333.751 200.396 333.66 200.17C333.538 199.868 333.541 199.529 333.669 199.229C333.796 198.929 334.038 198.692 334.34 198.57V198.57Z" fill="white"/>
<path opacity="0.5" d="M343.86 190.43C344.227 190.282 344.63 190.247 345.017 190.328C345.404 190.409 345.758 190.604 346.035 190.886C346.312 191.169 346.499 191.528 346.572 191.916C346.645 192.305 346.601 192.707 346.446 193.071C346.29 193.435 346.03 193.744 345.699 193.961C345.368 194.177 344.98 194.29 344.584 194.286C344.188 194.281 343.803 194.16 343.477 193.936C343.15 193.713 342.897 193.397 342.75 193.03C342.553 192.538 342.559 191.988 342.767 191.5C342.975 191.013 343.368 190.628 343.86 190.43Z" fill="white"/>
<path opacity="0.5" d="M348.12 397.52C348.12 397.916 348.003 398.302 347.783 398.631C347.563 398.96 347.251 399.216 346.885 399.368C346.52 399.519 346.118 399.559 345.73 399.482C345.342 399.404 344.985 399.214 344.706 398.934C344.426 398.655 344.235 398.298 344.158 397.91C344.081 397.522 344.121 397.12 344.272 396.755C344.424 396.389 344.68 396.077 345.009 395.857C345.338 395.637 345.724 395.52 346.12 395.52C346.65 395.52 347.159 395.731 347.534 396.106C347.909 396.481 348.12 396.99 348.12 397.52Z" fill="white"/>
<path opacity="0.5" d="M342.14 403C342.142 403.238 342.073 403.472 341.942 403.671C341.811 403.869 341.623 404.025 341.404 404.117C341.184 404.209 340.942 404.233 340.708 404.187C340.475 404.141 340.26 404.027 340.091 403.859C339.923 403.69 339.809 403.475 339.763 403.242C339.717 403.008 339.741 402.766 339.833 402.546C339.925 402.327 340.081 402.139 340.28 402.008C340.478 401.877 340.712 401.808 340.95 401.81C341.266 401.81 341.568 401.935 341.791 402.159C342.015 402.382 342.14 402.684 342.14 403Z" fill="white"/>
<path opacity="0.5" d="M338.76 395.52C338.76 395.718 338.701 395.911 338.591 396.076C338.481 396.24 338.325 396.368 338.142 396.444C337.96 396.52 337.759 396.539 337.565 396.501C337.371 396.462 337.193 396.367 337.053 396.227C336.913 396.087 336.818 395.909 336.779 395.715C336.74 395.521 336.76 395.32 336.836 395.137C336.912 394.955 337.04 394.798 337.204 394.689C337.369 394.579 337.562 394.52 337.76 394.52C338.025 394.52 338.279 394.625 338.467 394.813C338.654 395 338.76 395.255 338.76 395.52Z" fill="white"/>
<path opacity="0.5" d="M63.78 377.75C63.78 378.146 63.6627 378.532 63.443 378.861C63.2232 379.19 62.9109 379.446 62.5454 379.598C62.1799 379.749 61.7778 379.789 61.3899 379.712C61.0019 379.634 60.6455 379.444 60.3658 379.164C60.0861 378.885 59.8956 378.528 59.8185 378.14C59.7413 377.752 59.7809 377.35 59.9323 376.985C60.0836 376.619 60.34 376.307 60.6689 376.087C60.9978 375.867 61.3845 375.75 61.78 375.75C62.3105 375.75 62.8192 375.961 63.1942 376.336C63.5693 376.711 63.78 377.22 63.78 377.75Z" fill="white"/>
<path opacity="0.5" d="M57.7999 383.22C57.7999 383.457 57.7295 383.689 57.5977 383.887C57.4658 384.084 57.2784 384.238 57.0591 384.329C56.8399 384.419 56.5986 384.443 56.3658 384.397C56.133 384.351 55.9192 384.236 55.7514 384.069C55.5836 383.901 55.4693 383.687 55.423 383.454C55.3767 383.221 55.4004 382.98 55.4912 382.761C55.5821 382.542 55.7359 382.354 55.9332 382.222C56.1306 382.09 56.3626 382.02 56.5999 382.02C56.9182 382.02 57.2234 382.146 57.4484 382.371C57.6735 382.597 57.7999 382.902 57.7999 383.22V383.22Z" fill="white"/>
<path opacity="0.5" d="M54.4099 375.75C54.4099 375.948 54.3513 376.141 54.2414 376.306C54.1315 376.47 53.9753 376.598 53.7926 376.674C53.6099 376.75 53.4088 376.769 53.2148 376.731C53.0208 376.692 52.8427 376.597 52.7028 376.457C52.563 376.317 52.4677 376.139 52.4291 375.945C52.3905 375.751 52.4103 375.55 52.486 375.367C52.5617 375.185 52.6899 375.028 52.8543 374.919C53.0188 374.809 53.2121 374.75 53.4099 374.75C53.6751 374.75 53.9295 374.855 54.117 375.043C54.3046 375.23 54.4099 375.485 54.4099 375.75Z" fill="white"/>
<path opacity="0.5" d="M290.85 124.91C290.85 125.153 290.778 125.391 290.643 125.593C290.507 125.796 290.315 125.953 290.091 126.046C289.866 126.14 289.619 126.164 289.38 126.116C289.141 126.069 288.922 125.952 288.75 125.78C288.578 125.608 288.461 125.389 288.414 125.15C288.366 124.911 288.39 124.664 288.484 124.439C288.577 124.215 288.734 124.022 288.937 123.887C289.139 123.752 289.377 123.68 289.62 123.68C289.946 123.68 290.259 123.81 290.49 124.04C290.72 124.271 290.85 124.584 290.85 124.91Z" fill="white"/>
<path opacity="0.5" d="M296.62 108.84L299.39 111.57L303.2 110.84C303.281 110.824 303.365 110.83 303.442 110.859C303.52 110.889 303.587 110.939 303.637 111.005C303.687 111.07 303.718 111.149 303.726 111.231C303.733 111.314 303.717 111.396 303.68 111.47L301.94 115L303.82 118.4C303.861 118.473 303.881 118.556 303.876 118.639C303.872 118.722 303.844 118.803 303.796 118.871C303.748 118.939 303.681 118.992 303.604 119.024C303.527 119.056 303.442 119.065 303.36 119.05L299.52 118.47L296.86 121.3C296.804 121.361 296.732 121.406 296.652 121.428C296.572 121.45 296.487 121.449 296.407 121.425C296.328 121.401 296.257 121.355 296.202 121.292C296.148 121.229 296.113 121.152 296.1 121.07L295.47 117.24L292 115.54C291.926 115.502 291.865 115.445 291.822 115.374C291.779 115.304 291.756 115.223 291.756 115.14C291.756 115.057 291.779 114.976 291.822 114.906C291.865 114.835 291.926 114.778 292 114.74L295.45 112.96L295.93 109.1C295.946 109.029 295.979 108.962 296.027 108.907C296.075 108.851 296.136 108.809 296.204 108.783C296.273 108.757 296.347 108.749 296.419 108.759C296.492 108.769 296.561 108.797 296.62 108.84Z" fill="white"/>
<path opacity="0.5" d="M127.22 289.17L127.65 292.17L130.34 293.5C130.4 293.527 130.45 293.57 130.486 293.625C130.521 293.68 130.54 293.745 130.54 293.81C130.54 293.876 130.521 293.94 130.486 293.995C130.45 294.05 130.4 294.093 130.34 294.12L127.65 295.44L127.21 298.44C127.201 298.503 127.175 298.562 127.134 298.611C127.093 298.66 127.04 298.696 126.979 298.716C126.919 298.735 126.854 298.738 126.792 298.723C126.731 298.708 126.674 298.676 126.63 298.63L124.53 296.48L121.53 296.98C121.466 296.992 121.401 296.986 121.341 296.962C121.281 296.938 121.229 296.897 121.191 296.845C121.153 296.792 121.131 296.73 121.127 296.665C121.124 296.601 121.138 296.536 121.17 296.48L122.57 293.82L121.17 291.16C121.142 291.103 121.131 291.04 121.136 290.977C121.141 290.914 121.164 290.854 121.201 290.803C121.238 290.751 121.288 290.711 121.346 290.686C121.404 290.661 121.467 290.652 121.53 290.66L124.53 291.17L126.63 289.02C126.673 288.975 126.727 288.943 126.786 288.926C126.846 288.909 126.909 288.908 126.969 288.923C127.029 288.939 127.083 288.969 127.128 289.013C127.172 289.056 127.204 289.11 127.22 289.17V289.17Z" fill="white"/>
<path opacity="0.5" d="M434.85 230L437.03 232.07L439.97 231.44C440.032 231.426 440.097 231.43 440.158 231.451C440.218 231.473 440.271 231.511 440.31 231.561C440.35 231.611 440.375 231.671 440.382 231.735C440.389 231.798 440.378 231.863 440.35 231.92L439.07 234.64L440.57 237.24C440.603 237.295 440.619 237.358 440.617 237.422C440.616 237.486 440.596 237.549 440.56 237.602C440.525 237.655 440.475 237.697 440.416 237.724C440.358 237.75 440.293 237.759 440.23 237.75L437.23 237.36L435.23 239.6C435.188 239.648 435.133 239.683 435.072 239.702C435.011 239.72 434.946 239.721 434.885 239.704C434.823 239.688 434.768 239.654 434.724 239.607C434.681 239.561 434.652 239.503 434.64 239.44L434.09 236.44L431.34 235.22C431.283 235.192 431.235 235.149 431.201 235.095C431.168 235.041 431.15 234.979 431.15 234.915C431.15 234.852 431.168 234.789 431.201 234.735C431.235 234.682 431.283 234.638 431.34 234.61L433.98 233.17L434.29 230.17C434.306 230.114 434.336 230.064 434.377 230.022C434.418 229.981 434.468 229.951 434.524 229.934C434.58 229.917 434.638 229.914 434.695 229.926C434.752 229.937 434.805 229.963 434.85 230V230Z" fill="white"/>
</svg>
