<?xml version="1.0" encoding="UTF-8"?>
<!DOCTYPE svg PUBLIC "-//W3C//DTD SVG 1.1//EN" "http://www.w3.org/Graphics/SVG/1.1/DTD/svg11.dtd">
<!-- Creator: CorelDRAW 2020 (64 Bit) -->
<svg xmlns="http://www.w3.org/2000/svg" xml:space="preserve" width="240mm" height="50mm" version="1.1" style="shape-rendering:geometricPrecision; text-rendering:geometricPrecision; image-rendering:optimizeQuality; fill-rule:evenodd; clip-rule:evenodd"
viewBox="0 0 24000 5000"
 xmlns:xlink="http://www.w3.org/1999/xlink"
 xmlns:xodm="http://www.corel.com/coreldraw/odm/2003">
 <defs>
  <style type="text/css">
   <![CDATA[
    .fil0 {fill:#373435;fill-rule:nonzero}
    .fil1 {fill:#3444BA;fill-rule:nonzero}
   ]]>
  </style>
 </defs>
 <g id="Camada_x0020_1">
  <metadata id="CorelCorpID_0Corel-Layer"/>
  <path class="fil0" d="M2580.64 1999.45c0,174.23 -33.1,338.87 -99.31,493.94 -66.21,155.06 -156.8,290.09 -271.8,405.08 -114.99,114.99 -250.02,205.59 -405.08,271.8 -155.06,66.21 -319.71,99.31 -493.94,99.31l-564.51 0 0 459.97c0,97.57 -33.97,180.33 -101.92,248.28 -67.95,67.95 -150.71,101.92 -248.28,101.92 -97.57,0 -180.32,-33.97 -248.27,-101.92 -67.95,-67.95 -101.93,-150.71 -101.93,-248.28l0 -2650.03c0,-97.57 33.98,-180.33 101.93,-248.28 67.95,-67.95 150.7,-101.93 248.27,-101.93l914.71 0c174.23,0 338.88,33.11 493.94,99.31 155.06,66.21 290.09,156.81 405.08,271.8 115,114.99 205.59,250.02 271.8,405.09 66.21,155.06 99.31,319.71 99.31,493.94zm-700.4 0c0,-76.66 -14.81,-149.84 -44.43,-219.53 -29.62,-69.69 -70.56,-130.67 -122.83,-182.94 -52.27,-52.27 -113.25,-93.22 -182.94,-122.83 -69.69,-29.62 -142.87,-44.43 -219.53,-44.43l-564.51 0 0 1139.46 564.51 0c76.66,0 149.84,-14.81 219.53,-44.43 69.69,-29.62 130.67,-70.56 182.94,-122.83 52.27,-52.27 93.21,-112.38 122.83,-180.33 29.62,-67.95 44.43,-142 44.43,-222.14z"/>
  <path class="fil0" d="M3833.01 1544.71c170.75,0 332.78,33.1 486.1,99.31 153.33,66.21 287.48,156.81 402.47,271.8 115,114.99 206.47,249.15 274.42,402.47 67.95,153.32 101.92,318.84 101.92,496.55 0,174.23 -33.1,337.14 -99.31,488.72 -66.21,151.58 -155.94,284.86 -269.19,399.85 -113.24,115 -246.53,205.59 -399.85,271.8 -153.32,66.21 -318.84,99.31 -496.56,99.31 -174.23,0 -338,-31.36 -491.32,-94.08 -153.33,-62.72 -287.48,-150.71 -402.48,-263.96 -114.99,-113.25 -205.59,-246.53 -271.79,-399.86 -66.21,-153.32 -99.31,-320.58 -99.31,-501.78 0,-174.23 32.23,-337.13 96.69,-488.71 64.47,-151.58 153.32,-284 266.57,-397.25 113.25,-113.24 247.41,-203.84 402.47,-271.79 155.07,-67.95 321.46,-105.41 499.17,-112.38zm0 684.72c-80.14,0 -155.06,14.81 -224.75,44.43 -69.7,29.62 -131.55,70.56 -185.56,122.83 -54.01,52.27 -96.7,114.12 -128.06,185.56 -31.36,71.43 -47.04,148.96 -47.04,232.59 0,80.15 15.68,155.94 47.04,227.37 31.36,71.44 74.05,134.16 128.06,188.17 54.01,54.01 115.86,96.7 185.56,128.06 69.69,31.36 144.61,47.04 224.75,47.04 80.15,0 155.94,-15.68 227.37,-47.04 71.44,-31.36 133.29,-74.05 185.56,-128.06 52.27,-54.01 94.08,-116.73 125.44,-188.17 31.36,-71.43 47.04,-147.22 47.04,-227.37 -6.96,-160.29 -64.46,-296.19 -172.48,-407.69 -108.03,-111.51 -245.67,-170.75 -412.93,-177.72z"/>
  <path class="fil0" d="M5518.31 4084.98c-94.09,0 -172.49,-30.49 -235.21,-91.47 -62.73,-60.98 -97.57,-142 -104.54,-243.05l0 -966.98c3.48,-167.26 39.2,-324.94 107.15,-473.03 67.95,-148.1 158.55,-277.03 271.8,-386.79 113.25,-109.77 245.66,-196.88 397.24,-261.35 151.58,-64.46 312.74,-100.18 483.49,-107.15 97.57,0 178.59,33.11 243.05,99.31 64.47,66.21 100.18,146.36 107.15,240.44 0,94.08 -33.1,173.36 -99.31,237.82 -66.21,64.47 -148.09,98.44 -245.66,101.93 -80.15,0 -155.07,14.81 -224.76,44.43 -69.69,29.62 -130.67,70.56 -182.94,122.83 -52.27,52.27 -94.08,114.12 -125.45,185.55 -31.36,71.44 -47.04,148.97 -47.04,232.6l0 951.29c-6.97,90.6 -40.94,165.52 -101.92,224.76 -60.98,59.24 -142,88.86 -243.05,88.86z"/>
  <path class="fil0" d="M6854.9 739.77c97.56,0 179.45,33.97 245.66,101.92 66.21,67.95 102.79,152.45 109.76,253.51l0 418.15 899.03 0c101.05,0 182.94,34.84 245.66,104.53 62.73,69.7 94.09,151.58 94.09,245.67 0,90.6 -34.85,171.61 -104.54,243.05 -69.69,71.43 -148.1,107.15 -235.21,107.15l-899.03 0 0 574.96c0,80.14 14.81,155.93 44.43,227.37 29.62,71.43 70.57,135.03 122.83,190.78 52.27,55.75 114.12,99.31 185.56,130.67 71.43,31.36 148.97,47.04 232.6,47.04 90.59,0 168.13,-12.19 232.59,-36.58 64.47,-24.4 121.09,-60.98 169.88,-109.77 73.17,-62.72 154.19,-94.95 243.05,-96.7 88.85,-1.74 171.61,32.24 248.27,101.93 34.85,31.36 60.98,67.08 78.41,107.15 17.42,40.07 27,81.89 28.74,125.44 1.75,43.56 -4.35,86.25 -18.29,128.06 -13.94,41.82 -36.59,78.41 -67.95,109.77 -121.96,118.47 -256.12,209.07 -402.47,271.8 -146.35,62.72 -303.16,94.08 -470.42,94.08 -181.2,0 -351.94,-30.49 -512.23,-91.47 -160.3,-60.98 -301.42,-148.1 -423.38,-261.35 -121.96,-113.24 -218.66,-249.14 -290.1,-407.69 -71.43,-158.55 -108.89,-335.39 -112.37,-530.53l0 -1719.65c0,-94.08 35.71,-172.49 107.15,-235.21 71.43,-62.72 154.19,-94.08 248.28,-94.08z"/>
  <path class="fil0" d="M9684.59 1555.16c156.81,17.43 304.03,62.72 441.67,135.9 137.65,73.18 256.12,166.39 355.43,279.64 99.31,113.25 177.72,242.18 235.21,386.79 57.5,144.61 86.25,297.06 86.25,457.35l0 925.16c0,94.09 -34.85,174.23 -104.54,240.44 -69.69,66.21 -148.1,99.31 -235.21,99.31 -121.96,0 -219.53,-55.75 -292.71,-167.26 -17.42,6.97 -33.1,14.81 -47.04,23.52 -13.94,8.71 -27.88,16.55 -41.81,23.52 -83.63,38.33 -169.01,67.95 -256.12,88.86 -90.6,20.91 -186.43,31.36 -287.48,31.36 -261.34,0 -494.81,-70.56 -700.4,-211.69 -205.59,-141.13 -358.92,-323.2 -459.97,-546.21 -34.85,-80.14 -61.85,-162.03 -81.02,-245.66 -19.16,-83.63 -28.74,-170.75 -28.74,-261.35 0,-90.6 9.58,-177.71 28.74,-261.34 19.17,-83.63 46.17,-165.52 81.02,-245.67 101.05,-226.49 254.38,-409.44 459.97,-548.82 205.59,-139.38 439.06,-209.07 700.4,-209.07 27.88,0 53.14,0 75.79,0 22.65,0 46.17,1.74 70.56,5.22zm-151.58 1845.09c80.15,0 155.94,-14.81 227.37,-44.42 71.44,-29.62 133.29,-70.57 185.56,-122.84 52.27,-52.27 94.08,-114.12 125.44,-185.55 31.36,-71.43 47.04,-148.97 47.04,-232.6 0,-76.66 -15.68,-150.71 -47.04,-222.14 -31.36,-71.43 -74.05,-134.16 -128.06,-188.17 -54.01,-54.01 -116.73,-96.7 -188.16,-128.06 -71.44,-31.36 -145.49,-47.04 -222.15,-47.04 -76.66,0 -149.83,15.68 -219.53,47.04 -69.69,31.36 -131.54,74.05 -185.55,128.06 -54.01,54.01 -96.7,116.74 -128.06,188.17 -31.36,71.43 -47.04,145.48 -47.04,222.14 0,80.15 16.55,155.94 49.65,227.37 33.11,71.44 76.66,133.29 130.68,185.56 54.01,52.27 115.86,94.08 185.55,125.44 69.69,31.36 141.13,47.04 214.3,47.04z"/>
  <path class="fil0" d="M11249.67 755.45c94.08,0 173.36,33.1 237.82,99.31 64.47,66.21 100.18,148.09 107.15,245.66l0 2064.62c0,69.7 22.65,128.93 67.95,177.72 45.3,48.78 102.8,73.17 172.49,73.17 90.6,0 169.87,31.37 237.82,94.09 67.95,62.72 103.67,141.13 107.15,235.21 0,83.63 -28.74,157.68 -86.24,222.14 -57.49,64.47 -131.54,103.67 -222.14,117.61l-73.18 0c-121.96,0 -236.95,-25.27 -344.97,-75.79 -108.03,-50.53 -202.98,-117.61 -284.87,-201.24 -81.89,-83.63 -146.35,-181.2 -193.39,-292.7 -47.05,-111.51 -70.57,-228.24 -70.57,-350.21l0 -2085.52c10.46,-87.12 47.05,-162.04 109.77,-224.76 62.72,-62.72 141.12,-95.83 235.21,-99.31z"/>
  <path class="fil1" d="M13584.59 1555.16c156.81,17.43 304.03,62.72 441.67,135.9 137.65,73.18 256.12,166.39 355.43,279.64 99.31,113.25 177.72,242.18 235.21,386.79 57.5,144.61 86.25,297.06 86.25,457.35l0 925.16c0,94.09 -34.85,174.23 -104.54,240.44 -69.69,66.21 -148.1,99.31 -235.21,99.31 -121.96,0 -219.53,-55.75 -292.71,-167.26 -17.42,6.97 -33.1,14.81 -47.04,23.52 -13.94,8.71 -27.88,16.55 -41.81,23.52 -83.63,38.33 -169.01,67.95 -256.12,88.86 -90.6,20.91 -186.43,31.36 -287.48,31.36 -261.34,0 -494.81,-70.56 -700.4,-211.69 -205.59,-141.13 -358.92,-323.2 -459.97,-546.21 -34.85,-80.14 -61.85,-162.03 -81.02,-245.66 -19.16,-83.63 -28.74,-170.75 -28.74,-261.35 0,-90.6 9.58,-177.71 28.74,-261.34 19.17,-83.63 46.17,-165.52 81.02,-245.67 101.05,-226.49 254.38,-409.44 459.97,-548.82 205.59,-139.38 439.06,-209.07 700.4,-209.07 27.88,0 53.14,0 75.79,0 22.65,0 46.17,1.74 70.56,5.22zm-151.58 1845.09c80.15,0 155.94,-14.81 227.37,-44.42 71.44,-29.62 133.29,-70.57 185.56,-122.84 52.27,-52.27 94.08,-114.12 125.44,-185.55 31.36,-71.43 47.04,-148.97 47.04,-232.6 0,-76.66 -15.68,-150.71 -47.04,-222.14 -31.36,-71.43 -74.05,-134.16 -128.06,-188.17 -54.01,-54.01 -116.73,-96.7 -188.16,-128.06 -71.44,-31.36 -145.49,-47.04 -222.15,-47.04 -76.66,0 -149.83,15.68 -219.53,47.04 -69.69,31.36 -131.54,74.05 -185.55,128.06 -54.01,54.01 -96.7,116.74 -128.06,188.17 -31.36,71.43 -47.04,145.48 -47.04,222.14 0,80.15 16.55,155.94 49.65,227.37 33.11,71.44 76.66,133.29 130.68,185.56 54.01,52.27 115.86,94.08 185.55,125.44 69.69,31.36 141.13,47.04 214.3,47.04z"/>
  <path class="fil1" d="M15133.99 1544.71c90.6,0 170.74,33.97 240.43,101.92 69.7,67.95 104.54,150.71 104.54,248.28l0 919.93c0,80.15 15.68,155.94 47.04,227.37 31.37,71.44 73.18,133.29 125.45,185.56 52.27,52.27 114.12,94.08 185.55,125.44 71.44,31.36 147.23,47.04 227.37,47.04 76.67,0 149.84,-13.93 219.53,-41.81 69.7,-27.88 131.55,-66.21 185.56,-114.99 54.01,-48.79 96.7,-108.02 128.06,-177.72 31.36,-69.69 47.04,-144.61 47.04,-224.75l0 -951.3c0,-87.11 33.1,-165.52 99.31,-235.21 66.21,-69.69 146.35,-106.28 240.44,-109.76 94.08,0 175.1,33.97 243.05,101.92 67.95,67.95 103.66,143.74 107.15,227.37l0 940.84c0,174.23 -33.11,338.01 -99.31,491.33 -66.21,153.32 -156.81,287.48 -271.8,402.47 -114.99,114.99 -249.15,205.59 -402.47,271.8 -153.32,66.21 -318.84,99.31 -496.56,99.31 -167.26,6.97 -327.55,-21.78 -480.87,-86.24 -153.32,-64.47 -288.35,-153.33 -405.08,-266.58 -116.74,-113.24 -209.95,-245.66 -279.64,-397.24 -69.69,-151.58 -104.54,-311 -104.54,-478.26l0 -961.75c0,-90.6 32.23,-169.87 96.7,-237.82 64.46,-67.95 145.48,-103.67 243.05,-107.15z"/>
  <path class="fil1" d="M17754.9 739.77c97.56,0 179.45,33.97 245.66,101.92 66.21,67.95 102.79,152.45 109.76,253.51l0 418.15 899.03 0c101.05,0 182.94,34.84 245.66,104.53 62.73,69.7 94.09,151.58 94.09,245.67 0,90.6 -34.85,171.61 -104.54,243.05 -69.69,71.43 -148.1,107.15 -235.21,107.15l-899.03 0 0 574.96c0,80.14 14.81,155.93 44.43,227.37 29.62,71.43 70.57,135.03 122.83,190.78 52.27,55.75 114.12,99.31 185.56,130.67 71.43,31.36 148.97,47.04 232.6,47.04 90.59,0 168.13,-12.19 232.59,-36.58 64.47,-24.4 121.09,-60.98 169.88,-109.77 73.17,-62.72 154.19,-94.95 243.05,-96.7 88.85,-1.74 171.61,32.24 248.27,101.93 34.85,31.36 60.98,67.08 78.41,107.15 17.42,40.07 27,81.89 28.74,125.44 1.75,43.56 -4.35,86.25 -18.29,128.06 -13.94,41.82 -36.59,78.41 -67.95,109.77 -121.96,118.47 -256.12,209.07 -402.47,271.8 -146.35,62.72 -303.16,94.08 -470.42,94.08 -181.2,0 -351.94,-30.49 -512.23,-91.47 -160.3,-60.98 -301.42,-148.1 -423.38,-261.35 -121.96,-113.24 -218.66,-249.14 -290.1,-407.69 -71.43,-158.55 -108.89,-335.39 -112.37,-530.53l0 -1719.65c0,-94.08 35.71,-172.49 107.15,-235.21 71.43,-62.72 154.19,-94.08 248.28,-94.08z"/>
  <path class="fil1" d="M20433.01 1544.71c170.75,0 332.78,33.1 486.1,99.31 153.33,66.21 287.48,156.81 402.47,271.8 115,114.99 206.47,249.15 274.42,402.47 67.95,153.32 101.92,318.84 101.92,496.55 0,174.23 -33.1,337.14 -99.31,488.72 -66.21,151.58 -155.94,284.86 -269.19,399.85 -113.24,115 -246.53,205.59 -399.85,271.8 -153.32,66.21 -318.84,99.31 -496.56,99.31 -174.23,0 -338,-31.36 -491.32,-94.08 -153.33,-62.72 -287.48,-150.71 -402.48,-263.96 -114.99,-113.25 -205.59,-246.53 -271.79,-399.86 -66.21,-153.32 -99.31,-320.58 -99.31,-501.78 0,-174.23 32.23,-337.13 96.69,-488.71 64.47,-151.58 153.32,-284 266.57,-397.25 113.25,-113.24 247.41,-203.84 402.47,-271.79 155.07,-67.95 321.46,-105.41 499.17,-112.38zm0 684.72c-80.14,0 -155.06,14.81 -224.75,44.43 -69.7,29.62 -131.55,70.56 -185.56,122.83 -54.01,52.27 -96.7,114.12 -128.06,185.56 -31.36,71.43 -47.04,148.96 -47.04,232.59 0,80.15 15.68,155.94 47.04,227.37 31.36,71.44 74.05,134.16 128.06,188.17 54.01,54.01 115.86,96.7 185.56,128.06 69.69,31.36 144.61,47.04 224.75,47.04 80.15,0 155.94,-15.68 227.37,-47.04 71.44,-31.36 133.29,-74.05 185.56,-128.06 52.27,-54.01 94.08,-116.73 125.44,-188.17 31.36,-71.43 47.04,-147.22 47.04,-227.37 -6.96,-160.29 -64.46,-296.19 -172.48,-407.69 -108.03,-111.51 -245.67,-170.75 -412.93,-177.72z"/>
  <path class="fil1" d="M23403.43 1539.48c94.09,0 172.49,35.72 235.21,107.15 62.73,71.44 94.09,147.23 94.09,227.37 0,90.6 -33.98,169.88 -101.93,237.83 -67.95,67.95 -143.74,101.92 -227.37,101.92l-899.02 0c-41.82,0 -77.53,12.2 -107.15,36.59 -29.62,24.39 -44.43,59.24 -44.43,104.54 0,48.78 14.81,86.24 44.43,112.37 29.62,26.14 65.33,39.21 107.15,39.21l590.64 0c108.02,0 208.2,22.65 300.54,67.95 92.34,45.3 172.49,105.4 240.44,180.32 67.95,74.92 121.09,154.2 159.42,237.83 38.33,83.63 57.5,177.71 57.5,282.25 3.48,114.99 -16.56,223.01 -60.11,324.07 -43.56,101.05 -101.93,186.42 -175.1,256.11 -73.18,69.7 -158.55,124.58 -256.12,164.65 -97.57,40.07 -207.34,60.11 -329.3,60.11l-961.74 0c-90.6,0 -169.01,-31.36 -235.21,-94.08 -66.21,-62.73 -99.32,-141.13 -99.32,-235.21 0,-87.12 31.37,-166.39 94.09,-237.83 62.72,-71.43 139.38,-108.89 229.98,-112.38l961.75 0c94.08,0 141.13,-41.81 141.13,-125.44 0,-94.09 -47.05,-141.13 -141.13,-141.13l-574.96 0c-104.54,0 -202.98,-21.78 -295.32,-65.33 -92.34,-43.56 -172.48,-103.67 -240.43,-180.33 -67.95,-76.66 -121.09,-160.29 -159.42,-250.89 -38.33,-90.6 -57.5,-188.17 -57.5,-292.71 0,-104.54 20.04,-205.59 60.11,-303.16 40.07,-97.57 94.95,-182.94 164.65,-256.11 69.69,-73.18 151.58,-131.55 245.66,-175.11 94.08,-43.55 196.88,-67.07 308.39,-70.56l930.38 0z"/>
 </g>
</svg>
