<svg width="240" height="50" viewBox="0 0 240 50" fill="none" xmlns="http://www.w3.org/2000/svg">
<path d="M25.8065 19.9945C25.8065 21.7368 25.4755 23.3832 24.8134 24.9339C24.1513 26.4845 23.2454 27.8348 22.0954 28.9847C20.9455 30.1346 19.5952 31.0406 18.0446 31.7027C16.494 32.3648 14.8475 32.6958 13.1052 32.6958H7.46005V37.2955C7.46005 38.2712 7.12036 39.0988 6.44086 39.7783C5.76136 40.4578 4.93375 40.7975 3.95805 40.7975C2.98235 40.7975 2.15485 40.4578 1.47535 39.7783C0.795855 39.0988 0.456055 38.2712 0.456055 37.2955V10.7952C0.456055 9.81949 0.795855 8.99189 1.47535 8.31239C2.15485 7.63289 2.98235 7.29309 3.95805 7.29309H13.1052C14.8475 7.29309 16.494 7.62419 18.0446 8.28619C19.5952 8.94829 20.9455 9.85429 22.0954 11.0042C23.2454 12.1541 24.1513 13.5044 24.8134 15.0551C25.4755 16.6057 25.8065 18.2522 25.8065 19.9945ZM18.8025 19.9945C18.8025 19.2279 18.6544 18.4961 18.3582 17.7992C18.062 17.1023 17.6526 16.4925 17.1299 15.9698C16.6072 15.4471 15.9974 15.0376 15.3005 14.7415C14.6036 14.4453 13.8718 14.2972 13.1052 14.2972H7.46005V25.6918H13.1052C13.8718 25.6918 14.6036 25.5437 15.3005 25.2475C15.9974 24.9513 16.6072 24.5419 17.1299 24.0192C17.6526 23.4965 18.062 22.8954 18.3582 22.2159C18.6544 21.5364 18.8025 20.7959 18.8025 19.9945Z" fill="#373435"/>
<path d="M38.3306 15.4471C40.0381 15.4471 41.6584 15.7781 43.1916 16.4402C44.7249 17.1023 46.0664 18.0083 47.2163 19.1582C48.3663 20.3081 49.281 21.6497 49.9605 23.1829C50.64 24.7161 50.9797 26.3713 50.9797 28.1484C50.9797 29.8907 50.6487 31.5198 49.9866 33.0356C49.3245 34.5514 48.4272 35.8842 47.2947 37.0341C46.1623 38.1841 44.8294 39.09 43.2962 39.7521C41.763 40.4142 40.1078 40.7452 38.3306 40.7452C36.5883 40.7452 34.9506 40.4316 33.4174 39.8044C31.8841 39.1772 30.5426 38.2973 29.3926 37.1648C28.2427 36.0323 27.3367 34.6995 26.6747 33.1662C26.0126 31.633 25.6816 29.9604 25.6816 28.1484C25.6816 26.4061 26.0039 24.7771 26.6485 23.2613C27.2932 21.7455 28.1817 20.4213 29.3142 19.2888C30.4467 18.1564 31.7883 17.2504 33.3389 16.5709C34.8896 15.8914 36.5535 15.5168 38.3306 15.4471V15.4471ZM38.3306 22.2943C37.5292 22.2943 36.78 22.4424 36.0831 22.7386C35.3861 23.0348 34.7676 23.4442 34.2275 23.9669C33.6874 24.4896 33.2605 25.1081 32.9469 25.8225C32.6333 26.5368 32.4765 27.3121 32.4765 28.1484C32.4765 28.9499 32.6333 29.7078 32.9469 30.4221C33.2605 31.1365 33.6874 31.7637 34.2275 32.3038C34.7676 32.8439 35.3861 33.2708 36.0831 33.5844C36.78 33.898 37.5292 34.0548 38.3306 34.0548C39.1321 34.0548 39.89 33.898 40.6043 33.5844C41.3187 33.2708 41.9372 32.8439 42.4599 32.3038C42.9826 31.7637 43.4007 31.1365 43.7143 30.4221C44.0279 29.7078 44.1847 28.9499 44.1847 28.1484C44.1151 26.5455 43.5401 25.1865 42.4599 24.0715C41.3796 22.9564 40.0032 22.364 38.3306 22.2943V22.2943Z" fill="#373435"/>
<path d="M55.1836 40.8498C54.2427 40.8498 53.4587 40.5449 52.8315 39.9351C52.2042 39.3253 51.8558 38.5151 51.7861 37.5046V27.8348C51.8209 26.1622 52.1781 24.5854 52.8576 23.1045C53.5371 21.6235 54.4431 20.3342 55.5756 19.2366C56.7081 18.1389 58.0322 17.2678 59.548 16.6231C61.0638 15.9785 62.6754 15.6213 64.3829 15.5516C65.3586 15.5516 66.1688 15.8827 66.8134 16.5447C67.4581 17.2068 67.8152 18.0083 67.8849 18.9491C67.8849 19.8899 67.5539 20.6827 66.8918 21.3273C66.2297 21.972 65.4109 22.3117 64.4352 22.3466C63.6337 22.3466 62.8845 22.4947 62.1876 22.7909C61.4907 23.0871 60.8809 23.4965 60.3582 24.0192C59.8355 24.5419 59.4174 25.1604 59.1037 25.8747C58.7901 26.5891 58.6333 27.3644 58.6333 28.2007V37.7136C58.5636 38.6196 58.2239 39.3688 57.6141 39.9612C57.0043 40.5536 56.1941 40.8498 55.1836 40.8498V40.8498Z" fill="#373435"/>
<path d="M68.5494 7.39771C69.525 7.39771 70.3439 7.7374 71.006 8.4169C71.6681 9.0964 72.0339 9.9414 72.1036 10.952V15.1335H81.0939C82.1044 15.1335 82.9233 15.4819 83.5505 16.1788C84.1778 16.8758 84.4914 17.6946 84.4914 18.6355C84.4914 19.5415 84.1429 20.3516 83.446 21.066C82.7491 21.7803 81.965 22.1375 81.0939 22.1375H72.1036V27.8871C72.1036 28.6885 72.2517 29.4464 72.5479 30.1608C72.8441 30.8751 73.2536 31.5111 73.7762 32.0686C74.2989 32.6261 74.9174 33.0617 75.6318 33.3753C76.3461 33.6889 77.1215 33.8457 77.9578 33.8457C78.8637 33.8457 79.6391 33.7238 80.2837 33.4799C80.9284 33.2359 81.4946 32.8701 81.9825 32.3822C82.7142 31.755 83.5244 31.4327 84.413 31.4152C85.3015 31.3978 86.1291 31.7376 86.8957 32.4345C87.2442 32.7481 87.5055 33.1053 87.6798 33.506C87.854 33.9067 87.9498 34.3249 87.9672 34.7604C87.9847 35.196 87.9237 35.6229 87.7843 36.041C87.6449 36.4592 87.4184 36.8251 87.1048 37.1387C85.8852 38.3234 84.5436 39.2294 83.0801 39.8567C81.6166 40.4839 80.0485 40.7975 78.3759 40.7975C76.5639 40.7975 74.8565 40.4926 73.2536 39.8828C71.6506 39.273 70.2394 38.4018 69.0198 37.2693C67.8002 36.1369 66.8332 34.7779 66.1188 33.1924C65.4045 31.6069 65.0299 29.8385 64.9951 27.8871V10.6906C64.9951 9.74981 65.3522 8.9657 66.0666 8.3385C66.7809 7.7113 67.6085 7.39771 68.5494 7.39771V7.39771Z" fill="#373435"/>
<path d="M96.8464 15.5516C98.4145 15.7259 99.8867 16.1788 101.263 16.9106C102.64 17.6424 103.824 18.5745 104.817 19.707C105.811 20.8395 106.595 22.1288 107.17 23.5749C107.745 25.021 108.032 26.5455 108.032 28.1484V37.4C108.032 38.3409 107.684 39.1423 106.987 39.8044C106.29 40.4665 105.506 40.7975 104.635 40.7975C103.415 40.7975 102.439 40.24 101.707 39.1249C101.533 39.1946 101.376 39.273 101.237 39.3601C101.098 39.4472 100.958 39.5256 100.819 39.5953C99.9826 39.9786 99.1288 40.2748 98.2577 40.4839C97.3517 40.693 96.3934 40.7975 95.3829 40.7975C92.7695 40.7975 90.4348 40.0919 88.3789 38.6806C86.323 37.2693 84.7897 35.4486 83.7792 33.2185C83.4307 32.4171 83.1607 31.5982 82.969 30.7619C82.7774 29.9256 82.6816 29.0544 82.6816 28.1484C82.6816 27.2424 82.7774 26.3713 82.969 25.535C83.1607 24.6987 83.4307 23.8798 83.7792 23.0783C84.7897 20.8134 86.323 18.9839 88.3789 17.5901C90.4348 16.1963 92.7695 15.4994 95.3829 15.4994C95.6617 15.4994 95.9143 15.4994 96.1408 15.4994C96.3673 15.4994 96.6025 15.5168 96.8464 15.5516V15.5516ZM95.3306 34.0025C96.1321 34.0025 96.89 33.8544 97.6043 33.5583C98.3187 33.2621 98.9372 32.8526 99.4599 32.3299C99.9826 31.8072 100.401 31.1887 100.714 30.4744C101.028 29.7601 101.185 28.9847 101.185 28.1484C101.185 27.3818 101.028 26.6413 100.714 25.927C100.401 25.2127 99.9738 24.5854 99.4337 24.0453C98.8936 23.5052 98.2664 23.0783 97.5521 22.7647C96.8377 22.4511 96.0972 22.2943 95.3306 22.2943C94.564 22.2943 93.8323 22.4511 93.1353 22.7647C92.4384 23.0783 91.8199 23.5052 91.2798 24.0453C90.7397 24.5854 90.3128 25.2127 89.9992 25.927C89.6856 26.6413 89.5288 27.3818 89.5288 28.1484C89.5288 28.9499 89.6943 29.7078 90.0253 30.4221C90.3564 31.1365 90.7919 31.755 91.3321 32.2777C91.8722 32.8004 92.4907 33.2185 93.1876 33.5321C93.8845 33.8457 94.5989 34.0025 95.3306 34.0025V34.0025Z" fill="#373435"/>
<path d="M112.497 7.5545C113.437 7.5545 114.23 7.8855 114.875 8.5476C115.52 9.2097 115.877 10.0285 115.946 11.0042V31.6504C115.946 32.3474 116.173 32.9397 116.626 33.4276C117.079 33.9154 117.654 34.1593 118.351 34.1593C119.257 34.1593 120.049 34.473 120.729 35.1002C121.408 35.7274 121.766 36.5115 121.8 37.4523C121.8 38.2886 121.513 39.0291 120.938 39.6737C120.363 40.3184 119.623 40.7104 118.717 40.8498H117.985C116.765 40.8498 115.615 40.5971 114.535 40.0919C113.455 39.5866 112.505 38.9158 111.686 38.0795C110.868 37.2432 110.223 36.2675 109.753 35.1525C109.282 34.0374 109.047 32.8701 109.047 31.6504V10.7952C109.151 9.924 109.517 9.1748 110.145 8.5476C110.772 7.9204 111.556 7.5893 112.497 7.5545Z" fill="#373435"/>
<path d="M135.846 15.5516C137.415 15.7259 138.887 16.1788 140.263 16.9106C141.64 17.6424 142.824 18.5745 143.817 19.707C144.811 20.8395 145.595 22.1288 146.17 23.5749C146.745 25.021 147.032 26.5455 147.032 28.1484V37.4C147.032 38.3409 146.684 39.1423 145.987 39.8044C145.29 40.4665 144.506 40.7975 143.635 40.7975C142.415 40.7975 141.439 40.24 140.707 39.1249C140.533 39.1946 140.376 39.273 140.237 39.3601C140.098 39.4472 139.958 39.5256 139.819 39.5953C138.983 39.9786 138.129 40.2748 137.258 40.4839C136.352 40.693 135.393 40.7975 134.383 40.7975C131.77 40.7975 129.435 40.0919 127.379 38.6806C125.323 37.2693 123.79 35.4486 122.779 33.2185C122.431 32.4171 122.161 31.5982 121.969 30.7619C121.777 29.9256 121.682 29.0544 121.682 28.1484C121.682 27.2424 121.777 26.3713 121.969 25.535C122.161 24.6987 122.431 23.8798 122.779 23.0783C123.79 20.8134 125.323 18.9839 127.379 17.5901C129.435 16.1963 131.77 15.4994 134.383 15.4994C134.662 15.4994 134.914 15.4994 135.141 15.4994C135.367 15.4994 135.603 15.5168 135.846 15.5516V15.5516ZM134.331 34.0025C135.132 34.0025 135.89 33.8544 136.604 33.5583C137.319 33.2621 137.937 32.8526 138.46 32.3299C138.983 31.8072 139.401 31.1887 139.714 30.4744C140.028 29.7601 140.185 28.9847 140.185 28.1484C140.185 27.3818 140.028 26.6413 139.714 25.927C139.401 25.2127 138.974 24.5854 138.434 24.0453C137.894 23.5052 137.266 23.0783 136.552 22.7647C135.838 22.4511 135.097 22.2943 134.331 22.2943C133.564 22.2943 132.832 22.4511 132.135 22.7647C131.438 23.0783 130.82 23.5052 130.28 24.0453C129.74 24.5854 129.313 25.2127 128.999 25.927C128.686 26.6413 128.529 27.3818 128.529 28.1484C128.529 28.9499 128.694 29.7078 129.025 30.4221C129.356 31.1365 129.792 31.755 130.332 32.2777C130.872 32.8004 131.491 33.2185 132.188 33.5321C132.885 33.8457 133.599 34.0025 134.331 34.0025V34.0025Z" fill="#3444BA"/>
<path d="M151.34 15.4471C152.246 15.4471 153.047 15.7868 153.744 16.4663C154.441 17.1458 154.79 17.9734 154.79 18.9491V28.1484C154.79 28.9499 154.946 29.7078 155.26 30.4221C155.574 31.1365 155.992 31.755 156.514 32.2777C157.037 32.8004 157.656 33.2185 158.37 33.5321C159.084 33.8457 159.842 34.0025 160.644 34.0025C161.41 34.0025 162.142 33.8632 162.839 33.5844C163.536 33.3056 164.154 32.9223 164.695 32.4345C165.235 31.9466 165.662 31.3543 165.975 30.6573C166.289 29.9604 166.446 29.2112 166.446 28.4098V18.8968C166.446 18.0257 166.777 17.2416 167.439 16.5447C168.101 15.8478 168.902 15.4819 169.843 15.4471C170.784 15.4471 171.594 15.7868 172.274 16.4663C172.953 17.1458 173.31 17.9037 173.345 18.74V28.1484C173.345 29.8907 173.014 31.5285 172.352 33.0617C171.69 34.5949 170.784 35.9365 169.634 37.0864C168.484 38.2363 167.142 39.1423 165.609 39.8044C164.076 40.4665 162.421 40.7975 160.644 40.7975C158.971 40.8672 157.368 40.5797 155.835 39.9351C154.302 39.2904 152.951 38.4018 151.784 37.2693C150.617 36.1369 149.685 34.8127 148.988 33.2969C148.291 31.7811 147.942 30.1869 147.942 28.5143V18.8968C147.942 17.9908 148.265 17.1981 148.909 16.5186C149.554 15.8391 150.364 15.4819 151.34 15.4471V15.4471Z" fill="#3444BA"/>
<path d="M177.549 7.39771C178.525 7.39771 179.344 7.7374 180.006 8.4169C180.668 9.0964 181.034 9.9414 181.104 10.952V15.1335H190.094C191.104 15.1335 191.923 15.4819 192.551 16.1788C193.178 16.8758 193.491 17.6946 193.491 18.6355C193.491 19.5415 193.143 20.3516 192.446 21.066C191.749 21.7803 190.965 22.1375 190.094 22.1375H181.104V27.8871C181.104 28.6885 181.252 29.4464 181.548 30.1608C181.844 30.8751 182.254 31.5111 182.776 32.0686C183.299 32.6261 183.917 33.0617 184.632 33.3753C185.346 33.6889 186.122 33.8457 186.958 33.8457C187.864 33.8457 188.639 33.7238 189.284 33.4799C189.928 33.2359 190.495 32.8701 190.983 32.3822C191.714 31.755 192.524 31.4327 193.413 31.4152C194.302 31.3978 195.129 31.7376 195.896 32.4345C196.244 32.7481 196.506 33.1053 196.68 33.506C196.854 33.9067 196.95 34.3249 196.967 34.7604C196.985 35.196 196.924 35.6229 196.784 36.041C196.645 36.4592 196.418 36.8251 196.105 37.1387C194.885 38.3234 193.544 39.2294 192.08 39.8567C190.617 40.4839 189.049 40.7975 187.376 40.7975C185.564 40.7975 183.857 40.4926 182.254 39.8828C180.651 39.273 179.239 38.4018 178.02 37.2693C176.8 36.1369 175.833 34.7779 175.119 33.1924C174.405 31.6069 174.03 29.8385 173.995 27.8871V10.6906C173.995 9.74981 174.352 8.9657 175.067 8.3385C175.781 7.7113 176.609 7.39771 177.549 7.39771V7.39771Z" fill="#3444BA"/>
<path d="M204.33 15.4471C206.037 15.4471 207.657 15.7781 209.191 16.4402C210.724 17.1023 212.065 18.0083 213.215 19.1582C214.365 20.3081 215.28 21.6497 215.96 23.1829C216.639 24.7161 216.979 26.3713 216.979 28.1484C216.979 29.8907 216.648 31.5198 215.986 33.0356C215.324 34.5514 214.426 35.8842 213.294 37.0341C212.161 38.1841 210.828 39.09 209.295 39.7521C207.762 40.4142 206.107 40.7452 204.33 40.7452C202.587 40.7452 200.95 40.4316 199.416 39.8044C197.883 39.1772 196.542 38.2973 195.392 37.1648C194.242 36.0323 193.336 34.6995 192.674 33.1662C192.012 31.633 191.681 29.9604 191.681 28.1484C191.681 26.4061 192.003 24.7771 192.648 23.2613C193.292 21.7455 194.181 20.4213 195.313 19.2888C196.446 18.1564 197.787 17.2504 199.338 16.5709C200.889 15.8914 202.553 15.5168 204.33 15.4471V15.4471ZM204.33 22.2943C203.528 22.2943 202.779 22.4424 202.082 22.7386C201.385 23.0348 200.767 23.4442 200.227 23.9669C199.686 24.4896 199.26 25.1081 198.946 25.8225C198.632 26.5368 198.476 27.3121 198.476 28.1484C198.476 28.9499 198.632 29.7078 198.946 30.4221C199.26 31.1365 199.686 31.7637 200.227 32.3038C200.767 32.8439 201.385 33.2708 202.082 33.5844C202.779 33.898 203.528 34.0548 204.33 34.0548C205.131 34.0548 205.889 33.898 206.603 33.5844C207.318 33.2708 207.936 32.8439 208.459 32.3038C208.982 31.7637 209.4 31.1365 209.713 30.4221C210.027 29.7078 210.184 28.9499 210.184 28.1484C210.114 26.5455 209.539 25.1865 208.459 24.0715C207.379 22.9564 206.002 22.364 204.33 22.2943Z" fill="#3444BA"/>
<path d="M234.034 15.3948C234.975 15.3948 235.759 15.752 236.386 16.4663C237.014 17.1807 237.327 17.9386 237.327 18.74C237.327 19.646 236.987 20.4388 236.308 21.1183C235.628 21.7978 234.871 22.1375 234.034 22.1375H225.044C224.626 22.1375 224.269 22.2595 223.973 22.5034C223.676 22.7473 223.528 23.0958 223.528 23.5488C223.528 24.0366 223.676 24.4112 223.973 24.6725C224.269 24.9339 224.626 25.0646 225.044 25.0646H230.95C232.031 25.0646 233.032 25.2911 233.956 25.7441C234.879 26.1971 235.681 26.7981 236.36 27.5473C237.04 28.2965 237.571 29.0893 237.954 29.9256C238.338 30.7619 238.529 31.7027 238.529 32.7481C238.564 33.898 238.364 34.9782 237.928 35.9888C237.493 36.9993 236.909 37.853 236.177 38.5499C235.446 39.2469 234.592 39.7957 233.616 40.1964C232.64 40.5971 231.543 40.7975 230.323 40.7975H220.706C219.8 40.7975 219.016 40.4839 218.354 39.8567C217.692 39.2294 217.36 38.4454 217.36 37.5046C217.36 36.6334 217.674 35.8407 218.301 35.1263C218.929 34.412 219.695 34.0374 220.601 34.0025H230.219C231.159 34.0025 231.63 33.5844 231.63 32.7481C231.63 31.8072 231.159 31.3368 230.219 31.3368H224.469C223.424 31.3368 222.439 31.119 221.516 30.6835C220.592 30.2479 219.791 29.6468 219.112 28.8802C218.432 28.1136 217.901 27.2773 217.517 26.3713C217.134 25.4653 216.942 24.4896 216.942 23.4442C216.942 22.3988 217.143 21.3883 217.543 20.4126C217.944 19.4369 218.493 18.5832 219.19 17.8515C219.887 17.1197 220.706 16.536 221.647 16.1004C222.587 15.6649 223.615 15.4297 224.73 15.3948H234.034V15.3948Z" fill="#3444BA"/>
</svg>
