<svg width="800" height="140" viewBox="0 0 800 140" fill="none" xmlns="http://www.w3.org/2000/svg">
<path fill-rule="evenodd" clip-rule="evenodd" d="M86.401 37.9581C82.1356 27.7727 74.0357 19.6735 63.85 15.4091C58.6476 13.1968 53.0481 12.0708 47.395 12.1001H16.923C15.3852 12.0715 13.8578 12.3585 12.4352 12.9433C11.0127 13.5281 9.72509 14.3982 8.65195 15.5001C7.55036 16.5734 6.68034 17.861 6.09558 19.2835C5.51081 20.7061 5.2237 22.2333 5.25195 23.7711V112.052C5.22329 113.59 5.51021 115.117 6.095 116.54C6.67978 117.962 7.55002 119.25 8.65195 120.323C9.72505 121.425 11.0126 122.295 12.4352 122.88C13.8578 123.465 15.3851 123.752 16.923 123.723C18.4607 123.751 19.988 123.464 21.4105 122.88C22.8331 122.295 24.1207 121.425 25.194 120.323C26.2959 119.25 27.1661 117.962 27.7509 116.54C28.3357 115.117 28.6226 113.59 28.594 112.052V96.7251H47.395C53.0481 96.7559 58.6479 95.6302 63.85 93.4171C74.0357 89.1527 82.1356 81.0534 86.401 70.8681C88.5848 65.657 89.7095 60.0633 89.7095 54.4131C89.7095 48.7629 88.5848 43.1692 86.401 37.9581V37.9581ZM64.901 61.8131C63.9258 64.0566 62.5346 66.0952 60.801 67.8211C59.0539 69.5669 56.9842 70.9567 54.707 71.9131C52.3951 72.898 49.9068 73.4015 47.394 73.3931H28.59V35.4331H47.395C49.9077 35.4261 52.3957 35.9296 54.708 36.9131C59.3075 38.8423 62.9657 42.5005 64.895 47.1001C65.8784 49.4124 66.382 51.9003 66.375 54.4131C66.3999 56.9557 65.8959 59.4757 64.895 61.8131H64.901ZM112.601 43.0081C107.604 45.1583 103.055 48.2297 99.194 52.0621C91.3362 59.9961 86.9498 70.7251 86.9988 81.8916C87.0477 93.0581 91.528 103.748 99.455 111.613C103.302 115.398 107.858 118.386 112.862 120.406C118.06 122.514 123.621 123.579 129.23 123.541C134.913 123.589 140.545 122.463 145.772 120.232C150.759 118.109 155.283 115.033 159.093 111.178C162.877 107.328 165.917 102.812 168.06 97.8571C170.258 92.6624 171.383 87.0771 171.368 81.4367C171.353 75.7963 170.198 70.217 167.973 65.0341C165.784 60.0363 162.684 55.4895 158.831 51.6261C154.979 47.7819 150.429 44.7089 145.424 42.5721C140.311 40.3669 134.798 39.2407 129.23 39.2641C123.501 39.4539 117.859 40.7242 112.601 43.0081V43.0081ZM142.986 67.9951C146.55 71.633 148.603 76.4861 148.732 81.5771C148.746 84.1836 148.212 86.7639 147.165 89.1511C146.159 91.4741 144.743 93.5975 142.986 95.4201C141.225 97.2332 139.125 98.6827 136.805 99.6861C134.417 100.732 131.837 101.267 129.23 101.254C126.651 101.273 124.098 100.738 121.743 99.6861C119.438 98.6549 117.343 97.2089 115.561 95.4201C113.758 93.6169 112.311 91.4901 111.295 89.1511C110.249 86.7638 109.715 84.1836 109.728 81.5771C109.703 78.913 110.237 76.2733 111.295 73.8281C112.298 71.5082 113.748 69.4081 115.561 67.6471C117.35 65.912 119.447 64.5245 121.743 63.5551C124.113 62.5594 126.66 62.0559 129.23 62.0751C131.8 62.1086 134.338 62.6487 136.699 63.6646C139.06 64.6804 141.197 66.152 142.988 67.9951H142.986Z" fill="#131010"/>
<path fill-rule="evenodd" clip-rule="evenodd" d="M193.746 120.929C195.78 118.949 196.992 116.275 197.141 113.441V81.751C197.116 79.0861 197.65 76.4456 198.709 74C199.703 71.6963 201.12 69.5996 202.887 67.819C204.669 66.037 206.787 64.6268 209.119 63.6703C211.451 62.7137 213.949 62.23 216.469 62.247C219.533 62.2096 222.465 60.9918 224.653 58.847C225.725 57.829 226.573 56.5986 227.143 55.2344C227.712 53.8701 227.991 52.4021 227.961 50.924C227.781 47.9097 226.513 45.0633 224.392 42.914C223.346 41.8301 222.085 40.9761 220.691 40.4066C219.296 39.837 217.798 39.5643 216.292 39.606C210.751 39.8069 205.293 41.0167 200.186 43.176C195.274 45.2332 190.786 48.1853 186.952 51.882C183.155 55.5748 180.084 59.9475 177.9 64.773C175.632 69.7218 174.416 75.0878 174.33 80.531V112.744C174.419 115.789 175.665 118.685 177.813 120.844C178.849 121.85 180.076 122.639 181.422 123.162C182.767 123.685 184.205 123.933 185.648 123.891C187.127 123.961 188.605 123.736 189.996 123.227C191.386 122.718 192.661 121.937 193.746 120.929ZM220.559 15.583C219.418 16.5404 218.505 17.741 217.887 19.0968C217.27 20.4527 216.963 21.9294 216.99 23.419V52.0625V80.706C217.015 86.7914 218.289 92.8068 220.733 98.38C223.004 103.514 226.291 108.134 230.397 111.962C234.486 115.754 239.275 118.711 244.497 120.668C249.95 122.721 255.734 123.754 261.561 123.716C266.945 123.754 272.278 122.687 277.233 120.581C282.222 118.416 286.768 115.346 290.64 111.527C291.672 110.503 292.447 109.25 292.904 107.87C293.364 106.497 293.57 105.051 293.513 103.604C293.456 102.164 293.131 100.747 292.556 99.425C291.952 98.0612 291.061 96.8436 289.944 95.855C287.743 93.6751 284.771 92.453 281.673 92.455C278.675 92.5273 275.802 93.6698 273.573 95.676C271.971 97.2873 270.041 98.5346 267.914 99.333C265.425 100.202 262.8 100.615 260.165 100.552C257.501 100.577 254.862 100.043 252.417 98.985C250.081 97.9716 247.977 96.4901 246.235 94.632C244.496 92.7802 243.109 90.6262 242.144 88.276C241.152 85.8749 240.648 83.3 240.663 80.702V61.552H270.613C272.095 61.5315 273.557 61.2036 274.906 60.5891C276.254 59.9746 277.461 59.0869 278.449 57.982C279.543 56.9341 280.414 55.6771 281.013 54.2856C281.611 52.8941 281.923 51.3966 281.931 49.882C281.971 46.8547 280.851 43.9269 278.8 41.7C277.774 40.5559 276.509 39.651 275.095 39.0491C273.681 38.4473 272.152 38.1633 270.616 38.217H240.67V24.29C240.523 21.123 239.223 18.1192 237.014 15.845C235.961 14.7405 234.69 13.8676 233.281 13.2822C231.871 12.6968 230.356 12.4117 228.83 12.445C225.777 12.4149 222.824 13.5352 220.559 15.583Z" fill="#131010"/>
<rect x="217" y="39" width="13" height="24" fill="#131010"/>
<rect x="213" y="40" width="17" height="22" fill="#131010"/>
<path fill-rule="evenodd" clip-rule="evenodd" d="M322.135 38.278H319.61C311.303 38.1591 303.159 40.59 296.277 45.243C289.536 49.7576 284.221 56.0996 280.954 63.526C279.802 66.1646 278.899 68.9043 278.254 71.71C276.978 77.4439 276.978 83.3882 278.254 89.122C278.898 91.9278 279.802 94.6676 280.954 97.306C284.27 104.679 289.577 110.982 296.277 115.506C303.139 120.212 311.29 122.675 319.61 122.558C322.831 122.574 326.044 122.223 329.187 121.513C332.12 120.807 334.978 119.815 337.719 118.553C338.181 118.322 338.646 118.06 339.112 117.769C339.61 117.463 340.135 117.201 340.679 116.986C343.117 120.702 346.367 122.559 350.43 122.558C351.889 122.549 353.333 122.252 354.677 121.684C356.022 121.116 357.241 120.289 358.266 119.249C359.38 118.236 360.266 116.999 360.866 115.618C361.466 114.238 361.767 112.745 361.748 111.24V80.416C361.771 75.2005 360.796 70.0288 358.875 65.18C357.022 60.467 354.372 56.1083 351.04 52.295C347.694 48.4943 343.682 45.3371 339.201 42.979C334.63 40.5469 329.636 39.0104 324.488 38.452C323.708 38.3394 322.922 38.2812 322.135 38.278V38.278ZM312.301 98.351C310.012 97.3295 307.92 95.9151 306.119 94.172C304.296 92.4001 302.82 90.304 301.766 87.991C300.664 85.6189 300.099 83.0327 300.112 80.417C300.111 77.8679 300.645 75.347 301.679 73.017C302.696 70.679 304.143 68.5528 305.945 66.749C307.727 64.961 309.823 63.5151 312.127 62.483C314.424 61.4432 316.918 60.9089 319.44 60.916C321.989 60.9153 324.51 61.4491 326.84 62.483C331.558 64.5327 335.322 68.2969 337.371 73.015C338.405 75.345 338.939 77.8659 338.938 80.415C338.963 83.0792 338.429 85.719 337.371 88.164C336.377 90.468 334.96 92.5647 333.192 94.345C331.423 96.1052 329.321 97.4962 327.01 98.437C324.608 99.4284 322.034 99.9315 319.436 99.917C316.973 99.9111 314.54 99.3771 312.301 98.351V98.351ZM367.149 15.119C365.104 17.1189 363.812 19.7637 363.493 22.606V92.082C363.481 96.0894 364.28 100.058 365.843 103.748C367.352 107.378 369.539 110.687 372.286 113.499C375.018 116.288 378.233 118.559 381.776 120.199C385.372 121.883 389.297 122.745 393.268 122.724H395.701C398.557 122.346 401.183 120.956 403.101 118.806C404.072 117.768 404.825 116.546 405.316 115.212C405.808 113.879 406.027 112.46 405.962 111.04C405.897 109.621 405.548 108.228 404.936 106.945C404.325 105.662 403.463 104.515 402.401 103.57C400.269 101.533 397.427 100.409 394.479 100.436C393.403 100.467 392.333 100.265 391.342 99.8445C390.351 99.4241 389.463 98.795 388.737 98C387.236 96.3994 386.423 94.2737 386.473 92.08V23.3C386.317 20.2288 385.048 17.3194 382.903 15.116C381.885 14.0443 380.655 13.1966 379.291 12.627C377.927 12.0574 376.459 11.7785 374.981 11.808C372.036 11.8445 369.223 13.0331 367.145 15.119H367.149Z" fill="#131010"/>
<path fill-rule="evenodd" clip-rule="evenodd" d="M454.469 38.2781H451.944C443.637 38.1591 435.493 40.59 428.611 45.2431C421.869 49.7574 416.554 56.0994 413.288 63.5261C412.136 66.1645 411.232 68.9043 410.588 71.7101C409.312 77.444 409.312 83.3882 410.588 89.1221C411.232 91.928 412.136 94.6679 413.288 97.3061C416.604 104.68 421.91 110.982 428.611 115.506C435.473 120.212 443.624 122.675 451.944 122.558C455.165 122.574 458.378 122.223 461.521 121.513C464.454 120.807 467.312 119.815 470.053 118.553C470.515 118.322 470.981 118.061 471.446 117.769C471.944 117.463 472.469 117.201 473.013 116.986C475.451 120.702 478.701 122.559 482.764 122.558C484.223 122.549 485.666 122.252 487.011 121.684C488.355 121.116 489.574 120.289 490.599 119.249C491.713 118.237 492.599 116.999 493.2 115.618C493.8 114.238 494.101 112.745 494.082 111.24V80.4161C494.105 75.2007 493.13 70.029 491.209 65.1801C489.356 60.4669 486.706 56.1081 483.373 52.2951C480.027 48.4939 476.014 45.3367 471.533 42.9791C466.961 40.5468 461.967 39.0103 456.819 38.4521C456.04 38.3395 455.255 38.2814 454.469 38.2781V38.2781ZM444.631 98.3511C442.342 97.3296 440.25 95.9152 438.449 94.1721C436.628 92.3995 435.153 90.3031 434.1 87.9901C432.997 85.6181 432.432 83.0318 432.446 80.4161C432.445 77.867 432.979 75.3461 434.013 73.0161C435.03 70.6781 436.477 68.5519 438.279 66.7481C440.061 64.9601 442.156 63.5142 444.46 62.4821C446.758 61.4424 449.252 60.908 451.774 60.9151C454.323 60.9144 456.844 61.4482 459.174 62.4821C463.893 64.5322 467.658 68.2971 469.709 73.0161C470.742 75.3462 471.276 77.8671 471.276 80.4161C471.301 83.0802 470.767 85.7199 469.709 88.1651C468.715 90.469 467.298 92.5657 465.53 94.3461C463.76 96.1061 461.659 97.497 459.348 98.4381C456.946 99.4295 454.372 99.9326 451.774 99.9181C449.308 99.9131 446.872 99.3787 444.631 98.3511V98.3511ZM498.7 41.6731C497.668 42.7166 496.852 43.9536 496.299 45.3133C495.746 46.673 495.467 48.1284 495.479 49.5961V81.6351C495.463 87.1363 496.651 92.5743 498.961 97.5671C503.49 107.561 511.643 115.464 521.772 119.681C526.831 121.82 532.304 122.802 537.791 122.554C543.474 122.602 549.106 121.476 554.333 119.245C564.44 114.941 572.488 106.891 576.79 96.7831C579.008 91.6135 580.135 86.0415 580.1 80.4161V49.0731C579.935 46.1815 578.655 43.4664 576.53 41.4991C575.484 40.4089 574.225 39.5448 572.832 38.96C571.439 38.3752 569.941 38.0822 568.43 38.0991C566.918 38.139 565.429 38.4834 564.053 39.1117C562.677 39.7401 561.441 40.6395 560.421 41.7561C559.381 42.7805 558.554 43.9999 557.986 45.3446C557.418 46.6892 557.121 48.1325 557.112 49.5921V81.2861C557.131 83.8652 556.597 86.4183 555.545 88.7731C554.552 91.0228 553.099 93.0395 551.279 94.6931C549.464 96.3287 547.37 97.6261 545.098 98.5241C542.772 99.4541 540.289 99.927 537.784 99.9171C535.177 99.9305 532.597 99.3967 530.21 98.3501C525.55 96.361 521.838 92.6496 519.849 87.9901C518.803 85.6028 518.269 83.0226 518.282 80.4161V49.7701C518.263 46.7118 517.052 43.7815 514.906 41.6022C512.761 39.4228 509.849 38.1664 506.792 38.1001C505.272 38.1198 503.772 38.4465 502.381 39.0605C500.99 39.6745 499.738 40.5631 498.7 41.6731V41.6731ZM585.239 14.4231C584.097 15.3805 583.184 16.581 582.566 17.9368C581.949 19.2927 581.642 20.7694 581.669 22.2591V79.5451C581.694 85.6306 582.968 91.6461 585.413 97.2191C587.684 102.352 590.971 106.972 595.077 110.8C599.166 114.592 603.955 117.549 609.177 119.507C614.63 121.559 620.414 122.592 626.241 122.554C631.624 122.592 636.957 121.525 641.912 119.42C646.901 117.254 651.447 114.184 655.32 110.365C656.351 109.341 657.127 108.088 657.584 106.708C658.044 105.335 658.25 103.889 658.193 102.442C658.136 101.002 657.811 99.5845 657.235 98.2631C656.631 96.8991 655.74 95.6814 654.623 94.6931C652.422 92.5129 649.449 91.2908 646.352 91.2931C643.354 91.365 640.481 92.5076 638.252 94.5141C636.65 96.1252 634.72 97.3724 632.593 98.1711C630.104 99.0398 627.479 99.4528 624.844 99.3901C622.18 99.4153 619.54 98.8815 617.096 97.8231C614.759 96.8099 612.655 95.3284 610.914 93.4701C609.174 91.6181 607.788 89.4641 606.822 87.1141C605.83 84.7128 605.327 82.138 605.342 79.5401V60.3911H635.292C636.774 60.3707 638.235 60.0429 639.584 59.4284C640.933 58.8138 642.139 57.926 643.127 56.8211C644.221 55.7735 645.093 54.5166 645.691 53.125C646.29 51.7335 646.602 50.2358 646.61 48.7211C646.65 45.6925 645.528 42.7637 643.475 40.5371C642.449 39.3928 641.184 38.4877 639.77 37.8859C638.356 37.284 636.828 37.0001 635.292 37.0541H605.342V23.1291C605.194 19.9623 603.894 16.9588 601.686 14.6841C600.633 13.5797 599.361 12.7069 597.952 12.1215C596.543 11.5361 595.027 11.2509 593.502 11.2841C590.449 11.2546 587.498 12.3748 585.234 14.4221L585.239 14.4231Z" fill="#3444BA"/>
<path fill-rule="evenodd" clip-rule="evenodd" d="M666.146 43.008C661.149 45.1578 656.601 48.2293 652.739 52.062C644.881 59.9957 640.494 70.7249 640.543 81.8915C640.592 93.0581 645.073 103.748 653 111.613C656.847 115.398 661.403 118.386 666.407 120.406C671.605 122.514 677.167 123.579 682.775 123.541C688.326 123.58 693.829 122.506 698.958 120.383C704.087 118.259 708.738 115.129 712.637 111.178C716.422 107.328 719.462 102.812 721.605 97.857C723.803 92.6623 724.928 87.077 724.913 81.4366C724.898 75.7962 723.744 70.2169 721.518 65.034C719.329 60.0362 716.229 55.4894 712.376 51.626C708.525 47.7818 703.974 44.7088 698.969 42.572C693.857 40.3668 688.344 39.2406 682.775 39.264C677.046 39.4538 671.404 40.7241 666.146 43.008V43.008ZM696.531 67.995C700.095 71.6329 702.148 76.486 702.277 81.577C702.291 84.1835 701.757 86.7638 700.71 89.151C699.704 91.474 698.289 93.5974 696.531 95.42C694.77 97.2331 692.67 98.6826 690.35 99.686C687.963 100.732 685.382 101.267 682.775 101.254C680.196 101.273 677.643 100.738 675.288 99.686C672.984 98.6548 670.888 97.2088 669.106 95.42C667.303 93.6168 665.856 91.4901 664.84 89.151C663.794 86.7638 663.26 84.1835 663.273 81.577C663.248 78.9129 663.782 76.2731 664.84 73.828C665.844 71.5081 667.293 69.408 669.106 67.647C670.896 65.9119 672.992 64.5244 675.288 63.555C677.658 62.5592 680.205 62.0557 682.775 62.075C685.345 62.1087 687.883 62.649 690.243 63.6648C692.604 64.6807 694.74 66.1522 696.531 67.995V67.995ZM751.38 39.095C747.832 39.1736 744.336 39.9735 741.106 41.446C738.034 42.8538 735.256 44.8334 732.923 47.279C730.576 49.7539 728.716 52.6482 727.438 55.811C726.113 59.0132 725.434 62.4455 725.438 65.911C725.411 69.2575 726.062 72.5748 727.354 75.662C728.655 78.7199 730.449 81.5435 732.664 84.02C734.895 86.5498 737.621 88.5944 740.674 90.027C743.75 91.479 747.112 92.223 750.512 92.204H769.666C772.8 92.204 774.366 93.7707 774.366 96.904C774.366 99.69 772.8 101.083 769.666 101.083H737.624C736.155 101.13 734.712 101.487 733.392 102.133C732.071 102.778 730.902 103.697 729.962 104.827C727.962 106.982 726.844 109.81 726.828 112.75C726.793 114.216 727.07 115.673 727.64 117.023C728.211 118.374 729.062 119.588 730.137 120.585C731.173 121.598 732.398 122.396 733.742 122.934C735.087 123.472 736.524 123.739 737.972 123.72H770.011C773.764 123.779 777.491 123.099 780.981 121.72C784.144 120.443 787.039 118.582 789.513 116.235C792.018 113.817 794.002 110.914 795.346 107.703C796.803 104.295 797.486 100.607 797.346 96.903C797.396 93.6678 796.743 90.4605 795.43 87.503C794.078 84.605 792.287 81.9327 790.12 79.58C787.857 77.0863 785.138 75.0476 782.11 73.573C778.994 72.0527 775.568 71.2748 772.1 71.3H752.425C751.114 71.3318 749.839 70.8675 748.855 70C748.348 69.5236 747.952 68.9409 747.696 68.2937C747.44 67.6464 747.331 66.9506 747.375 66.256C747.337 65.6006 747.45 64.9451 747.707 64.3409C747.964 63.7366 748.357 63.2 748.855 62.773C749.862 61.9539 751.128 61.5216 752.425 61.554H782.374C783.802 61.5326 785.21 61.22 786.512 60.6354C787.815 60.0508 788.984 59.2064 789.948 58.154C791.026 57.1356 791.884 55.9072 792.469 54.5445C793.053 53.1819 793.353 51.7138 793.348 50.231C793.285 47.4038 792.167 44.7023 790.214 42.657C789.257 41.516 788.056 40.6034 786.7 39.9859C785.345 39.3684 783.868 39.0616 782.378 39.088H751.38V39.095Z" fill="#3444BA"/>
</svg>
