<svg width="66" height="19" viewBox="0 0 66 19" fill="none" xmlns="http://www.w3.org/2000/svg">
<path d="M0.15625 18V0.867188H3.78906V15H10.7383V18H0.15625ZM29.2773 9.41016C29.2773 10.7305 29.1133 11.9336 28.7852 13.0195C28.457 14.0977 27.957 15.0273 27.2852 15.8086C26.6211 16.5898 25.7773 17.1914 24.7539 17.6133C23.7305 18.0273 22.5195 18.2344 21.1211 18.2344C19.7227 18.2344 18.5117 18.0273 17.4883 17.6133C16.4648 17.1914 15.6172 16.5898 14.9453 15.8086C14.2812 15.0273 13.7852 14.0938 13.457 13.0078C13.1289 11.9219 12.9648 10.7148 12.9648 9.38672C12.9648 7.61328 13.2539 6.07031 13.832 4.75781C14.418 3.4375 15.3164 2.41406 16.5273 1.6875C17.7383 0.960938 19.2773 0.597656 21.1445 0.597656C23.0039 0.597656 24.5312 0.960938 25.7266 1.6875C26.9297 2.41406 27.8203 3.4375 28.3984 4.75781C28.9844 6.07812 29.2773 7.62891 29.2773 9.41016ZM16.7734 9.41016C16.7734 10.6055 16.9219 11.6367 17.2188 12.5039C17.5234 13.3633 17.9961 14.0273 18.6367 14.4961C19.2773 14.957 20.1055 15.1875 21.1211 15.1875C22.1523 15.1875 22.9883 14.957 23.6289 14.4961C24.2695 14.0273 24.7344 13.3633 25.0234 12.5039C25.3203 11.6367 25.4688 10.6055 25.4688 9.41016C25.4688 7.61328 25.1328 6.19922 24.4609 5.16797C23.7891 4.13672 22.6836 3.62109 21.1445 3.62109C20.1211 3.62109 19.2852 3.85547 18.6367 4.32422C17.9961 4.78516 17.5234 5.44922 17.2188 6.31641C16.9219 7.17578 16.7734 8.20703 16.7734 9.41016ZM39.332 8.37891H46.1289V17.2617C45.2305 17.5586 44.2969 17.7969 43.3281 17.9766C42.3594 18.1484 41.2617 18.2344 40.0352 18.2344C38.332 18.2344 36.8867 17.8984 35.6992 17.2266C34.5117 16.5547 33.6094 15.5625 32.9922 14.25C32.375 12.9375 32.0664 11.3242 32.0664 9.41016C32.0664 7.61328 32.4102 6.05859 33.0977 4.74609C33.793 3.43359 34.8047 2.41797 36.1328 1.69922C37.4688 0.980469 39.0977 0.621094 41.0195 0.621094C41.9258 0.621094 42.8203 0.71875 43.7031 0.914062C44.5859 1.10938 45.3867 1.36328 46.1055 1.67578L44.8984 4.58203C44.375 4.31641 43.7773 4.09375 43.1055 3.91406C42.4336 3.73438 41.7305 3.64453 40.9961 3.64453C39.9414 3.64453 39.0234 3.88672 38.2422 4.37109C37.4688 4.85547 36.8672 5.53516 36.4375 6.41016C36.0156 7.27734 35.8047 8.30078 35.8047 9.48047C35.8047 10.5977 35.957 11.5898 36.2617 12.457C36.5664 13.3164 37.0469 13.9922 37.7031 14.4844C38.3594 14.9688 39.2148 15.2109 40.2695 15.2109C40.7852 15.2109 41.2188 15.1875 41.5703 15.1406C41.9297 15.0859 42.2656 15.0312 42.5781 14.9766V11.4023H39.332V8.37891ZM65.7695 9.41016C65.7695 10.7305 65.6055 11.9336 65.2773 13.0195C64.9492 14.0977 64.4492 15.0273 63.7773 15.8086C63.1133 16.5898 62.2695 17.1914 61.2461 17.6133C60.2227 18.0273 59.0117 18.2344 57.6133 18.2344C56.2148 18.2344 55.0039 18.0273 53.9805 17.6133C52.957 17.1914 52.1094 16.5898 51.4375 15.8086C50.7734 15.0273 50.2773 14.0938 49.9492 13.0078C49.6211 11.9219 49.457 10.7148 49.457 9.38672C49.457 7.61328 49.7461 6.07031 50.3242 4.75781C50.9102 3.4375 51.8086 2.41406 53.0195 1.6875C54.2305 0.960938 55.7695 0.597656 57.6367 0.597656C59.4961 0.597656 61.0234 0.960938 62.2188 1.6875C63.4219 2.41406 64.3125 3.4375 64.8906 4.75781C65.4766 6.07812 65.7695 7.62891 65.7695 9.41016ZM53.2656 9.41016C53.2656 10.6055 53.4141 11.6367 53.7109 12.5039C54.0156 13.3633 54.4883 14.0273 55.1289 14.4961C55.7695 14.957 56.5977 15.1875 57.6133 15.1875C58.6445 15.1875 59.4805 14.957 60.1211 14.4961C60.7617 14.0273 61.2266 13.3633 61.5156 12.5039C61.8125 11.6367 61.9609 10.6055 61.9609 9.41016C61.9609 7.61328 61.625 6.19922 60.9531 5.16797C60.2812 4.13672 59.1758 3.62109 57.6367 3.62109C56.6133 3.62109 55.7773 3.85547 55.1289 4.32422C54.4883 4.78516 54.0156 5.44922 53.7109 6.31641C53.4141 7.17578 53.2656 8.20703 53.2656 9.41016Z" fill="#D21B60"/>
</svg>
