<svg width="154" height="32" viewBox="0 0 154 32" fill="none" xmlns="http://www.w3.org/2000/svg">
<path d="M16.5153 12.7965C16.5153 13.9116 16.3035 14.9653 15.8797 15.9577C15.456 16.9501 14.8762 17.8143 14.1402 18.5502C13.4043 19.2862 12.5401 19.866 11.5477 20.2898C10.5553 20.7135 9.50154 20.9253 8.38647 20.9253H4.77357V23.8691C4.77357 24.4936 4.55617 25.0233 4.12129 25.4581C3.68641 25.893 3.15674 26.1104 2.53229 26.1104C1.90784 26.1104 1.37824 25.893 0.943364 25.4581C0.508488 25.0233 0.291016 24.4936 0.291016 23.8691V6.90895C0.291016 6.2845 0.508488 5.75483 0.943364 5.31995C1.37824 4.88507 1.90784 4.6676 2.53229 4.6676H8.38647C9.50154 4.6676 10.5553 4.87951 11.5477 5.30319C12.5401 5.72693 13.4043 6.30677 14.1402 7.04271C14.8762 7.77865 15.456 8.64284 15.8797 9.63529C16.3035 10.6277 16.5153 11.6814 16.5153 12.7965ZM12.0327 12.7965C12.0327 12.3059 11.938 11.8375 11.7484 11.3915C11.5588 10.9455 11.2968 10.5552 10.9623 10.2207C10.6277 9.88617 10.2375 9.62409 9.79146 9.43458C9.34545 9.24502 8.87709 9.15023 8.38647 9.15023H4.77357V16.4428H8.38647C8.87709 16.4428 9.34545 16.348 9.79146 16.1584C10.2375 15.9689 10.6277 15.7068 10.9623 15.3723C11.2968 15.0378 11.5588 14.6531 11.7484 14.2182C11.938 13.7833 12.0327 13.3094 12.0327 12.7965Z" fill="white"/>
<path d="M24.5309 9.88611C25.6237 9.88611 26.6607 10.0979 27.6419 10.5217C28.6233 10.9454 29.4818 11.5253 30.2178 12.2612C30.9538 12.9971 31.5392 13.8558 31.974 14.837C32.4089 15.8183 32.6263 16.8776 32.6263 18.0149C32.6263 19.13 32.4145 20.1726 31.9907 21.1427C31.567 22.1129 30.9927 22.9659 30.2679 23.7018C29.5432 24.4378 28.6901 25.0176 27.7089 25.4413C26.7276 25.8651 25.6683 26.0769 24.5309 26.0769C23.4158 26.0769 22.3677 25.8762 21.3865 25.4748C20.4051 25.0734 19.5466 24.5102 18.8106 23.7854C18.0747 23.0606 17.4948 22.2076 17.0711 21.2263C16.6474 20.2451 16.4355 19.1746 16.4355 18.0149C16.4355 16.8999 16.6418 15.8573 17.0544 14.8872C17.467 13.9171 18.0356 13.0696 18.7604 12.3448C19.4852 11.6201 20.3438 11.0402 21.3362 10.6053C22.3287 10.1705 23.3936 9.93072 24.5309 9.88611ZM24.5309 14.2683C24.018 14.2683 23.5385 14.3631 23.0925 14.5527C22.6464 14.7422 22.2506 15.0043 21.9049 15.3388C21.5593 15.6733 21.286 16.0691 21.0853 16.5264C20.8846 16.9835 20.7843 17.4797 20.7843 18.0149C20.7843 18.5279 20.8846 19.013 21.0853 19.4701C21.286 19.9273 21.5593 20.3287 21.9049 20.6744C22.2506 21.0201 22.6464 21.2933 23.0925 21.494C23.5385 21.6947 24.018 21.795 24.5309 21.795C25.0439 21.795 25.5289 21.6947 25.9861 21.494C26.4433 21.2933 26.8391 21.0201 27.1737 20.6744C27.5082 20.3287 27.7758 19.9273 27.9765 19.4701C28.1772 19.013 28.2775 18.5279 28.2775 18.0149C28.233 16.9891 27.865 16.1193 27.1737 15.4057C26.4823 14.6921 25.6014 14.3129 24.5309 14.2683Z" fill="white"/>
<path d="M35.317 26.1438C34.7148 26.1438 34.213 25.9487 33.8116 25.5584C33.4102 25.1682 33.1872 24.6496 33.1426 24.0029V17.8143C33.1649 16.7438 33.3935 15.7346 33.8283 14.7869C34.2632 13.839 34.8431 13.0139 35.5679 12.3114C36.2927 11.6089 37.1401 11.0514 38.1102 10.6388C39.0803 10.2262 40.1117 9.99761 41.2045 9.953C41.829 9.953 42.3475 10.1649 42.7601 10.5886C43.1727 11.0123 43.4012 11.5253 43.4458 12.1274C43.4458 12.7295 43.234 13.2369 42.8102 13.6494C42.3865 14.0621 41.8625 14.2795 41.238 14.3018C40.725 14.3018 40.2456 14.3966 39.7995 14.5862C39.3535 14.7757 38.9633 15.0377 38.6287 15.3723C38.2942 15.7068 38.0266 16.1026 37.8258 16.5598C37.6251 17.017 37.5248 17.5132 37.5248 18.0484V24.1367C37.4802 24.7165 37.2628 25.196 36.8725 25.5751C36.4822 25.9543 35.9637 26.1438 35.317 26.1438Z" fill="white"/>
<path d="M43.8724 4.7345C44.4968 4.7345 45.0209 4.9519 45.4446 5.38678C45.8684 5.82166 46.1025 6.36246 46.1471 7.00924V9.6854H51.9009C52.5476 9.6854 53.0717 9.90838 53.4731 10.3544C53.8746 10.8005 54.0753 11.3245 54.0753 11.9267C54.0753 12.5065 53.8523 13.025 53.4062 13.4822C52.9602 13.9394 52.4584 14.168 51.9009 14.168H46.1471V17.8477C46.1471 18.3606 46.2419 18.8457 46.4314 19.3029C46.621 19.76 46.8831 20.1671 47.2176 20.5239C47.5521 20.8807 47.9479 21.1595 48.4051 21.3602C48.8623 21.5609 49.3586 21.6612 49.8938 21.6612C50.4736 21.6612 50.9698 21.5832 51.3824 21.4271C51.795 21.2709 52.1573 21.0368 52.4696 20.7246C52.9379 20.3232 53.4564 20.1169 54.0251 20.1057C54.5938 20.0946 55.1234 20.312 55.614 20.758C55.8371 20.9587 56.0043 21.1874 56.1159 21.4438C56.2274 21.7003 56.2887 21.9679 56.2998 22.2466C56.311 22.5254 56.272 22.7986 56.1827 23.0662C56.0935 23.3339 55.9486 23.568 55.7479 23.7687C54.9673 24.5269 54.1087 25.1068 53.1721 25.5083C52.2354 25.9097 51.2318 26.1104 50.1614 26.1104C49.0017 26.1104 47.909 25.9152 46.8831 25.525C45.8572 25.1347 44.954 24.5771 44.1735 23.8523C43.3929 23.1276 42.774 22.2578 42.3168 21.2431C41.8597 20.2284 41.6199 19.0966 41.5977 17.8477V6.84195C41.5977 6.23984 41.8262 5.73801 42.2834 5.3366C42.7406 4.93519 43.2702 4.7345 43.8724 4.7345Z" fill="white"/>
<path d="M61.9815 9.95309C62.9851 10.0646 63.9273 10.3545 64.8081 10.8228C65.6894 11.2912 66.4471 11.8877 67.0827 12.6125C67.7188 13.3373 68.2206 14.1625 68.5886 15.088C68.9566 16.0135 69.1403 16.9892 69.1403 18.015V23.9361C69.1403 24.5382 68.9175 25.0511 68.4715 25.4749C68.0254 25.8986 67.5236 26.1105 66.9662 26.1105C66.1854 26.1105 65.5607 25.7537 65.0923 25.04C64.9809 25.0846 64.8804 25.1348 64.7915 25.1905C64.7025 25.2463 64.6129 25.2964 64.5239 25.341C63.9887 25.5864 63.4422 25.7759 62.8847 25.9098C62.3049 26.0436 61.6916 26.1105 61.0448 26.1105C59.3723 26.1105 57.8781 25.6589 56.5623 24.7556C55.2465 23.8524 54.2652 22.6872 53.6185 21.2599C53.3954 20.747 53.2226 20.2229 53.1 19.6877C52.9773 19.1524 52.916 18.5949 52.916 18.015C52.916 17.4352 52.9773 16.8777 53.1 16.3425C53.2226 15.8072 53.3954 15.2831 53.6185 14.7702C54.2652 13.3206 55.2465 12.1498 56.5623 11.2577C57.8781 10.3657 59.3723 9.91968 61.0448 9.91968C61.2233 9.91968 61.3849 9.91968 61.5299 9.91968C61.6749 9.91968 61.8254 9.93081 61.9815 9.95309ZM61.0114 21.7617C61.5243 21.7617 62.0094 21.6669 62.4665 21.4774C62.9238 21.2878 63.3196 21.0257 63.6541 20.6912C63.9887 20.3567 64.2564 19.9608 64.4567 19.5037C64.6577 19.0465 64.7582 18.5503 64.7582 18.015C64.7582 17.5244 64.6577 17.0505 64.4567 16.5933C64.2564 16.1362 63.983 15.7347 63.6374 15.3891C63.2917 15.0434 62.8903 14.7702 62.4331 14.5695C61.9759 14.3688 61.502 14.2684 61.0114 14.2684C60.5207 14.2684 60.0525 14.3688 59.6064 14.5695C59.1604 14.7702 58.7645 15.0434 58.4189 15.3891C58.0732 15.7347 57.8 16.1362 57.5993 16.5933C57.3986 17.0505 57.2982 17.5244 57.2982 18.015C57.2982 18.528 57.4041 19.0131 57.616 19.4702C57.8279 19.9274 58.1066 20.3233 58.4523 20.6578C58.798 20.9923 59.1938 21.2599 59.6399 21.4606C60.0859 21.6613 60.5431 21.7617 61.0114 21.7617Z" fill="white"/>
<path d="M71.999 4.83484C72.6006 4.83484 73.1081 5.04668 73.5209 5.47042C73.9337 5.89417 74.1622 6.4182 74.2064 7.04265V20.2562C74.2064 20.7023 74.3517 21.0814 74.6416 21.3936C74.9315 21.7058 75.2995 21.8619 75.7456 21.8619C76.3254 21.8619 76.8323 22.0627 77.2675 22.4641C77.7021 22.8655 77.9312 23.3673 77.9529 23.9694C77.9529 24.5047 77.7693 24.9786 77.4013 25.3911C77.0333 25.8037 76.5597 26.0546 75.9798 26.1438H75.5113C74.7305 26.1438 73.9945 25.9821 73.3033 25.6588C72.6121 25.3354 72.0041 24.9061 71.48 24.3708C70.9565 23.8356 70.5437 23.2112 70.2429 22.4976C69.9414 21.7839 69.791 21.0368 69.791 20.2562V6.90889C69.8576 6.35132 70.0918 5.87183 70.4937 5.47042C70.895 5.06901 71.3968 4.85711 71.999 4.83484Z" fill="white"/>
<path d="M86.9419 9.95309C87.9461 10.0646 88.8882 10.3545 89.7688 10.8228C90.6501 11.2912 91.4078 11.8877 92.0434 12.6125C92.6795 13.3373 93.1813 14.1625 93.5493 15.088C93.9173 16.0135 94.101 16.9892 94.101 18.015V23.9361C94.101 24.5382 93.8782 25.0511 93.4322 25.4749C92.9861 25.8986 92.4843 26.1105 91.9269 26.1105C91.1461 26.1105 90.5214 25.7537 90.053 25.04C89.9416 25.0846 89.8411 25.1348 89.7522 25.1905C89.6632 25.2463 89.5736 25.2964 89.4846 25.341C88.9496 25.5864 88.403 25.7759 87.8456 25.9098C87.2658 26.0436 86.652 26.1105 86.0056 26.1105C84.3333 26.1105 82.8389 25.6589 81.523 24.7556C80.2072 23.8524 79.2261 22.6872 78.579 21.2599C78.3563 20.747 78.1835 20.2229 78.0606 19.6877C77.9378 19.1524 77.877 18.5949 77.877 18.015C77.877 17.4352 77.9378 16.8777 78.0606 16.3425C78.1835 15.8072 78.3563 15.2831 78.579 14.7702C79.2261 13.3206 80.2072 12.1498 81.523 11.2577C82.8389 10.3657 84.3333 9.91968 86.0056 9.91968C86.1842 9.91968 86.3454 9.91968 86.4907 9.91968C86.6354 9.91968 86.7864 9.93081 86.9419 9.95309ZM85.9723 21.7617C86.4849 21.7617 86.9701 21.6669 87.427 21.4774C87.8846 21.2878 88.2802 21.0257 88.6149 20.6912C88.9496 20.3567 89.2171 19.9608 89.4174 19.5037C89.6184 19.0465 89.7189 18.5503 89.7189 18.015C89.7189 17.5244 89.6184 17.0505 89.4174 16.5933C89.2171 16.1362 88.9438 15.7347 88.5982 15.3891C88.2526 15.0434 87.8507 14.7702 87.3938 14.5695C86.9368 14.3688 86.4625 14.2684 85.9723 14.2684C85.4814 14.2684 85.0129 14.3688 84.5669 14.5695C84.1208 14.7702 83.7253 15.0434 83.3797 15.3891C83.0341 15.7347 82.7608 16.1362 82.5598 16.5933C82.3595 17.0505 82.259 17.5244 82.259 18.015C82.259 18.528 82.3646 19.0131 82.5765 19.4702C82.7883 19.9274 83.0674 20.3233 83.413 20.6578C83.7586 20.9923 84.1547 21.2599 84.6008 21.4606C85.0469 21.6613 85.5038 21.7617 85.9723 21.7617Z" fill="white"/>
<path d="M96.8583 9.88611C97.4382 9.88611 97.9508 10.1035 98.3969 10.5384C98.843 10.9733 99.0663 11.5029 99.0663 12.1274V18.0149C99.0663 18.5279 99.1662 19.013 99.3671 19.4701C99.5681 19.9273 99.8356 20.3232 100.17 20.6577C100.504 20.9922 100.901 21.2598 101.358 21.4605C101.814 21.6612 102.3 21.7616 102.813 21.7616C103.303 21.7616 103.772 21.6724 104.218 21.494C104.664 21.3155 105.059 21.0702 105.406 20.758C105.751 20.4458 106.024 20.0667 106.225 19.6206C106.426 19.1746 106.526 18.6951 106.526 18.1822V12.0939C106.526 11.5364 106.738 11.0346 107.162 10.5886C107.585 10.1426 108.098 9.90838 108.7 9.88611C109.302 9.88611 109.821 10.1035 110.256 10.5384C110.691 10.9733 110.919 11.4583 110.942 11.9936V18.0149C110.942 19.13 110.73 20.1782 110.306 21.1595C109.882 22.1407 109.302 22.9993 108.566 23.7353C107.83 24.4712 106.972 25.051 105.99 25.4748C105.009 25.8985 103.95 26.1104 102.813 26.1104C101.742 26.155 100.716 25.971 99.7351 25.5584C98.754 25.1458 97.8894 24.5771 97.1425 23.8523C96.3956 23.1276 95.7991 22.2801 95.353 21.31C94.907 20.3399 94.6836 19.3196 94.6836 18.2491V12.0939C94.6836 11.5141 94.8903 11.0067 95.3025 10.5719C95.7153 10.137 96.2337 9.90838 96.8583 9.88611Z" fill="white"/>
<path d="M113.632 4.7345C114.257 4.7345 114.781 4.9519 115.204 5.38678C115.628 5.82166 115.862 6.36246 115.907 7.00924V9.6854H121.661C122.307 9.6854 122.831 9.90838 123.233 10.3544C123.635 10.8005 123.835 11.3245 123.835 11.9267C123.835 12.5065 123.612 13.025 123.166 13.4822C122.72 13.9394 122.218 14.168 121.661 14.168H115.907V17.8477C115.907 18.3606 116.002 18.8457 116.191 19.3029C116.381 19.76 116.643 20.1671 116.977 20.5239C117.312 20.8807 117.708 21.1595 118.165 21.3602C118.622 21.5609 119.119 21.6612 119.654 21.6612C120.234 21.6612 120.73 21.5832 121.142 21.4271C121.555 21.2709 121.917 21.0368 122.23 20.7246C122.698 20.3232 123.216 20.1169 123.785 20.1057C124.354 20.0946 124.883 20.312 125.374 20.758C125.597 20.9587 125.764 21.1874 125.876 21.4438C125.987 21.7003 126.049 21.9679 126.059 22.2466C126.071 22.5254 126.032 22.7986 125.942 23.0662C125.853 23.3339 125.708 23.568 125.508 23.7687C124.727 24.5269 123.869 25.1068 122.932 25.5083C121.995 25.9097 120.992 26.1104 119.921 26.1104C118.762 26.1104 117.669 25.9152 116.643 25.525C115.617 25.1347 114.714 24.5771 113.933 23.8523C113.153 23.1276 112.534 22.2578 112.077 21.2431C111.62 20.2284 111.38 19.0966 111.357 17.8477V6.84195C111.357 6.23984 111.586 5.73801 112.044 5.3366C112.5 4.93519 113.03 4.7345 113.632 4.7345Z" fill="white"/>
<path d="M130.771 9.88611C131.864 9.88611 132.9 10.0979 133.882 10.5217C134.863 10.9454 135.722 11.5253 136.458 12.2612C137.194 12.9971 137.779 13.8558 138.214 14.837C138.649 15.8183 138.867 16.8776 138.867 18.0149C138.867 19.13 138.655 20.1726 138.231 21.1427C137.807 22.1129 137.233 22.9659 136.508 23.7018C135.783 24.4378 134.93 25.0176 133.949 25.4413C132.968 25.8651 131.908 26.0769 130.771 26.0769C129.656 26.0769 128.608 25.8762 127.626 25.4748C126.645 25.0734 125.787 24.5102 125.051 23.7854C124.315 23.0606 123.735 22.2076 123.311 21.2263C122.888 20.2451 122.676 19.1746 122.676 18.0149C122.676 16.8999 122.882 15.8573 123.295 14.8872C123.707 13.9171 124.276 13.0696 125 12.3448C125.725 11.6201 126.584 11.0402 127.576 10.6053C128.569 10.1705 129.634 9.93072 130.771 9.88611ZM130.771 14.2683C130.258 14.2683 129.779 14.3631 129.332 14.5527C128.886 14.7422 128.491 15.0043 128.145 15.3388C127.799 15.6733 127.526 16.0691 127.325 16.5264C127.124 16.9835 127.025 17.4797 127.025 18.0149C127.025 18.5279 127.124 19.013 127.325 19.4701C127.526 19.9273 127.799 20.3287 128.145 20.6744C128.491 21.0201 128.886 21.2933 129.332 21.494C129.779 21.6947 130.258 21.795 130.771 21.795C131.284 21.795 131.769 21.6947 132.226 21.494C132.683 21.2933 133.079 21.0201 133.414 20.6744C133.748 20.3287 134.016 19.9273 134.216 19.4701C134.417 19.013 134.518 18.5279 134.518 18.0149C134.473 16.9891 134.105 16.1193 133.414 15.4057C132.723 14.6921 131.841 14.3129 130.771 14.2683Z" fill="white"/>
<path d="M149.783 9.85266C150.385 9.85266 150.887 10.0813 151.288 10.5384C151.69 10.9956 151.89 11.4807 151.89 11.9936C151.89 12.5734 151.673 13.0808 151.238 13.5157C150.803 13.9506 150.318 14.168 149.783 14.168H144.029C143.762 14.168 143.533 14.2461 143.344 14.4022C143.154 14.5583 143.059 14.7813 143.059 15.0712C143.059 15.3834 143.154 15.6232 143.344 15.7904C143.533 15.9577 143.762 16.0413 144.029 16.0413H147.809C148.501 16.0413 149.141 16.1863 149.733 16.4762C150.323 16.7661 150.837 17.1508 151.271 17.6303C151.706 18.1097 152.046 18.6171 152.291 19.1524C152.537 19.6876 152.659 20.2897 152.659 20.9588C152.682 21.6947 152.554 22.386 152.275 23.0328C151.996 23.6795 151.623 24.2259 151.154 24.6719C150.686 25.118 150.14 25.4692 149.515 25.7257C148.89 25.9821 148.188 26.1104 147.408 26.1104H141.253C140.673 26.1104 140.171 25.9097 139.747 25.5083C139.324 25.1068 139.111 24.605 139.111 24.0029C139.111 23.4454 139.312 22.938 139.714 22.4808C140.115 22.0237 140.606 21.7839 141.186 21.7616H147.341C147.943 21.7616 148.244 21.494 148.244 20.9588C148.244 20.3566 147.943 20.0555 147.341 20.0555H143.661C142.992 20.0555 142.362 19.9161 141.771 19.6374C141.18 19.3586 140.667 18.9739 140.233 18.4833C139.797 17.9927 139.458 17.4575 139.212 16.8776C138.967 16.2978 138.844 15.6733 138.844 15.0043C138.844 14.3352 138.972 13.6885 139.228 13.0641C139.485 12.4396 139.836 11.8932 140.282 11.4249C140.729 10.9566 141.253 10.583 141.855 10.3042C142.457 10.0255 143.114 9.875 143.828 9.85266H149.783Z" fill="white"/>
</svg>
