<svg width="70" height="33" viewBox="0 0 70 33" fill="none" xmlns="http://www.w3.org/2000/svg">
<path d="M2.15625 26V8.86719H5.78906V23H12.7383V26H2.15625ZM31.2773 17.4102C31.2773 18.7305 31.1133 19.9336 30.7852 21.0195C30.457 22.0977 29.957 23.0273 29.2852 23.8086C28.6211 24.5898 27.7773 25.1914 26.7539 25.6133C25.7305 26.0273 24.5195 26.2344 23.1211 26.2344C21.7227 26.2344 20.5117 26.0273 19.4883 25.6133C18.4648 25.1914 17.6172 24.5898 16.9453 23.8086C16.2812 23.0273 15.7852 22.0938 15.457 21.0078C15.1289 19.9219 14.9648 18.7148 14.9648 17.3867C14.9648 15.6133 15.2539 14.0703 15.832 12.7578C16.418 11.4375 17.3164 10.4141 18.5273 9.6875C19.7383 8.96094 21.2773 8.59766 23.1445 8.59766C25.0039 8.59766 26.5312 8.96094 27.7266 9.6875C28.9297 10.4141 29.8203 11.4375 30.3984 12.7578C30.9844 14.0781 31.2773 15.6289 31.2773 17.4102ZM18.7734 17.4102C18.7734 18.6055 18.9219 19.6367 19.2188 20.5039C19.5234 21.3633 19.9961 22.0273 20.6367 22.4961C21.2773 22.957 22.1055 23.1875 23.1211 23.1875C24.1523 23.1875 24.9883 22.957 25.6289 22.4961C26.2695 22.0273 26.7344 21.3633 27.0234 20.5039C27.3203 19.6367 27.4688 18.6055 27.4688 17.4102C27.4688 15.6133 27.1328 14.1992 26.4609 13.168C25.7891 12.1367 24.6836 11.6211 23.1445 11.6211C22.1211 11.6211 21.2852 11.8555 20.6367 12.3242C19.9961 12.7852 19.5234 13.4492 19.2188 14.3164C18.9219 15.1758 18.7734 16.207 18.7734 17.4102ZM41.332 16.3789H48.1289V25.2617C47.2305 25.5586 46.2969 25.7969 45.3281 25.9766C44.3594 26.1484 43.2617 26.2344 42.0352 26.2344C40.332 26.2344 38.8867 25.8984 37.6992 25.2266C36.5117 24.5547 35.6094 23.5625 34.9922 22.25C34.375 20.9375 34.0664 19.3242 34.0664 17.4102C34.0664 15.6133 34.4102 14.0586 35.0977 12.7461C35.793 11.4336 36.8047 10.418 38.1328 9.69922C39.4688 8.98047 41.0977 8.62109 43.0195 8.62109C43.9258 8.62109 44.8203 8.71875 45.7031 8.91406C46.5859 9.10938 47.3867 9.36328 48.1055 9.67578L46.8984 12.582C46.375 12.3164 45.7773 12.0938 45.1055 11.9141C44.4336 11.7344 43.7305 11.6445 42.9961 11.6445C41.9414 11.6445 41.0234 11.8867 40.2422 12.3711C39.4688 12.8555 38.8672 13.5352 38.4375 14.4102C38.0156 15.2773 37.8047 16.3008 37.8047 17.4805C37.8047 18.5977 37.957 19.5898 38.2617 20.457C38.5664 21.3164 39.0469 21.9922 39.7031 22.4844C40.3594 22.9688 41.2148 23.2109 42.2695 23.2109C42.7852 23.2109 43.2188 23.1875 43.5703 23.1406C43.9297 23.0859 44.2656 23.0312 44.5781 22.9766V19.4023H41.332V16.3789ZM67.7695 17.4102C67.7695 18.7305 67.6055 19.9336 67.2773 21.0195C66.9492 22.0977 66.4492 23.0273 65.7773 23.8086C65.1133 24.5898 64.2695 25.1914 63.2461 25.6133C62.2227 26.0273 61.0117 26.2344 59.6133 26.2344C58.2148 26.2344 57.0039 26.0273 55.9805 25.6133C54.957 25.1914 54.1094 24.5898 53.4375 23.8086C52.7734 23.0273 52.2773 22.0938 51.9492 21.0078C51.6211 19.9219 51.457 18.7148 51.457 17.3867C51.457 15.6133 51.7461 14.0703 52.3242 12.7578C52.9102 11.4375 53.8086 10.4141 55.0195 9.6875C56.2305 8.96094 57.7695 8.59766 59.6367 8.59766C61.4961 8.59766 63.0234 8.96094 64.2188 9.6875C65.4219 10.4141 66.3125 11.4375 66.8906 12.7578C67.4766 14.0781 67.7695 15.6289 67.7695 17.4102ZM55.2656 17.4102C55.2656 18.6055 55.4141 19.6367 55.7109 20.5039C56.0156 21.3633 56.4883 22.0273 57.1289 22.4961C57.7695 22.957 58.5977 23.1875 59.6133 23.1875C60.6445 23.1875 61.4805 22.957 62.1211 22.4961C62.7617 22.0273 63.2266 21.3633 63.5156 20.5039C63.8125 19.6367 63.9609 18.6055 63.9609 17.4102C63.9609 15.6133 63.625 14.1992 62.9531 13.168C62.2812 12.1367 61.1758 11.6211 59.6367 11.6211C58.6133 11.6211 57.7773 11.8555 57.1289 12.3242C56.4883 12.7852 56.0156 13.4492 55.7109 14.3164C55.4141 15.1758 55.2656 16.207 55.2656 17.4102Z" fill="white"/>
</svg>
