<svg width="208" height="56" viewBox="0 0 208 56" fill="none" xmlns="http://www.w3.org/2000/svg">
<path d="M47.7598 1.94232C38.9995 -3.70543 26.379 3.38213 19.5538 17.7737C19.1307 18.6691 18.2124 20.696 17.8549 21.6045C17.8549 21.6045 20.6197 20.2434 20.7345 20.0007C20.8821 19.6891 21.5578 18.2591 21.7185 17.9541C27.9926 5.47134 38.8486 -0.740524 45.9887 3.8741C53.3157 8.60023 53.6076 22.9918 47.4121 36.0879C41.2166 49.184 30.8854 56.0255 23.5551 51.2994C20.5574 49.3676 18.5994 45.773 17.7467 41.3093C17.0827 41.3862 16.4108 41.3574 15.7559 41.224C16.6939 46.8783 19.1701 51.5323 23.0894 54.0577C31.8496 59.7054 44.4701 52.6179 51.2789 38.2263C58.0877 23.8347 56.5233 7.59334 47.7598 1.94232Z" fill="#333333"/>
<path d="M17.1333 28.7183C16.0094 28.7312 14.9145 29.0763 13.9863 29.7101C13.0581 30.3439 12.3382 31.2381 11.917 32.2802C11.4959 33.3222 11.3924 34.4656 11.6195 35.5663C11.8467 36.6671 12.3944 37.676 13.1937 38.4662C13.993 39.2564 15.0081 39.7925 16.1114 40.007C17.2146 40.2216 18.3567 40.105 19.3939 39.672C20.4311 39.2389 21.317 38.5087 21.9401 37.5734C22.5632 36.638 22.8958 35.5392 22.8958 34.4152C22.8915 33.6628 22.7391 32.9186 22.4472 32.225C22.1552 31.5315 21.7296 30.9023 21.1945 30.3733C20.6594 29.8443 20.0253 29.4258 19.3285 29.1419C18.6317 28.8579 17.8857 28.714 17.1333 28.7183Z" fill="#3145BF"/>
<path d="M17.1335 27.3441C19.0173 27.3371 20.827 28.0777 22.1656 29.4033C23.5041 30.7289 24.2622 32.5314 24.2735 34.4152C24.2691 35.6649 23.9293 36.8905 23.2896 37.9639H40.892C35.1196 47.5933 28.137 49.5415 23.9685 47.3113C22.8245 46.6863 21.8171 45.8388 21.0055 44.8188C20.1938 43.7988 19.5944 42.6267 19.2423 41.3716C19.5192 42.6178 19.8797 43.8439 20.3214 45.0417C21.8891 48.7347 24.7458 51.4208 28.6651 51.4208C36.0937 51.4208 42.8369 42.6278 46.2085 35.4976C52.1449 22.9525 51.8759 9.28245 45.2836 5.03189C39.5572 1.33888 31.0265 5.74687 25.1 14.8712C35.4279 0.784598 45.2771 3.57895 47.0744 13.1329C47.2884 14.3314 47.3981 15.5461 47.4023 16.7636C44.8671 16.4061 42.5778 16.1929 40.5312 16.0716C32.4663 15.596 32.4663 16.9046 20.5247 23.6904C5.23449 23.838 0 29.9449 0 29.9449V31.5127C2.40412 30.5707 4.9614 30.0803 7.54344 30.0663L5.03115 34.9859C5.03115 34.9859 1.72843 35.4025 0.00327295 35.7239V37.9639H10.9937C10.3525 36.8911 10.0126 35.6651 10.0098 34.4152C10.0202 32.534 10.7758 30.7335 12.111 29.4081C13.4461 28.0828 15.2522 27.3406 17.1335 27.3441ZM35.7756 18.5379C37.7172 18.1411 41.9842 18.3116 47.3105 19.1053C47.1779 20.845 46.9181 22.5725 46.5332 24.2742C41.4922 24.3464 36.8645 24.1824 32.3974 24.2545C32.7254 23.7068 32.9058 23.0214 32.2958 22.6147C31.4955 22.0833 30.0983 22.9426 29.0521 24.3693C27.4778 24.4513 25.9134 24.576 24.3489 24.7695C24.3489 24.7662 31.9908 19.3087 35.7756 18.5379Z" fill="#3145BF"/>
<path d="M61.648 35C61.296 35 61 34.88 60.76 34.64C60.52 34.4 60.4 34.104 60.4 33.752V17.504C60.4 17.136 60.52 16.84 60.76 16.616C61 16.376 61.296 16.256 61.648 16.256H66.448C67.648 16.256 68.712 16.52 69.64 17.048C70.568 17.576 71.288 18.312 71.8 19.256C72.328 20.184 72.592 21.256 72.592 22.472C72.592 23.64 72.328 24.68 71.8 25.592C71.288 26.504 70.568 27.216 69.64 27.728C68.712 28.24 67.648 28.496 66.448 28.496H62.896V33.752C62.896 34.104 62.776 34.4 62.536 34.64C62.312 34.88 62.016 35 61.648 35ZM62.896 26.192H66.448C67.184 26.192 67.832 26.032 68.392 25.712C68.952 25.392 69.392 24.952 69.712 24.392C70.032 23.832 70.192 23.192 70.192 22.472C70.192 21.704 70.032 21.032 69.712 20.456C69.392 19.864 68.952 19.4 68.392 19.064C67.832 18.728 67.184 18.56 66.448 18.56H62.896V26.192ZM80.8364 35.096C79.5404 35.096 78.3964 34.816 77.4044 34.256C76.4124 33.68 75.6284 32.896 75.0524 31.904C74.4924 30.896 74.2124 29.744 74.2124 28.448C74.2124 27.136 74.4924 25.984 75.0524 24.992C75.6284 23.984 76.4124 23.2 77.4044 22.64C78.3964 22.064 79.5404 21.776 80.8364 21.776C82.1164 21.776 83.2524 22.064 84.2444 22.64C85.2364 23.2 86.0124 23.984 86.5724 24.992C87.1484 25.984 87.4364 27.136 87.4364 28.448C87.4364 29.744 87.1564 30.896 86.5964 31.904C86.0364 32.896 85.2604 33.68 84.2684 34.256C83.2764 34.816 82.1324 35.096 80.8364 35.096ZM80.8364 32.936C81.6684 32.936 82.4044 32.744 83.0444 32.36C83.6844 31.976 84.1804 31.448 84.5324 30.776C84.9004 30.104 85.0844 29.328 85.0844 28.448C85.0844 27.568 84.9004 26.792 84.5324 26.12C84.1804 25.432 83.6844 24.896 83.0444 24.512C82.4044 24.128 81.6684 23.936 80.8364 23.936C80.0044 23.936 79.2684 24.128 78.6284 24.512C77.9884 24.896 77.4844 25.432 77.1164 26.12C76.7484 26.792 76.5644 27.568 76.5644 28.448C76.5644 29.328 76.7484 30.104 77.1164 30.776C77.4844 31.448 77.9884 31.976 78.6284 32.36C79.2684 32.744 80.0044 32.936 80.8364 32.936ZM92.4957 26.792C92.4957 25.832 92.7277 24.976 93.1917 24.224C93.6717 23.456 94.3117 22.848 95.1117 22.4C95.9117 21.952 96.7917 21.728 97.7517 21.728C98.7117 21.728 99.4237 21.888 99.8877 22.208C100.368 22.512 100.552 22.88 100.44 23.312C100.392 23.536 100.296 23.712 100.152 23.84C100.024 23.952 99.8717 24.024 99.6957 24.056C99.5197 24.088 99.3277 24.08 99.1197 24.032C98.0957 23.824 97.1757 23.808 96.3597 23.984C95.5437 24.16 94.8957 24.488 94.4157 24.968C93.9517 25.448 93.7197 26.056 93.7197 26.792H92.4957ZM92.5197 35C92.1357 35 91.8397 34.904 91.6317 34.712C91.4237 34.504 91.3197 34.2 91.3197 33.8V23.072C91.3197 22.688 91.4237 22.392 91.6317 22.184C91.8397 21.976 92.1357 21.872 92.5197 21.872C92.9197 21.872 93.2157 21.976 93.4077 22.184C93.6157 22.376 93.7197 22.672 93.7197 23.072V33.8C93.7197 34.184 93.6157 34.48 93.4077 34.688C93.2157 34.896 92.9197 35 92.5197 35ZM108.008 35C107.208 35 106.488 34.8 105.848 34.4C105.208 33.984 104.704 33.424 104.336 32.72C103.968 32.016 103.784 31.224 103.784 30.344V18.896C103.784 18.544 103.896 18.256 104.12 18.032C104.344 17.808 104.632 17.696 104.984 17.696C105.336 17.696 105.624 17.808 105.848 18.032C106.072 18.256 106.184 18.544 106.184 18.896V30.344C106.184 30.984 106.36 31.52 106.712 31.952C107.064 32.384 107.496 32.6 108.008 32.6H108.824C109.112 32.6 109.352 32.712 109.544 32.936C109.752 33.16 109.856 33.448 109.856 33.8C109.856 34.152 109.72 34.44 109.448 34.664C109.192 34.888 108.856 35 108.44 35H108.008ZM102.68 24.416C102.344 24.416 102.072 24.32 101.864 24.128C101.656 23.936 101.552 23.696 101.552 23.408C101.552 23.088 101.656 22.832 101.864 22.64C102.072 22.448 102.344 22.352 102.68 22.352H108.224C108.56 22.352 108.832 22.448 109.04 22.64C109.248 22.832 109.352 23.088 109.352 23.408C109.352 23.696 109.248 23.936 109.04 24.128C108.832 24.32 108.56 24.416 108.224 24.416H102.68ZM118.576 35.096C117.408 35.096 116.36 34.808 115.432 34.232C114.504 33.64 113.768 32.848 113.224 31.856C112.696 30.848 112.432 29.712 112.432 28.448C112.432 27.184 112.72 26.048 113.296 25.04C113.888 24.032 114.68 23.24 115.672 22.664C116.68 22.072 117.808 21.776 119.056 21.776C120.304 21.776 121.424 22.072 122.416 22.664C123.408 23.24 124.192 24.032 124.768 25.04C125.36 26.048 125.656 27.184 125.656 28.448H124.72C124.72 29.712 124.448 30.848 123.904 31.856C123.376 32.848 122.648 33.64 121.72 34.232C120.792 34.808 119.744 35.096 118.576 35.096ZM119.056 32.936C119.872 32.936 120.6 32.744 121.24 32.36C121.88 31.96 122.384 31.424 122.752 30.752C123.12 30.064 123.304 29.296 123.304 28.448C123.304 27.584 123.12 26.816 122.752 26.144C122.384 25.456 121.88 24.92 121.24 24.536C120.6 24.136 119.872 23.936 119.056 23.936C118.256 23.936 117.528 24.136 116.872 24.536C116.232 24.92 115.72 25.456 115.336 26.144C114.968 26.816 114.784 27.584 114.784 28.448C114.784 29.296 114.968 30.064 115.336 30.752C115.72 31.424 116.232 31.96 116.872 32.36C117.528 32.744 118.256 32.936 119.056 32.936ZM124.432 35.024C124.08 35.024 123.784 34.912 123.544 34.688C123.32 34.448 123.208 34.152 123.208 33.8V30.128L123.664 27.584L125.656 28.448V33.8C125.656 34.152 125.536 34.448 125.296 34.688C125.072 34.912 124.784 35.024 124.432 35.024ZM132.66 35C131.956 35 131.332 34.808 130.788 34.424C130.244 34.04 129.82 33.52 129.516 32.864C129.212 32.192 129.06 31.424 129.06 30.56V17.456C129.06 17.104 129.172 16.816 129.396 16.592C129.62 16.368 129.908 16.256 130.26 16.256C130.612 16.256 130.9 16.368 131.124 16.592C131.348 16.816 131.46 17.104 131.46 17.456V30.56C131.46 31.152 131.572 31.64 131.796 32.024C132.02 32.408 132.308 32.6 132.66 32.6H133.26C133.58 32.6 133.836 32.712 134.028 32.936C134.236 33.16 134.34 33.448 134.34 33.8C134.34 34.152 134.188 34.44 133.884 34.664C133.58 34.888 133.188 35 132.708 35H132.66Z" fill="#333333"/>
<path d="M136.471 35C136.023 35 135.679 34.808 135.439 34.424C135.199 34.04 135.175 33.632 135.367 33.2L142.111 17.096C142.351 16.536 142.743 16.256 143.287 16.256C143.863 16.256 144.255 16.536 144.463 17.096L151.231 33.248C151.407 33.696 151.375 34.104 151.135 34.472C150.911 34.824 150.567 35 150.103 35C149.863 35 149.631 34.936 149.407 34.808C149.199 34.664 149.047 34.472 148.951 34.232L142.999 19.448H143.671L137.623 34.232C137.511 34.488 137.343 34.68 137.119 34.808C136.911 34.936 136.695 35 136.471 35ZM137.743 30.872L138.703 28.808H148.111L149.071 30.872H137.743ZM159.61 35.12C158.506 35.12 157.514 34.888 156.634 34.424C155.77 33.944 155.082 33.248 154.57 32.336C154.074 31.424 153.826 30.304 153.826 28.976V23.072C153.826 22.72 153.938 22.432 154.162 22.208C154.402 21.968 154.698 21.848 155.05 21.848C155.402 21.848 155.69 21.968 155.914 22.208C156.154 22.432 156.274 22.72 156.274 23.072V28.976C156.274 29.872 156.442 30.616 156.778 31.208C157.114 31.784 157.57 32.216 158.146 32.504C158.722 32.776 159.37 32.912 160.09 32.912C160.778 32.912 161.386 32.776 161.914 32.504C162.458 32.232 162.89 31.864 163.21 31.4C163.53 30.936 163.69 30.416 163.69 29.84H165.202C165.202 30.832 164.954 31.728 164.458 32.528C163.978 33.328 163.314 33.96 162.466 34.424C161.634 34.888 160.682 35.12 159.61 35.12ZM164.914 35C164.562 35 164.266 34.888 164.026 34.664C163.802 34.424 163.69 34.128 163.69 33.776V23.072C163.69 22.704 163.802 22.408 164.026 22.184C164.266 21.96 164.562 21.848 164.914 21.848C165.282 21.848 165.578 21.96 165.802 22.184C166.026 22.408 166.138 22.704 166.138 23.072V33.776C166.138 34.128 166.026 34.424 165.802 34.664C165.578 34.888 165.282 35 164.914 35ZM175.465 35C174.665 35 173.945 34.8 173.305 34.4C172.665 33.984 172.161 33.424 171.793 32.72C171.425 32.016 171.241 31.224 171.241 30.344V18.896C171.241 18.544 171.353 18.256 171.577 18.032C171.801 17.808 172.089 17.696 172.441 17.696C172.793 17.696 173.081 17.808 173.305 18.032C173.529 18.256 173.641 18.544 173.641 18.896V30.344C173.641 30.984 173.817 31.52 174.169 31.952C174.521 32.384 174.953 32.6 175.465 32.6H176.281C176.569 32.6 176.809 32.712 177.001 32.936C177.209 33.16 177.313 33.448 177.313 33.8C177.313 34.152 177.177 34.44 176.905 34.664C176.649 34.888 176.313 35 175.897 35H175.465ZM170.137 24.416C169.801 24.416 169.529 24.32 169.321 24.128C169.113 23.936 169.009 23.696 169.009 23.408C169.009 23.088 169.113 22.832 169.321 22.64C169.529 22.448 169.801 22.352 170.137 22.352H175.681C176.017 22.352 176.289 22.448 176.497 22.64C176.705 22.832 176.809 23.088 176.809 23.408C176.809 23.696 176.705 23.936 176.497 24.128C176.289 24.32 176.017 24.416 175.681 24.416H170.137ZM186.514 35.096C185.218 35.096 184.074 34.816 183.082 34.256C182.09 33.68 181.306 32.896 180.73 31.904C180.17 30.896 179.89 29.744 179.89 28.448C179.89 27.136 180.17 25.984 180.73 24.992C181.306 23.984 182.09 23.2 183.082 22.64C184.074 22.064 185.218 21.776 186.514 21.776C187.794 21.776 188.93 22.064 189.922 22.64C190.914 23.2 191.69 23.984 192.25 24.992C192.826 25.984 193.114 27.136 193.114 28.448C193.114 29.744 192.834 30.896 192.274 31.904C191.714 32.896 190.938 33.68 189.946 34.256C188.954 34.816 187.81 35.096 186.514 35.096ZM186.514 32.936C187.346 32.936 188.082 32.744 188.722 32.36C189.362 31.976 189.858 31.448 190.21 30.776C190.578 30.104 190.762 29.328 190.762 28.448C190.762 27.568 190.578 26.792 190.21 26.12C189.858 25.432 189.362 24.896 188.722 24.512C188.082 24.128 187.346 23.936 186.514 23.936C185.682 23.936 184.946 24.128 184.306 24.512C183.666 24.896 183.162 25.432 182.794 26.12C182.426 26.792 182.242 27.568 182.242 28.448C182.242 29.328 182.426 30.104 182.794 30.776C183.162 31.448 183.666 31.976 184.306 32.36C184.946 32.744 185.682 32.936 186.514 32.936ZM201.773 35.096C200.653 35.096 199.613 34.928 198.653 34.592C197.709 34.24 196.973 33.8 196.445 33.272C196.205 33.016 196.101 32.728 196.133 32.408C196.181 32.072 196.341 31.8 196.613 31.592C196.933 31.336 197.245 31.232 197.549 31.28C197.869 31.312 198.141 31.448 198.365 31.688C198.637 31.992 199.069 32.28 199.661 32.552C200.269 32.808 200.941 32.936 201.677 32.936C202.605 32.936 203.309 32.784 203.789 32.48C204.285 32.176 204.541 31.784 204.557 31.304C204.573 30.824 204.341 30.408 203.861 30.056C203.397 29.704 202.541 29.416 201.293 29.192C199.677 28.872 198.501 28.392 197.765 27.752C197.045 27.112 196.685 26.328 196.685 25.4C196.685 24.584 196.925 23.912 197.405 23.384C197.885 22.84 198.501 22.44 199.253 22.184C200.005 21.912 200.789 21.776 201.605 21.776C202.661 21.776 203.597 21.944 204.413 22.28C205.229 22.616 205.877 23.08 206.357 23.672C206.581 23.928 206.685 24.2 206.669 24.488C206.653 24.76 206.517 24.992 206.261 25.184C206.005 25.36 205.701 25.416 205.349 25.352C204.997 25.288 204.701 25.144 204.461 24.92C204.061 24.536 203.629 24.272 203.165 24.128C202.701 23.984 202.165 23.912 201.557 23.912C200.853 23.912 200.253 24.032 199.757 24.272C199.277 24.512 199.037 24.864 199.037 25.328C199.037 25.616 199.109 25.88 199.253 26.12C199.413 26.344 199.717 26.552 200.165 26.744C200.613 26.92 201.269 27.096 202.133 27.272C203.333 27.512 204.277 27.816 204.965 28.184C205.669 28.552 206.173 28.984 206.477 29.48C206.781 29.96 206.933 30.52 206.933 31.16C206.933 31.896 206.733 32.56 206.333 33.152C205.949 33.744 205.373 34.216 204.605 34.568C203.853 34.92 202.909 35.096 201.773 35.096Z" fill="#3145BF"/>
</svg>
