<svg width="800" height="140" viewBox="0 0 800 140" fill="none" xmlns="http://www.w3.org/2000/svg">
<path fill-rule="evenodd" clip-rule="evenodd" d="M86.4 37.958C82.1347 27.7726 74.0347 19.6734 63.849 15.409C58.6466 13.1967 53.0471 12.0707 47.394 12.1H16.922C15.3842 12.0714 13.8568 12.3584 12.4343 12.9432C11.0117 13.5279 9.72411 14.3981 8.65098 15.5C7.54938 16.5733 6.67936 17.8609 6.0946 19.2834C5.50984 20.7059 5.22273 22.2332 5.25098 23.771V112.052C5.22231 113.59 5.50923 115.117 6.09402 116.54C6.67881 117.962 7.54904 119.25 8.65098 120.323C9.72407 121.425 11.0117 122.295 12.4342 122.88C13.8568 123.465 15.3842 123.752 16.922 123.723C18.4598 123.751 19.987 123.464 21.4095 122.879C22.8321 122.295 24.1197 121.425 25.193 120.323C26.2949 119.25 27.1651 117.962 27.7499 116.54C28.3347 115.117 28.6216 113.59 28.593 112.052V96.725H47.394C53.0472 96.7558 58.6469 95.6301 63.849 93.417C74.0347 89.1526 82.1347 81.0533 86.4 70.868C88.5838 65.6568 89.7085 60.0632 89.7085 54.413C89.7085 48.7628 88.5838 43.1691 86.4 37.958V37.958ZM64.9 61.813C63.9248 64.0565 62.5336 66.095 60.8 67.821C59.0529 69.5668 56.9832 70.9566 54.706 71.913C52.3941 72.8978 49.9059 73.4014 47.393 73.393H28.589V35.433H47.394C49.9067 35.426 52.3947 35.9295 54.707 36.913C59.3066 38.8422 62.9647 42.5004 64.894 47.1C65.8775 49.4122 66.381 51.9002 66.374 54.413C66.3989 56.9555 65.8949 59.4755 64.894 61.813H64.9ZM112.6 43.008C107.603 45.1581 103.054 48.2296 99.193 52.062C91.3352 59.9959 86.9489 70.725 86.9978 81.8915C87.0467 93.0579 91.527 103.748 99.454 111.613C103.301 115.398 107.857 118.386 112.861 120.406C118.059 122.514 123.62 123.579 129.229 123.541C134.912 123.589 140.544 122.463 145.771 120.232C150.758 118.109 155.282 115.033 159.092 111.178C162.876 107.328 165.916 102.812 168.059 97.857C170.257 92.6623 171.382 87.077 171.367 81.4366C171.352 75.7961 170.197 70.2169 167.972 65.034C165.783 60.0361 162.683 55.4894 158.83 51.626C154.978 47.7818 150.428 44.7087 145.423 42.572C140.31 40.3668 134.797 39.2406 129.229 39.264C123.5 39.4538 117.858 40.724 112.6 43.008V43.008ZM142.985 67.995C146.549 71.6329 148.602 76.4859 148.731 81.577C148.745 84.1835 148.211 86.7638 147.164 89.151C146.158 91.474 144.742 93.5974 142.985 95.42C141.224 97.2331 139.124 98.6826 136.804 99.686C134.416 100.732 131.836 101.267 129.229 101.254C126.65 101.273 124.097 100.738 121.742 99.686C119.437 98.6548 117.342 97.2088 115.56 95.42C113.757 93.6168 112.31 91.49 111.294 89.151C110.248 86.7637 109.714 84.1834 109.727 81.577C109.702 78.9129 110.236 76.2732 111.294 73.828C112.297 71.5081 113.747 69.408 115.56 67.647C117.349 65.9119 119.446 64.5244 121.742 63.555C124.112 62.5593 126.659 62.0558 129.229 62.075C131.799 62.1084 134.337 62.6486 136.698 63.6644C139.059 64.6803 141.196 66.1519 142.987 67.995H142.985Z" fill="#131010"/>
<path fill-rule="evenodd" clip-rule="evenodd" d="M292.908 107.869C292.451 109.249 291.676 110.502 290.644 111.526C286.772 115.345 282.226 118.415 277.237 120.58C272.283 122.686 266.949 123.753 261.565 123.715C255.738 123.753 249.954 122.72 244.501 120.667C239.28 118.71 234.49 115.753 230.401 111.961C226.295 108.133 223.008 103.513 220.737 98.379C218.293 92.8059 217.019 86.7904 216.994 80.705V62.259C214.26 62.2852 211.551 62.7822 208.986 63.728C206.709 64.6848 204.639 66.0745 202.891 67.82C201.122 69.6 199.704 71.6964 198.709 74C197.651 76.445 197.116 79.0848 197.141 81.749V113.439C196.992 116.273 195.78 118.947 193.746 120.927C192.661 121.935 191.386 122.716 189.995 123.224C188.604 123.733 187.125 123.958 185.646 123.887C184.203 123.929 182.765 123.682 181.42 123.158C180.074 122.635 178.847 121.846 177.811 120.84C175.663 118.681 174.417 115.785 174.328 112.74V80.532C174.414 75.0888 175.63 69.7228 177.898 64.774C180.084 59.9505 183.155 55.5799 186.952 51.889C190.786 48.1923 195.274 45.2402 200.186 43.183C204.861 41.195 211.509 40.039 216.986 39.692V23.419C216.959 21.9294 217.266 20.4527 217.883 19.0969C218.501 17.741 219.414 16.5405 220.555 15.583C222.821 13.5367 225.773 12.4178 228.826 12.449C230.352 12.4157 231.867 12.7008 233.277 13.2863C234.686 13.8717 235.957 14.7445 237.01 15.849C239.219 18.1232 240.519 21.1271 240.666 24.294V38.224H270.616C272.151 38.1694 273.68 38.4524 275.094 39.053C276.508 39.6536 277.773 40.5572 278.8 41.7C280.853 43.927 281.974 46.8557 281.934 49.884C281.926 51.3986 281.614 52.8962 281.016 54.2876C280.418 55.6791 279.546 56.9362 278.452 57.984C277.464 59.0889 276.257 59.9766 274.909 60.5912C273.56 61.2057 272.098 61.5335 270.616 61.554H240.67V80.706C240.655 83.304 241.159 85.8789 242.151 88.28C243.116 90.6302 244.503 92.7842 246.242 94.636C247.984 96.4942 250.088 97.9756 252.424 98.989C254.869 100.047 257.508 100.581 260.172 100.556C262.807 100.619 265.432 100.206 267.921 99.337C270.048 98.5386 271.978 97.2913 273.58 95.68C275.809 93.6738 278.682 92.5313 281.68 92.459C284.778 92.4571 287.75 93.6791 289.951 95.859C291.068 96.8476 291.959 98.0652 292.563 99.429C293.138 100.751 293.463 102.168 293.52 103.608C293.576 105.054 293.368 106.497 292.908 107.869V107.869Z" fill="#131010"/>
<path fill-rule="evenodd" clip-rule="evenodd" d="M322.134 38.278H319.609C311.302 38.1591 303.158 40.59 296.276 45.243C289.535 49.7576 284.22 56.0996 280.953 63.526C279.801 66.1646 278.898 68.9043 278.253 71.71C276.977 77.4439 276.977 83.3882 278.253 89.122C278.897 91.9278 279.801 94.6676 280.953 97.306C284.269 104.679 289.576 110.982 296.276 115.506C303.138 120.212 311.289 122.675 319.609 122.558C322.83 122.574 326.043 122.223 329.186 121.513C332.119 120.807 334.977 119.815 337.718 118.553C338.181 118.322 338.645 118.06 339.111 117.769C339.609 117.463 340.134 117.201 340.678 116.986C343.116 120.702 346.366 122.559 350.429 122.558C351.888 122.549 353.332 122.252 354.676 121.684C356.021 121.116 357.24 120.289 358.265 119.249C359.379 118.236 360.265 116.999 360.865 115.618C361.465 114.238 361.766 112.745 361.747 111.24V80.416C361.77 75.2005 360.795 70.0288 358.874 65.18C357.021 60.467 354.371 56.1083 351.039 52.295C347.693 48.4943 343.681 45.3371 339.2 42.979C334.629 40.5469 329.635 39.0104 324.487 38.452C323.708 38.3394 322.921 38.2812 322.134 38.278V38.278ZM312.3 98.351C310.011 97.3295 307.919 95.9151 306.118 94.172C304.295 92.4001 302.819 90.304 301.765 87.991C300.663 85.6189 300.098 83.0327 300.111 80.417C300.11 77.8679 300.644 75.347 301.678 73.017C302.695 70.679 304.142 68.5528 305.944 66.749C307.726 64.961 309.822 63.5151 312.126 62.483C314.423 61.4432 316.917 60.9089 319.439 60.916C321.988 60.9153 324.509 61.4491 326.839 62.483C331.557 64.5327 335.321 68.2969 337.37 73.015C338.404 75.345 338.938 77.8659 338.937 80.415C338.962 83.0792 338.428 85.719 337.37 88.164C336.376 90.468 334.959 92.5647 333.191 94.345C331.422 96.1052 329.32 97.4962 327.009 98.437C324.608 99.4284 322.033 99.9315 319.435 99.917C316.972 99.9111 314.539 99.3771 312.3 98.351V98.351ZM367.148 15.119C365.103 17.1189 363.811 19.7637 363.492 22.606V92.082C363.48 96.0894 364.28 100.058 365.842 103.748C367.352 107.378 369.538 110.687 372.285 113.499C375.017 116.288 378.232 118.559 381.775 120.199C385.371 121.883 389.296 122.745 393.267 122.724H395.7C398.556 122.346 401.182 120.956 403.1 118.806C404.071 117.768 404.824 116.546 405.315 115.212C405.807 113.879 406.026 112.46 405.961 111.04C405.896 109.621 405.547 108.228 404.936 106.945C404.324 105.662 403.462 104.515 402.4 103.57C400.268 101.533 397.426 100.409 394.478 100.436C393.402 100.467 392.332 100.265 391.341 99.8445C390.35 99.4241 389.462 98.795 388.736 98C387.235 96.3994 386.422 94.2737 386.472 92.08V23.3C386.316 20.2288 385.047 17.3194 382.902 15.116C381.884 14.0443 380.654 13.1966 379.29 12.627C377.926 12.0574 376.458 11.7785 374.98 11.808C372.035 11.8445 369.222 13.0331 367.144 15.119H367.148Z" fill="#131010"/>
<path fill-rule="evenodd" clip-rule="evenodd" d="M454.469 38.278H451.944C443.637 38.159 435.493 40.5899 428.611 45.243C421.869 49.7573 416.554 56.0993 413.288 63.526C412.136 66.1643 411.232 68.9042 410.588 71.71C409.312 77.4438 409.312 83.3881 410.588 89.122C411.232 91.9279 412.136 94.6678 413.288 97.306C416.604 104.679 421.91 110.982 428.611 115.506C435.473 120.212 443.624 122.675 451.944 122.558C455.165 122.574 458.378 122.223 461.521 121.513C464.454 120.807 467.312 119.815 470.053 118.553C470.515 118.322 470.981 118.061 471.446 117.769C471.944 117.463 472.469 117.201 473.013 116.986C475.451 120.702 478.701 122.559 482.764 122.558C484.223 122.549 485.666 122.251 487.011 121.684C488.355 121.116 489.574 120.289 490.599 119.249C491.713 118.236 492.599 116.999 493.2 115.618C493.8 114.238 494.101 112.745 494.082 111.24V80.416C494.105 75.2005 493.13 70.0288 491.209 65.18C489.356 60.4667 486.706 56.108 483.373 52.295C480.027 48.4938 476.014 45.3365 471.533 42.979C466.961 40.5467 461.967 39.0102 456.819 38.452C456.04 38.3394 455.255 38.2813 454.469 38.278V38.278ZM444.631 98.351C442.342 97.3294 440.25 95.9151 438.449 94.172C436.628 92.3994 435.153 90.303 434.1 87.99C432.997 85.618 432.432 83.0317 432.446 80.416C432.445 77.8669 432.979 75.3459 434.013 73.016C435.03 70.678 436.477 68.5518 438.279 66.748C440.061 64.96 442.156 63.5141 444.46 62.482C446.758 61.4423 449.252 60.9079 451.774 60.915C454.323 60.9143 456.844 61.4481 459.174 62.482C463.893 64.5321 467.658 68.2969 469.709 73.016C470.742 75.3461 471.276 77.8669 471.276 80.416C471.301 83.0801 470.767 85.7198 469.709 88.165C468.715 90.4689 467.298 92.5656 465.53 94.346C463.76 96.106 461.659 97.4969 459.348 98.438C456.946 99.4294 454.372 99.9325 451.774 99.918C449.308 99.913 446.872 99.3786 444.631 98.351V98.351ZM498.7 41.673C497.668 42.7164 496.852 43.9535 496.299 45.3132C495.746 46.6728 495.467 48.1283 495.479 49.596V81.635C495.463 87.1362 496.651 92.5742 498.961 97.567C503.49 107.56 511.643 115.463 521.772 119.681C526.831 121.82 532.304 122.802 537.791 122.554C543.474 122.602 549.106 121.476 554.333 119.245C564.44 114.94 572.488 106.891 576.79 96.783C579.008 91.6133 580.135 86.0413 580.1 80.416V49.073C579.935 46.1814 578.655 43.4663 576.53 41.499C575.484 40.4088 574.225 39.5447 572.832 38.9599C571.439 38.3751 569.941 38.0821 568.43 38.099C566.918 38.1388 565.429 38.4833 564.053 39.1116C562.677 39.7399 561.441 40.6393 560.421 41.756C559.381 42.7804 558.554 43.9998 557.986 45.3444C557.418 46.689 557.121 48.1324 557.112 49.592V81.286C557.131 83.865 556.597 86.4182 555.545 88.773C554.552 91.0227 553.099 93.0393 551.279 94.693C549.464 96.3286 547.37 97.626 545.098 98.524C542.772 99.4539 540.289 99.9269 537.784 99.917C535.177 99.9304 532.597 99.3966 530.21 98.35C525.55 96.3608 521.838 92.6495 519.849 87.99C518.803 85.6027 518.269 83.0225 518.282 80.416V49.77C518.263 46.7117 517.052 43.7814 514.906 41.602C512.761 39.4227 509.849 38.1663 506.792 38.1C505.272 38.1197 503.772 38.4463 502.381 39.0603C500.99 39.6743 499.738 40.563 498.7 41.673V41.673ZM585.239 14.423C584.097 15.3804 583.184 16.5809 582.566 17.9367C581.949 19.2925 581.642 20.7693 581.669 22.259V79.545C581.694 85.6305 582.968 91.646 585.413 97.219C587.684 102.352 590.971 106.972 595.077 110.8C599.166 114.592 603.955 117.549 609.177 119.507C614.63 121.559 620.414 122.592 626.241 122.554C631.624 122.592 636.957 121.525 641.912 119.42C646.901 117.254 651.447 114.184 655.32 110.365C656.351 109.341 657.127 108.088 657.584 106.708C658.044 105.335 658.25 103.889 658.193 102.442C658.136 101.002 657.811 99.5844 657.235 98.263C656.631 96.899 655.74 95.6813 654.623 94.693C652.422 92.5128 649.449 91.2907 646.352 91.293C643.354 91.3649 640.481 92.5075 638.252 94.514C636.65 96.125 634.72 97.3723 632.593 98.171C630.104 99.0397 627.479 99.4527 624.844 99.39C622.18 99.4152 619.54 98.8814 617.096 97.823C614.759 96.8098 612.655 95.3283 610.914 93.47C609.174 91.618 607.788 89.464 606.822 87.114C605.83 84.7127 605.327 82.1379 605.342 79.54V60.391H635.292C636.774 60.3706 638.235 60.0427 639.584 59.4282C640.933 58.8137 642.139 57.9259 643.127 56.821C644.221 55.7734 645.093 54.5164 645.691 53.1249C646.29 51.7334 646.602 50.2357 646.61 48.721C646.65 45.6924 645.528 42.7636 643.475 40.537C642.449 39.3927 641.184 38.4876 639.77 37.8858C638.356 37.2839 636.828 37 635.292 37.054H605.342V23.129C605.194 19.9622 603.894 16.9586 601.686 14.684C600.633 13.5796 599.361 12.7068 597.952 12.1214C596.543 11.5359 595.027 11.2508 593.502 11.284C590.449 11.2544 587.498 12.3747 585.234 14.422L585.239 14.423Z" fill="#3444BA"/>
<path fill-rule="evenodd" clip-rule="evenodd" d="M666.146 43.008C661.148 45.1578 656.6 48.2293 652.739 52.062C644.881 59.9957 640.494 70.7249 640.543 81.8915C640.592 93.0581 645.072 103.748 653 111.613C656.847 115.398 661.403 118.386 666.407 120.406C671.605 122.514 677.166 123.579 682.775 123.541C688.326 123.58 693.829 122.506 698.958 120.383C704.087 118.259 708.738 115.129 712.637 111.178C716.421 107.328 719.462 102.812 721.605 97.857C723.803 92.6623 724.928 87.077 724.913 81.4366C724.898 75.7962 723.743 70.2169 721.518 65.034C719.329 60.0362 716.229 55.4894 712.376 51.626C708.524 47.7818 703.974 44.7088 698.969 42.572C693.856 40.3668 688.343 39.2406 682.775 39.264C677.046 39.4538 671.404 40.7241 666.146 43.008V43.008ZM696.531 67.995C700.095 71.6329 702.148 76.486 702.277 81.577C702.29 84.1835 701.757 86.7638 700.71 89.151C699.704 91.474 698.288 93.5974 696.531 95.42C694.77 97.2331 692.67 98.6826 690.35 99.686C687.962 100.732 685.382 101.267 682.775 101.254C680.196 101.273 677.643 100.738 675.288 99.686C672.983 98.6548 670.888 97.2088 669.106 95.42C667.303 93.6168 665.856 91.4901 664.84 89.151C663.793 86.7638 663.259 84.1835 663.273 81.577C663.248 78.9129 663.782 76.2731 664.84 73.828C665.843 71.5081 667.293 69.408 669.106 67.647C670.895 65.9119 672.992 64.5244 675.288 63.555C677.657 62.5592 680.205 62.0557 682.775 62.075C685.344 62.1087 687.882 62.649 690.243 63.6648C692.603 64.6807 694.74 66.1522 696.531 67.995V67.995ZM751.38 39.095C747.831 39.1736 744.336 39.9735 741.106 41.446C738.033 42.8538 735.256 44.8334 732.923 47.279C730.576 49.7539 728.715 52.6482 727.438 55.811C726.113 59.0132 725.433 62.4455 725.438 65.911C725.41 69.2575 726.062 72.5748 727.354 75.662C728.654 78.7199 730.448 81.5435 732.664 84.02C734.894 86.5498 737.621 88.5944 740.674 90.027C743.749 91.479 747.111 92.223 750.512 92.204H769.666C772.799 92.204 774.366 93.7707 774.366 96.904C774.366 99.69 772.799 101.083 769.666 101.083H737.624C736.155 101.13 734.712 101.487 733.391 102.133C732.07 102.778 730.902 103.697 729.962 104.827C727.962 106.982 726.843 109.81 726.828 112.75C726.792 114.216 727.069 115.673 727.64 117.023C728.21 118.374 729.061 119.588 730.137 120.585C731.172 121.598 732.397 122.396 733.742 122.934C735.086 123.472 736.524 123.739 737.972 123.72H770.011C773.763 123.779 777.491 123.099 780.981 121.72C784.144 120.443 787.038 118.582 789.513 116.235C792.017 113.817 794.002 110.914 795.346 107.703C796.803 104.295 797.486 100.607 797.346 96.903C797.396 93.6678 796.742 90.4605 795.43 87.503C794.077 84.605 792.286 81.9327 790.12 79.58C787.856 77.0863 785.138 75.0476 782.11 73.573C778.993 72.0527 775.567 71.2748 772.1 71.3H752.425C751.114 71.3318 749.839 70.8675 748.855 70C748.347 69.5236 747.952 68.9409 747.696 68.2937C747.44 67.6464 747.33 66.9506 747.375 66.256C747.336 65.6006 747.45 64.9451 747.706 64.3409C747.963 63.7366 748.356 63.2 748.855 62.773C749.861 61.9539 751.128 61.5216 752.425 61.554H782.374C783.801 61.5326 785.209 61.22 786.512 60.6354C787.814 60.0508 788.983 59.2064 789.948 58.154C791.026 57.1356 791.883 55.9072 792.468 54.5445C793.053 53.1819 793.352 51.7138 793.348 50.231C793.285 47.4038 792.167 44.7023 790.214 42.657C789.256 41.516 788.055 40.6034 786.7 39.9859C785.344 39.3684 783.867 39.0616 782.378 39.088H751.38V39.095Z" fill="#3444BA"/>
</svg>
