<svg width="214" height="56" viewBox="0 0 214 56" fill="none" xmlns="http://www.w3.org/2000/svg">
<path d="M47.7598 1.94232C38.9995 -3.70543 26.379 3.38213 19.5538 17.7737C19.1307 18.6691 18.2124 20.696 17.8549 21.6045C17.8549 21.6045 20.6197 20.2434 20.7345 20.0007C20.8821 19.6891 21.5578 18.2591 21.7185 17.9541C27.9926 5.47134 38.8486 -0.740524 45.9887 3.8741C53.3157 8.60023 53.6076 22.9918 47.4121 36.0879C41.2166 49.184 30.8854 56.0255 23.5551 51.2994C20.5574 49.3676 18.5994 45.773 17.7467 41.3093C17.0827 41.3862 16.4108 41.3574 15.7559 41.224C16.6939 46.8783 19.1701 51.5323 23.0894 54.0577C31.8496 59.7054 44.4701 52.6179 51.2789 38.2263C58.0877 23.8347 56.5233 7.59334 47.7598 1.94232Z" fill="#333333"/>
<path d="M17.1333 28.7183C16.0094 28.7312 14.9145 29.0763 13.9863 29.7101C13.0581 30.3439 12.3382 31.2381 11.917 32.2802C11.4959 33.3222 11.3924 34.4656 11.6195 35.5663C11.8467 36.6671 12.3944 37.676 13.1937 38.4662C13.993 39.2564 15.0081 39.7925 16.1114 40.007C17.2146 40.2216 18.3567 40.105 19.3939 39.672C20.4311 39.2389 21.317 38.5087 21.9401 37.5734C22.5632 36.638 22.8958 35.5392 22.8958 34.4152C22.8915 33.6628 22.7391 32.9186 22.4472 32.225C22.1552 31.5315 21.7296 30.9023 21.1945 30.3733C20.6594 29.8443 20.0253 29.4258 19.3285 29.1419C18.6317 28.8579 17.8857 28.714 17.1333 28.7183Z" fill="url(#paint0_linear_885_2)"/>
<path d="M17.1335 27.3441C19.0173 27.3371 20.827 28.0776 22.1656 29.4033C23.5041 30.7289 24.2622 32.5314 24.2735 34.4152C24.2691 35.6649 23.9293 36.8904 23.2896 37.9639H40.892C35.1196 47.5933 28.137 49.5415 23.9685 47.3112C22.8245 46.6862 21.8171 45.8388 21.0055 44.8188C20.1938 43.7987 19.5944 42.6267 19.2423 41.3716C19.5192 42.6178 19.8797 43.8439 20.3214 45.0416C21.8891 48.7346 24.7458 51.4208 28.6651 51.4208C36.0937 51.4208 42.8369 42.6277 46.2085 35.4975C52.1449 22.9525 51.8759 9.28242 45.2836 5.03185C39.5572 1.33885 31.0265 5.74684 25.1 14.8711C35.4279 0.784568 45.2771 3.57892 47.0744 13.1329C47.2884 14.3313 47.3981 15.5461 47.4023 16.7636C44.8671 16.4061 42.5778 16.1929 40.5312 16.0715C32.4663 15.596 32.4663 16.9046 20.5247 23.6904C5.23449 23.838 0 29.9449 0 29.9449V31.5126C2.40412 30.5706 4.9614 30.0803 7.54344 30.0663L5.03115 34.9859C5.03115 34.9859 1.72843 35.4024 0.00327295 35.7238V37.9639H10.9937C10.3525 36.8911 10.0126 35.6651 10.0098 34.4152C10.0202 32.5339 10.7758 30.7335 12.111 29.4081C13.4461 28.0828 15.2522 27.3406 17.1335 27.3441ZM35.7756 18.5379C37.7172 18.1411 41.9842 18.3116 47.3105 19.1053C47.1779 20.8449 46.9181 22.5725 46.5332 24.2742C41.4922 24.3464 36.8645 24.1824 32.3974 24.2545C32.7254 23.7068 32.9058 23.0213 32.2958 22.6146C31.4955 22.0833 30.0983 22.9426 29.0521 24.3693C27.4778 24.4513 25.9134 24.5759 24.3489 24.7694C24.3489 24.7662 31.9908 19.3086 35.7756 18.5379Z" fill="url(#paint1_linear_885_2)"/>
<path d="M67.648 35C67.296 35 67 34.88 66.76 34.64C66.52 34.4 66.4 34.104 66.4 33.752V17.504C66.4 17.136 66.52 16.84 66.76 16.616C67 16.376 67.296 16.256 67.648 16.256H72.448C73.632 16.256 74.688 16.52 75.616 17.048C76.56 17.576 77.288 18.312 77.8 19.256C78.328 20.2 78.592 21.272 78.592 22.472C78.592 23.64 78.328 24.68 77.8 25.592C77.288 26.504 76.56 27.216 75.616 27.728C74.688 28.24 73.632 28.496 72.448 28.496H68.896V33.752C68.896 34.104 68.776 34.4 68.536 34.64C68.312 34.88 68.016 35 67.648 35ZM72.448 26.192C73.536 26.192 74.432 25.848 75.136 25.16C75.84 24.456 76.192 23.56 76.192 22.472C76.192 21.336 75.84 20.4 75.136 19.664C74.432 18.928 73.536 18.56 72.448 18.56H68.896V26.192H72.448ZM86.8364 35.096C85.5564 35.096 84.4124 34.816 83.4044 34.256C82.3964 33.68 81.6124 32.888 81.0524 31.88C80.4924 30.872 80.2124 29.728 80.2124 28.448C80.2124 27.152 80.4924 26 81.0524 24.992C81.6124 23.984 82.3964 23.2 83.4044 22.64C84.4124 22.064 85.5564 21.776 86.8364 21.776C88.1004 21.776 89.2284 22.064 90.2204 22.64C91.2284 23.2 92.0124 23.984 92.5724 24.992C93.1484 26 93.4364 27.152 93.4364 28.448C93.4364 29.728 93.1564 30.872 92.5964 31.88C92.0364 32.888 91.2524 33.68 90.2444 34.256C89.2524 34.816 88.1164 35.096 86.8364 35.096ZM86.8364 32.936C87.6524 32.936 88.3804 32.744 89.0204 32.36C89.6764 31.976 90.1804 31.448 90.5324 30.776C90.9004 30.088 91.0844 29.312 91.0844 28.448C91.0844 27.584 90.9004 26.808 90.5324 26.12C90.1804 25.432 89.6764 24.896 89.0204 24.512C88.3804 24.128 87.6524 23.936 86.8364 23.936C86.0204 23.936 85.2844 24.128 84.6284 24.512C83.9884 24.896 83.4844 25.432 83.1164 26.12C82.7484 26.808 82.5644 27.584 82.5644 28.448C82.5644 29.312 82.7484 30.088 83.1164 30.776C83.4844 31.448 83.9884 31.976 84.6284 32.36C85.2844 32.744 86.0204 32.936 86.8364 32.936ZM103.752 21.728C104.6 21.728 105.264 21.856 105.744 22.112C106.224 22.368 106.464 22.688 106.464 23.072C106.464 23.184 106.456 23.264 106.44 23.312C106.296 23.824 105.976 24.08 105.48 24.08C105.4 24.08 105.28 24.064 105.12 24.032C104.48 23.92 103.96 23.864 103.56 23.864C102.408 23.864 101.48 24.128 100.776 24.656C100.072 25.184 99.7197 25.896 99.7197 26.792V33.8C99.7197 34.184 99.6157 34.48 99.4077 34.688C99.2157 34.896 98.9197 35 98.5197 35C98.1357 35 97.8397 34.904 97.6317 34.712C97.4237 34.504 97.3197 34.2 97.3197 33.8V23.072C97.3197 22.688 97.4237 22.392 97.6317 22.184C97.8397 21.976 98.1357 21.872 98.5197 21.872C99.3197 21.872 99.7197 22.272 99.7197 23.072V23.528C100.2 22.968 100.792 22.528 101.496 22.208C102.2 21.888 102.952 21.728 103.752 21.728ZM114.824 32.6C115.112 32.6 115.352 32.712 115.544 32.936C115.752 33.16 115.856 33.448 115.856 33.8C115.856 34.152 115.72 34.44 115.448 34.664C115.192 34.888 114.856 35 114.44 35H114.008C113.224 35 112.504 34.8 111.848 34.4C111.208 33.984 110.704 33.424 110.336 32.72C109.968 32.016 109.784 31.224 109.784 30.344V24.416H108.68C108.344 24.416 108.072 24.32 107.864 24.128C107.656 23.936 107.552 23.696 107.552 23.408C107.552 23.088 107.656 22.832 107.864 22.64C108.072 22.448 108.344 22.352 108.68 22.352H109.784V18.896C109.784 18.544 109.896 18.256 110.12 18.032C110.344 17.808 110.632 17.696 110.984 17.696C111.336 17.696 111.624 17.808 111.848 18.032C112.072 18.256 112.184 18.544 112.184 18.896V22.352H114.224C114.56 22.352 114.832 22.448 115.04 22.64C115.248 22.832 115.352 23.088 115.352 23.408C115.352 23.696 115.248 23.936 115.04 24.128C114.832 24.32 114.56 24.416 114.224 24.416H112.184V30.344C112.184 30.984 112.36 31.52 112.712 31.952C113.064 32.384 113.496 32.6 114.008 32.6H114.824ZM125.056 21.776C126.288 21.776 127.4 22.072 128.392 22.664C129.4 23.24 130.192 24.04 130.768 25.064C131.36 26.072 131.656 27.2 131.656 28.448V33.8C131.656 34.152 131.536 34.448 131.296 34.688C131.072 34.912 130.784 35.024 130.432 35.024C130.08 35.024 129.784 34.912 129.544 34.688C129.32 34.448 129.208 34.152 129.208 33.8V32.912C128.648 33.6 127.968 34.136 127.168 34.52C126.368 34.904 125.504 35.096 124.576 35.096C123.424 35.096 122.376 34.808 121.432 34.232C120.504 33.656 119.768 32.864 119.224 31.856C118.696 30.832 118.432 29.696 118.432 28.448C118.432 27.2 118.72 26.072 119.296 25.064C119.872 24.04 120.664 23.24 121.672 22.664C122.696 22.072 123.824 21.776 125.056 21.776ZM125.056 32.936C125.856 32.936 126.576 32.744 127.216 32.36C127.872 31.96 128.384 31.424 128.752 30.752C129.12 30.064 129.304 29.296 129.304 28.448C129.304 27.6 129.12 26.832 128.752 26.144C128.384 25.456 127.872 24.92 127.216 24.536C126.576 24.136 125.856 23.936 125.056 23.936C124.256 23.936 123.528 24.136 122.872 24.536C122.232 24.92 121.72 25.456 121.336 26.144C120.968 26.832 120.784 27.6 120.784 28.448C120.784 29.296 120.968 30.064 121.336 30.752C121.72 31.424 122.232 31.96 122.872 32.36C123.528 32.744 124.256 32.936 125.056 32.936ZM138.66 35C137.972 35 137.348 34.816 136.788 34.448C136.244 34.064 135.82 33.536 135.516 32.864C135.212 32.176 135.06 31.408 135.06 30.56V17.456C135.06 17.104 135.172 16.816 135.396 16.592C135.62 16.368 135.908 16.256 136.26 16.256C136.612 16.256 136.9 16.368 137.124 16.592C137.348 16.816 137.46 17.104 137.46 17.456V30.56C137.46 31.152 137.572 31.64 137.796 32.024C138.02 32.408 138.308 32.6 138.66 32.6H139.26C139.58 32.6 139.836 32.712 140.028 32.936C140.236 33.16 140.34 33.448 140.34 33.8C140.34 34.152 140.188 34.44 139.884 34.664C139.58 34.888 139.188 35 138.708 35H138.66Z" fill="#333333"/>
<path d="M157.231 33.248C157.311 33.456 157.351 33.632 157.351 33.776C157.351 34.112 157.231 34.4 156.991 34.64C156.751 34.88 156.455 35 156.103 35C155.863 35 155.631 34.936 155.407 34.808C155.199 34.664 155.047 34.472 154.951 34.232L153.607 30.872H144.991L143.623 34.232C143.511 34.472 143.351 34.664 143.143 34.808C142.935 34.936 142.711 35 142.471 35C142.119 35 141.823 34.88 141.583 34.64C141.359 34.384 141.247 34.088 141.247 33.752C141.247 33.592 141.287 33.408 141.367 33.2L148.111 17.096C148.351 16.536 148.743 16.256 149.287 16.256C149.863 16.256 150.255 16.536 150.463 17.096L157.231 33.248ZM145.831 28.808H152.767L149.335 20.264L145.831 28.808ZM170.914 21.848C171.282 21.848 171.578 21.96 171.802 22.184C172.026 22.408 172.138 22.704 172.138 23.072V33.776C172.138 34.128 172.026 34.424 171.802 34.664C171.578 34.888 171.282 35 170.914 35C170.562 35 170.266 34.888 170.026 34.664C169.802 34.424 169.69 34.128 169.69 33.776V33.512C169.178 34.024 168.57 34.424 167.866 34.712C167.162 34.984 166.41 35.12 165.61 35.12C164.506 35.12 163.514 34.88 162.634 34.4C161.754 33.92 161.066 33.224 160.57 32.312C160.074 31.384 159.826 30.272 159.826 28.976V23.072C159.826 22.72 159.938 22.432 160.162 22.208C160.402 21.968 160.698 21.848 161.05 21.848C161.402 21.848 161.69 21.968 161.914 22.208C162.154 22.432 162.274 22.72 162.274 23.072V28.976C162.274 30.272 162.618 31.256 163.306 31.928C164.01 32.584 164.938 32.912 166.09 32.912C166.762 32.912 167.37 32.776 167.914 32.504C168.474 32.232 168.906 31.864 169.21 31.4C169.53 30.936 169.69 30.416 169.69 29.84V23.072C169.69 22.704 169.802 22.408 170.026 22.184C170.266 21.96 170.562 21.848 170.914 21.848ZM182.281 32.6C182.569 32.6 182.809 32.712 183.001 32.936C183.209 33.16 183.313 33.448 183.313 33.8C183.313 34.152 183.177 34.44 182.905 34.664C182.649 34.888 182.313 35 181.897 35H181.465C180.681 35 179.961 34.8 179.305 34.4C178.665 33.984 178.161 33.424 177.793 32.72C177.425 32.016 177.241 31.224 177.241 30.344V24.416H176.137C175.801 24.416 175.529 24.32 175.321 24.128C175.113 23.936 175.009 23.696 175.009 23.408C175.009 23.088 175.113 22.832 175.321 22.64C175.529 22.448 175.801 22.352 176.137 22.352H177.241V18.896C177.241 18.544 177.353 18.256 177.577 18.032C177.801 17.808 178.089 17.696 178.441 17.696C178.793 17.696 179.081 17.808 179.305 18.032C179.529 18.256 179.641 18.544 179.641 18.896V22.352H181.681C182.017 22.352 182.289 22.448 182.497 22.64C182.705 22.832 182.809 23.088 182.809 23.408C182.809 23.696 182.705 23.936 182.497 24.128C182.289 24.32 182.017 24.416 181.681 24.416H179.641V30.344C179.641 30.984 179.817 31.52 180.169 31.952C180.521 32.384 180.953 32.6 181.465 32.6H182.281ZM192.514 35.096C191.234 35.096 190.09 34.816 189.082 34.256C188.074 33.68 187.29 32.888 186.73 31.88C186.17 30.872 185.89 29.728 185.89 28.448C185.89 27.152 186.17 26 186.73 24.992C187.29 23.984 188.074 23.2 189.082 22.64C190.09 22.064 191.234 21.776 192.514 21.776C193.778 21.776 194.906 22.064 195.898 22.64C196.906 23.2 197.69 23.984 198.25 24.992C198.826 26 199.114 27.152 199.114 28.448C199.114 29.728 198.834 30.872 198.274 31.88C197.714 32.888 196.93 33.68 195.922 34.256C194.93 34.816 193.794 35.096 192.514 35.096ZM192.514 32.936C193.33 32.936 194.058 32.744 194.698 32.36C195.354 31.976 195.858 31.448 196.21 30.776C196.578 30.088 196.762 29.312 196.762 28.448C196.762 27.584 196.578 26.808 196.21 26.12C195.858 25.432 195.354 24.896 194.698 24.512C194.058 24.128 193.33 23.936 192.514 23.936C191.698 23.936 190.962 24.128 190.306 24.512C189.666 24.896 189.162 25.432 188.794 26.12C188.426 26.808 188.242 27.584 188.242 28.448C188.242 29.312 188.426 30.088 188.794 30.776C189.162 31.448 189.666 31.976 190.306 32.36C190.962 32.744 191.698 32.936 192.514 32.936ZM207.773 35.096C206.685 35.096 205.661 34.928 204.701 34.592C203.741 34.256 202.989 33.816 202.445 33.272C202.237 33.064 202.133 32.816 202.133 32.528C202.133 32.144 202.293 31.832 202.613 31.592C202.917 31.368 203.197 31.256 203.453 31.256C203.773 31.256 204.077 31.4 204.365 31.688C204.669 32.024 205.125 32.32 205.733 32.576C206.341 32.816 206.989 32.936 207.677 32.936C208.589 32.936 209.293 32.784 209.789 32.48C210.301 32.176 210.557 31.768 210.557 31.256C210.557 30.76 210.309 30.352 209.813 30.032C209.317 29.696 208.477 29.416 207.293 29.192C204.221 28.6 202.685 27.336 202.685 25.4C202.685 24.616 202.917 23.952 203.381 23.408C203.845 22.864 204.453 22.456 205.205 22.184C205.957 21.912 206.757 21.776 207.605 21.776C208.645 21.776 209.573 21.944 210.389 22.28C211.221 22.616 211.877 23.08 212.357 23.672C212.565 23.928 212.669 24.184 212.669 24.44C212.669 24.712 212.533 24.96 212.261 25.184C212.085 25.312 211.861 25.376 211.589 25.376C211.173 25.376 210.797 25.224 210.461 24.92C210.061 24.552 209.637 24.296 209.189 24.152C208.741 23.992 208.197 23.912 207.557 23.912C206.821 23.912 206.213 24.04 205.733 24.296C205.269 24.536 205.037 24.88 205.037 25.328C205.037 25.648 205.117 25.92 205.277 26.144C205.437 26.352 205.741 26.552 206.189 26.744C206.637 26.92 207.285 27.096 208.133 27.272C209.877 27.624 211.109 28.112 211.829 28.736C212.565 29.36 212.933 30.168 212.933 31.16C212.933 31.896 212.733 32.568 212.333 33.176C211.933 33.768 211.341 34.24 210.557 34.592C209.789 34.928 208.861 35.096 207.773 35.096Z" fill="url(#paint2_linear_885_2)"/>
<defs>
<linearGradient id="paint0_linear_885_2" x1="17.1989" y1="28.7182" x2="17.1989" y2="40.1118" gradientUnits="userSpaceOnUse">
<stop stop-color="#D21B60"/>
<stop offset="1" stop-color="#F3123C"/>
</linearGradient>
<linearGradient id="paint1_linear_885_2" x1="25.2275" y1="3.72595" x2="25.2275" y2="51.4208" gradientUnits="userSpaceOnUse">
<stop stop-color="#D21B60"/>
<stop offset="1" stop-color="#F3123C"/>
</linearGradient>
<linearGradient id="paint2_linear_885_2" x1="139" y1="14" x2="139" y2="41" gradientUnits="userSpaceOnUse">
<stop stop-color="#D21B60"/>
<stop offset="1" stop-color="#F3123C"/>
</linearGradient>
</defs>
</svg>
