<svg width="158" height="28" viewBox="0 0 158 28" fill="none" xmlns="http://www.w3.org/2000/svg">
<path d="M39.096 6.664C39.8 6.664 40.48 6.808 41.136 7.096C41.792 7.384 42.368 7.776 42.864 8.272C43.376 8.752 43.776 9.328 44.064 10C44.368 10.656 44.52 11.36 44.52 12.112C44.52 12.864 44.376 13.576 44.088 14.248C43.816 14.904 43.44 15.48 42.96 15.976C42.48 16.472 41.904 16.864 41.232 17.152C40.576 17.44 39.864 17.584 39.096 17.584C38.728 17.584 38.352 17.528 37.968 17.416C37.6 17.288 37.24 17.088 36.888 16.816V20.368C36.888 20.832 36.728 21.224 36.408 21.544C36.088 21.848 35.704 22 35.256 22C34.808 22 34.424 21.848 34.104 21.544C33.8 21.224 33.648 20.832 33.648 20.368V12.112C33.664 11.408 33.816 10.728 34.104 10.072C34.392 9.416 34.784 8.84 35.28 8.344C35.776 7.832 36.344 7.424 36.984 7.12C37.64 6.816 38.344 6.664 39.096 6.664ZM39.096 14.344C39.704 14.344 40.224 14.136 40.656 13.72C41.088 13.288 41.304 12.752 41.304 12.112C41.304 11.808 41.24 11.52 41.112 11.248C41 10.976 40.84 10.744 40.632 10.552C40.44 10.344 40.208 10.184 39.936 10.072C39.68 9.96 39.4 9.904 39.096 9.904C38.792 9.904 38.504 9.96 38.232 10.072C37.96 10.184 37.72 10.344 37.512 10.552C37.32 10.744 37.168 10.976 37.056 11.248C36.944 11.52 36.888 11.808 36.888 12.112C36.888 12.432 36.944 12.728 37.056 13C37.168 13.272 37.32 13.512 37.512 13.72C37.72 13.912 37.96 14.064 38.232 14.176C38.504 14.288 38.792 14.344 39.096 14.344ZM51.2942 10.6C52.0782 10.6 52.8222 10.752 53.5262 11.056C54.2302 11.36 54.8462 11.776 55.3742 12.304C55.9022 12.832 56.3182 13.448 56.6222 14.152C56.9422 14.856 57.1022 15.616 57.1022 16.432C57.1022 17.232 56.9502 17.984 56.6462 18.688C56.3422 19.376 55.9262 19.984 55.3982 20.512C54.8862 21.04 54.2782 21.456 53.5742 21.76C52.8702 22.064 52.1102 22.216 51.2942 22.216C50.4942 22.216 49.7422 22.072 49.0382 21.784C48.3342 21.496 47.7182 21.096 47.1902 20.584C46.6622 20.056 46.2462 19.44 45.9422 18.736C45.6382 18.032 45.4862 17.264 45.4862 16.432C45.4862 15.632 45.6302 14.888 45.9182 14.2C46.2222 13.496 46.6302 12.888 47.1422 12.376C47.6702 11.848 48.2862 11.432 48.9902 11.128C49.7102 10.808 50.4782 10.632 51.2942 10.6ZM51.2942 13.744C50.9262 13.744 50.5822 13.816 50.2622 13.96C49.9422 14.088 49.6542 14.272 49.3982 14.512C49.1582 14.752 48.9662 15.04 48.8222 15.376C48.6782 15.696 48.6062 16.048 48.6062 16.432C48.6062 16.8 48.6782 17.152 48.8222 17.488C48.9662 17.808 49.1582 18.096 49.3982 18.352C49.6542 18.592 49.9422 18.784 50.2622 18.928C50.5822 19.072 50.9262 19.144 51.2942 19.144C51.6622 19.144 52.0062 19.072 52.3262 18.928C52.6622 18.784 52.9502 18.592 53.1902 18.352C53.4302 18.096 53.6222 17.808 53.7662 17.488C53.9102 17.152 53.9822 16.8 53.9822 16.432C53.9502 15.696 53.6862 15.072 53.1902 14.56C52.6942 14.048 52.0622 13.776 51.2942 13.744ZM59.967 22.024C59.535 22.024 59.175 21.888 58.887 21.616C58.599 21.328 58.439 20.952 58.407 20.488V16.048C58.423 15.28 58.583 14.56 58.887 13.888C59.207 13.2 59.623 12.608 60.135 12.112C60.663 11.6 61.271 11.2 61.959 10.912C62.663 10.608 63.407 10.44 64.191 10.408C64.639 10.408 65.007 10.56 65.295 10.864C65.599 11.168 65.767 11.536 65.799 11.968C65.799 12.4 65.647 12.768 65.343 13.072C65.039 13.36 64.663 13.512 64.215 13.528C63.847 13.528 63.503 13.6 63.183 13.744C62.863 13.872 62.583 14.056 62.343 14.296C62.103 14.536 61.911 14.824 61.767 15.16C61.623 15.48 61.551 15.832 61.551 16.216V20.584C61.519 21 61.359 21.344 61.071 21.616C60.799 21.888 60.431 22.024 59.967 22.024ZM68.4609 6.664C68.9089 6.664 69.2849 6.824 69.5889 7.144C69.8929 7.448 70.0609 7.832 70.0929 8.296V10.12H74.7009C75.1649 10.12 75.5409 10.28 75.8289 10.6C76.1169 10.92 76.2609 11.296 76.2609 11.728C76.2609 12.144 76.1009 12.52 75.7809 12.856C75.4609 13.176 75.1009 13.336 74.7009 13.336H70.0929V16.072C70.0929 16.44 70.1569 16.792 70.2849 17.128C70.4289 17.448 70.6209 17.736 70.8609 17.992C71.1009 18.248 71.3809 18.448 71.7009 18.592C72.0369 18.736 72.3969 18.808 72.7809 18.808C73.1969 18.808 73.5489 18.752 73.8369 18.64C74.1409 18.528 74.4049 18.36 74.6289 18.136C74.9649 17.848 75.3329 17.704 75.7329 17.704C76.1489 17.688 76.5329 17.84 76.8849 18.16C77.0449 18.304 77.1649 18.472 77.2449 18.664C77.3249 18.84 77.3649 19.032 77.3649 19.24C77.3809 19.432 77.3569 19.624 77.2929 19.816C77.2289 20.008 77.1249 20.176 76.9809 20.32C76.4209 20.864 75.8049 21.28 75.1329 21.568C74.4609 21.856 73.7409 22 72.9729 22C72.1409 22 71.3569 21.864 70.6209 21.592C69.8849 21.304 69.2369 20.904 68.6769 20.392C68.1169 19.864 67.6689 19.24 67.3329 18.52C67.0129 17.784 66.8449 16.968 66.8289 16.072V8.176C66.8289 7.744 66.9889 7.384 67.3089 7.096C67.6449 6.808 68.0289 6.664 68.4609 6.664ZM84.9133 10.408C85.6333 10.488 86.3053 10.696 86.9293 11.032C87.5693 11.368 88.1133 11.8 88.5613 12.328C89.0253 12.84 89.3853 13.432 89.6413 14.104C89.9133 14.76 90.0493 15.456 90.0493 16.192V20.44C90.0493 20.872 89.8893 21.24 89.5693 21.544C89.2493 21.848 88.8893 22 88.4893 22C87.9293 22 87.4813 21.744 87.1453 21.232C87.0653 21.264 86.9933 21.304 86.9293 21.352C86.8653 21.384 86.8013 21.416 86.7373 21.448C86.3533 21.624 85.9613 21.76 85.5613 21.856C85.1453 21.952 84.7053 22 84.2413 22C83.0413 22 81.9693 21.68 81.0253 21.04C80.0813 20.384 79.3773 19.544 78.9133 18.52C78.7533 18.152 78.6253 17.776 78.5293 17.392C78.4493 17.008 78.4093 16.608 78.4093 16.192C78.4093 15.776 78.4493 15.376 78.5293 14.992C78.6253 14.608 78.7533 14.232 78.9133 13.864C79.3773 12.824 80.0813 11.984 81.0253 11.344C81.9693 10.704 83.0413 10.384 84.2413 10.384C84.3693 10.384 84.4813 10.384 84.5773 10.384C84.6893 10.384 84.8013 10.392 84.9133 10.408ZM84.2173 18.88C84.5853 18.88 84.9293 18.816 85.2493 18.688C85.5853 18.544 85.8733 18.352 86.1133 18.112C86.3533 17.872 86.5453 17.592 86.6893 17.272C86.8333 16.936 86.9053 16.576 86.9053 16.192C86.9053 15.84 86.8333 15.504 86.6893 15.184C86.5453 14.848 86.3453 14.56 86.0893 14.32C85.8493 14.064 85.5613 13.864 85.2253 13.72C84.9053 13.576 84.5693 13.504 84.2173 13.504C83.8653 13.504 83.5293 13.576 83.2093 13.72C82.8893 13.864 82.6013 14.064 82.3453 14.32C82.1053 14.56 81.9133 14.848 81.7693 15.184C81.6253 15.504 81.5533 15.84 81.5533 16.192C81.5533 16.56 81.6253 16.912 81.7693 17.248C81.9293 17.568 82.1293 17.848 82.3693 18.088C82.6253 18.328 82.9133 18.52 83.2333 18.664C83.5533 18.808 83.8813 18.88 84.2173 18.88ZM93.1508 6.736C93.5828 6.736 93.9428 6.888 94.2308 7.192C94.5348 7.496 94.7028 7.872 94.7348 8.32V17.8C94.7348 18.12 94.8388 18.392 95.0468 18.616C95.2548 18.84 95.5188 18.952 95.8388 18.952C96.2548 18.952 96.6148 19.096 96.9188 19.384C97.2388 19.672 97.4068 20.032 97.4228 20.464C97.4228 20.848 97.2868 21.192 97.0148 21.496C96.7588 21.784 96.4228 21.96 96.0068 22.024H95.6708C95.1108 22.024 94.5828 21.912 94.0868 21.688C93.5908 21.448 93.1508 21.136 92.7668 20.752C92.3988 20.368 92.1028 19.92 91.8788 19.408C91.6708 18.896 91.5668 18.36 91.5668 17.8V8.224C91.6148 7.824 91.7828 7.48 92.0708 7.192C92.3588 6.904 92.7188 6.752 93.1508 6.736Z" fill="#333333"/>
<path d="M108.157 11.416C108.157 11.416 108.165 11.432 108.181 11.464V11.488V13.408V16.672V20.392C108.181 20.84 108.021 21.224 107.701 21.544C107.397 21.848 107.021 22 106.573 22C106.109 22 105.717 21.848 105.397 21.544C105.093 21.224 104.941 20.84 104.941 20.392V17.584H101.797V20.392C101.797 20.84 101.637 21.224 101.317 21.544C100.997 21.848 100.605 22 100.141 22C99.6933 22 99.3173 21.848 99.0133 21.544C98.7093 21.224 98.5573 20.84 98.5573 20.392V16.672V13.408V11.488V11.464V11.416C98.5573 10.76 98.6853 10.144 98.9413 9.568C99.1973 8.992 99.5413 8.488 99.9733 8.056C100.405 7.624 100.909 7.288 101.485 7.048C102.077 6.792 102.701 6.664 103.357 6.664C104.013 6.664 104.629 6.792 105.205 7.048C105.797 7.288 106.309 7.624 106.741 8.056C107.173 8.488 107.517 8.992 107.773 9.568C108.029 10.144 108.157 10.76 108.157 11.416ZM104.941 11.488C104.941 11.056 104.781 10.688 104.461 10.384C104.157 10.064 103.789 9.904 103.357 9.904C102.925 9.904 102.557 10.064 102.253 10.384C101.949 10.688 101.797 11.056 101.797 11.488V14.344H104.941V11.488ZM111.278 10.36C111.694 10.36 112.062 10.52 112.382 10.84C112.702 11.144 112.862 11.52 112.862 11.968V16.192C112.862 16.56 112.934 16.912 113.078 17.248C113.222 17.568 113.414 17.848 113.654 18.088C113.894 18.328 114.174 18.52 114.494 18.664C114.83 18.808 115.182 18.88 115.55 18.88C115.902 18.88 116.238 18.816 116.558 18.688C116.878 18.56 117.158 18.384 117.398 18.16C117.654 17.936 117.854 17.664 117.998 17.344C118.142 17.024 118.214 16.68 118.214 16.312V11.944C118.214 11.624 118.294 11.352 118.454 11.128C118.486 11.08 118.518 11.032 118.55 10.984C118.598 10.936 118.646 10.888 118.694 10.84C118.982 10.52 119.342 10.36 119.774 10.36C120.206 10.36 120.582 10.52 120.902 10.84C121.206 11.144 121.366 11.488 121.382 11.872V16.192C121.382 16.992 121.23 17.744 120.926 18.448C120.622 19.152 120.206 19.768 119.678 20.296C119.15 20.824 118.534 21.24 117.83 21.544C117.126 21.848 116.366 22 115.55 22C114.782 22.032 114.046 21.904 113.342 21.616C112.638 21.312 112.014 20.904 111.47 20.392C110.942 19.864 110.518 19.256 110.198 18.568C109.878 17.864 109.718 17.128 109.718 16.36V11.944C109.718 11.528 109.862 11.168 110.15 10.864C110.454 10.544 110.83 10.376 111.278 10.36ZM124.528 6.664C124.976 6.664 125.352 6.824 125.656 7.144C125.96 7.448 126.128 7.832 126.16 8.296V10.12H130.768C131.232 10.12 131.608 10.28 131.896 10.6C132.184 10.92 132.328 11.296 132.328 11.728C132.328 12.144 132.168 12.52 131.848 12.856C131.528 13.176 131.168 13.336 130.768 13.336H126.16V16.072C126.16 16.44 126.224 16.792 126.352 17.128C126.496 17.448 126.688 17.736 126.928 17.992C127.168 18.248 127.448 18.448 127.768 18.592C128.104 18.736 128.464 18.808 128.848 18.808C129.264 18.808 129.616 18.752 129.904 18.64C130.208 18.528 130.472 18.36 130.696 18.136C131.032 17.848 131.4 17.704 131.8 17.704C132.216 17.688 132.6 17.84 132.952 18.16C133.112 18.304 133.232 18.472 133.312 18.664C133.392 18.84 133.432 19.032 133.432 19.24C133.448 19.432 133.424 19.624 133.36 19.816C133.296 20.008 133.192 20.176 133.048 20.32C132.488 20.864 131.872 21.28 131.2 21.568C130.528 21.856 129.808 22 129.04 22C128.208 22 127.424 21.864 126.688 21.592C125.952 21.304 125.304 20.904 124.744 20.392C124.184 19.864 123.736 19.24 123.4 18.52C123.08 17.784 122.912 16.968 122.896 16.072V8.176C122.896 7.744 123.056 7.384 123.376 7.096C123.712 6.808 124.096 6.664 124.528 6.664ZM140.285 10.6C141.069 10.6 141.813 10.752 142.517 11.056C143.221 11.36 143.837 11.776 144.365 12.304C144.893 12.832 145.309 13.448 145.613 14.152C145.933 14.856 146.093 15.616 146.093 16.432C146.093 17.232 145.941 17.984 145.637 18.688C145.333 19.376 144.917 19.984 144.389 20.512C143.877 21.04 143.269 21.456 142.565 21.76C141.861 22.064 141.101 22.216 140.285 22.216C139.485 22.216 138.733 22.072 138.029 21.784C137.325 21.496 136.709 21.096 136.181 20.584C135.653 20.056 135.237 19.44 134.933 18.736C134.629 18.032 134.477 17.264 134.477 16.432C134.477 15.632 134.621 14.888 134.909 14.2C135.213 13.496 135.621 12.888 136.133 12.376C136.661 11.848 137.277 11.432 137.981 11.128C138.701 10.808 139.469 10.632 140.285 10.6ZM140.285 13.744C139.917 13.744 139.573 13.816 139.253 13.96C138.933 14.088 138.645 14.272 138.389 14.512C138.149 14.752 137.957 15.04 137.813 15.376C137.669 15.696 137.597 16.048 137.597 16.432C137.597 16.8 137.669 17.152 137.813 17.488C137.957 17.808 138.149 18.096 138.389 18.352C138.645 18.592 138.933 18.784 139.253 18.928C139.573 19.072 139.917 19.144 140.285 19.144C140.653 19.144 140.997 19.072 141.317 18.928C141.653 18.784 141.941 18.592 142.181 18.352C142.421 18.096 142.613 17.808 142.757 17.488C142.901 17.152 142.973 16.8 142.973 16.432C142.941 15.696 142.677 15.072 142.181 14.56C141.685 14.048 141.053 13.776 140.285 13.744ZM155.269 10.336C155.701 10.336 156.061 10.504 156.349 10.84C156.637 11.16 156.781 11.504 156.781 11.872C156.781 12.288 156.621 12.656 156.301 12.976C155.997 13.28 155.653 13.432 155.269 13.432H151.141C150.949 13.432 150.797 13.488 150.685 13.6C150.589 13.712 150.541 13.848 150.541 14.008C150.541 14.168 150.589 14.312 150.685 14.44C150.797 14.552 150.949 14.608 151.141 14.608H153.853C154.349 14.608 154.805 14.712 155.221 14.92C155.653 15.112 156.021 15.384 156.325 15.736C156.645 16.072 156.893 16.464 157.069 16.912C157.245 17.344 157.333 17.8 157.333 18.28C157.333 18.824 157.237 19.328 157.045 19.792C156.853 20.24 156.589 20.632 156.253 20.968C155.917 21.288 155.517 21.544 155.053 21.736C154.589 21.912 154.077 22 153.517 22H149.461C149.045 22 148.693 21.856 148.405 21.568C148.117 21.28 147.973 20.912 147.973 20.464C147.973 20.064 148.117 19.704 148.405 19.384C148.693 19.048 149.045 18.872 149.461 18.856H153.517C153.949 18.856 154.165 18.664 154.165 18.28C154.165 17.912 153.949 17.728 153.517 17.728H150.877C150.397 17.728 149.941 17.632 149.509 17.44C149.093 17.232 148.725 16.96 148.405 16.624C148.101 16.288 147.861 15.896 147.685 15.448C147.509 15 147.421 14.52 147.421 14.008C147.421 13.528 147.509 13.072 147.685 12.64C147.877 12.192 148.133 11.8 148.453 11.464C148.773 11.128 149.149 10.864 149.581 10.672C150.013 10.464 150.485 10.352 150.997 10.336H155.269Z" fill="#3145BF"/>
<path d="M11.2405 0.311132C6.80958 1.27629 3.32185 3.97434 1.39154 7.92271C-2.31554 15.4246 1.69864 24.7472 9.70505 27.3136C18.5231 30.1213 27.363 24.0014 27.9553 14.6788C28.5037 5.70724 19.9928 -1.61918 11.2405 0.311132ZM17.887 2.30725C25.3889 4.78595 28.6353 13.5162 24.5772 20.3601C23.0198 22.9704 20.234 25.0981 17.207 25.9755C15.4083 26.502 12.2934 26.4581 10.4728 25.8878C3.01476 23.5626 -0.494904 15.2711 3.01476 8.29561C3.36573 7.61562 4.17733 6.49691 4.81346 5.79498C8.21345 2.06596 13.1489 0.74984 17.887 2.30725Z" fill="#3145BF"/>
<path d="M11.3499 3.68917C8.27899 4.52272 5.80029 6.51884 4.41836 9.30463C2.90482 12.3756 2.90482 15.6001 4.41836 18.7368C5.16416 20.2943 6.45835 21.9175 6.96286 21.9175C7.33577 21.9175 8.93705 20.2723 8.93705 19.8775C8.93705 19.702 8.7835 19.4168 8.58608 19.2633C8.27899 19.022 8.12544 19.0439 7.57706 19.351C6.94093 19.7239 6.91899 19.702 6.50222 19.2414C6.04158 18.671 5.22997 16.653 5.05449 15.644C4.94481 15.0298 5.01061 14.964 5.66868 14.7665C6.87512 14.4156 6.72158 13.1433 5.47126 13.1433C4.98868 13.1433 4.94481 13.0775 5.05449 12.4195C5.22997 11.3885 6.04158 9.37044 6.50222 8.80012C6.91899 8.31754 6.94093 8.31754 7.59899 8.69044C8.23512 9.06334 8.27899 9.06334 8.65189 8.69044C9.02479 8.31754 9.02479 8.27367 8.65189 7.61561C8.34479 7.06722 8.32286 6.89174 8.54221 6.73819C9.24414 6.23368 11.5912 5.22465 12.2712 5.11497C12.9732 4.98336 13.039 5.02723 13.2364 5.70723C13.5874 6.91367 14.8596 6.76013 14.8596 5.50981C14.8596 5.00529 14.9035 4.98336 15.7809 5.11497C16.8557 5.29045 18.3912 5.92658 19.137 6.51884L19.6635 6.93561L16.1538 9.43624C12.0957 12.2878 11.5693 12.8143 11.5693 13.9988C11.5693 15.5123 13.1048 16.653 14.6403 16.324C15.4519 16.1485 15.9783 15.5562 18.786 11.564L21.0454 8.31754L21.4841 8.86592C22.0763 9.61173 22.7125 11.1472 22.888 12.222C23.0196 13.0995 22.9976 13.1433 22.4931 13.1433C21.2428 13.1433 21.0893 14.4156 22.2957 14.7665C22.9538 14.964 23.0196 15.0298 22.9099 15.644C22.7344 16.653 21.9228 18.671 21.4622 19.2414C21.0454 19.702 21.0234 19.7239 20.3873 19.351C19.8389 19.0439 19.6854 19.022 19.3783 19.2633C19.1809 19.4168 19.0273 19.702 19.0273 19.8775C19.0273 20.2723 20.6286 21.9175 21.0015 21.9175C21.506 21.9175 22.8002 20.2943 23.546 18.7368C24.5331 16.6969 24.9279 14.1743 24.555 12.244C23.3925 6.01432 17.3164 2.06595 11.3499 3.68917ZM17.1189 11.0156C17.0312 11.1691 16.417 12.0685 15.759 12.9898C14.9035 14.1962 14.4209 14.6788 14.0919 14.6788C13.5874 14.6788 13.1048 14.3059 13.1048 13.8891C13.1048 13.6698 16.9654 10.7304 17.2286 10.7304C17.2725 10.7304 17.2067 10.862 17.1189 11.0156Z" fill="#3145BF"/>
<path d="M11.832 19.9433C10.2307 20.3162 9.4849 21.8078 10.121 23.3214C10.5817 24.4401 11.481 24.7691 13.9817 24.7691C16.4823 24.7691 17.3816 24.4401 17.8423 23.3214C18.5003 21.764 17.7326 20.3162 16.0216 19.9214C15.0126 19.702 12.841 19.702 11.832 19.9433ZM16.2849 22.2465V22.9046H13.9817C11.9417 22.9046 11.6784 22.8607 11.6126 22.5098C11.4152 21.5446 11.6565 21.4569 14.0255 21.5227L16.2849 21.5885V22.2465Z" fill="#3145BF"/>
</svg>
