<svg width="188" height="32" viewBox="0 0 188 32" fill="none" xmlns="http://www.w3.org/2000/svg">
<path d="M41.648 24C41.296 24 41 23.88 40.76 23.64C40.52 23.4 40.4 23.104 40.4 22.752V6.504C40.4 6.136 40.52 5.84 40.76 5.616C41 5.376 41.296 5.256 41.648 5.256H46.448C47.648 5.256 48.712 5.52 49.64 6.048C50.568 6.576 51.288 7.312 51.8 8.256C52.328 9.184 52.592 10.256 52.592 11.472C52.592 12.64 52.328 13.68 51.8 14.592C51.288 15.504 50.568 16.216 49.64 16.728C48.712 17.24 47.648 17.496 46.448 17.496H42.896V22.752C42.896 23.104 42.776 23.4 42.536 23.64C42.312 23.88 42.016 24 41.648 24ZM42.896 15.192H46.448C47.184 15.192 47.832 15.032 48.392 14.712C48.952 14.392 49.392 13.952 49.712 13.392C50.032 12.832 50.192 12.192 50.192 11.472C50.192 10.704 50.032 10.032 49.712 9.456C49.392 8.864 48.952 8.4 48.392 8.064C47.832 7.728 47.184 7.56 46.448 7.56H42.896V15.192ZM60.8364 24.096C59.5404 24.096 58.3964 23.816 57.4044 23.256C56.4124 22.68 55.6284 21.896 55.0524 20.904C54.4924 19.896 54.2124 18.744 54.2124 17.448C54.2124 16.136 54.4924 14.984 55.0524 13.992C55.6284 12.984 56.4124 12.2 57.4044 11.64C58.3964 11.064 59.5404 10.776 60.8364 10.776C62.1164 10.776 63.2524 11.064 64.2444 11.64C65.2364 12.2 66.0124 12.984 66.5724 13.992C67.1484 14.984 67.4364 16.136 67.4364 17.448C67.4364 18.744 67.1564 19.896 66.5964 20.904C66.0364 21.896 65.2604 22.68 64.2684 23.256C63.2764 23.816 62.1324 24.096 60.8364 24.096ZM60.8364 21.936C61.6684 21.936 62.4044 21.744 63.0444 21.36C63.6844 20.976 64.1804 20.448 64.5324 19.776C64.9004 19.104 65.0844 18.328 65.0844 17.448C65.0844 16.568 64.9004 15.792 64.5324 15.12C64.1804 14.432 63.6844 13.896 63.0444 13.512C62.4044 13.128 61.6684 12.936 60.8364 12.936C60.0044 12.936 59.2684 13.128 58.6284 13.512C57.9884 13.896 57.4844 14.432 57.1164 15.12C56.7484 15.792 56.5644 16.568 56.5644 17.448C56.5644 18.328 56.7484 19.104 57.1164 19.776C57.4844 20.448 57.9884 20.976 58.6284 21.36C59.2684 21.744 60.0044 21.936 60.8364 21.936ZM72.4957 15.792C72.4957 14.832 72.7277 13.976 73.1917 13.224C73.6717 12.456 74.3117 11.848 75.1117 11.4C75.9117 10.952 76.7917 10.728 77.7517 10.728C78.7117 10.728 79.4237 10.888 79.8877 11.208C80.3677 11.512 80.5517 11.88 80.4397 12.312C80.3917 12.536 80.2957 12.712 80.1517 12.84C80.0237 12.952 79.8717 13.024 79.6957 13.056C79.5197 13.088 79.3277 13.08 79.1197 13.032C78.0957 12.824 77.1757 12.808 76.3597 12.984C75.5437 13.16 74.8957 13.488 74.4157 13.968C73.9517 14.448 73.7197 15.056 73.7197 15.792H72.4957ZM72.5197 24C72.1357 24 71.8397 23.904 71.6317 23.712C71.4237 23.504 71.3197 23.2 71.3197 22.8V12.072C71.3197 11.688 71.4237 11.392 71.6317 11.184C71.8397 10.976 72.1357 10.872 72.5197 10.872C72.9197 10.872 73.2157 10.976 73.4077 11.184C73.6157 11.376 73.7197 11.672 73.7197 12.072V22.8C73.7197 23.184 73.6157 23.48 73.4077 23.688C73.2157 23.896 72.9197 24 72.5197 24ZM88.0076 24C87.2076 24 86.4876 23.8 85.8476 23.4C85.2076 22.984 84.7036 22.424 84.3356 21.72C83.9676 21.016 83.7836 20.224 83.7836 19.344V7.896C83.7836 7.544 83.8956 7.256 84.1196 7.032C84.3436 6.808 84.6316 6.696 84.9836 6.696C85.3356 6.696 85.6236 6.808 85.8476 7.032C86.0716 7.256 86.1836 7.544 86.1836 7.896V19.344C86.1836 19.984 86.3596 20.52 86.7116 20.952C87.0636 21.384 87.4956 21.6 88.0076 21.6H88.8236C89.1116 21.6 89.3516 21.712 89.5436 21.936C89.7516 22.16 89.8556 22.448 89.8556 22.8C89.8556 23.152 89.7196 23.44 89.4476 23.664C89.1916 23.888 88.8556 24 88.4396 24H88.0076ZM82.6796 13.416C82.3436 13.416 82.0716 13.32 81.8636 13.128C81.6556 12.936 81.5516 12.696 81.5516 12.408C81.5516 12.088 81.6556 11.832 81.8636 11.64C82.0716 11.448 82.3436 11.352 82.6796 11.352H88.2236C88.5596 11.352 88.8316 11.448 89.0396 11.64C89.2476 11.832 89.3516 12.088 89.3516 12.408C89.3516 12.696 89.2476 12.936 89.0396 13.128C88.8316 13.32 88.5596 13.416 88.2236 13.416H82.6796ZM98.5764 24.096C97.4084 24.096 96.3604 23.808 95.4324 23.232C94.5044 22.64 93.7684 21.848 93.2244 20.856C92.6964 19.848 92.4324 18.712 92.4324 17.448C92.4324 16.184 92.7204 15.048 93.2964 14.04C93.8884 13.032 94.6804 12.24 95.6724 11.664C96.6804 11.072 97.8084 10.776 99.0564 10.776C100.304 10.776 101.424 11.072 102.416 11.664C103.408 12.24 104.192 13.032 104.768 14.04C105.36 15.048 105.656 16.184 105.656 17.448H104.72C104.72 18.712 104.448 19.848 103.904 20.856C103.376 21.848 102.648 22.64 101.72 23.232C100.792 23.808 99.7444 24.096 98.5764 24.096ZM99.0564 21.936C99.8724 21.936 100.6 21.744 101.24 21.36C101.88 20.96 102.384 20.424 102.752 19.752C103.12 19.064 103.304 18.296 103.304 17.448C103.304 16.584 103.12 15.816 102.752 15.144C102.384 14.456 101.88 13.92 101.24 13.536C100.6 13.136 99.8724 12.936 99.0564 12.936C98.2564 12.936 97.5284 13.136 96.8724 13.536C96.2324 13.92 95.7204 14.456 95.3364 15.144C94.9684 15.816 94.7844 16.584 94.7844 17.448C94.7844 18.296 94.9684 19.064 95.3364 19.752C95.7204 20.424 96.2324 20.96 96.8724 21.36C97.5284 21.744 98.2564 21.936 99.0564 21.936ZM104.432 24.024C104.08 24.024 103.784 23.912 103.544 23.688C103.32 23.448 103.208 23.152 103.208 22.8V19.128L103.664 16.584L105.656 17.448V22.8C105.656 23.152 105.536 23.448 105.296 23.688C105.072 23.912 104.784 24.024 104.432 24.024ZM112.66 24C111.956 24 111.332 23.808 110.788 23.424C110.244 23.04 109.82 22.52 109.516 21.864C109.212 21.192 109.06 20.424 109.06 19.56V6.456C109.06 6.104 109.172 5.816 109.396 5.592C109.62 5.368 109.908 5.256 110.26 5.256C110.612 5.256 110.9 5.368 111.124 5.592C111.348 5.816 111.46 6.104 111.46 6.456V19.56C111.46 20.152 111.572 20.64 111.796 21.024C112.02 21.408 112.308 21.6 112.66 21.6H113.26C113.58 21.6 113.836 21.712 114.028 21.936C114.236 22.16 114.34 22.448 114.34 22.8C114.34 23.152 114.188 23.44 113.884 23.664C113.58 23.888 113.188 24 112.708 24H112.66Z" fill="#333333"/>
<path d="M116.471 24C116.023 24 115.679 23.808 115.439 23.424C115.199 23.04 115.175 22.632 115.367 22.2L122.111 6.096C122.351 5.536 122.743 5.256 123.287 5.256C123.863 5.256 124.255 5.536 124.463 6.096L131.231 22.248C131.407 22.696 131.375 23.104 131.135 23.472C130.911 23.824 130.567 24 130.103 24C129.863 24 129.631 23.936 129.407 23.808C129.199 23.664 129.047 23.472 128.951 23.232L122.999 8.448H123.671L117.623 23.232C117.511 23.488 117.343 23.68 117.119 23.808C116.911 23.936 116.695 24 116.471 24ZM117.743 19.872L118.703 17.808H128.111L129.071 19.872H117.743ZM139.61 24.12C138.506 24.12 137.514 23.888 136.634 23.424C135.77 22.944 135.082 22.248 134.57 21.336C134.074 20.424 133.826 19.304 133.826 17.976V12.072C133.826 11.72 133.938 11.432 134.162 11.208C134.402 10.968 134.698 10.848 135.05 10.848C135.402 10.848 135.69 10.968 135.914 11.208C136.154 11.432 136.274 11.72 136.274 12.072V17.976C136.274 18.872 136.442 19.616 136.778 20.208C137.114 20.784 137.57 21.216 138.146 21.504C138.722 21.776 139.37 21.912 140.09 21.912C140.778 21.912 141.386 21.776 141.914 21.504C142.458 21.232 142.89 20.864 143.21 20.4C143.53 19.936 143.69 19.416 143.69 18.84H145.202C145.202 19.832 144.954 20.728 144.458 21.528C143.978 22.328 143.314 22.96 142.466 23.424C141.634 23.888 140.682 24.12 139.61 24.12ZM144.914 24C144.562 24 144.266 23.888 144.026 23.664C143.802 23.424 143.69 23.128 143.69 22.776V12.072C143.69 11.704 143.802 11.408 144.026 11.184C144.266 10.96 144.562 10.848 144.914 10.848C145.282 10.848 145.578 10.96 145.802 11.184C146.026 11.408 146.138 11.704 146.138 12.072V22.776C146.138 23.128 146.026 23.424 145.802 23.664C145.578 23.888 145.282 24 144.914 24ZM155.465 24C154.665 24 153.945 23.8 153.305 23.4C152.665 22.984 152.161 22.424 151.793 21.72C151.425 21.016 151.241 20.224 151.241 19.344V7.896C151.241 7.544 151.353 7.256 151.577 7.032C151.801 6.808 152.089 6.696 152.441 6.696C152.793 6.696 153.081 6.808 153.305 7.032C153.529 7.256 153.641 7.544 153.641 7.896V19.344C153.641 19.984 153.817 20.52 154.169 20.952C154.521 21.384 154.953 21.6 155.465 21.6H156.281C156.569 21.6 156.809 21.712 157.001 21.936C157.209 22.16 157.313 22.448 157.313 22.8C157.313 23.152 157.177 23.44 156.905 23.664C156.649 23.888 156.313 24 155.897 24H155.465ZM150.137 13.416C149.801 13.416 149.529 13.32 149.321 13.128C149.113 12.936 149.009 12.696 149.009 12.408C149.009 12.088 149.113 11.832 149.321 11.64C149.529 11.448 149.801 11.352 150.137 11.352H155.681C156.017 11.352 156.289 11.448 156.497 11.64C156.705 11.832 156.809 12.088 156.809 12.408C156.809 12.696 156.705 12.936 156.497 13.128C156.289 13.32 156.017 13.416 155.681 13.416H150.137ZM166.514 24.096C165.218 24.096 164.074 23.816 163.082 23.256C162.09 22.68 161.306 21.896 160.73 20.904C160.17 19.896 159.89 18.744 159.89 17.448C159.89 16.136 160.17 14.984 160.73 13.992C161.306 12.984 162.09 12.2 163.082 11.64C164.074 11.064 165.218 10.776 166.514 10.776C167.794 10.776 168.93 11.064 169.922 11.64C170.914 12.2 171.69 12.984 172.25 13.992C172.826 14.984 173.114 16.136 173.114 17.448C173.114 18.744 172.834 19.896 172.274 20.904C171.714 21.896 170.938 22.68 169.946 23.256C168.954 23.816 167.81 24.096 166.514 24.096ZM166.514 21.936C167.346 21.936 168.082 21.744 168.722 21.36C169.362 20.976 169.858 20.448 170.21 19.776C170.578 19.104 170.762 18.328 170.762 17.448C170.762 16.568 170.578 15.792 170.21 15.12C169.858 14.432 169.362 13.896 168.722 13.512C168.082 13.128 167.346 12.936 166.514 12.936C165.682 12.936 164.946 13.128 164.306 13.512C163.666 13.896 163.162 14.432 162.794 15.12C162.426 15.792 162.242 16.568 162.242 17.448C162.242 18.328 162.426 19.104 162.794 19.776C163.162 20.448 163.666 20.976 164.306 21.36C164.946 21.744 165.682 21.936 166.514 21.936ZM181.773 24.096C180.653 24.096 179.613 23.928 178.653 23.592C177.709 23.24 176.973 22.8 176.445 22.272C176.205 22.016 176.101 21.728 176.133 21.408C176.181 21.072 176.341 20.8 176.613 20.592C176.933 20.336 177.245 20.232 177.549 20.28C177.869 20.312 178.141 20.448 178.365 20.688C178.637 20.992 179.069 21.28 179.661 21.552C180.269 21.808 180.941 21.936 181.677 21.936C182.605 21.936 183.309 21.784 183.789 21.48C184.285 21.176 184.541 20.784 184.557 20.304C184.573 19.824 184.341 19.408 183.861 19.056C183.397 18.704 182.541 18.416 181.293 18.192C179.677 17.872 178.501 17.392 177.765 16.752C177.045 16.112 176.685 15.328 176.685 14.4C176.685 13.584 176.925 12.912 177.405 12.384C177.885 11.84 178.501 11.44 179.253 11.184C180.005 10.912 180.789 10.776 181.605 10.776C182.661 10.776 183.597 10.944 184.413 11.28C185.229 11.616 185.877 12.08 186.357 12.672C186.581 12.928 186.685 13.2 186.669 13.488C186.653 13.76 186.517 13.992 186.261 14.184C186.005 14.36 185.701 14.416 185.349 14.352C184.997 14.288 184.701 14.144 184.461 13.92C184.061 13.536 183.629 13.272 183.165 13.128C182.701 12.984 182.165 12.912 181.557 12.912C180.853 12.912 180.253 13.032 179.757 13.272C179.277 13.512 179.037 13.864 179.037 14.328C179.037 14.616 179.109 14.88 179.253 15.12C179.413 15.344 179.717 15.552 180.165 15.744C180.613 15.92 181.269 16.096 182.133 16.272C183.333 16.512 184.277 16.816 184.965 17.184C185.669 17.552 186.173 17.984 186.477 18.48C186.781 18.96 186.933 19.52 186.933 20.16C186.933 20.896 186.733 21.56 186.333 22.152C185.949 22.744 185.373 23.216 184.605 23.568C183.853 23.92 182.909 24.096 181.773 24.096Z" fill="#3145BF"/>
<path d="M12.8463 0.355581C7.78238 1.45862 3.7964 4.5421 1.59033 9.05453C-2.64633 17.6281 1.9413 28.2825 11.0915 31.2155C21.1692 34.4244 31.272 27.4301 31.9489 16.7758C32.5756 6.52256 22.8489 -1.85049 12.8463 0.355581ZM20.4422 2.63686C29.0158 5.46966 32.7261 15.4471 28.0883 23.2687C26.3084 26.2519 23.1246 28.6836 19.6651 29.6863C17.6094 30.288 14.0496 30.2378 11.9689 29.5861C3.44544 26.9287 -0.565604 17.4526 3.44544 9.4807C3.84654 8.70356 4.7741 7.42504 5.5011 6.62283C9.3868 2.3611 15.0273 0.856961 20.4422 2.63686Z" fill="#3145BF"/>
<path d="M12.9711 4.21623C9.46142 5.16885 6.62862 7.45013 5.04927 10.6339C3.31951 14.1436 3.31951 17.8287 5.04927 21.4136C5.90162 23.1935 7.38069 25.0486 7.95728 25.0486C8.38345 25.0486 10.2135 23.1684 10.2135 22.7172C10.2135 22.5166 10.038 22.1907 9.81239 22.0152C9.46142 21.7395 9.28594 21.7645 8.65921 22.1155C7.93221 22.5417 7.90714 22.5166 7.43083 21.9902C6.90438 21.3384 5.97683 19.032 5.77628 17.8788C5.65093 17.1769 5.72614 17.1017 6.47821 16.8761C7.857 16.475 7.68152 15.021 6.25259 15.021C5.70107 15.021 5.65093 14.9458 5.77628 14.1937C5.97683 13.0155 6.90438 10.7091 7.43083 10.0573C7.90714 9.50579 7.93221 9.50579 8.68428 9.93197C9.41128 10.3581 9.46142 10.3581 9.8876 9.93197C10.3138 9.50579 10.3138 9.45565 9.8876 8.70358C9.53663 8.07686 9.51156 7.87631 9.76225 7.70082C10.5645 7.12424 13.2468 5.97106 14.024 5.84572C14.8262 5.6953 14.9014 5.74544 15.127 6.52258C15.5281 7.90138 16.9821 7.72589 16.9821 6.29696C16.9821 5.72037 17.0323 5.6953 18.035 5.84572C19.2634 6.04627 21.0182 6.77327 21.8706 7.45013L22.4722 7.92644L18.4612 10.7843C13.8234 14.0433 13.2218 14.6449 13.2218 15.9987C13.2218 17.7284 14.9766 19.032 16.7314 18.656C17.659 18.4554 18.2606 17.7786 21.4695 13.216L24.0516 9.50579L24.553 10.1325C25.2298 10.9849 25.9568 12.7397 26.1574 13.9681C26.3078 14.9708 26.2827 15.021 25.7061 15.021C24.2772 15.021 24.1017 16.475 25.4805 16.8761C26.2326 17.1017 26.3078 17.1769 26.1825 17.8788C25.9819 19.032 25.0544 21.3384 24.5279 21.9902C24.0516 22.5166 24.0265 22.5417 23.2995 22.1155C22.6728 21.7645 22.4973 21.7395 22.1463 22.0152C21.9207 22.1907 21.7452 22.5166 21.7452 22.7172C21.7452 23.1684 23.5753 25.0486 24.0015 25.0486C24.578 25.0486 26.0571 23.1935 26.9095 21.4136C28.0376 19.0822 28.4888 16.1992 28.0626 13.9931C26.734 6.87355 19.7899 2.36112 12.9711 4.21623ZM19.5642 12.5893C19.464 12.7648 18.762 13.7926 18.01 14.8455C17.0323 16.2243 16.4807 16.7758 16.1047 16.7758C15.5281 16.7758 14.9766 16.3496 14.9766 15.8733C14.9766 15.6226 19.3888 12.2634 19.6896 12.2634C19.7397 12.2634 19.6645 12.4138 19.5642 12.5893Z" fill="#3145BF"/>
<path d="M13.5228 22.7924C11.6928 23.2185 10.8404 24.9232 11.5674 26.653C12.0939 27.9315 13.1217 28.3076 15.9796 28.3076C18.8375 28.3076 19.8653 27.9315 20.3917 26.653C21.1438 24.8731 20.2664 23.2185 18.311 22.7673C17.1578 22.5166 14.676 22.5166 13.5228 22.7924ZM18.6118 25.4246V26.1767H15.9796C13.6482 26.1767 13.3473 26.1266 13.2721 25.7254C13.0465 24.6224 13.3223 24.5221 16.0297 24.5973L18.6118 24.6725V25.4246Z" fill="#3145BF"/>
</svg>
