<svg width="148" height="99" viewBox="0 0 148 99" fill="none" xmlns="http://www.w3.org/2000/svg">
<path d="M41.106 8.72538H8.00368C7.30212 8.72538 6.7334 9.2941 6.7334 9.99566V13.9065C6.7334 14.608 7.30212 15.1767 8.00368 15.1767H41.106C41.8075 15.1767 42.3763 14.608 42.3763 13.9065V9.99566C42.3763 9.2941 41.8075 8.72538 41.106 8.72538Z" fill="#F5F5F5"/>
<path d="M41.1114 15.1768C41.1114 15.1768 41.1822 15.1767 41.3197 15.1476C41.5845 15.0989 41.8265 14.9659 42.0096 14.7686C42.1927 14.5712 42.3071 14.3199 42.3359 14.0522C42.3359 13.6607 42.3359 13.1943 42.3359 12.6778C42.3359 12.1614 42.3359 11.5825 42.3359 10.9536C42.3359 10.6371 42.3359 10.308 42.3359 9.96651C42.3304 9.79749 42.2907 9.63136 42.2191 9.47815C42.1475 9.32495 42.0455 9.18788 41.9194 9.07523C41.7826 8.95954 41.6219 8.87562 41.4488 8.8295C41.2643 8.7893 41.0748 8.77667 40.8865 8.79202H39.6704H37.0257L8.03414 8.82534C7.87198 8.8251 7.71156 8.85868 7.56311 8.92394C7.41467 8.9892 7.28146 9.0847 7.17201 9.20435C7.06383 9.32541 6.98146 9.46725 6.92991 9.6212C6.87835 9.77515 6.85869 9.93799 6.87214 10.0998C6.87214 10.7995 6.87214 11.495 6.87214 12.1822V13.744C6.86419 13.9035 6.8782 14.0632 6.91379 14.2188C6.97599 14.444 7.10391 14.6455 7.28123 14.7976C7.45854 14.9497 7.67718 15.0454 7.9092 15.0726C8.05497 15.0726 8.23405 15.0726 8.40065 15.0726H16.0973L29.1291 15.0976L37.917 15.1309L40.3076 15.1518H40.9282H41.1406H40.9282H40.3076L37.917 15.1726L29.1291 15.2059L16.0973 15.2309H8.37149C8.20073 15.2309 8.04247 15.2309 7.85505 15.2309C7.6738 15.2091 7.49844 15.1525 7.3386 15.0643C7.17931 14.9758 7.03914 14.8567 6.92619 14.7137C6.81324 14.5707 6.72975 14.4068 6.68056 14.2313C6.63569 14.0574 6.61882 13.8775 6.63058 13.6982V12.1531C6.63058 11.4659 6.63058 10.7703 6.63058 10.0706C6.61946 9.88177 6.64574 9.69257 6.70792 9.51389C6.7701 9.33522 6.86695 9.17057 6.99292 9.02942C7.1218 8.88689 7.2793 8.77317 7.45513 8.69566C7.63095 8.61815 7.82117 8.57861 8.01332 8.57962L37.0049 8.61293H40.8657C41.0655 8.6047 41.2656 8.62149 41.4613 8.66291C41.6519 8.71463 41.8284 8.80858 41.9777 8.93779C42.1186 9.05986 42.2324 9.20993 42.312 9.37845C42.3916 9.54697 42.4352 9.73022 42.44 9.91653C42.44 10.2581 42.44 10.5912 42.44 10.9078C42.44 11.5367 42.44 12.1114 42.44 12.632C42.44 13.1526 42.44 13.6066 42.4192 14.0148C42.3731 14.3602 42.1919 14.6732 41.9153 14.8852C41.7467 15.0115 41.549 15.0932 41.3405 15.1226C41.2675 15.1527 41.1902 15.171 41.1114 15.1768Z" fill="#263238"/>
<path d="M130.989 97.6135C140.384 97.1622 147.634 89.1805 147.183 79.7859C146.732 70.3913 138.75 63.1412 129.355 63.5925C119.961 64.0437 112.711 72.0254 113.162 81.42C113.613 90.8147 121.595 98.0647 130.989 97.6135Z" fill="#263238"/>
<path d="M113.15 80.3151C113.15 80.3151 113.15 80.3443 113.15 80.361C113.112 84.8597 114.856 89.1906 118 92.4079C121.145 95.6252 125.435 97.4674 129.933 97.5323C134.432 97.5973 138.773 95.8796 142.009 92.7543C145.245 89.6291 147.114 85.3503 147.206 80.8524C147.206 80.8524 147.206 80.8232 147.206 80.8066L113.15 80.3151Z" fill="#263238"/>
<path d="M118.219 80.4318C118.185 82.7965 118.852 85.1184 120.138 87.1036C121.423 89.0889 123.268 90.6485 125.44 91.5851C127.611 92.5217 130.012 92.7933 132.338 92.3655C134.664 91.9378 136.811 90.8299 138.507 89.1819C140.203 87.5339 141.373 85.4199 141.868 83.1073C142.363 80.7946 142.16 78.3872 141.287 76.1894C140.414 73.9916 138.908 72.1022 136.961 70.76C135.013 69.4179 132.712 68.6834 130.347 68.6494C127.176 68.6038 124.118 69.8194 121.843 72.029C119.569 74.2386 118.265 77.2611 118.219 80.4318Z" fill="#FAFAFA"/>
<path d="M130.347 68.6494C127.176 68.6038 124.117 69.8194 121.843 72.029C119.568 74.2386 118.265 77.2611 118.219 80.4318L142.129 80.7775C142.175 77.6068 140.959 74.5479 138.75 72.2734C136.54 69.999 133.517 68.6954 130.347 68.6494Z" fill="#E0E0E0"/>
<path d="M122.891 80.4984C122.87 81.9391 123.276 83.3537 124.059 84.5633C124.842 85.773 125.966 86.7233 127.288 87.2942C128.611 87.865 130.074 88.0307 131.491 87.7703C132.908 87.5099 134.216 86.8351 135.25 85.8313C136.283 84.8274 136.996 83.5396 137.297 82.1307C137.599 80.7219 137.476 79.2551 136.944 77.9162C136.412 76.5772 135.495 75.426 134.309 74.6083C133.122 73.7906 131.72 73.3431 130.279 73.3223C128.348 73.2945 126.485 74.0349 125.099 75.3806C123.714 76.7263 122.919 78.5671 122.891 80.4984Z" fill="#263238"/>
<path d="M122.092 55.6342C122.092 55.6342 139.526 50.3615 146.736 69.3032L110.251 80.6067L122.092 55.6342Z" fill="#F3123C"/>
<path d="M25.9191 97.6151C35.3137 97.1638 42.5637 89.1821 42.1125 79.7875C41.6612 70.3929 33.6796 63.1428 24.2849 63.5941C14.8903 64.0453 7.64023 72.027 8.09149 81.4217C8.54274 90.8163 16.5244 98.0663 25.9191 97.6151Z" fill="#263238"/>
<path d="M8.07482 80.3151C8.07482 80.3151 8.07482 80.3443 8.07482 80.361C8.03703 84.8597 9.78088 89.1906 12.9255 92.4079C16.0702 95.6252 20.3602 97.4674 24.8586 97.5323C29.357 97.5973 33.6983 95.8796 36.9345 92.7543C40.1707 89.6291 42.0388 85.3503 42.1309 80.8524V80.7983L8.07482 80.3151Z" fill="#263238"/>
<path d="M13.16 80.4318C13.1256 82.7965 13.7933 85.1184 15.0785 87.1036C16.3638 89.0889 18.2089 90.6485 20.3805 91.5851C22.5522 92.5217 24.9528 92.7933 27.2788 92.3655C29.6048 91.9378 31.7517 90.8299 33.448 89.1819C35.1443 87.5339 36.3138 85.4199 36.8087 83.1073C37.3035 80.7946 37.1014 78.3872 36.228 76.1894C35.3545 73.9916 33.8489 72.1022 31.9016 70.76C29.9543 69.4179 27.6528 68.6834 25.288 68.6494C22.1174 68.6038 19.0584 69.8194 16.784 72.029C14.5096 74.2386 13.206 77.2611 13.16 80.4318Z" fill="#FAFAFA"/>
<path d="M25.2716 68.6494C22.1038 68.6082 19.0491 69.8259 16.7783 72.035C14.5075 74.2441 13.2062 77.264 13.1602 80.4317L37.0706 80.7774C37.0932 79.2061 36.8058 77.6457 36.2249 76.1855C35.644 74.7253 34.7809 73.394 33.6851 72.2676C32.5893 71.1412 31.2821 70.2419 29.8385 69.621C28.3948 69.0002 26.8429 68.67 25.2716 68.6494Z" fill="#E0E0E0"/>
<path d="M17.8167 80.4984C17.7954 81.9391 18.2019 83.3537 18.9846 84.5633C19.7674 85.773 20.8913 86.7233 22.2142 87.2942C23.5371 87.865 24.9996 88.0307 26.4167 87.7703C27.8338 87.5099 29.1418 86.8351 30.1754 85.8313C31.209 84.8274 31.9216 83.5396 32.2232 82.1307C32.5248 80.7219 32.4018 79.2551 31.8698 77.9162C31.3378 76.5772 30.4206 75.426 29.2343 74.6083C28.048 73.7906 26.6458 73.3431 25.2052 73.3223C23.2739 73.2945 21.4106 74.0349 20.0251 75.3806C18.6396 76.7263 17.8452 78.5671 17.8167 80.4984Z" fill="#263238"/>
<path d="M49.3237 73.768C49.2279 73.818 40.3609 72.3977 40.3609 72.3977C39.8815 73.0235 39.2712 73.5371 38.5727 73.9026C37.8742 74.268 37.1043 74.4765 36.3169 74.5135C32.4852 74.6967 28.741 74.8675 25.4882 75.0133C24.0349 75.0782 22.6666 75.7164 21.6829 76.7883C20.6993 77.8601 20.1806 79.2781 20.2405 80.7316C20.299 82.1112 20.8741 83.4184 21.8516 84.3936C22.8292 85.3688 24.1377 85.9408 25.5174 85.996L44.3967 86.7415C47.4995 86.8623 51.6227 84.9798 53.5594 82.5517L49.3237 73.768Z" fill="#455A64"/>
<path d="M2.98954 66.2213C2.98954 66.2213 2.18156 49.6243 17.779 46.1675V44.0392H72.4136V49.1453C72.4136 49.1453 64.3962 58.8036 66.9993 66.821C69.6023 74.8383 70.4353 75.6588 70.4353 75.6588H101.53C103.984 72.2104 105.352 68.1075 105.458 63.8764C105.624 56.8378 102.7 44.8055 100.514 37.113C98.5397 30.0953 97.2903 24.2478 97.2903 24.2478L106.62 21.1367C106.62 21.1367 123.883 43.731 124.587 44.9805C125.291 46.2299 127.69 49.212 127.127 55.7008C126.565 62.1897 111.034 82.206 106.961 84.4633C102.888 86.7207 99.2061 86.8623 95.5369 87.4246C92.3549 87.916 68.8151 87.5911 62.6553 87.4953C60.5148 87.4819 58.4162 86.8997 56.5746 85.8086C54.7337 84.6924 53.351 82.8432 51.8225 79.8112L48.5614 73.464L2.98954 66.2213Z" fill="#F3123C"/>
<path d="M7.17099 65.0801L0.290643 75.8587C0.0864092 76.1575 -0.0149882 76.5146 0.00179263 76.8762C0.0185734 77.2377 0.152611 77.5839 0.383643 77.8624C0.614676 78.141 0.930143 78.3367 1.28231 78.4201C1.63449 78.5034 2.00422 78.4698 2.33559 78.3243C3.19179 77.9416 3.97416 77.4116 4.64708 76.7583C7.79155 73.7638 13.3933 65.8756 13.3933 65.8756L7.17099 65.0801Z" fill="#455A64"/>
<path d="M56.5211 67.0209C56.5211 67.0209 56.5211 66.9668 56.5628 66.8626L56.7002 66.4087C56.8658 65.8259 56.9869 65.2314 57.0625 64.6303C57.2931 62.4055 56.925 60.1595 55.9963 58.1248C55.3718 56.7205 54.5142 55.4321 53.4599 54.3139C52.2491 53.0369 50.8434 51.9601 49.2951 51.1236C47.5792 50.1971 45.743 49.5131 43.8391 49.0912C41.7865 48.6484 39.6916 48.4319 37.5918 48.4456C35.5014 48.4608 33.4144 48.6152 31.3445 48.9079C29.3288 49.1786 27.3962 49.5118 25.572 49.9283C22.3334 50.6161 19.2119 51.7707 16.3052 53.356C14.3533 54.4392 12.57 55.8016 11.0117 57.4001C10.4619 57.9665 10.0663 58.4371 9.80389 58.7578L9.50819 59.1285C9.4766 59.1726 9.44028 59.2131 9.3999 59.2493C9.85943 58.5692 10.3779 57.9309 10.9492 57.3418C12.4941 55.7129 14.2742 54.3245 16.2303 53.2227C19.142 51.6088 22.2757 50.4328 25.5304 49.7326C27.3546 49.3161 29.2788 48.9704 31.3154 48.6955C33.4018 48.4002 35.5055 48.2443 37.6126 48.229C39.7239 48.215 41.8302 48.4343 43.8933 48.8829C45.816 49.3194 47.6689 50.0202 49.3992 50.9654C50.9692 51.8138 52.3935 52.9076 53.6182 54.2056C54.6801 55.343 55.5406 56.6528 56.1629 58.0789C57.0878 60.1409 57.4362 62.4151 57.1708 64.6594C57.0833 65.2631 56.944 65.8581 56.7543 66.4378C56.6877 66.6294 56.6377 66.7752 56.5961 66.8876C56.575 66.9341 56.5499 66.9787 56.5211 67.0209Z" fill="#263238"/>
<path d="M53.3751 63.3059C53.3501 63.3059 53.4626 63.0435 53.5792 62.5687C53.7353 61.8852 53.7565 61.1778 53.6417 60.4862C53.4795 59.4695 53.1353 58.4903 52.6254 57.5958C52.3369 57.0605 51.9995 56.553 51.6175 56.0798C51.2177 55.565 50.7639 55.0945 50.264 54.6763C49.2894 53.8739 48.1927 53.2327 47.0154 52.7771C46.0521 52.3992 45.053 52.1202 44.0333 51.9441C43.3439 51.8278 42.6488 51.7485 41.9509 51.7067C41.6945 51.7034 41.4385 51.6839 41.1846 51.6484C41.2508 51.6384 41.3182 51.6384 41.3845 51.6484C41.5136 51.6484 41.7052 51.6484 41.9551 51.6484C42.6523 51.6587 43.348 51.7157 44.0375 51.8192C45.0735 51.9679 46.0901 52.229 47.0695 52.598C48.2771 53.0527 49.4025 53.7012 50.4014 54.518C50.9112 54.9473 51.3747 55.4289 51.7841 55.9549C52.167 56.4416 52.5057 56.9615 52.7962 57.5084C53.3118 58.425 53.6481 59.4314 53.7874 60.4738C53.8909 61.1776 53.847 61.8952 53.6583 62.5812C53.609 62.7662 53.5421 62.9461 53.4584 63.1184C53.4396 63.1845 53.4115 63.2476 53.3751 63.3059Z" fill="#F5F5F5"/>
<g opacity="0.4">
<path opacity="0.4" d="M42.6758 48.7538C45.6164 49.291 48.4159 50.4249 50.9014 52.0857C53.4004 53.745 55.3251 56.1366 56.4115 58.9328C57.5027 61.7399 57.3403 65.4591 56.1908 67.7831L60.0516 68.1038C61.351 63.7681 59.9391 58.4496 56.8155 55.0553C55.0282 53.076 52.8473 51.4917 50.4125 50.4038C47.9777 49.3158 45.3426 48.7482 42.6758 48.7372" fill="black"/>
</g>
<path d="M41.444 14.8519H7.67111C5.69755 14.8519 4.09766 16.4518 4.09766 18.4253V40.4783C4.09766 42.4518 5.69755 44.0517 7.67111 44.0517H41.444C43.4175 44.0517 45.0174 42.4518 45.0174 40.4783V18.4253C45.0174 16.4518 43.4175 14.8519 41.444 14.8519Z" fill="#455A64"/>
<path d="M45.0175 21.3657C45.0175 21.4282 35.8173 21.474 24.4723 21.474C13.1272 21.474 3.92285 21.4282 3.92285 21.3657C3.92285 21.3033 13.1189 21.2574 24.4723 21.2574C35.8257 21.2574 45.0175 21.3074 45.0175 21.3657Z" fill="#263238"/>
<path d="M72.3883 45.9842C72.3883 46.0425 60.1061 46.0925 44.9627 46.0925C29.8193 46.0925 17.5371 46.0425 17.5371 45.9842C17.5371 45.9259 29.8151 45.8759 44.9627 45.8759C60.1103 45.8759 72.3883 45.9259 72.3883 45.9842Z" fill="#263238"/>
<path d="M72.4135 44.0517C72.9702 43.3463 73.3141 42.4968 73.4048 41.6028C73.4881 40.2325 72.8633 38.5166 71.3848 38.5166H52.518C51.05 38.5166 49.6421 39.0998 48.6041 40.1378C47.5661 41.1758 46.9829 42.5837 46.9829 44.0517H72.4135Z" fill="#455A64"/>
<path d="M97.2898 24.2478L94.0079 17.405C93.5699 16.4655 93.4978 15.3965 93.8059 14.4068C94.114 13.4172 94.78 12.5779 95.6739 12.0531L105.486 6.20148C105.998 5.89366 106.584 5.73096 107.181 5.73085H109.301L110.134 19.5624L106.869 20.8243L108.951 24.1895L97.2898 24.2478Z" fill="#F3123C"/>
<path d="M109.33 6.24729C109.33 6.24729 112.687 7.01779 113.108 12.1905C113.528 17.3633 110.146 18.9793 110.146 18.9793L109.33 6.24729Z" fill="#C5C5C5"/>
<path d="M98.4354 14.7228C98.4354 14.7228 91.6509 17.938 90.8221 18.4712C90.2473 18.8377 89.7559 19.479 90.2057 20.6077C90.972 22.5277 94.1456 20.7202 94.1456 20.7202L100.464 17.5632C100.464 17.5632 102.892 16.4179 101.992 14.981C100.988 13.3734 98.4354 14.7228 98.4354 14.7228Z" fill="#263238"/>
<path d="M98.7606 4.67297C98.7606 7.25518 97.5736 9.34594 96.1117 9.34594C94.6499 9.34594 93.4629 7.26351 93.4629 4.67297C93.4629 2.08243 94.6457 0 96.1117 0C97.5778 0 98.7606 2.08243 98.7606 4.67297Z" fill="#263238"/>
<path d="M96.5444 7.88408L98.0021 12.9319C98.2682 12.7979 98.4805 12.577 98.604 12.3059C98.7274 12.0347 98.7546 11.7296 98.681 11.4409C98.3145 9.71246 98.1062 8.48382 97.7064 6.96781C97.6564 6.81788 96.5444 7.88408 96.5444 7.88408Z" fill="#263238"/>
<g opacity="0.4">
<path opacity="0.4" d="M67.7193 68.9576C67.5777 68.5411 67.4278 68.1246 67.3028 67.679C67.1779 67.2333 67.0196 66.846 66.9113 66.4295C66.7434 65.8047 66.6209 65.1686 66.5448 64.5261C64.0875 74.5218 67.8401 81.5729 74.2789 82.0685C83.6915 82.7932 95.1657 83.318 99.8054 82.1019C108.264 79.882 111.367 72.8267 112.108 71.6647C112.85 70.5027 119.576 58.2039 115.44 46.3632C111.305 34.5225 104.133 21.9488 104.133 21.9488L97.2898 24.2478C97.2898 24.2478 98.5393 30.0786 100.526 37.0922C102.712 44.7847 105.636 56.817 105.47 63.8556C105.364 68.0867 103.996 72.1895 101.542 75.638H70.4514C70.4514 75.638 69.7851 74.9716 67.7318 68.9742" fill="black"/>
</g>
<path d="M1.74774 63.6307L1.96848 61.2567L58.7272 67.7956C59.4857 67.8848 60.2181 68.1281 60.8792 68.5106C61.5403 68.8931 62.1163 69.4066 62.5719 70.0197C63.0274 70.6328 63.3529 71.3325 63.5282 72.0759C63.7036 72.8193 63.7252 73.5907 63.5917 74.3427L63.3377 75.7796L4.61317 67.2458C3.76142 67.1293 2.98768 66.688 2.45368 66.0143C1.91967 65.3406 1.66674 64.4866 1.74774 63.6307Z" fill="#F3123C"/>
<g opacity="0.6">
<path opacity="0.6" d="M1.74921 63.6307L1.96995 61.2568L58.7286 67.7956C59.4872 67.8848 60.2195 68.1282 60.8807 68.5106C61.5418 68.8931 62.1178 69.4066 62.5733 70.0197C63.0289 70.6328 63.3543 71.3325 63.5297 72.0759C63.7051 72.8193 63.7267 73.5907 63.5932 74.3427L63.3391 75.7796L4.61463 67.2458C3.76289 67.1293 2.98915 66.6881 2.45514 66.0144C1.92114 65.3406 1.6682 64.4866 1.74921 63.6307Z" fill="black"/>
</g>
<g opacity="0.3">
<path opacity="0.3" d="M112.108 79.5072C112.108 79.5072 124.602 65.7631 127.181 54.9595C128.476 54.952 129.77 55.0481 131.05 55.2469C131.05 55.2469 123.661 75.334 112.108 79.5072Z" fill="black"/>
</g>
<path d="M126.998 50.1199C127.03 50.233 127.052 50.3486 127.064 50.4656C127.098 50.6947 127.164 51.032 127.206 51.4693C127.328 52.718 127.296 53.9769 127.11 55.2177C126.817 57.0502 126.255 58.8296 125.444 60.4987C124.455 62.531 123.351 64.5055 122.137 66.4128C119.96 69.8937 117.515 73.1996 114.824 76.3002C113.808 77.5039 112.966 78.4618 112.383 79.1198L111.709 79.8737C111.632 79.9632 111.55 80.0481 111.463 80.1277C111.525 80.0282 111.596 79.9348 111.675 79.8487L112.321 79.0657L114.707 76.2044C117.356 73.0802 119.778 69.7704 121.954 66.3004C123.169 64.3994 124.281 62.4349 125.286 60.4154C126.087 58.7625 126.648 57.0039 126.952 55.1927C127.143 53.9698 127.198 52.7293 127.114 51.4943C127.085 51.057 127.031 50.7197 127.014 50.4864C126.997 50.3651 126.991 50.2423 126.998 50.1199Z" fill="#263238"/>
<path d="M105.398 79.4072C104.683 78.8597 104.013 78.2552 103.395 77.5996C102.728 76.9953 102.11 76.3394 101.546 75.638C102.93 76.7885 104.218 78.049 105.398 79.4072Z" fill="#263238"/>
<path d="M68.3159 78.9865C68.517 78.3448 68.8285 77.7429 69.2364 77.2082C69.5837 76.6327 70.0275 76.1213 70.5483 75.6963C70.5941 75.7421 70.0235 76.4252 69.4154 77.3289C68.8074 78.2327 68.3742 79.0115 68.3159 78.9865Z" fill="#263238"/>
<path d="M44.3087 86.9206C44.9921 86.2975 45.5676 85.5658 46.0122 84.7549C46.4785 83.8695 46.7618 82.8992 46.8451 81.902C46.9714 80.6861 46.7589 79.4591 46.2312 78.3565C45.7034 77.254 44.881 76.3189 43.8548 75.6547C43.0275 75.0926 42.0955 74.7031 41.1143 74.5093C40.205 74.3451 39.2748 74.3324 38.3613 74.4719C38.42 74.4466 38.4816 74.4284 38.5446 74.4177C38.7254 74.3703 38.909 74.3342 39.0943 74.3094C39.7757 74.2182 40.4673 74.2351 41.1435 74.3594C42.1523 74.5375 43.1136 74.9217 43.9672 75.4881C45.0343 76.1658 45.889 77.1304 46.4333 78.2714C46.9777 79.4124 47.1897 80.6836 47.045 81.9394C46.9495 82.9629 46.6432 83.9555 46.1455 84.8548C45.8181 85.4593 45.3963 86.0077 44.896 86.4791C44.7651 86.6088 44.626 86.7298 44.4795 86.8415C44.426 86.8747 44.3687 86.9012 44.3087 86.9206Z" fill="#263238"/>
<path d="M23.5729 82.5683C23.43 81.9117 23.3615 81.2411 23.3688 80.5692C23.297 79.8992 23.297 79.2234 23.3688 78.5534C23.5768 79.8809 23.641 81.227 23.5604 82.5683H23.5729Z" fill="#263238"/>
<path d="M25.088 82.5725C24.7763 81.2531 24.6045 79.9046 24.5757 78.5492C24.7654 79.2012 24.8869 79.8712 24.938 80.5484C25.0587 81.216 25.1089 81.8944 25.088 82.5725Z" fill="#263238"/>
<path d="M48.4992 44.0517C48.4992 44.11 41.598 44.16 33.0892 44.16C24.5804 44.16 17.6792 44.11 17.6792 44.0517C17.6792 43.9934 24.5804 43.9434 33.0892 43.9434C41.598 43.9434 48.4992 43.9892 48.4992 44.0517Z" fill="#263238"/>
<path d="M26.1498 44.0309C26.0873 44.0309 26.0415 36.1177 26.0415 26.3802C26.0415 16.6428 26.0707 8.7462 26.1498 8.7462C26.2289 8.7462 26.2581 16.6594 26.2581 26.401C26.2581 36.1427 26.2081 44.0309 26.1498 44.0309Z" fill="#263238"/>
<path d="M21.9063 44.0017C21.848 44.0017 22.1437 36.0885 22.5685 26.3594C22.9933 16.6303 23.4014 8.72121 23.4431 8.72538C23.4847 8.72954 23.2099 16.6386 22.785 26.3677C22.3602 36.0968 21.9854 44.0059 21.9063 44.0017Z" fill="#263238"/>
<path d="M12.3641 92.1683C12.2971 92.1119 12.2358 92.0492 12.1809 91.9809C12.0726 91.856 11.8935 91.6769 11.6978 91.4228C11.122 90.7156 10.6079 89.9604 10.1609 89.1655C8.65336 86.5337 7.86613 83.551 7.87856 80.5181C7.89099 77.4851 8.70264 74.509 10.2317 71.8896C10.6833 71.0976 11.2031 70.3465 11.7852 69.6448C11.9851 69.3907 12.1642 69.2283 12.2767 69.0867C12.3891 68.9451 12.4558 68.8993 12.4599 68.9076C12.4187 68.9829 12.3683 69.0528 12.31 69.1158C12.21 69.2533 12.0393 69.4365 11.8519 69.6989C9.71541 72.4205 8.42827 75.7112 8.15123 79.16C7.8742 82.6088 8.61957 86.0628 10.2942 89.0905C10.7254 89.8863 11.2169 90.6479 11.7644 91.3687C11.9476 91.6311 12.1143 91.8185 12.2142 91.9559C12.3142 92.0934 12.3725 92.16 12.3641 92.1683Z" fill="#455A64"/>
</svg>
