<svg width="1080" height="720" viewBox="0 0 1080 720" fill="none" xmlns="http://www.w3.org/2000/svg">
<rect width="1080" height="720" fill="#1D1D1D"/>
<path d="M405.553 306.479C405.553 306.479 401.361 302.239 400.162 327.887C399.023 352.095 397.361 387.001 403.169 401.971C403.786 403.596 404.916 404.973 406.388 405.893C407.926 406.834 409.638 407.452 411.421 407.712C416.468 408.501 436.435 408.057 436.435 408.057C436.435 408.057 447.773 408.057 447.946 398.713C448.085 391.015 447.946 374.286 447.946 374.286L405.553 306.479Z" fill="#263238"/>
<g opacity="0.3">
<path opacity="0.3" d="M405.552 306.479C405.552 306.479 401.36 302.239 400.161 327.887C399.022 352.095 397.36 387.001 403.168 401.971C403.785 403.596 404.915 404.973 406.387 405.893C407.925 406.834 409.637 407.452 411.42 407.712C416.467 408.501 436.434 408.057 436.434 408.057C436.434 408.057 447.772 408.057 447.945 398.713C448.084 391.015 447.945 374.286 447.945 374.286L405.552 306.479Z" fill="black"/>
</g>
<path d="M636.212 306.479C636.212 306.479 632.02 302.239 630.821 327.887C629.689 352.095 628.027 387.001 633.828 401.971C634.448 403.594 635.578 404.971 637.047 405.893C638.585 406.834 640.297 407.452 642.08 407.712C647.133 408.501 667.101 408.057 667.101 408.057C667.101 408.057 678.433 408.057 678.605 398.713C678.744 391.015 678.605 374.286 678.605 374.286L636.212 306.479Z" fill="#263238"/>
<g opacity="0.3">
<path opacity="0.3" d="M636.211 306.479C636.211 306.479 632.019 302.239 630.82 327.887C629.687 352.095 628.025 387.001 633.827 401.971C634.446 403.594 635.576 404.971 637.045 405.893C638.583 406.834 640.295 407.452 642.079 407.712C647.132 408.501 667.099 408.057 667.099 408.057C667.099 408.057 678.431 408.057 678.603 398.713C678.742 391.015 678.603 374.286 678.603 374.286L636.211 306.479Z" fill="black"/>
</g>
<path d="M697.897 262.117C697.897 262.117 696.626 266.451 694.01 266.902C691.394 267.353 670.777 267.99 670.777 267.99L668.79 272.144H664.909L662.088 255.488L664.492 255.986C664.897 256.069 665.276 256.248 665.596 256.509C665.917 256.77 666.17 257.105 666.333 257.485V257.485C666.513 257.905 666.801 258.27 667.167 258.542C667.534 258.814 667.966 258.983 668.419 259.032L697.897 262.117Z" fill="#263238"/>
<path d="M697.017 262.761C697.38 262.735 697.734 262.634 698.057 262.464C698.379 262.295 698.663 262.06 698.892 261.776C699.12 261.491 699.287 261.162 699.382 260.81C699.478 260.458 699.5 260.09 699.447 259.728C698.785 254.97 696.281 245.72 687.115 244.353C681.453 243.424 675.691 243.277 669.989 243.915C668.565 244.094 667.857 245.395 667.684 246.821C666.903 253.365 667.539 261.48 669.419 262.476C671.3 263.471 690.321 263.292 697.017 262.761Z" fill="#F3123C"/>
<path d="M684.724 244.392C684.922 244.593 685.098 244.816 685.247 245.056C685.571 245.487 686.009 246.138 686.525 246.954C689.205 251.223 691.215 255.878 692.486 260.757C692.724 261.693 692.896 262.456 692.996 262.987C693.063 263.258 693.103 263.536 693.115 263.816C692.999 263.559 692.915 263.29 692.863 263.013C692.724 262.495 692.519 261.746 692.254 260.823C691.551 258.421 690.704 256.063 689.717 253.762C688.723 251.467 687.588 249.236 686.32 247.08C685.836 246.251 685.432 245.587 685.141 245.129C684.982 244.896 684.842 244.649 684.724 244.392V244.392Z" fill="#263238"/>
<path d="M693.261 323.859C693.261 323.859 697.446 319.618 698.652 345.267C699.784 369.475 701.447 404.38 695.638 419.351C695.021 420.975 693.891 422.353 692.42 423.273C690.884 424.214 689.174 424.835 687.393 425.098C682.34 425.881 662.372 425.436 662.372 425.436C662.372 425.436 651.041 425.436 650.868 416.093C650.729 408.395 650.868 391.672 650.868 391.672L693.261 323.859Z" fill="#263238"/>
<path d="M693.261 323.859L693.069 324.191C692.93 324.416 692.731 324.735 692.48 325.16C691.95 326.009 691.155 327.263 690.175 328.889C688.148 332.154 685.195 336.912 681.466 342.904C673.989 354.902 663.412 371.857 651.001 391.752V391.672C651.001 398.972 651.001 406.597 651.001 414.513C650.961 415.499 651.001 416.487 651.12 417.466C651.265 418.441 651.581 419.383 652.054 420.247C653.079 421.972 654.65 423.304 656.518 424.029C660.26 425.702 664.532 425.211 668.684 425.357C673.068 425.397 677.406 425.41 681.671 425.29C683.784 425.279 685.893 425.114 687.983 424.799C688.999 424.599 689.988 424.28 690.93 423.85C691.87 423.446 692.736 422.888 693.493 422.198C694.228 421.504 694.824 420.675 695.248 419.756C695.448 419.291 695.62 418.814 695.765 418.329L696.241 416.882C696.407 416.405 696.545 415.917 696.652 415.423L697.01 413.956C697.268 412.987 697.433 411.998 697.606 411.023C698.003 409.072 698.215 407.108 698.473 405.177C698.592 404.214 698.665 403.245 698.765 402.29C698.864 401.334 698.957 400.379 699.003 399.43C699.54 391.832 699.612 384.592 699.566 377.816C699.52 371.041 699.314 364.737 699.096 358.977C698.877 353.217 698.639 348.014 698.434 343.442C698.259 339.534 697.886 335.638 697.314 331.769C696.798 328.604 696.175 326.135 695.281 324.695C695.105 324.376 694.869 324.094 694.586 323.865C694.378 323.699 694.117 323.611 693.851 323.62C693.634 323.636 693.428 323.72 693.261 323.859C693.297 323.817 693.339 323.781 693.387 323.753C693.525 323.658 693.684 323.601 693.851 323.587C694.127 323.566 694.4 323.649 694.619 323.819C694.92 324.047 695.174 324.331 695.367 324.655C696.288 326.108 696.937 328.577 697.473 331.749C698.068 335.621 698.462 339.522 698.652 343.435C698.89 348.007 699.142 353.21 699.381 358.97C699.619 364.73 699.824 371.034 699.891 377.816C699.957 384.598 699.891 391.838 699.361 399.45C699.314 400.405 699.208 401.354 699.122 402.316C699.036 403.279 698.957 404.248 698.837 405.216C698.579 407.154 698.361 409.118 697.97 411.083C697.798 412.065 697.632 413.073 697.374 414.036C697.255 414.527 697.129 415.018 697.01 415.509C696.905 416.008 696.768 416.501 696.599 416.982L696.122 418.442C695.97 418.937 695.793 419.424 695.592 419.902C695.151 420.861 694.531 421.726 693.764 422.45C692.982 423.165 692.087 423.746 691.115 424.169C690.149 424.608 689.136 424.935 688.095 425.144C685.989 425.463 683.862 425.63 681.731 425.642C677.453 425.761 673.121 425.748 668.724 425.708L662.492 425.615C660.41 425.572 658.355 425.14 656.432 424.341C654.49 423.59 652.857 422.207 651.796 420.413C651.304 419.513 650.975 418.534 650.822 417.52C650.702 416.525 650.66 415.522 650.697 414.52C650.697 406.603 650.697 398.959 650.697 391.666V391.626V391.586L681.274 342.791C685.036 336.819 688.016 332.081 690.056 328.856C691.082 327.243 691.864 325.996 692.4 325.153L693.009 324.204C693.149 323.965 693.261 323.859 693.261 323.859Z" fill="#455A64"/>
<path d="M386.726 323.859C386.726 323.859 382.541 319.618 381.329 345.267C380.196 369.475 378.534 404.38 384.342 419.351C384.959 420.975 386.089 422.353 387.561 423.273C389.097 424.214 390.806 424.835 392.587 425.098C397.641 425.881 417.608 425.436 417.608 425.436C417.608 425.436 428.94 425.436 429.112 416.093C429.251 408.395 429.112 391.672 429.112 391.672L386.726 323.859Z" fill="#263238"/>
<path d="M697.115 301.761L687.843 295.649C685.73 286.153 668.531 266.451 668.531 266.451C668.531 266.451 650.649 223.177 635.172 212.971C619.695 202.765 544.248 204.052 544.248 204.052L540.274 204.112C540.274 204.112 460.311 202.785 444.86 212.971C429.409 223.157 411.501 266.451 411.501 266.451C411.501 266.451 394.282 286.153 392.196 295.649L382.924 301.761C381.997 302.365 381.241 303.198 380.729 304.18C380.217 305.163 379.967 306.261 380.003 307.368C380.573 323.394 383.646 387.001 389.01 394.161C394.15 400.996 442.708 397.373 455.9 397.353C474.835 397.353 533.791 396.55 533.791 396.55L620.436 396.331C630.265 395.276 684.313 401.905 690.989 394.161C696.817 387.399 699.433 323.394 699.996 307.368C700.036 306.265 699.792 305.169 699.288 304.187C698.783 303.205 698.035 302.369 697.115 301.761Z" fill="#F3123C"/>
<path d="M631.006 215.878C630.814 215.542 630.54 215.261 630.21 215.06C629.88 214.859 629.505 214.746 629.119 214.73L541.387 210.96H540.692V211.013L450.867 214.73C450.481 214.746 450.106 214.859 449.776 215.06C449.446 215.261 449.172 215.542 448.98 215.878L426.111 255.873C425.933 256.181 425.838 256.529 425.835 256.885C425.832 257.241 425.921 257.591 426.094 257.902C426.267 258.212 426.518 258.472 426.822 258.656C427.125 258.841 427.472 258.942 427.826 258.952C430.343 259.025 434.065 259.065 438.423 258.886C445.456 258.594 501.419 258.726 530.956 258.826V258.886L540.023 258.852L549.089 258.886V258.826C578.627 258.726 634.583 258.594 641.616 258.886C646.172 259.071 650.053 259.025 652.563 258.945C652.879 258.934 653.186 258.842 653.456 258.677C653.725 258.512 653.948 258.28 654.101 258.004C654.255 257.728 654.335 257.416 654.334 257.1C654.333 256.784 654.25 256.473 654.093 256.198L631.006 215.878Z" fill="#455A64"/>
<path d="M382.07 262.117C382.07 262.117 383.342 266.451 385.958 266.902C388.574 267.353 409.177 267.99 409.177 267.99L411.164 272.144H415.105L417.926 255.488L415.522 255.986C415.117 256.069 414.738 256.248 414.418 256.509C414.097 256.77 413.844 257.105 413.681 257.485C413.501 257.905 413.213 258.27 412.847 258.542C412.48 258.814 412.048 258.983 411.595 259.032L382.07 262.117Z" fill="#263238"/>
<path d="M434.621 251.361L645.623 250.783L647.331 254.984L545.38 255.654L432.634 254.917L434.621 251.361Z" fill="#F3123C"/>
<g opacity="0.5">
<path opacity="0.5" d="M434.621 251.361L645.02 250.783L647.331 254.984L545.38 255.654L432.634 254.917L434.621 251.361Z" fill="black"/>
</g>
<path d="M513.69 252.316C513.69 250.013 512.803 243.484 510.664 241.745C509.015 240.418 505.114 240.006 503.187 239.893H503.008C501.988 239.893 495.166 240.093 493.127 241.752C490.987 243.49 490.1 250.02 490.1 252.323V252.396C490.102 253.084 490.376 253.744 490.863 254.231C491.349 254.717 492.009 254.99 492.696 254.99H511.094C511.782 254.99 512.441 254.717 512.928 254.231C513.414 253.744 513.688 253.084 513.69 252.396V252.316Z" fill="#263238"/>
<g opacity="0.3">
<path opacity="0.3" d="M513.69 252.316C513.69 250.013 512.803 243.484 510.664 241.745C509.015 240.418 505.114 240.006 503.187 239.893H503.008C501.988 239.893 495.166 240.093 493.127 241.752C490.987 243.49 490.1 250.02 490.1 252.323V252.396C490.102 253.084 490.376 253.744 490.863 254.231C491.349 254.717 492.009 254.99 492.696 254.99H511.094C511.782 254.99 512.441 254.717 512.928 254.231C513.414 253.744 513.688 253.084 513.69 252.396V252.316Z" fill="black"/>
</g>
<path d="M504.397 250.617C504.397 246.841 502.94 236.164 499.45 233.317C496.748 231.114 490.364 230.464 487.211 230.278H486.913C485.238 230.278 474.078 230.596 470.734 233.324C467.237 236.17 465.78 246.848 465.787 250.624V250.737C465.787 251.865 466.234 252.947 467.03 253.744C467.826 254.542 468.906 254.99 470.032 254.99H500.152C501.278 254.99 502.358 254.542 503.154 253.744C503.95 252.947 504.397 251.865 504.397 250.737V250.617Z" fill="#263238"/>
<g opacity="0.3">
<path opacity="0.3" d="M467.503 361.027C467.503 361.027 399.951 352.128 397.209 351.796C393.03 351.292 390.791 354 390.791 357.231C390.791 359.501 390.487 368.174 390.308 373.105C390.253 374.532 390.582 375.949 391.262 377.205C391.941 378.461 392.945 379.511 394.169 380.245C396.047 381.316 398.048 382.152 400.129 382.733C405.812 384.406 440.051 385.992 447.151 386.304C447.982 386.342 448.794 386.054 449.416 385.501C451.972 383.244 458.814 377.086 460.966 374.04C468.019 364.046 467.523 361.027 467.523 361.027H467.503ZM432.442 379.528L399.778 374.219L401.063 356.302L445.436 360.337L432.442 379.528Z" fill="black"/>
</g>
<g opacity="0.3">
<path opacity="0.3" d="M391.811 315.013C391.811 315.013 388.499 325.193 409.725 329.931C431.249 334.729 463.098 343.422 463.098 343.422L445.992 331.205C445.992 331.205 396.791 322.976 395.566 315.438C394.162 306.811 395.566 297.116 395.566 297.116L391.811 315.013Z" fill="black"/>
</g>
<path d="M474.847 360.722C474.768 360.717 474.69 360.701 474.616 360.676L473.953 360.516L471.37 359.853C469.119 359.302 465.874 358.492 461.84 357.603C453.774 355.785 442.561 353.575 430.111 351.544C423.885 350.529 417.945 349.593 412.52 348.89L404.831 347.835C402.615 347.451 400.372 347.244 398.123 347.218C396.272 347.177 394.452 347.7 392.904 348.717C391.756 349.518 390.778 350.54 390.03 351.724C389.383 352.732 388.946 353.86 388.745 355.042C388.759 354.73 388.806 354.421 388.884 354.119C389.091 353.247 389.44 352.416 389.917 351.657C390.657 350.442 391.634 349.39 392.791 348.565C394.358 347.514 396.205 346.964 398.089 346.985C400.353 346.991 402.612 347.182 404.845 347.556L412.54 348.585C417.964 349.248 423.912 350.197 430.137 351.239C442.594 353.276 453.807 355.526 461.867 357.404C465.9 358.326 469.152 359.176 471.377 359.76L473.94 360.476L474.602 360.669C474.686 360.675 474.769 360.693 474.847 360.722V360.722Z" fill="#263238"/>
<path d="M389.11 334.403C389.092 334.278 389.092 334.151 389.11 334.025C389.11 333.74 389.11 333.361 389.11 332.937C389.11 331.994 389.11 330.627 389.11 328.955C389.15 325.577 389.328 320.912 389.772 315.776C390.216 310.64 390.865 306.014 391.421 302.683C391.699 301.018 391.944 299.677 392.13 298.748L392.355 297.686C392.37 297.56 392.403 297.437 392.454 297.321C392.47 297.447 392.47 297.574 392.454 297.7C392.415 297.978 392.362 298.337 392.295 298.775C392.15 299.75 391.944 301.091 391.699 302.723C391.203 306.041 390.607 310.686 390.15 315.809C389.693 320.932 389.487 325.584 389.375 328.955C389.328 330.608 389.295 331.961 389.269 332.937C389.269 333.381 389.269 333.74 389.269 334.025C389.231 334.157 389.178 334.284 389.11 334.403V334.403Z" fill="#263238"/>
<path d="M403.891 288.562C403.863 288.291 403.863 288.017 403.891 287.746C403.891 287.426 403.911 287.107 403.95 286.79C403.997 286.419 404.017 285.994 404.103 285.529C404.503 283.116 405.081 280.736 405.831 278.409C406.686 275.682 407.606 273.259 408.302 271.521C408.653 270.651 408.964 269.955 409.169 269.477C409.258 269.219 409.383 268.976 409.54 268.754C409.482 269.019 409.4 269.279 409.295 269.53C409.09 270.087 408.831 270.784 408.533 271.607C407.871 273.366 407.017 275.794 406.162 278.515C405.407 280.824 404.788 283.175 404.308 285.556C403.97 287.394 403.957 288.562 403.891 288.562Z" fill="#263238"/>
<path d="M407.906 293.207C407.906 293.207 396.826 289.159 395.408 297.766C393.991 306.373 394.137 314.94 395.998 317.953C397.859 320.966 414.966 325.06 414.966 325.06L444.549 331.577C444.549 331.577 446.682 332.021 445.397 329.586C443.96 326.878 436.125 309.565 431.595 305.358C423.237 297.6 407.906 293.207 407.906 293.207Z" fill="#F5F5F5"/>
<g opacity="0.3">
<path opacity="0.3" d="M418.826 325.903C418.826 325.903 418.872 305.616 417.389 303.34C415.905 301.064 398.468 293.001 398.468 293.001C398.468 293.001 400.163 291.555 403.647 292.218C408.528 293.164 413.264 294.748 417.733 296.93C422.548 299.405 430.25 302.949 433.124 307.05C434.376 308.828 436.999 313.089 439.489 317.707C442.734 323.713 445.807 330.13 445.807 330.488C445.807 331.225 445.979 331.895 443.105 331.285C436.442 329.884 418.826 325.903 418.826 325.903Z" fill="black"/>
</g>
<path d="M428.463 324.071C432.428 324.071 435.642 320.851 435.642 316.878C435.642 312.905 432.428 309.684 428.463 309.684C424.498 309.684 421.284 312.905 421.284 316.878C421.284 320.851 424.498 324.071 428.463 324.071Z" fill="#F5F5F5"/>
<path d="M435.636 316.878C435.573 316.293 435.475 315.712 435.344 315.139C434.931 313.588 434.01 312.221 432.728 311.257C431.788 310.55 430.685 310.089 429.522 309.918C428.358 309.746 427.17 309.869 426.066 310.275C424.763 310.752 423.631 311.607 422.814 312.73C421.932 313.932 421.456 315.386 421.456 316.878C421.456 318.37 421.932 319.823 422.814 321.025C423.636 322.144 424.767 322.997 426.066 323.481C427.248 323.914 428.523 324.024 429.761 323.799C430.841 323.597 431.857 323.142 432.728 322.472C434.01 321.508 434.931 320.141 435.344 318.59C435.475 318.017 435.573 317.436 435.636 316.851C435.676 317.447 435.622 318.044 435.477 318.623C435.152 319.979 434.445 321.212 433.44 322.176C432.435 323.14 431.174 323.793 429.808 324.058C428.521 324.305 427.192 324.199 425.96 323.753C425.292 323.519 424.664 323.184 424.099 322.757C423.501 322.326 422.975 321.802 422.543 321.204C421.609 319.946 421.105 318.419 421.105 316.851C421.105 315.283 421.609 313.757 422.543 312.498C423.407 311.33 424.596 310.444 425.96 309.95C427.192 309.503 428.521 309.398 429.808 309.645C430.925 309.861 431.976 310.338 432.874 311.038C434.182 312.043 435.102 313.471 435.477 315.079C435.625 315.667 435.679 316.274 435.636 316.878Z" fill="#263238"/>
<path d="M428.461 316.566C429.712 316.567 430.939 316.903 432.015 317.54C433.091 318.178 433.977 319.092 434.581 320.189C435.166 319.124 435.463 317.925 435.444 316.71C435.426 315.494 435.091 314.305 434.474 313.258C433.856 312.212 432.977 311.345 431.924 310.743C430.87 310.14 429.678 309.824 428.465 309.824C427.252 309.824 426.06 310.14 425.006 310.743C423.952 311.345 423.073 312.212 422.456 313.258C421.839 314.305 421.504 315.494 421.485 316.71C421.466 317.925 421.764 319.124 422.349 320.189C422.951 319.092 423.836 318.178 424.911 317.54C425.986 316.903 427.212 316.567 428.461 316.566V316.566Z" fill="#E0E0E0"/>
<path d="M431.554 316.639C431.554 317.252 431.373 317.851 431.033 318.361C430.693 318.87 430.21 319.268 429.645 319.502C429.08 319.737 428.458 319.798 427.858 319.679C427.258 319.559 426.707 319.264 426.275 318.83C425.842 318.397 425.548 317.845 425.428 317.244C425.309 316.642 425.37 316.019 425.604 315.453C425.838 314.887 426.235 314.403 426.743 314.062C427.252 313.722 427.85 313.54 428.462 313.54C429.282 313.54 430.069 313.867 430.649 314.448C431.229 315.029 431.554 315.817 431.554 316.639V316.639Z" fill="white"/>
<path d="M431.556 316.639C431.523 316.639 431.556 316.367 431.397 315.902C431.209 315.25 430.811 314.678 430.264 314.276C429.827 313.951 429.308 313.754 428.765 313.707C428.222 313.66 427.677 313.765 427.19 314.01C426.703 314.255 426.294 314.631 426.008 315.096C425.722 315.561 425.571 316.096 425.571 316.642C425.571 317.188 425.722 317.723 426.008 318.188C426.294 318.653 426.703 319.029 427.19 319.274C427.677 319.52 428.222 319.625 428.765 319.578C429.308 319.53 429.827 319.333 430.264 319.008C430.811 318.606 431.209 318.034 431.397 317.382C431.529 316.917 431.523 316.639 431.556 316.639C431.589 316.639 431.556 316.712 431.556 316.838C431.56 317.032 431.542 317.225 431.503 317.415C431.349 318.123 430.953 318.755 430.383 319.2C429.959 319.536 429.456 319.759 428.922 319.847C428.388 319.935 427.84 319.886 427.33 319.705C426.7 319.479 426.154 319.064 425.769 318.516C425.383 317.967 425.176 317.313 425.176 316.642C425.176 315.971 425.383 315.317 425.769 314.769C426.154 314.22 426.7 313.805 427.33 313.58C427.84 313.398 428.388 313.349 428.922 313.437C429.456 313.525 429.959 313.748 430.383 314.084C430.953 314.53 431.349 315.161 431.503 315.869C431.542 316.057 431.559 316.248 431.556 316.44C431.576 316.572 431.569 316.639 431.556 316.639Z" fill="#263238"/>
<path d="M431.171 311.788C431.045 312.007 430.396 311.788 429.416 311.755C428.187 311.621 426.946 311.862 425.855 312.444C424.764 313.026 423.872 313.923 423.297 315.02C422.8 315.869 422.595 316.513 422.343 316.499C422.091 316.486 421.879 315.763 422.157 314.575C422.36 313.799 422.72 313.073 423.216 312.444C423.712 311.814 424.332 311.294 425.038 310.915C425.743 310.537 426.52 310.309 427.318 310.246C428.115 310.182 428.918 310.285 429.674 310.547C430.82 310.972 431.297 311.595 431.171 311.788Z" fill="white"/>
<path d="M432.985 312.916C432.588 313.188 432.23 313.347 432.164 313.281C432.098 313.215 432.25 312.856 432.508 312.452C432.767 312.047 433.171 311.854 433.369 312.047C433.568 312.239 433.363 312.644 432.985 312.916Z" fill="white"/>
<path d="M541.453 294.255C541.358 294.264 541.263 294.264 541.168 294.255H540.34L537.135 294.289L525.372 294.328H486.55L465.172 294.289H455.847H451.621C450.338 294.188 449.062 294.558 448.032 295.33L442.919 299.65L440.806 301.422C440.184 301.901 439.469 302.244 438.707 302.431C438.102 302.576 437.478 302.62 436.859 302.564L435.535 302.497L434.707 302.444H434.422H434.707H435.535L436.859 302.484C437.469 302.526 438.082 302.47 438.674 302.318C439.414 302.127 440.107 301.784 440.707 301.309L442.793 299.524L447.899 295.158C448.967 294.342 450.295 293.945 451.635 294.043H465.172H486.55L525.372 294.136L537.135 294.209H540.34H541.168L541.453 294.255Z" fill="#263238"/>
<path d="M680.273 388.845C679.915 388.095 679.16 387.558 677.67 387.724C673.531 388.195 630.139 389.164 624.158 387.724C618.178 386.284 598.257 363.635 589.826 362.089C582.753 360.795 548.361 360.098 537.453 360.417C526.545 360.105 492.16 360.795 485.087 362.089C476.656 363.635 457.033 388.5 451.052 389.96C445.072 391.42 401.382 388.215 397.242 387.744C395.746 387.578 394.991 388.115 394.64 388.865C394.479 389.232 394.412 389.633 394.443 390.032C394.475 390.431 394.604 390.817 394.819 391.154C395.035 391.491 395.33 391.77 395.679 391.966C396.027 392.162 396.419 392.268 396.819 392.276C406.09 392.535 441.747 392.94 448.423 392.827L539.082 391.168C557.182 391.281 619.026 391.679 625.576 391.772C633.298 391.878 668.849 392.535 678.088 392.276C678.49 392.269 678.884 392.162 679.235 391.966C679.586 391.769 679.883 391.488 680.099 391.148C680.315 390.809 680.445 390.421 680.475 390.019C680.505 389.617 680.436 389.214 680.273 388.845Z" fill="#263238"/>
<path d="M525.288 213.927C525.645 213.927 526.718 220.171 531.745 220.052C536.772 219.932 549.044 220.052 549.044 220.052V212.248L525.288 213.927Z" fill="#263238"/>
<path d="M382.939 262.761C382.576 262.735 382.222 262.634 381.899 262.464C381.576 262.295 381.292 262.06 381.064 261.776C380.836 261.491 380.669 261.162 380.573 260.81C380.478 260.458 380.456 260.09 380.508 259.728C381.171 254.97 383.674 245.72 392.84 244.353C398.502 243.424 404.264 243.277 409.966 243.915C411.39 244.094 412.099 245.395 412.271 246.821C413.053 253.365 412.417 261.48 410.536 262.476C408.655 263.471 389.635 263.292 382.939 262.761Z" fill="#F3123C"/>
<path d="M446.409 212.248C446.395 212.304 446.373 212.357 446.343 212.407L446.118 212.845L445.224 214.524C444.423 216.004 443.283 218.101 441.913 220.675L430.773 240.895L421.302 257.93L413.713 263.776L411.607 265.376L411.044 265.78C410.984 265.833 410.917 265.878 410.845 265.913C410.901 265.854 410.961 265.799 411.024 265.747L411.554 265.309L413.613 263.657L421.137 257.684L421.097 257.731L430.515 240.663L441.773 220.49L445.211 214.398L446.164 212.745L446.416 212.321C446.413 212.296 446.41 212.272 446.409 212.248V212.248Z" fill="#263238"/>
<path d="M458.63 208.512C458.102 208.774 457.555 208.996 456.994 209.175C455.673 209.656 454.423 210.315 453.279 211.133C452.177 212.005 451.197 213.02 450.365 214.152C450.041 214.644 449.682 215.112 449.292 215.553C449.519 215.006 449.813 214.488 450.166 214.013C451.713 211.546 454.113 209.736 456.908 208.93C457.461 208.717 458.04 208.576 458.63 208.512V208.512Z" fill="#263238"/>
<g opacity="0.3">
<path opacity="0.3" d="M421.203 257.91L420.541 258.348C420.283 258.03 435.84 290.705 443.164 299.326L447.973 295.231C437.621 285.158 429.859 269.503 421.203 257.91Z" fill="black"/>
</g>
<path d="M452.065 386.357C452.191 386.311 452.312 386.256 452.429 386.191C452.768 385.979 453.093 385.746 453.403 385.494C454.231 384.831 455.39 383.822 456.88 382.475C459.834 379.774 464.019 375.766 469.052 370.676C470.311 369.402 471.613 368.057 472.96 366.641C474.312 365.117 475.749 363.67 477.265 362.308C478.975 360.934 480.899 359.851 482.96 359.103C485.148 358.322 487.432 357.847 489.749 357.689C490.934 357.603 492.139 357.596 493.345 357.583L497.02 357.55L504.597 357.477L520.525 357.324L576.427 356.866L593.368 356.76H599.17C599.442 356.76 599.581 356.76 599.581 356.76H599.17H597.971L593.368 356.84L576.427 357.046L520.525 357.61L504.597 357.756L497.02 357.822H493.345C492.133 357.822 490.947 357.822 489.768 357.922C487.482 358.071 485.226 358.536 483.066 359.302C481.033 360.034 479.133 361.097 477.444 362.447C475.933 363.796 474.5 365.229 473.152 366.741C471.827 368.154 470.503 369.488 469.225 370.762C464.171 375.832 459.953 379.82 456.973 382.488C455.476 383.815 454.29 384.831 453.443 385.461C453.129 385.707 452.797 385.929 452.449 386.125C452.344 386.235 452.211 386.315 452.065 386.357V386.357Z" fill="#263238"/>
<g opacity="0.3">
<path opacity="0.3" d="M416.383 346.786C414.413 344.681 412.219 342.798 409.839 341.172C407.409 339.626 403.919 337.854 401.713 339.261C400.598 340.482 399.701 341.888 399.064 343.415C398.923 343.66 398.836 343.933 398.809 344.214C398.782 344.496 398.814 344.78 398.905 345.048C399.216 345.678 400.018 345.844 400.713 345.93L415.912 347.841C416.21 347.881 416.575 347.881 416.72 347.622C416.866 347.364 416.614 347.012 416.383 346.786Z" fill="white"/>
</g>
<g opacity="0.3">
<path opacity="0.3" d="M475.636 337.151C514.445 347.496 555.42 344.902 595.296 340.323C601.455 339.613 608.151 338.584 612.356 334.018" fill="black"/>
</g>
<path d="M620.224 301.31C605.071 299.16 573.202 298.098 541.592 298.118C509.981 298.138 478.106 299.16 462.953 301.31C461.834 301.464 460.761 301.858 459.807 302.465C458.854 303.072 458.041 303.877 457.426 304.827C456.811 305.776 456.407 306.847 456.242 307.967C456.077 309.087 456.154 310.23 456.469 311.317C456.469 311.37 456.469 311.423 456.516 311.483C458.171 316.931 464.708 334.337 475.119 336.945C479.947 338.159 507.153 339.321 536.181 339.553V339.599H541.592H546.996V339.553C576.024 339.321 603.236 338.159 608.064 336.945C618.469 334.337 625.006 316.931 626.661 311.483C626.661 311.423 626.694 311.37 626.708 311.317C627.022 310.23 627.1 309.087 626.935 307.967C626.77 306.847 626.366 305.776 625.751 304.827C625.135 303.877 624.323 303.072 623.37 302.465C622.416 301.858 621.343 301.464 620.224 301.31V301.31Z" fill="#263238"/>
<path d="M624.059 334.642L623.661 334.861L622.469 335.472L620.535 336.461C620.145 336.653 619.741 336.879 619.29 337.084L617.846 337.748C612.094 340.351 606.129 342.456 600.018 344.039C590.943 346.343 581.692 347.885 572.361 348.651C561.838 349.626 550.215 349.839 538.035 349.792C525.856 349.746 514.227 349.182 503.743 347.802C494.45 346.646 485.288 344.602 476.384 341.696C470.386 339.725 464.573 337.227 459.013 334.231C458.026 333.713 457.171 333.202 456.423 332.771C455.675 332.34 455.059 331.968 454.562 331.649L453.43 330.939L453.052 330.687C453.052 330.687 453.191 330.754 453.449 330.906L454.595 331.57C455.099 331.875 455.721 332.233 456.476 332.665C457.231 333.096 458.085 333.587 459.079 334.092C464.652 337.038 470.469 339.498 476.464 341.444C485.362 344.311 494.511 346.327 503.789 347.463C514.246 348.837 525.856 349.381 538.035 349.454C550.215 349.527 561.824 349.301 572.335 348.339C581.649 347.59 590.886 346.074 599.952 343.807C606.061 342.25 612.029 340.183 617.793 337.629L619.237 337.005C619.694 336.799 620.098 336.587 620.489 336.394L622.443 335.439L623.641 334.855L624.059 334.642Z" fill="#263238"/>
<path d="M625.925 309.797C625.925 309.896 588.096 309.969 541.439 309.969C494.781 309.969 456.939 309.896 456.939 309.797C456.939 309.697 494.761 309.625 541.439 309.625C588.116 309.625 625.925 309.691 625.925 309.797Z" fill="#455A64"/>
<path d="M625.925 304.628C625.925 304.72 588.096 304.8 541.439 304.8C494.781 304.8 456.939 304.72 456.939 304.628C456.939 304.535 494.761 304.455 541.439 304.455C588.116 304.455 625.925 304.535 625.925 304.628Z" fill="#455A64"/>
<path d="M602.013 299.471C602.013 299.564 574.932 299.643 541.54 299.643C508.148 299.643 481.055 299.564 481.055 299.471C481.055 299.379 508.129 299.299 541.54 299.299C574.952 299.299 602.013 299.372 602.013 299.471Z" fill="#455A64"/>
<path d="M625.925 315.013C625.925 315.105 588.096 315.185 541.439 315.185C494.781 315.185 456.939 315.105 456.939 315.013C456.939 314.92 494.761 314.84 541.439 314.84C588.116 314.84 625.925 314.92 625.925 315.013Z" fill="#455A64"/>
<path d="M622.172 320.242C622.172 320.335 585.846 320.414 541.043 320.414C496.24 320.414 459.908 320.335 459.908 320.242C459.908 320.149 496.227 320.07 541.043 320.07C585.859 320.07 622.172 320.149 622.172 320.242Z" fill="#455A64"/>
<path d="M620.528 325.471C620.528 325.564 585.183 325.643 541.592 325.643C498.001 325.643 462.648 325.564 462.648 325.471C462.648 325.378 497.987 325.299 541.592 325.299C585.196 325.299 620.528 325.372 620.528 325.471Z" fill="#455A64"/>
<path d="M616.435 330.7C616.435 330.793 582.91 330.872 541.598 330.872C500.285 330.872 466.76 330.793 466.76 330.7C466.76 330.607 500.278 330.528 541.631 330.528C582.983 330.528 616.435 330.601 616.435 330.7Z" fill="#455A64"/>
<path d="M611.376 335.923C611.376 336.022 580.322 336.095 542.015 336.095C503.709 336.095 472.642 336.022 472.642 335.923C472.642 335.824 503.696 335.751 542.015 335.751C580.335 335.751 611.376 335.83 611.376 335.923Z" fill="#455A64"/>
<path d="M412.507 390.093V390.139C412.586 390.408 412.603 390.692 412.555 390.968C412.508 391.244 412.399 391.506 412.235 391.733C412.072 391.961 411.858 392.147 411.612 392.279C411.365 392.412 411.091 392.485 410.812 392.495L399.805 392.309C399.37 392.256 398.966 392.056 398.659 391.743C398.352 391.429 398.161 391.021 398.116 390.584L398.043 389.967C398.025 389.701 398.065 389.434 398.158 389.185C398.252 388.935 398.398 388.709 398.586 388.52C398.774 388.332 399 388.185 399.249 388.092C399.498 387.998 399.764 387.958 400.03 387.976L410.938 388.766C411.302 388.803 411.647 388.95 411.927 389.186C412.207 389.423 412.409 389.739 412.507 390.093Z" fill="white"/>
<path d="M617.88 383.682C617.88 383.775 582.389 383.854 538.606 383.854C494.822 383.854 459.324 383.775 459.324 383.682C459.324 383.589 494.816 383.51 538.606 383.51C582.395 383.51 617.88 383.583 617.88 383.682Z" fill="#455A64"/>
<path d="M494.273 389.469H489.624L489.299 383.682H494.624L494.273 389.469Z" fill="#455A64"/>
<path d="M537.766 389.469H533.117L532.786 383.682H538.117L537.766 389.469Z" fill="#455A64"/>
<path d="M581.256 389.469H576.607L576.275 383.682H581.607L581.256 389.469Z" fill="#455A64"/>
<path d="M615.424 381.585C607.013 374.326 595.688 363.157 589.854 362.089C582.78 360.795 548.388 360.098 537.487 360.417C526.58 360.105 492.188 360.795 485.114 362.089C479.69 363.084 469.63 373.735 461.557 381.585H615.424Z" fill="#455A64"/>
<path d="M391.599 377.783C391.712 377.661 391.836 377.55 391.97 377.451L393.063 376.536L397.215 373.158H397.255H397.301L420.17 375.972L432.66 377.558H432.693L443.892 383.736L447.065 385.514L447.899 385.999C447.999 386.047 448.092 386.107 448.177 386.178C448.072 386.141 447.97 386.095 447.873 386.038L447.018 385.6L443.8 383.902L432.541 377.836H432.594L420.097 376.277L397.242 373.344H397.328L393.116 376.662L392.01 377.485C391.879 377.593 391.742 377.692 391.599 377.783V377.783Z" fill="#263238"/>
<path d="M448.219 365.115C448.219 365.115 450.47 361.306 448.219 360.344C445.636 359.235 402.522 354.053 400.753 353.9C397.256 353.588 395.992 355.174 395.17 359.288C394.349 363.403 392.521 373.609 395.992 376.575C399.462 379.542 404.866 380.856 415.542 381.512C426.218 382.169 431.841 382.534 437.099 379.568C442.358 376.602 448.219 365.115 448.219 365.115Z" fill="#263238"/>
<path d="M445.994 331.205C445.888 331.251 445.279 330.137 444.233 328.093C443.186 326.049 441.703 323.096 439.776 319.499C438.795 317.707 437.729 315.743 436.464 313.699C435.184 311.519 433.771 309.421 432.232 307.415C431.408 306.369 430.481 305.408 429.464 304.548C428.39 303.651 427.238 302.854 426.02 302.166C424.782 301.443 423.444 300.759 422.106 300.042C420.768 299.326 419.404 298.622 418.02 297.939C415.354 296.598 412.591 295.46 409.755 294.534C408.405 294.105 407.034 293.744 405.649 293.453C404.366 293.136 403.049 292.983 401.728 292.995C400.581 292.953 399.451 293.285 398.508 293.942C397.566 294.599 396.862 295.545 396.502 296.638C396.102 297.678 395.79 298.751 395.569 299.843C395.337 300.925 395.098 301.993 394.86 302.982L392.588 312.412C392.059 314.642 391.761 315.876 391.635 315.856C391.509 315.836 391.595 314.562 391.933 312.286C392.271 310.01 392.853 306.738 393.648 302.723C393.84 301.715 394.039 300.659 394.244 299.565C394.445 298.378 394.751 297.212 395.158 296.081C395.612 294.772 396.43 293.621 397.516 292.763C398.726 291.908 400.162 291.432 401.642 291.396C403.094 291.356 404.544 291.501 405.96 291.827C407.403 292.114 408.831 292.475 410.238 292.909C413.175 293.851 416.034 295.022 418.788 296.412C420.199 297.076 421.57 297.833 422.914 298.549C424.258 299.266 425.563 299.963 426.888 300.726C428.18 301.477 429.403 302.34 430.544 303.307C431.63 304.255 432.618 305.311 433.491 306.459C435.043 308.544 436.455 310.729 437.716 313.002C438.915 315.113 439.928 317.123 440.849 318.975C442.65 322.671 443.968 325.717 444.822 327.847C445.677 329.977 446.1 331.152 445.994 331.205Z" fill="#263238"/>
<path d="M407.077 309.452C408.671 309.455 410.236 309.888 411.606 310.705C412.976 311.522 414.102 312.694 414.865 314.097C415.609 312.741 415.987 311.214 415.963 309.667C415.939 308.12 415.513 306.606 414.727 305.274C413.941 303.942 412.822 302.838 411.48 302.071C410.139 301.305 408.621 300.901 407.077 300.901C405.532 300.901 404.015 301.305 402.673 302.071C401.332 302.838 400.213 303.942 399.427 305.274C398.64 306.606 398.214 308.12 398.19 309.667C398.166 311.214 398.544 312.741 399.288 314.097C400.051 312.694 401.177 311.522 402.547 310.705C403.917 309.888 405.482 309.455 407.077 309.452Z" fill="#E0E0E0"/>
<path d="M407.078 313.327C409.192 313.327 410.906 311.61 410.906 309.492C410.906 307.373 409.192 305.656 407.078 305.656C404.964 305.656 403.25 307.373 403.25 309.492C403.25 311.61 404.964 313.327 407.078 313.327Z" fill="white"/>
<path d="M410.905 309.492C410.905 309.492 410.905 309.153 410.726 308.569C410.493 307.757 409.999 307.043 409.322 306.539C408.775 306.128 408.125 305.878 407.444 305.817C406.763 305.756 406.078 305.886 405.467 306.192C404.855 306.499 404.341 306.97 403.982 307.553C403.623 308.135 403.432 308.807 403.432 309.492C403.432 310.177 403.623 310.848 403.982 311.431C404.341 312.014 404.855 312.485 405.467 312.791C406.078 313.098 406.763 313.228 407.444 313.167C408.125 313.105 408.775 312.856 409.322 312.445C409.999 311.94 410.493 311.227 410.726 310.414C410.885 309.837 410.872 309.492 410.905 309.492C410.938 309.492 410.905 309.578 410.905 309.737C410.908 309.976 410.881 310.215 410.826 310.447C410.636 311.318 410.146 312.094 409.441 312.637C409.024 312.959 408.546 313.195 408.037 313.33C407.528 313.466 406.996 313.498 406.474 313.426C405.952 313.354 405.45 313.178 404.996 312.909C404.543 312.641 404.147 312.284 403.832 311.861C403.274 311.089 403.012 310.142 403.092 309.192C403.172 308.242 403.59 307.353 404.269 306.685C404.948 306.018 405.843 305.617 406.792 305.554C407.741 305.492 408.681 305.773 409.441 306.346C410.146 306.89 410.636 307.666 410.826 308.536C410.881 308.769 410.907 309.007 410.905 309.246C410.925 309.406 410.918 309.492 410.905 309.492Z" fill="#263238"/>
<path d="M415.965 309.797C415.901 309.071 415.785 308.35 415.62 307.64C415.111 305.714 413.97 304.015 412.382 302.816C411.296 301.992 410.033 301.435 408.693 301.19C407.155 300.914 405.572 301.049 404.103 301.582C403.313 301.867 402.569 302.27 401.898 302.776C401.189 303.292 400.567 303.92 400.057 304.634C398.955 306.129 398.361 307.939 398.361 309.797C398.361 311.655 398.955 313.465 400.057 314.96C400.565 315.676 401.187 316.304 401.898 316.818C402.568 317.327 403.312 317.73 404.103 318.012C405.476 318.517 406.953 318.668 408.4 318.452C409.846 318.237 411.215 317.661 412.382 316.778C413.972 315.58 415.113 313.881 415.62 311.954C415.786 311.244 415.901 310.523 415.965 309.797C415.981 309.987 415.981 310.178 415.965 310.368C415.966 310.59 415.948 310.812 415.912 311.031C415.879 311.345 415.824 311.655 415.746 311.96C415.342 313.632 414.466 315.152 413.224 316.339C411.982 317.526 410.425 318.331 408.739 318.656C407.152 318.962 405.512 318.834 403.991 318.285C402.307 317.674 400.841 316.577 399.779 315.132C398.63 313.582 398.01 311.702 398.01 309.77C398.01 307.839 398.63 305.959 399.779 304.409C400.314 303.67 400.962 303.02 401.699 302.484C402.396 301.96 403.169 301.546 403.991 301.256C405.512 300.71 407.152 300.582 408.739 300.885C410.43 301.208 411.992 302.013 413.239 303.203C414.485 304.393 415.362 305.917 415.766 307.594C415.844 307.899 415.899 308.21 415.932 308.523C415.968 308.742 415.985 308.964 415.985 309.187C415.996 309.39 415.99 309.595 415.965 309.797V309.797Z" fill="#263238"/>
<path d="M410.467 303.466C410.335 303.685 409.554 303.4 408.322 303.281C406.761 303.068 405.172 303.353 403.782 304.095C402.391 304.837 401.269 305.998 400.573 307.415C399.984 308.51 399.785 309.319 399.533 309.299C399.282 309.279 399.063 308.397 399.434 306.97C399.697 306.036 400.145 305.164 400.753 304.408C401.361 303.652 402.115 303.027 402.97 302.57C403.825 302.114 404.763 301.836 405.729 301.753C406.694 301.669 407.666 301.783 408.587 302.086C409.944 302.57 410.554 303.287 410.467 303.466Z" fill="white"/>
<path d="M412.662 304.88C412.264 305.145 411.887 305.278 411.787 305.185C411.688 305.092 411.787 304.707 412.072 304.309C412.357 303.911 412.734 303.725 412.993 303.951C413.251 304.177 413.052 304.608 412.662 304.88Z" fill="white"/>
<path d="M463.099 343.422C462.986 343.886 451.098 341.278 436.555 337.595C422.011 333.912 410.315 330.554 410.468 330.09C410.62 329.625 422.462 332.24 437.012 335.916C451.562 339.593 463.218 342.977 463.099 343.422Z" fill="#263238"/>
<path d="M393.038 294.687C393.031 294.619 393.031 294.55 393.038 294.481C393.058 294.28 393.091 294.081 393.137 293.884C393.308 293.124 393.582 292.392 393.952 291.708C394.552 290.616 395.427 289.701 396.489 289.053C396.813 288.868 397.147 288.7 397.489 288.549C397.853 288.443 398.224 288.277 398.628 288.197C399.038 288.102 399.454 288.035 399.873 287.998C400.314 287.962 400.757 287.962 401.197 287.998C403.152 288.203 405.084 288.581 406.972 289.126C409.019 289.67 411.171 290.354 413.416 291.117C417.9 292.683 422.774 294.561 427.755 296.87C428.371 297.169 428.987 297.468 429.583 297.793C430.178 298.125 430.743 298.509 431.271 298.941C432.311 299.768 433.257 300.707 434.093 301.741C435.629 303.851 436.987 305.922 438.311 307.899C440.96 311.881 443.206 315.491 445.04 318.583C446.875 321.676 448.272 324.231 449.219 326.002C449.696 326.885 450.054 327.582 450.292 328.053L450.564 328.59C450.597 328.652 450.624 328.716 450.643 328.783C450.599 328.73 450.562 328.672 450.53 328.61L450.232 328.086L449.1 326.095C448.12 324.343 446.683 321.815 444.828 318.736C442.974 315.657 440.689 312.047 438.046 308.118C436.722 306.128 435.338 304.057 433.828 301.993C433.007 300.98 432.078 300.059 431.059 299.246C430.545 298.83 429.995 298.459 429.417 298.138C428.828 297.819 428.218 297.521 427.602 297.222C422.649 294.919 417.781 293.035 413.31 291.462C411.072 290.679 408.933 289.989 406.9 289.431C405.029 288.88 403.115 288.494 401.178 288.277C400.748 288.244 400.316 288.244 399.886 288.277C399.478 288.307 399.073 288.369 398.674 288.463C398.298 288.552 397.927 288.66 397.561 288.788C397.224 288.954 396.899 289.08 396.581 289.265C395.541 289.884 394.677 290.759 394.071 291.807C393.713 292.458 393.437 293.151 393.25 293.871C393.184 294.13 393.144 294.322 393.118 294.455C393.099 294.535 393.073 294.613 393.038 294.687Z" fill="#263238"/>
<path d="M395.235 244.392C395.122 244.649 394.985 244.893 394.825 245.122C394.54 245.58 394.129 246.244 393.646 247.073C391.091 251.386 389.088 256.003 387.685 260.817C387.42 261.739 387.215 262.489 387.076 263.006C387.024 263.283 386.94 263.553 386.824 263.809C386.836 263.53 386.876 263.252 386.944 262.98C387.043 262.449 387.215 261.686 387.454 260.75C388.721 255.87 390.732 251.214 393.414 246.947C393.924 246.131 394.361 245.481 394.686 245.049C394.843 244.81 395.028 244.59 395.235 244.392V244.392Z" fill="#263238"/>
<g opacity="0.3">
<path opacity="0.3" d="M390.282 298.443C389.62 298.662 386.03 300.905 384.507 301.761C383.725 302.158 383.03 302.707 382.462 303.376C381.893 304.045 381.463 304.82 381.196 305.656C380.759 307.348 381.242 309.12 381.719 310.792C383.288 316.267 385.11 326.108 386.679 331.583C387.911 321.629 389.249 304.747 390.269 298.443" fill="white"/>
</g>
<path d="M439.609 377.199C439.609 377.299 429.357 375.952 416.74 374.206C404.124 372.461 393.911 370.961 393.911 370.849C393.911 370.736 404.164 372.096 416.787 373.848C429.41 375.6 439.609 377.106 439.609 377.199Z" fill="#455A64"/>
<path d="M436.343 379.707C436.201 379.725 436.056 379.725 435.913 379.707L434.688 379.568L430.178 379.024L415.303 377.245C409.495 376.582 404.236 375.918 400.435 375.367C398.534 375.102 396.998 374.883 395.945 374.704L394.719 374.505C394.577 374.492 394.437 374.461 394.302 374.412C394.445 374.401 394.589 374.401 394.733 374.412L395.958 374.545L400.468 375.089L415.343 376.867C421.151 377.531 426.409 378.194 430.211 378.752C432.112 379.011 433.641 379.236 434.701 379.415L435.92 379.614C436.063 379.632 436.205 379.663 436.343 379.707V379.707Z" fill="#455A64"/>
<path d="M429.184 381.585C427.717 381.576 426.253 381.468 424.8 381.26C422.091 380.988 418.356 380.597 414.204 380.086C410.051 379.575 406.342 379.143 403.647 378.792L400.448 378.354C400.056 378.311 399.666 378.242 399.283 378.148C399.677 378.138 400.071 378.162 400.461 378.221L403.673 378.546L414.27 379.747L424.833 381.021L428.025 381.426C428.774 381.519 429.217 381.585 429.184 381.585Z" fill="#455A64"/>
<path d="M441.992 374.346C441.992 374.439 431.203 373.098 417.925 371.346C404.646 369.594 393.891 368.101 393.904 368.028C393.917 367.955 404.692 369.276 417.971 371.021C431.25 372.766 442.005 374.246 441.992 374.346Z" fill="#455A64"/>
<path d="M443.86 371.691C443.86 371.784 432.688 370.397 418.946 368.586C405.203 366.774 394.057 365.228 394.07 365.128C394.084 365.029 405.236 366.455 418.985 368.24C432.734 370.026 443.874 371.598 443.86 371.691Z" fill="#455A64"/>
<path d="M445.958 368.559C445.958 368.652 434.481 367.232 420.341 365.354C406.202 363.476 394.758 361.91 394.771 361.81C394.784 361.711 406.248 363.137 420.388 365.015C434.527 366.893 445.971 368.466 445.958 368.559Z" fill="#455A64"/>
<path d="M447.556 365.36C447.556 365.453 435.867 363.993 421.482 362.095C407.097 360.198 395.441 358.585 395.454 358.492C395.468 358.399 407.137 359.859 421.528 361.757C435.92 363.655 447.589 365.268 447.556 365.36Z" fill="#455A64"/>
<path d="M449.198 362.162C449.198 362.255 437.423 360.782 422.919 358.844C408.415 356.906 396.666 355.307 396.68 355.214C396.693 355.121 408.455 356.594 422.965 358.532C437.476 360.47 449.211 362.069 449.198 362.162Z" fill="#455A64"/>
<path d="M411.217 354.869C411.31 354.869 410.164 360.636 408.667 367.703C407.17 374.77 405.872 380.484 405.773 380.464C405.674 380.444 406.826 374.697 408.329 367.63C409.833 360.563 411.131 354.849 411.217 354.869Z" fill="#455A64"/>
<path d="M406.88 354.139C406.973 354.139 405.834 359.906 404.33 366.973C402.827 374.04 401.535 379.76 401.443 379.741C401.35 379.721 402.489 373.974 403.992 366.9C405.496 359.826 406.787 354.119 406.88 354.139Z" fill="#455A64"/>
<path d="M402.522 353.416C402.621 353.416 401.542 358.871 400.118 365.56C398.694 372.249 397.469 377.65 397.382 377.631C397.296 377.611 398.363 372.176 399.786 365.487C401.21 358.798 402.449 353.396 402.522 353.416Z" fill="#455A64"/>
<path d="M397.846 354.404C397.846 354.65 397.817 354.895 397.76 355.134C397.66 355.672 397.548 356.329 397.409 357.125C397.097 358.87 396.693 361.107 396.243 363.622C395.793 366.137 395.342 368.459 394.978 370.112C394.793 370.935 394.634 371.605 394.515 372.063C394.472 372.305 394.401 372.541 394.303 372.766C394.298 372.52 394.327 372.274 394.389 372.036C394.481 371.492 394.601 370.835 394.74 370.045C395.051 368.3 395.455 366.064 395.905 363.542C396.356 361.02 396.799 358.704 397.17 357.059C397.356 356.229 397.508 355.566 397.627 355.108C397.669 354.865 397.743 354.628 397.846 354.404V354.404Z" fill="#455A64"/>
<path d="M416.225 355.765C416.318 355.765 415.218 361.326 413.768 368.148C412.317 374.969 411.072 380.484 410.98 380.464C410.887 380.444 411.986 374.903 413.43 368.075C414.874 361.246 416.132 355.745 416.225 355.765Z" fill="#455A64"/>
<path d="M421.21 356.773C421.303 356.773 420.197 362.354 418.747 369.189C417.296 376.025 416.038 381.559 415.945 381.539C415.853 381.519 416.959 375.958 418.409 369.123C419.859 362.288 421.118 356.754 421.21 356.773Z" fill="#455A64"/>
<path d="M426.362 357.046C426.455 357.046 425.362 362.58 423.925 369.356C422.488 376.131 421.243 381.612 421.15 381.592C421.057 381.572 422.15 376.065 423.587 369.283C425.024 362.501 426.256 357.026 426.362 357.046Z" fill="#455A64"/>
<path d="M431.41 357.709C431.502 357.709 430.416 363.21 428.986 369.953C427.555 376.695 426.337 382.143 426.224 382.123C426.111 382.103 427.217 376.622 428.648 369.88C430.079 363.137 431.317 357.689 431.41 357.709Z" fill="#455A64"/>
<path d="M436.403 358.704C436.496 358.704 435.483 363.847 434.145 370.152C432.807 376.456 431.642 381.559 431.549 381.539C431.456 381.519 432.463 376.389 433.807 370.085C435.152 363.781 436.297 358.684 436.403 358.704Z" fill="#455A64"/>
<path d="M441.51 359.122C441.603 359.122 440.663 363.934 439.411 369.826C438.159 375.719 437.066 380.484 436.974 380.444C436.881 380.404 437.821 375.633 439.073 369.74C440.325 363.847 441.418 359.103 441.51 359.122Z" fill="#455A64"/>
<path d="M446.535 359.945C446.258 362.075 445.866 364.189 445.363 366.276C444.975 368.39 444.473 370.481 443.859 372.541C444.136 370.411 444.525 368.298 445.025 366.21C445.416 364.096 445.92 362.005 446.535 359.945Z" fill="#455A64"/>
<path d="M611.615 378.964C611.615 379.063 578.707 379.136 538.103 379.136C497.498 379.136 464.59 379.063 464.59 378.964C464.59 378.865 497.492 378.792 538.103 378.792C578.713 378.792 611.615 378.871 611.615 378.964Z" fill="#263238"/>
<path d="M608.734 375.633C608.734 375.726 577.236 375.805 538.393 375.805C499.551 375.805 468.086 375.726 468.086 375.633C468.086 375.54 499.571 375.461 538.426 375.461C577.282 375.461 608.734 375.534 608.734 375.633Z" fill="#263238"/>
<path d="M604.356 372.222C604.356 372.314 574.554 372.394 537.83 372.394C501.107 372.394 471.292 372.314 471.292 372.222C471.292 372.129 501.094 372.05 537.83 372.05C574.567 372.05 604.356 372.122 604.356 372.222Z" fill="#263238"/>
<path d="M601.435 368.811C601.435 368.904 573.063 368.983 538.069 368.983C503.074 368.983 474.695 368.904 474.695 368.811C474.695 368.718 503.067 368.639 538.069 368.639C573.07 368.639 601.435 368.712 601.435 368.811Z" fill="#263238"/>
<path d="M596.569 365.539C596.569 365.639 570.263 365.712 537.818 365.712C505.373 365.712 479.068 365.639 479.068 365.539C479.068 365.44 505.367 365.367 537.818 365.367C570.27 365.367 596.569 365.467 596.569 365.539Z" fill="#263238"/>
<path d="M591.064 362.314C591.064 362.407 567.301 362.486 537.989 362.486C508.677 362.486 484.908 362.407 484.908 362.314C484.908 362.221 508.67 362.142 537.989 362.142C567.308 362.142 591.064 362.221 591.064 362.314Z" fill="#263238"/>
<g opacity="0.3">
<path opacity="0.3" d="M549.044 258.886L425.94 258.7C427.805 260.656 430.055 262.203 432.546 263.245C435.038 264.286 437.718 264.8 440.417 264.752C448.974 264.699 532.249 264.752 546.858 264.752H549.044C562.541 264.752 634.193 264.706 641.597 264.752C643.944 264.793 646.269 264.285 648.385 263.268C650.502 262.25 652.352 260.752 653.79 258.892L549.044 258.886Z" fill="black"/>
</g>
<path d="M654.225 256.258L630.932 215.778C630.754 215.467 630.5 215.207 630.195 215.02C629.889 214.833 629.541 214.727 629.184 214.71L549.048 211.272L541.366 210.941C540.445 210.901 539.518 210.901 538.598 210.941L530.915 211.272L450.78 214.71C450.422 214.727 450.075 214.834 449.77 215.021C449.464 215.207 449.21 215.468 449.031 215.778L425.739 256.258C425.566 256.559 425.469 256.897 425.456 257.245C425.443 257.592 425.515 257.937 425.666 258.25C425.817 258.562 426.042 258.833 426.321 259.039C426.601 259.245 426.926 259.379 427.269 259.43C427.6 259.483 427.931 259.529 428.329 259.569C430.355 259.795 511.65 259.649 539.989 259.569C568.327 259.629 649.622 259.775 651.648 259.569C652.026 259.529 652.377 259.483 652.708 259.437C653.05 259.383 653.374 259.246 653.651 259.039C653.929 258.832 654.152 258.56 654.301 258.247C654.451 257.934 654.522 257.59 654.508 257.243C654.495 256.896 654.398 256.558 654.225 256.258ZM643.502 254.559L539.975 255.256L436.448 254.559C436.076 254.557 435.71 254.457 435.388 254.269C435.067 254.081 434.8 253.811 434.615 253.487C434.429 253.163 434.333 252.796 434.334 252.423C434.335 252.05 434.433 251.683 434.62 251.36C439.077 243.623 450.296 224.252 452.091 222.016C455.343 217.961 505.736 217.431 532.558 217.431C532.72 217.471 532.887 217.491 533.054 217.49C534.624 217.49 536.995 217.457 539.975 217.45C542.956 217.444 545.326 217.45 546.896 217.49C547.063 217.491 547.23 217.471 547.393 217.431C574.202 217.431 624.608 217.961 627.859 222.016C629.654 224.252 640.873 243.623 645.33 251.36C645.517 251.683 645.616 252.05 645.617 252.423C645.618 252.796 645.521 253.163 645.336 253.487C645.151 253.811 644.884 254.081 644.562 254.269C644.24 254.457 643.875 254.557 643.502 254.559V254.559Z" fill="#263238"/>
<path d="M566.262 252.316C566.262 250.013 567.149 243.484 569.288 241.745C570.937 240.418 574.838 240.006 576.765 239.893H576.944C577.964 239.893 584.785 240.093 586.825 241.752C588.865 243.411 589.852 250.02 589.852 252.323V252.396C589.85 253.084 589.576 253.744 589.089 254.231C588.602 254.717 587.943 254.99 587.256 254.99H568.858C568.17 254.99 567.511 254.717 567.024 254.231C566.538 253.744 566.263 253.084 566.262 252.396V252.316Z" fill="#263238"/>
<g opacity="0.3">
<path opacity="0.3" d="M566.26 252.316C566.26 250.013 567.147 243.484 569.287 241.745C570.936 240.418 574.836 240.006 576.764 239.893H576.943C577.962 239.893 584.784 240.093 586.824 241.752C588.863 243.411 589.85 250.02 589.85 252.323V252.396C589.849 253.084 589.574 253.744 589.088 254.231C588.601 254.717 587.942 254.99 587.254 254.99H568.856C568.169 254.99 567.509 254.717 567.023 254.231C566.536 253.744 566.262 253.084 566.26 252.396V252.316Z" fill="black"/>
</g>
<path d="M575.555 250.617C575.555 246.841 577.012 236.164 580.502 233.317C583.204 231.114 589.588 230.464 592.741 230.278H593.039C594.714 230.278 605.874 230.596 609.218 233.324C612.715 236.17 614.172 246.848 614.166 250.624V250.737C614.166 251.865 613.718 252.947 612.922 253.744C612.126 254.542 611.046 254.99 609.92 254.99H579.8C578.674 254.99 577.594 254.542 576.798 253.744C576.002 252.947 575.555 251.865 575.555 250.737V250.617Z" fill="#263238"/>
<g opacity="0.3">
<path opacity="0.3" d="M612.461 361.027C612.461 361.027 611.964 364.047 619.018 374.041C621.17 377.086 628.011 383.245 630.568 385.501C631.19 386.054 632.002 386.342 632.833 386.304C639.926 385.992 674.165 384.406 679.854 382.734C681.935 382.152 683.937 381.316 685.815 380.245C687.039 379.512 688.043 378.462 688.722 377.205C689.401 375.949 689.731 374.533 689.676 373.105C689.497 368.174 689.192 359.501 689.192 357.231C689.192 354 686.954 351.259 682.782 351.797C680.013 352.128 612.461 361.027 612.461 361.027ZM634.541 360.364L678.914 356.329L680.199 374.246L647.542 379.555L634.541 360.364Z" fill="black"/>
</g>
<g opacity="0.3">
<path opacity="0.3" d="M688.139 315.013C688.139 315.013 691.484 325.193 670.258 329.931C648.734 334.729 616.885 343.422 616.885 343.422L633.992 331.205C633.992 331.205 683.199 322.976 684.417 315.438C685.821 306.811 684.417 297.116 684.417 297.116L688.139 315.013Z" fill="black"/>
</g>
<path d="M605.104 360.722C605.173 360.686 605.246 360.659 605.322 360.642L605.984 360.45L608.547 359.733C610.786 359.149 614.024 358.3 618.058 357.377C626.118 355.499 637.33 353.25 649.787 351.212C656.019 350.204 661.96 349.275 667.384 348.558L675.086 347.529C677.317 347.155 679.574 346.964 681.835 346.959C683.72 346.937 685.567 347.488 687.133 348.538C688.29 349.364 689.268 350.416 690.007 351.631C690.484 352.389 690.833 353.221 691.041 354.092C691.118 354.394 691.165 354.703 691.18 355.015C690.978 353.834 690.541 352.705 689.895 351.697C689.146 350.515 688.171 349.494 687.027 348.691C685.476 347.674 683.655 347.152 681.802 347.191C679.553 347.218 677.309 347.424 675.093 347.808L667.43 348.903C662.006 349.607 656.066 350.542 649.84 351.557C637.39 353.588 626.177 355.798 618.111 357.616C614.077 358.505 610.826 359.315 608.58 359.866L606.004 360.529L605.342 360.689C605.264 360.71 605.184 360.721 605.104 360.722Z" fill="#263238"/>
<path d="M690.843 334.403C690.818 334.279 690.807 334.152 690.81 334.025C690.81 333.74 690.81 333.361 690.81 332.937C690.81 331.948 690.75 330.594 690.704 328.955C690.604 325.584 690.386 320.932 689.929 315.809C689.472 310.686 688.876 306.061 688.379 302.723C688.134 301.091 687.929 299.75 687.783 298.775C687.717 298.332 687.664 297.974 687.624 297.7C687.597 297.575 687.586 297.448 687.591 297.321C687.642 297.437 687.675 297.56 687.69 297.686L687.915 298.748C688.101 299.677 688.346 301.018 688.624 302.683C689.18 306.001 689.816 310.646 690.273 315.776C690.73 320.906 690.935 325.577 690.935 328.955C690.935 330.641 690.935 332.008 690.935 332.937C690.935 333.381 690.935 333.74 690.902 334.025C690.901 334.153 690.881 334.281 690.843 334.403V334.403Z" fill="#263238"/>
<path d="M676.042 288.562C675.975 288.562 675.962 287.407 675.618 285.569C675.138 283.188 674.518 280.837 673.763 278.528C672.916 275.807 672.035 273.379 671.392 271.62C671.094 270.797 670.836 270.1 670.638 269.543C670.529 269.293 670.445 269.033 670.386 268.767C670.543 268.989 670.668 269.232 670.757 269.49C670.975 269.968 671.273 270.664 671.624 271.534C672.287 273.272 673.24 275.695 674.095 278.422C674.856 280.744 675.445 283.12 675.856 285.529C675.942 285.994 675.962 286.418 676.009 286.79C676.048 287.107 676.068 287.426 676.068 287.746C676.088 288.018 676.079 288.291 676.042 288.562V288.562Z" fill="#263238"/>
<path d="M672.067 293.207C672.067 293.207 683.147 289.159 684.564 297.766C685.981 306.373 685.835 314.94 683.974 317.953C682.113 320.966 664.987 325.06 664.987 325.06L635.403 331.577C635.403 331.577 633.27 332.021 634.555 329.586C635.992 326.878 643.827 309.565 648.357 305.358C656.715 297.6 672.067 293.207 672.067 293.207Z" fill="#F5F5F5"/>
<g opacity="0.3">
<path opacity="0.3" d="M661.126 325.903C661.126 325.903 661.079 305.616 662.569 303.34C664.059 301.064 681.484 293.001 681.484 293.001C681.484 293.001 679.789 291.555 676.305 292.218C671.424 293.164 666.688 294.748 662.218 296.93C657.404 299.405 649.701 302.949 646.827 307.05C645.575 308.855 642.926 313.115 640.463 317.76C637.217 323.766 634.144 330.183 634.144 330.541C634.144 331.278 633.972 331.948 636.847 331.338C643.509 329.884 661.126 325.903 661.126 325.903Z" fill="black"/>
</g>
<path d="M651.49 324.071C655.455 324.071 658.669 320.851 658.669 316.878C658.669 312.905 655.455 309.684 651.49 309.684C647.525 309.684 644.311 312.905 644.311 316.878C644.311 320.851 647.525 324.071 651.49 324.071Z" fill="#F5F5F5"/>
<path d="M644.313 316.878C644.273 316.283 644.326 315.685 644.472 315.106C644.847 313.498 645.767 312.07 647.074 311.065C648.041 310.312 649.182 309.818 650.392 309.628C651.601 309.437 652.838 309.557 653.989 309.976C655.353 310.471 656.542 311.357 657.406 312.525C658.339 313.783 658.843 315.31 658.843 316.878C658.843 318.446 658.339 319.972 657.406 321.231C656.973 321.829 656.448 322.353 655.85 322.784C655.284 323.21 654.657 323.546 653.989 323.779C652.757 324.226 651.427 324.331 650.141 324.085C649.023 323.868 647.973 323.391 647.074 322.691C645.767 321.686 644.847 320.258 644.472 318.65C644.326 318.071 644.273 317.473 644.313 316.878C644.376 317.463 644.473 318.043 644.604 318.616C645.026 320.172 645.96 321.54 647.253 322.499C648.126 323.17 649.145 323.625 650.227 323.826C651.463 324.051 652.736 323.941 653.916 323.507C654.552 323.281 655.148 322.956 655.684 322.545C656.255 322.13 656.756 321.626 657.168 321.052C658.05 319.85 658.526 318.397 658.526 316.904C658.526 315.412 658.05 313.959 657.168 312.757C656.754 312.182 656.254 311.676 655.684 311.257C655.147 310.85 654.55 310.528 653.916 310.302C652.812 309.896 651.624 309.773 650.46 309.944C649.296 310.116 648.194 310.576 647.253 311.284C645.96 312.242 645.026 313.61 644.604 315.166C644.474 315.73 644.377 316.302 644.313 316.878V316.878Z" fill="#263238"/>
<path d="M651.49 316.566C650.239 316.567 649.012 316.903 647.936 317.54C646.86 318.178 645.974 319.092 645.37 320.189C644.785 319.124 644.488 317.925 644.507 316.71C644.526 315.494 644.86 314.305 645.477 313.258C646.095 312.212 646.974 311.345 648.027 310.743C649.081 310.14 650.273 309.824 651.486 309.824C652.699 309.824 653.891 310.14 654.945 310.743C655.999 311.345 656.878 312.212 657.495 313.258C658.112 314.305 658.447 315.494 658.466 316.71C658.485 317.925 658.187 319.124 657.602 320.189C657.001 319.092 656.116 318.177 655.041 317.539C653.965 316.902 652.739 316.566 651.49 316.566Z" fill="#E0E0E0"/>
<path d="M648.398 316.639C648.398 317.252 648.58 317.851 648.92 318.361C649.26 318.87 649.743 319.268 650.308 319.502C650.873 319.737 651.495 319.798 652.095 319.679C652.695 319.559 653.246 319.264 653.678 318.83C654.111 318.397 654.405 317.845 654.525 317.244C654.644 316.642 654.583 316.019 654.349 315.453C654.115 314.887 653.718 314.403 653.21 314.062C652.701 313.722 652.103 313.54 651.491 313.54C650.671 313.54 649.884 313.867 649.304 314.448C648.724 315.029 648.398 315.817 648.398 316.639V316.639Z" fill="white"/>
<path d="M648.399 316.639C648.399 316.639 648.399 316.573 648.399 316.44C648.395 316.248 648.413 316.057 648.452 315.869C648.605 315.161 649.001 314.53 649.571 314.084C649.996 313.749 650.499 313.527 651.033 313.438C651.567 313.35 652.114 313.399 652.624 313.58C653.255 313.805 653.8 314.221 654.186 314.769C654.572 315.317 654.779 315.972 654.779 316.642C654.779 317.313 654.572 317.968 654.186 318.516C653.8 319.064 653.255 319.479 652.624 319.705C652.114 319.886 651.567 319.935 651.033 319.847C650.499 319.759 649.996 319.536 649.571 319.201C649.001 318.755 648.605 318.123 648.452 317.415C648.413 317.226 648.395 317.032 648.399 316.838C648.399 316.712 648.399 316.639 648.399 316.639C648.399 316.639 648.399 316.918 648.558 317.382C648.748 318.033 649.146 318.604 649.69 319.008C650.129 319.336 650.649 319.535 651.194 319.584C651.738 319.632 652.286 319.528 652.775 319.282C653.264 319.037 653.675 318.66 653.962 318.194C654.249 317.727 654.401 317.19 654.401 316.642C654.401 316.094 654.249 315.557 653.962 315.091C653.675 314.625 653.264 314.248 652.775 314.002C652.286 313.757 651.738 313.652 651.194 313.701C650.649 313.749 650.129 313.949 649.69 314.277C649.146 314.68 648.748 315.251 648.558 315.902C648.425 316.367 648.432 316.646 648.399 316.639Z" fill="#263238"/>
<path d="M648.782 311.788C648.662 311.609 649.133 310.985 650.272 310.56C651.028 310.297 651.83 310.193 652.628 310.255C653.426 310.317 654.202 310.544 654.909 310.921C655.615 311.298 656.236 311.817 656.733 312.446C657.23 313.074 657.591 313.799 657.795 314.575C658.073 315.763 657.795 316.499 657.61 316.499C657.424 316.499 657.153 315.869 656.656 315.02C656.08 313.923 655.189 313.026 654.098 312.444C653.007 311.861 651.766 311.621 650.537 311.755C649.55 311.788 648.888 311.994 648.782 311.788Z" fill="white"/>
<path d="M646.982 312.916C646.591 312.644 646.399 312.252 646.598 312.047C646.797 311.841 647.201 312.047 647.459 312.451C647.717 312.856 647.863 313.221 647.803 313.281C647.744 313.341 647.379 313.188 646.982 312.916Z" fill="white"/>
<path d="M538.498 294.255H538.783H539.611H542.816L554.578 294.182L593.401 294.09H614.779H628.356C629.695 293.992 631.024 294.388 632.091 295.204L637.197 299.571L639.283 301.356C639.884 301.83 640.576 302.174 641.316 302.365C641.909 302.516 642.521 302.572 643.131 302.531L644.456 302.491H645.283H645.575H645.297L644.462 302.544L643.138 302.61C642.519 302.667 641.895 302.622 641.29 302.478C640.528 302.291 639.813 301.948 639.19 301.469L637.078 299.697L631.952 295.377C630.923 294.606 629.65 294.236 628.369 294.335H624.137H614.812L593.434 294.375H554.578L542.816 294.335L539.611 294.302H538.783L538.498 294.255Z" fill="#263238"/>
<path d="M399.679 388.845C400.037 388.095 400.792 387.558 402.289 387.724C406.428 388.195 449.814 389.164 455.794 387.724C461.774 386.284 481.696 363.635 490.126 362.089C497.199 360.795 531.592 360.098 542.499 360.417C553.407 360.105 587.792 360.795 594.865 362.089C603.296 363.635 622.919 388.5 628.9 389.96C634.88 391.42 678.571 388.215 682.71 387.744C684.207 387.578 684.962 388.115 685.313 388.865C685.473 389.232 685.54 389.633 685.509 390.032C685.477 390.431 685.348 390.817 685.133 391.154C684.917 391.491 684.622 391.77 684.274 391.966C683.925 392.162 683.533 392.268 683.134 392.276C673.862 392.535 638.205 392.94 631.529 392.827L540.87 391.168C522.77 391.281 460.927 391.679 454.377 391.772C446.655 391.878 411.103 392.535 401.865 392.276C401.463 392.269 401.068 392.162 400.717 391.966C400.366 391.769 400.07 391.488 399.853 391.148C399.637 390.809 399.508 390.421 399.477 390.019C399.447 389.617 399.516 389.214 399.679 388.845Z" fill="#263238"/>
<path d="M554.666 213.927C554.309 213.927 554.6 220.171 549.573 220.052C544.547 219.932 535.07 220.052 535.07 220.052L530.911 212.248L554.666 213.927Z" fill="#263238"/>
<path d="M552.443 222.202C552.787 222.202 553.127 222.284 553.434 222.441C553.742 222.598 554.008 222.825 554.211 223.104C555.41 224.737 557.8 228.134 557.867 229.196C557.912 229.519 557.891 229.848 557.806 230.163C557.721 230.478 557.573 230.773 557.372 231.029C557.17 231.285 556.918 231.497 556.632 231.653C556.346 231.81 556.032 231.906 555.708 231.937C554.323 232.109 527.799 231.937 525.057 231.937C524.888 231.937 524.719 231.917 524.554 231.877C523.826 231.698 521.945 231.101 522.09 229.813C522.216 228.645 524.263 225.075 525.329 223.27C525.525 222.944 525.801 222.674 526.132 222.487C526.463 222.299 526.836 222.201 527.216 222.202H552.443Z" fill="#263238"/>
<path d="M633.543 212.248C633.582 212.29 633.615 212.337 633.642 212.387L633.894 212.812L634.848 214.464L638.285 220.556L649.511 240.729C653.054 247.146 656.325 253.072 658.928 257.797L658.888 257.751L666.412 263.723L668.472 265.376L669.008 265.814C669.068 265.866 669.126 265.921 669.18 265.98C669.108 265.944 669.042 265.9 668.982 265.847L668.419 265.442L666.313 263.843L658.723 257.996L649.252 240.962L638.073 220.675C636.669 218.101 635.53 216.03 634.729 214.524L633.834 212.845L633.609 212.407C633.58 212.357 633.557 212.304 633.543 212.248V212.248Z" fill="#263238"/>
<path d="M621.323 208.512C621.913 208.574 622.491 208.712 623.045 208.923C625.838 209.726 628.238 211.531 629.787 213.993C630.14 214.469 630.434 214.986 630.661 215.533C630.271 215.092 629.912 214.624 629.589 214.132C627.968 211.807 625.647 210.063 622.966 209.155C622.403 208.983 621.854 208.767 621.323 208.512V208.512Z" fill="#263238"/>
<g opacity="0.3">
<path opacity="0.3" d="M658.751 257.91L659.414 258.348C659.672 258.03 644.115 290.705 636.79 299.326L631.982 295.231C642.334 285.158 650.095 269.503 658.751 257.91Z" fill="black"/>
</g>
<path d="M627.886 386.357C627.749 386.342 627.617 386.294 627.502 386.217C627.154 386.022 626.822 385.8 626.508 385.554C625.661 384.923 624.475 383.915 622.978 382.581C619.992 379.926 615.786 375.945 610.726 370.855C609.461 369.581 608.15 368.247 606.799 366.834C605.451 365.322 604.018 363.889 602.507 362.54C600.818 361.19 598.918 360.127 596.885 359.395C594.724 358.628 592.469 358.164 590.182 358.014C589.004 357.928 587.818 357.928 586.606 357.915H582.931L575.354 357.848L559.426 357.702L503.524 357.138L486.583 356.913L481.947 356.833H480.748H480.337C480.337 356.833 480.476 356.833 480.748 356.833H486.549L503.49 356.939L559.393 357.397L575.328 357.55L582.897 357.623L586.633 357.576C587.838 357.576 589.043 357.576 590.229 357.683C592.546 357.84 594.83 358.316 597.017 359.096C599.078 359.845 601.002 360.927 602.713 362.301C604.228 363.663 605.665 365.11 607.018 366.635C608.342 368.048 609.667 369.395 610.925 370.669C615.958 375.759 620.144 379.767 623.098 382.468C624.575 383.795 625.747 384.837 626.575 385.487C626.885 385.739 627.21 385.972 627.548 386.184C627.656 386.25 627.769 386.308 627.886 386.357V386.357Z" fill="#263238"/>
<g opacity="0.3">
<path opacity="0.3" d="M663.567 346.786C665.537 344.681 667.731 342.798 670.111 341.172C672.541 339.626 676.031 337.854 678.237 339.261C679.352 340.482 680.249 341.888 680.886 343.415C681.026 343.66 681.113 343.933 681.141 344.214C681.168 344.496 681.135 344.78 681.045 345.048C680.733 345.678 679.932 345.844 679.237 345.93L664.004 347.841C663.706 347.881 663.342 347.881 663.196 347.622C663.051 347.364 663.335 347.012 663.567 346.786Z" fill="white"/>
</g>
<path d="M667.432 390.093V390.139C667.353 390.408 667.337 390.692 667.384 390.968C667.431 391.244 667.54 391.506 667.704 391.733C667.868 391.961 668.081 392.147 668.328 392.279C668.574 392.412 668.848 392.485 669.127 392.495L680.134 392.309C680.569 392.256 680.973 392.056 681.28 391.743C681.587 391.429 681.779 391.021 681.823 390.584L681.896 389.967C681.914 389.701 681.874 389.434 681.781 389.185C681.687 388.935 681.541 388.709 681.353 388.52C681.165 388.332 680.939 388.185 680.69 388.092C680.441 387.998 680.175 387.958 679.909 387.976L669.015 388.766C668.648 388.8 668.3 388.946 668.018 389.183C667.735 389.42 667.531 389.737 667.432 390.093V390.093Z" fill="white"/>
<path d="M462.073 383.682C462.073 383.583 497.571 383.51 541.347 383.51C585.124 383.51 620.628 383.583 620.628 383.682C620.628 383.781 585.137 383.854 541.347 383.854C497.558 383.854 462.073 383.775 462.073 383.682Z" fill="#455A64"/>
<path d="M585.681 389.469H590.33L590.655 383.682H585.33L585.681 389.469Z" fill="#455A64"/>
<path d="M542.189 389.469H546.839L547.163 383.682H541.838L542.189 389.469Z" fill="#455A64"/>
<path d="M498.696 389.469H503.345L503.676 383.682H498.345L498.696 389.469Z" fill="#455A64"/>
<path d="M464.529 381.585C472.94 374.326 484.265 363.157 490.099 362.089C497.172 360.795 531.564 360.098 542.472 360.417C553.373 360.105 587.765 360.795 594.838 362.089C600.262 363.084 610.322 373.735 618.396 381.585H464.529Z" fill="#455A64"/>
<path d="M688.352 377.783C688.215 377.693 688.085 377.593 687.961 377.485L686.822 376.615L682.61 373.297H682.696L659.841 376.23L647.344 377.79H647.397L636.138 383.855L632.92 385.554L632.065 385.992C631.968 386.048 631.866 386.095 631.761 386.131C631.846 386.059 631.94 385.997 632.039 385.945L632.873 385.468L636.046 383.689L647.245 377.511L659.735 375.925L682.663 373.138H682.716H682.749L686.902 376.516L687.961 377.485C688.101 377.572 688.231 377.672 688.352 377.783V377.783Z" fill="#263238"/>
<path d="M631.748 365.115C631.748 365.115 629.496 361.306 631.748 360.344C634.331 359.235 677.445 354.053 679.213 353.9C682.71 353.588 683.975 355.174 684.796 359.288C685.617 363.403 687.445 373.609 683.975 376.575C680.505 379.542 675.1 380.856 664.424 381.512C653.749 382.169 648.126 382.534 642.867 379.568C637.609 376.602 631.748 365.115 631.748 365.115Z" fill="#263238"/>
<path d="M633.959 331.205C633.853 331.158 634.251 329.944 635.112 327.814C635.973 325.684 637.291 322.638 639.085 318.942C640.006 317.097 641.019 315.086 642.225 312.969C643.481 310.695 644.891 308.509 646.443 306.426C647.317 305.276 648.306 304.22 649.397 303.274C650.534 302.306 651.755 301.442 653.046 300.693C654.371 299.929 655.695 299.239 657.02 298.516C658.344 297.793 659.735 297.076 661.146 296.379C663.9 294.99 666.759 293.818 669.696 292.875C671.102 292.442 672.53 292.081 673.974 291.794C675.392 291.467 676.845 291.322 678.299 291.362C679.777 291.4 681.21 291.875 682.418 292.729C683.505 293.588 684.325 294.739 684.782 296.047C685.185 297.18 685.488 298.346 685.69 299.531C685.895 300.626 686.094 301.681 686.286 302.69C687.08 306.705 687.677 309.99 688.008 312.252C688.339 314.515 688.412 315.803 688.299 315.823C688.187 315.843 687.875 314.608 687.345 312.379L685.094 302.942C684.855 301.953 684.623 300.885 684.385 299.803C684.165 298.702 683.853 297.621 683.451 296.572C683.092 295.479 682.388 294.533 681.445 293.876C680.503 293.219 679.373 292.886 678.226 292.928C676.905 292.916 675.588 293.07 674.305 293.386C672.919 293.678 671.549 294.039 670.199 294.468C667.353 295.403 664.581 296.552 661.907 297.905C660.523 298.569 659.159 299.299 657.821 300.009C656.483 300.719 655.172 301.409 653.907 302.133C652.691 302.822 651.538 303.62 650.463 304.515C649.447 305.373 648.522 306.334 647.702 307.382C646.159 309.386 644.743 311.484 643.463 313.666C642.225 315.71 641.158 317.648 640.152 319.466C638.224 323.063 636.741 326.022 635.694 328.059C634.648 330.097 634.065 331.251 633.959 331.205Z" fill="#263238"/>
<path d="M672.875 309.452C671.28 309.455 669.716 309.888 668.346 310.705C666.975 311.522 665.85 312.694 665.087 314.097C664.343 312.741 663.964 311.214 663.988 309.667C664.013 308.12 664.439 306.606 665.225 305.274C666.011 303.942 667.13 302.838 668.472 302.071C669.813 301.305 671.331 300.901 672.875 300.901C674.419 300.901 675.937 301.305 677.279 302.071C678.62 302.838 679.739 303.942 680.525 305.274C681.311 306.606 681.738 308.12 681.762 309.667C681.786 311.214 681.407 312.741 680.663 314.097C679.901 312.694 678.775 311.522 677.405 310.705C676.034 309.888 674.47 309.455 672.875 309.452V309.452Z" fill="#E0E0E0"/>
<path d="M669.049 309.492C669.049 310.25 669.273 310.992 669.694 311.623C670.115 312.253 670.712 312.745 671.412 313.035C672.111 313.326 672.881 313.402 673.624 313.254C674.366 313.106 675.048 312.74 675.584 312.204C676.119 311.667 676.483 310.984 676.631 310.24C676.779 309.496 676.703 308.725 676.413 308.024C676.124 307.323 675.633 306.724 675.004 306.303C674.374 305.881 673.634 305.656 672.877 305.656C671.862 305.656 670.888 306.06 670.17 306.78C669.452 307.499 669.049 308.474 669.049 309.492V309.492Z" fill="white"/>
<path d="M669.049 309.492C669.049 309.492 669.049 309.406 669.049 309.246C669.047 309.007 669.073 308.769 669.128 308.536C669.318 307.666 669.808 306.89 670.513 306.346C671.273 305.773 672.213 305.492 673.162 305.554C674.111 305.617 675.006 306.018 675.685 306.685C676.364 307.353 676.782 308.242 676.862 309.192C676.942 310.142 676.68 311.089 676.122 311.861C675.658 312.503 675.008 312.987 674.261 313.248C673.636 313.473 672.964 313.534 672.308 313.428C671.652 313.321 671.035 313.049 670.513 312.637C669.808 312.094 669.318 311.318 669.128 310.447C669.073 310.215 669.046 309.976 669.049 309.737C669.049 309.578 669.049 309.492 669.049 309.492C669.049 309.492 669.049 309.837 669.234 310.414C669.462 311.228 669.954 311.942 670.632 312.445C671.179 312.856 671.829 313.106 672.51 313.167C673.191 313.228 673.876 313.098 674.487 312.791C675.099 312.485 675.613 312.014 675.972 311.431C676.331 310.848 676.522 310.177 676.522 309.492C676.522 308.807 676.331 308.135 675.972 307.553C675.613 306.97 675.099 306.499 674.487 306.192C673.876 305.886 673.191 305.756 672.51 305.817C671.829 305.878 671.179 306.128 670.632 306.539C669.954 307.041 669.462 307.756 669.234 308.569C669.069 309.134 669.082 309.492 669.049 309.492Z" fill="#263238"/>
<path d="M663.989 309.797C663.972 309.607 663.972 309.416 663.989 309.226C663.988 309.004 664.005 308.782 664.042 308.563C664.077 308.25 664.132 307.94 664.207 307.634C664.612 305.962 665.487 304.442 666.729 303.255C667.972 302.068 669.528 301.264 671.214 300.938C672.802 300.635 674.441 300.764 675.962 301.31C676.785 301.598 677.558 302.012 678.254 302.537C678.991 303.074 679.639 303.723 680.175 304.462C681.323 306.013 681.943 307.893 681.943 309.824C681.943 311.755 681.323 313.635 680.175 315.186C679.116 316.634 677.649 317.732 675.962 318.338C674.544 318.854 673.019 319.002 671.528 318.77C670.036 318.538 668.628 317.933 667.432 317.011C665.817 315.771 664.678 314.01 664.207 312.027C664.132 311.721 664.077 311.411 664.042 311.098C664.005 310.879 663.988 310.657 663.989 310.434C663.973 310.244 663.973 310.053 663.989 309.864C664.056 310.589 664.171 311.31 664.333 312.02C664.841 313.947 665.981 315.647 667.571 316.845C668.738 317.728 670.107 318.303 671.554 318.519C673 318.735 674.477 318.583 675.85 318.079C676.642 317.796 677.385 317.393 678.055 316.884C678.766 316.37 679.388 315.742 679.896 315.026C680.998 313.531 681.592 311.722 681.592 309.864C681.592 308.005 680.998 306.196 679.896 304.701C679.386 303.986 678.765 303.359 678.055 302.843C677.384 302.336 676.641 301.934 675.85 301.648C674.381 301.115 672.798 300.98 671.26 301.257C669.921 301.502 668.657 302.059 667.571 302.882C665.983 304.082 664.842 305.781 664.333 307.707C664.175 308.396 664.06 309.094 663.989 309.797V309.797Z" fill="#263238"/>
<path d="M669.525 303.466C669.405 303.287 670.008 302.57 671.399 302.086C672.319 301.783 673.291 301.669 674.257 301.753C675.222 301.836 676.161 302.114 677.016 302.57C677.871 303.027 678.625 303.652 679.233 304.408C679.84 305.164 680.289 306.036 680.552 306.97C680.922 308.397 680.671 309.299 680.452 309.299C680.234 309.299 680.002 308.51 679.412 307.415C678.717 305.998 677.594 304.837 676.204 304.095C674.813 303.353 673.225 303.068 671.664 303.281C670.432 303.4 669.65 303.685 669.525 303.466Z" fill="white"/>
<path d="M667.294 304.88C666.903 304.608 666.738 304.17 666.963 303.951C667.188 303.732 667.625 303.904 667.884 304.309C668.142 304.714 668.261 305.092 668.168 305.185C668.076 305.278 667.692 305.152 667.294 304.88Z" fill="white"/>
<path d="M616.855 343.422C616.735 342.957 628.431 339.599 642.975 335.916C657.518 332.233 669.406 329.626 669.525 330.09C669.645 330.555 657.942 333.912 643.399 337.595C628.855 341.278 616.974 343.886 616.855 343.422Z" fill="#263238"/>
<path d="M686.915 294.687C686.893 294.62 686.878 294.551 686.869 294.481C686.869 294.349 686.802 294.156 686.736 293.897C686.54 293.155 686.248 292.441 685.869 291.774C685.263 290.725 684.398 289.85 683.359 289.232C683.061 289.046 682.696 288.92 682.378 288.754C682.013 288.627 681.642 288.519 681.266 288.429C680.867 288.336 680.462 288.274 680.054 288.243C679.624 288.21 679.192 288.21 678.762 288.243C676.825 288.46 674.91 288.847 673.04 289.398C671.007 289.955 668.868 290.646 666.629 291.429C662.159 293.001 657.291 294.886 652.337 297.189C651.722 297.487 651.112 297.786 650.523 298.104C649.945 298.426 649.395 298.797 648.88 299.213C647.862 300.026 646.933 300.947 646.112 301.96C644.602 304.024 643.218 306.121 641.893 308.085C639.244 312.027 636.966 315.643 635.112 318.703C633.257 321.762 631.8 324.31 630.84 326.062L629.707 328.053L629.409 328.577C629.378 328.639 629.341 328.696 629.297 328.75C629.317 328.682 629.346 328.617 629.383 328.557C629.449 328.418 629.535 328.239 629.648 328.02C629.886 327.548 630.244 326.852 630.721 325.969C631.668 324.197 633.072 321.649 634.9 318.55C636.728 315.451 638.999 311.821 641.628 307.866C642.953 305.875 644.278 303.818 645.847 301.708C646.683 300.674 647.629 299.735 648.668 298.907C649.197 298.476 649.762 298.092 650.357 297.759C650.953 297.434 651.569 297.136 652.185 296.837C657.165 294.528 662.04 292.65 666.523 291.084C668.769 290.314 670.921 289.63 672.967 289.093C674.856 288.547 676.788 288.17 678.742 287.965C679.183 287.928 679.626 287.928 680.067 287.965C680.488 288.002 680.906 288.069 681.319 288.164C681.716 288.243 682.087 288.409 682.451 288.515C682.794 288.665 683.128 288.833 683.451 289.02C684.513 289.668 685.388 290.583 685.988 291.674C686.358 292.359 686.632 293.091 686.802 293.851C686.849 294.047 686.882 294.247 686.902 294.448C686.922 294.526 686.926 294.607 686.915 294.687V294.687Z" fill="#263238"/>
<g opacity="0.3">
<path opacity="0.3" d="M689.671 298.443C690.333 298.662 693.923 300.905 695.446 301.761C696.228 302.158 696.923 302.707 697.492 303.376C698.06 304.045 698.49 304.82 698.758 305.656C699.195 307.348 698.711 309.12 698.234 310.792C696.665 316.267 694.844 326.108 693.274 331.583C692.049 321.629 690.711 304.747 689.684 298.443" fill="white"/>
</g>
<path d="M640.352 377.199C640.352 377.106 650.557 375.613 663.174 373.881C675.79 372.149 686.035 370.789 686.049 370.882C686.062 370.974 675.843 372.474 663.22 374.2C650.597 375.925 640.365 377.299 640.352 377.199Z" fill="#455A64"/>
<path d="M643.591 379.707C643.729 379.663 643.871 379.632 644.015 379.614L645.233 379.415C646.293 379.249 647.829 379.024 649.724 378.752C653.525 378.221 658.783 377.557 664.592 376.867L679.466 375.089L683.976 374.545L685.202 374.412C685.345 374.401 685.489 374.401 685.632 374.412C685.498 374.462 685.358 374.493 685.215 374.505L683.996 374.704C682.937 374.876 681.4 375.095 679.499 375.367C675.698 375.892 670.446 376.555 664.631 377.245L649.757 379.024L645.247 379.568L644.021 379.707C643.878 379.725 643.734 379.725 643.591 379.707Z" fill="#455A64"/>
<path d="M650.776 381.586C650.736 381.586 651.18 381.519 651.928 381.426L655.127 381.022L665.684 379.747L676.28 378.546L679.492 378.221C679.884 378.162 680.281 378.138 680.678 378.148C680.294 378.242 679.905 378.311 679.512 378.354L676.32 378.792C673.618 379.144 669.882 379.601 665.723 380.086C661.564 380.57 657.862 380.988 655.127 381.26C653.685 381.467 652.232 381.575 650.776 381.586V381.586Z" fill="#455A64"/>
<path d="M637.961 374.346C637.961 374.246 648.703 372.753 661.982 371.028C675.26 369.302 686.042 367.935 686.055 368.035C686.069 368.134 675.313 369.621 662.028 371.353C648.743 373.085 637.974 374.439 637.961 374.346Z" fill="#455A64"/>
<path d="M636.099 371.691C636.099 371.598 647.218 370.052 660.967 368.24C674.716 366.429 685.875 365.035 685.889 365.128C685.902 365.221 674.762 366.767 661.013 368.586C647.265 370.404 636.105 371.784 636.099 371.691Z" fill="#455A64"/>
<path d="M633.992 368.559C633.992 368.466 645.43 366.873 659.563 365.015C673.696 363.157 685.173 361.697 685.186 361.81C685.2 361.923 673.749 363.496 659.609 365.354C645.47 367.212 634.006 368.652 633.992 368.559Z" fill="#455A64"/>
<path d="M632.383 365.36C632.383 365.261 644.026 363.648 658.41 361.757C672.795 359.866 684.471 358.399 684.484 358.492C684.497 358.585 672.841 360.204 658.457 362.095C644.072 363.987 632.396 365.453 632.383 365.36Z" fill="#455A64"/>
<path d="M630.754 362.162C630.754 362.069 642.489 360.443 656.993 358.532C671.497 356.621 683.266 355.148 683.279 355.214C683.292 355.28 671.543 356.933 657.04 358.844C642.536 360.755 630.767 362.255 630.754 362.162Z" fill="#455A64"/>
<path d="M668.758 354.869C668.85 354.869 670.148 360.563 671.645 367.63C673.142 374.697 674.294 380.444 674.201 380.464C674.109 380.484 672.811 374.77 671.307 367.703C669.804 360.636 668.645 354.922 668.758 354.869Z" fill="#455A64"/>
<path d="M673.074 354.139C673.166 354.139 674.458 359.833 675.961 366.9C677.464 373.967 678.61 379.721 678.511 379.741C678.411 379.761 677.127 374.047 675.623 366.973C674.12 359.899 672.981 354.159 673.074 354.139Z" fill="#455A64"/>
<path d="M677.414 353.416C677.506 353.416 678.738 358.797 680.156 365.487C681.573 372.176 682.652 377.611 682.56 377.63C682.467 377.65 681.235 372.249 679.818 365.56C678.401 358.87 677.321 353.436 677.414 353.416Z" fill="#455A64"/>
<path d="M682.106 354.404C682.21 354.628 682.283 354.865 682.325 355.108C682.444 355.566 682.603 356.229 682.782 357.059C683.153 358.704 683.61 361 684.047 363.542C684.484 366.084 684.901 368.3 685.213 370.045C685.352 370.815 685.471 371.472 685.564 372.036C685.625 372.274 685.654 372.52 685.65 372.766C685.551 372.541 685.48 372.305 685.438 372.063C685.318 371.605 685.16 370.935 684.974 370.112C684.61 368.459 684.153 366.163 683.709 363.622C683.265 361.08 682.855 358.87 682.544 357.125C682.404 356.349 682.292 355.692 682.193 355.134C682.135 354.895 682.106 354.65 682.106 354.404V354.404Z" fill="#455A64"/>
<path d="M663.73 355.765C663.823 355.765 665.055 361.259 666.525 368.074C667.995 374.89 669.075 380.444 668.975 380.464C668.876 380.484 667.651 374.969 666.187 368.147C664.724 361.326 663.637 355.785 663.73 355.765Z" fill="#455A64"/>
<path d="M658.742 356.773C658.835 356.773 660.066 362.281 661.543 369.123C663.02 375.965 664.1 381.519 664.007 381.539C663.914 381.559 662.682 376.031 661.206 369.189C659.729 362.348 658.649 356.793 658.742 356.773Z" fill="#455A64"/>
<path d="M653.603 357.046C653.695 357.046 654.927 362.507 656.378 369.282C657.828 376.058 658.908 381.572 658.815 381.592C658.722 381.612 657.49 376.137 656.04 369.355C654.589 362.573 653.523 357.066 653.603 357.046Z" fill="#455A64"/>
<path d="M648.543 357.709C648.635 357.709 649.867 363.144 651.304 369.88C652.741 376.615 653.821 382.103 653.728 382.123C653.635 382.143 652.404 376.695 650.966 369.953C649.529 363.21 648.45 357.729 648.543 357.709Z" fill="#455A64"/>
<path d="M643.588 358.705C643.68 358.705 644.839 363.775 646.177 370.085C647.515 376.396 648.528 381.519 648.435 381.539C648.343 381.559 647.184 376.463 645.839 370.152C644.495 363.841 643.455 358.725 643.588 358.705Z" fill="#455A64"/>
<path d="M638.444 359.122C638.537 359.122 639.629 363.867 640.881 369.74C642.133 375.613 643.073 380.424 642.98 380.444C642.888 380.464 641.795 375.706 640.543 369.826C639.292 363.947 638.351 359.142 638.444 359.122Z" fill="#455A64"/>
<path d="M633.418 359.945C634.032 362.005 634.536 364.096 634.928 366.21C635.428 368.298 635.817 370.411 636.094 372.541C635.48 370.481 634.978 368.39 634.59 366.276C634.086 364.189 633.695 362.075 633.418 359.945V359.945Z" fill="#455A64"/>
<path d="M468.338 378.964C468.338 378.871 501.246 378.792 541.85 378.792C582.454 378.792 615.363 378.871 615.363 378.964C615.363 379.057 582.461 379.136 541.85 379.136C501.239 379.136 468.338 379.063 468.338 378.964Z" fill="#263238"/>
<path d="M471.219 375.633C471.219 375.534 502.717 375.461 541.559 375.461C580.402 375.461 611.9 375.534 611.9 375.633C611.9 375.732 580.415 375.805 541.559 375.805C502.704 375.805 471.219 375.726 471.219 375.633Z" fill="#263238"/>
<path d="M475.598 372.222C475.598 372.122 505.4 372.05 542.13 372.05C578.86 372.05 608.662 372.122 608.662 372.222C608.662 372.321 578.86 372.394 542.13 372.394C505.4 372.394 475.598 372.314 475.598 372.222Z" fill="#263238"/>
<path d="M478.518 368.811C478.518 368.712 506.89 368.639 541.885 368.639C576.879 368.639 605.258 368.712 605.258 368.811C605.258 368.91 576.893 368.983 541.885 368.983C506.877 368.983 478.518 368.904 478.518 368.811Z" fill="#263238"/>
<path d="M483.379 365.539C483.379 365.447 509.685 365.367 542.129 365.367C574.574 365.367 600.88 365.447 600.88 365.539C600.88 365.632 574.581 365.712 542.129 365.712C509.678 365.712 483.379 365.659 483.379 365.539Z" fill="#263238"/>
<path d="M488.889 362.314C488.889 362.221 512.652 362.142 541.964 362.142C571.276 362.142 595.045 362.221 595.045 362.314C595.045 362.407 571.283 362.486 541.964 362.486C512.645 362.486 488.889 362.407 488.889 362.314Z" fill="#263238"/>
<path d="M540.83 219.521H539.029V222.766H540.83V219.521Z" fill="#263238"/>
<g opacity="0.3">
<path opacity="0.3" d="M439.349 280.36C439.349 280.36 442.601 279.252 441.958 276.816C448.811 280.404 456.447 282.229 464.178 282.125C476.98 281.933 523.895 284.779 523.895 284.779L529.273 292.225C529.273 292.225 449.833 290.42 446.892 292.344L439.349 280.36Z" fill="white"/>
</g>
<g opacity="0.3">
<path opacity="0.3" d="M409.547 286.279C408.884 286.279 429.786 293.479 432.495 295.742L436.766 294.806L421.845 270.021L420.136 269.616C420.136 269.616 415.01 286.312 409.547 286.279Z" fill="white"/>
</g>
<g opacity="0.3">
<path opacity="0.3" d="M459.807 210.92C460.204 210.92 541.631 207.43 541.499 206.355C541.367 205.28 505.193 205.419 489.305 206.355C479.356 206.991 469.484 208.519 459.807 210.92V210.92Z" fill="white"/>
</g>
<g opacity="0.2">
<path opacity="0.2" d="M425.701 256.258L491.928 239.887L504.406 212.5L450.867 214.729C450.516 214.711 450.168 214.802 449.871 214.991C449.574 215.181 449.343 215.458 449.212 215.785L425.701 256.258Z" fill="white"/>
</g>
<path d="M429.539 491.484C429.539 493.516 429.047 495.281 428.062 496.781C427.078 498.281 425.641 499.438 423.75 500.25C421.875 501.062 419.594 501.469 416.906 501.469C415.719 501.469 414.555 501.391 413.414 501.234C412.289 501.078 411.203 500.852 410.156 500.555C409.125 500.242 408.141 499.859 407.203 499.406V492.656C408.828 493.375 410.516 494.023 412.266 494.602C414.016 495.18 415.75 495.469 417.469 495.469C418.656 495.469 419.609 495.312 420.328 495C421.062 494.688 421.594 494.258 421.922 493.711C422.25 493.164 422.414 492.539 422.414 491.836C422.414 490.977 422.125 490.242 421.547 489.633C420.969 489.023 420.172 488.453 419.156 487.922C418.156 487.391 417.023 486.82 415.758 486.211C414.961 485.836 414.094 485.383 413.156 484.852C412.219 484.305 411.328 483.641 410.484 482.859C409.641 482.078 408.945 481.133 408.398 480.023C407.867 478.898 407.602 477.555 407.602 475.992C407.602 473.945 408.07 472.195 409.008 470.742C409.945 469.289 411.281 468.18 413.016 467.414C414.766 466.633 416.828 466.242 419.203 466.242C420.984 466.242 422.68 466.453 424.289 466.875C425.914 467.281 427.609 467.875 429.375 468.656L427.031 474.305C425.453 473.664 424.039 473.172 422.789 472.828C421.539 472.469 420.266 472.289 418.969 472.289C418.062 472.289 417.289 472.438 416.648 472.734C416.008 473.016 415.523 473.422 415.195 473.953C414.867 474.469 414.703 475.07 414.703 475.758C414.703 476.57 414.938 477.258 415.406 477.82C415.891 478.367 416.609 478.898 417.562 479.414C418.531 479.93 419.734 480.531 421.172 481.219C422.922 482.047 424.414 482.914 425.648 483.82C426.898 484.711 427.859 485.766 428.531 486.984C429.203 488.188 429.539 489.688 429.539 491.484ZM455.484 501H435.75V466.734H455.484V472.688H443.016V480.211H454.617V486.164H443.016V495H455.484V501ZM477.164 501L468.914 474.117H468.703C468.734 474.758 468.781 475.727 468.844 477.023C468.922 478.305 468.992 479.672 469.055 481.125C469.117 482.578 469.148 483.891 469.148 485.062V501H462.656V466.734H472.547L480.656 492.938H480.797L489.398 466.734H499.289V501H492.516V484.781C492.516 483.703 492.531 482.461 492.562 481.055C492.609 479.648 492.664 478.312 492.727 477.047C492.789 475.766 492.836 474.805 492.867 474.164H492.656L483.82 501H477.164ZM527.555 501H520.406V466.734H540.047V472.688H527.555V481.523H539.18V487.453H527.555V501ZM577.852 483.82C577.852 486.461 577.523 488.867 576.867 491.039C576.211 493.195 575.211 495.055 573.867 496.617C572.539 498.18 570.852 499.383 568.805 500.227C566.758 501.055 564.336 501.469 561.539 501.469C558.742 501.469 556.32 501.055 554.273 500.227C552.227 499.383 550.531 498.18 549.188 496.617C547.859 495.055 546.867 493.188 546.211 491.016C545.555 488.844 545.227 486.43 545.227 483.773C545.227 480.227 545.805 477.141 546.961 474.516C548.133 471.875 549.93 469.828 552.352 468.375C554.773 466.922 557.852 466.195 561.586 466.195C565.305 466.195 568.359 466.922 570.75 468.375C573.156 469.828 574.938 471.875 576.094 474.516C577.266 477.156 577.852 480.258 577.852 483.82ZM552.844 483.82C552.844 486.211 553.141 488.273 553.734 490.008C554.344 491.727 555.289 493.055 556.57 493.992C557.852 494.914 559.508 495.375 561.539 495.375C563.602 495.375 565.273 494.914 566.555 493.992C567.836 493.055 568.766 491.727 569.344 490.008C569.938 488.273 570.234 486.211 570.234 483.82C570.234 480.227 569.562 477.398 568.219 475.336C566.875 473.273 564.664 472.242 561.586 472.242C559.539 472.242 557.867 472.711 556.57 473.648C555.289 474.57 554.344 475.898 553.734 477.633C553.141 479.352 552.844 481.414 552.844 483.82ZM598.172 501H590.906V472.781H581.602V466.734H607.477V472.781H598.172V501ZM643.852 483.82C643.852 486.461 643.523 488.867 642.867 491.039C642.211 493.195 641.211 495.055 639.867 496.617C638.539 498.18 636.852 499.383 634.805 500.227C632.758 501.055 630.336 501.469 627.539 501.469C624.742 501.469 622.32 501.055 620.273 500.227C618.227 499.383 616.531 498.18 615.188 496.617C613.859 495.055 612.867 493.188 612.211 491.016C611.555 488.844 611.227 486.43 611.227 483.773C611.227 480.227 611.805 477.141 612.961 474.516C614.133 471.875 615.93 469.828 618.352 468.375C620.773 466.922 623.852 466.195 627.586 466.195C631.305 466.195 634.359 466.922 636.75 468.375C639.156 469.828 640.938 471.875 642.094 474.516C643.266 477.156 643.852 480.258 643.852 483.82ZM618.844 483.82C618.844 486.211 619.141 488.273 619.734 490.008C620.344 491.727 621.289 493.055 622.57 493.992C623.852 494.914 625.508 495.375 627.539 495.375C629.602 495.375 631.273 494.914 632.555 493.992C633.836 493.055 634.766 491.727 635.344 490.008C635.938 488.273 636.234 486.211 636.234 483.82C636.234 480.227 635.562 477.398 634.219 475.336C632.875 473.273 630.664 472.242 627.586 472.242C625.539 472.242 623.867 472.711 622.57 473.648C621.289 474.57 620.344 475.898 619.734 477.633C619.141 479.352 618.844 481.414 618.844 483.82ZM671.18 491.484C671.18 493.516 670.688 495.281 669.703 496.781C668.719 498.281 667.281 499.438 665.391 500.25C663.516 501.062 661.234 501.469 658.547 501.469C657.359 501.469 656.195 501.391 655.055 501.234C653.93 501.078 652.844 500.852 651.797 500.555C650.766 500.242 649.781 499.859 648.844 499.406V492.656C650.469 493.375 652.156 494.023 653.906 494.602C655.656 495.18 657.391 495.469 659.109 495.469C660.297 495.469 661.25 495.312 661.969 495C662.703 494.688 663.234 494.258 663.562 493.711C663.891 493.164 664.055 492.539 664.055 491.836C664.055 490.977 663.766 490.242 663.188 489.633C662.609 489.023 661.812 488.453 660.797 487.922C659.797 487.391 658.664 486.82 657.398 486.211C656.602 485.836 655.734 485.383 654.797 484.852C653.859 484.305 652.969 483.641 652.125 482.859C651.281 482.078 650.586 481.133 650.039 480.023C649.508 478.898 649.242 477.555 649.242 475.992C649.242 473.945 649.711 472.195 650.648 470.742C651.586 469.289 652.922 468.18 654.656 467.414C656.406 466.633 658.469 466.242 660.844 466.242C662.625 466.242 664.32 466.453 665.93 466.875C667.555 467.281 669.25 467.875 671.016 468.656L668.672 474.305C667.094 473.664 665.68 473.172 664.43 472.828C663.18 472.469 661.906 472.289 660.609 472.289C659.703 472.289 658.93 472.438 658.289 472.734C657.648 473.016 657.164 473.422 656.836 473.953C656.508 474.469 656.344 475.07 656.344 475.758C656.344 476.57 656.578 477.258 657.047 477.82C657.531 478.367 658.25 478.898 659.203 479.414C660.172 479.93 661.375 480.531 662.812 481.219C664.562 482.047 666.055 482.914 667.289 483.82C668.539 484.711 669.5 485.766 670.172 486.984C670.844 488.188 671.18 489.688 671.18 491.484Z" fill="white"/>
</svg>
