<svg width="18" height="18" viewBox="0 0 18 18" fill="none" xmlns="http://www.w3.org/2000/svg">
<path d="M8.89545 1.90399C8.54345 2.71999 8.47945 3.60799 8.71945 4.40799C8.76745 4.57599 9.32746 5.61599 9.96746 6.72799C10.6075 7.84799 11.2075 8.97599 11.2955 9.23999C11.5275 9.92799 11.4715 10.896 11.1675 11.584C11.0395 11.856 10.9115 12.08 10.8875 12.08C10.8555 12.08 10.7915 11.928 10.7435 11.736C10.6875 11.552 9.88746 10.088 8.96745 8.48799C8.03945 6.88799 7.26345 5.47199 7.23945 5.35199C7.15945 4.99999 7.07145 5.00799 6.89545 5.38399C6.50345 6.21599 6.47945 7.23999 6.83145 8.07999C6.93545 8.31999 7.51145 9.36799 8.11145 10.4C8.71145 11.432 9.26346 12.472 9.32746 12.712C9.52746 13.376 9.45546 14.464 9.17546 15.072C8.94345 15.584 8.89545 15.584 8.72745 15.08C8.66345 14.904 8.00745 13.712 7.27145 12.424C5.75145 9.79199 5.71145 9.70399 5.59145 8.97599C5.55145 8.67999 5.50345 8.43199 5.48745 8.42399C5.44745 8.37599 4.05545 8.88799 3.63945 9.10399C2.60745 9.62399 1.71945 10.424 1.35145 11.176C1.07945 11.728 1.07945 12.752 1.35945 13.32C1.60745 13.84 2.53545 14.76 3.19945 15.144C5.88745 16.696 10.4155 16.936 13.6395 15.688C14.5915 15.32 15.2555 14.904 15.8875 14.28C16.6475 13.52 16.8395 13.12 16.8395 12.24C16.8395 11.344 16.6475 10.96 15.8475 10.16C15.3675 9.68799 15.0715 9.47199 14.4395 9.15199C13.9995 8.92799 13.3595 8.66399 13.0235 8.55999C12.4555 8.39199 12.3995 8.35199 12.3995 8.16799C12.3915 7.69599 11.9595 6.79199 10.6715 4.55999C9.91946 3.26399 9.24746 2.03999 9.18346 1.84799L9.07146 1.49599L8.89545 1.90399Z" fill="white"/>
</svg>
