<svg width="13" height="4" viewBox="0 0 13 4" fill="none" xmlns="http://www.w3.org/2000/svg">
<path d="M0.268555 1.91016C0.268555 1.42969 0.391602 1.09277 0.637695 0.899414C0.889648 0.700195 1.19434 0.600586 1.55176 0.600586C1.90918 0.600586 2.21387 0.700195 2.46582 0.899414C2.72363 1.09277 2.85254 1.42969 2.85254 1.91016C2.85254 2.37891 2.72363 2.71875 2.46582 2.92969C2.21387 3.13477 1.90918 3.2373 1.55176 3.2373C1.19434 3.2373 0.889648 3.13477 0.637695 2.92969C0.391602 2.71875 0.268555 2.37891 0.268555 1.91016ZM5.20801 1.91016C5.20801 1.42969 5.33105 1.09277 5.57715 0.899414C5.8291 0.700195 6.13379 0.600586 6.49121 0.600586C6.84863 0.600586 7.15332 0.700195 7.40527 0.899414C7.66309 1.09277 7.79199 1.42969 7.79199 1.91016C7.79199 2.37891 7.66309 2.71875 7.40527 2.92969C7.15332 3.13477 6.84863 3.2373 6.49121 3.2373C6.13379 3.2373 5.8291 3.13477 5.57715 2.92969C5.33105 2.71875 5.20801 2.37891 5.20801 1.91016ZM10.1475 1.91016C10.1475 1.42969 10.2705 1.09277 10.5166 0.899414C10.7686 0.700195 11.0732 0.600586 11.4307 0.600586C11.7881 0.600586 12.0928 0.700195 12.3447 0.899414C12.6025 1.09277 12.7314 1.42969 12.7314 1.91016C12.7314 2.37891 12.6025 2.71875 12.3447 2.92969C12.0928 3.13477 11.7881 3.2373 11.4307 3.2373C11.0732 3.2373 10.7686 3.13477 10.5166 2.92969C10.2705 2.71875 10.1475 2.37891 10.1475 1.91016Z" fill="#D3D3D3"/>
</svg>
