<svg width="512" height="512" viewBox="0 0 512 512" fill="none" xmlns="http://www.w3.org/2000/svg">
<path d="M243.8 1.4C233.1 5.2 224.9 13.2 221.1 23.5C219.9 26.6 219 29.4 219 29.9C219 30.3 217.8 31.7 216.4 33.1C214 35.4 213.1 35.5 196.6 36C178 36.5 176 37.1 172.3 42.7C170.7 45.1 170.5 48.6 170.2 72.2L169.9 99H255.9H342V73.7C342 49.5 341.9 48.2 339.8 44C336.1 36.9 333.3 36 315.3 36C295.1 36 293.5 35.3 290.5 25.4C285.8 9.8 272.2 -1.47521e-06 255.5 0.0999985C251.1 0.0999985 245.9 0.699999 243.8 1.4Z" fill="#D21B60"/>
<path d="M91.5 77.7C81.7 79.9 74.2 86.1 71 94.6C69 100 69 101.5 69 295.8V491.5L71.4 496.5C73.9 501.9 78.7 507.2 83.5 509.8C86.3 511.4 99.8 511.5 256 511.5C414.4 511.5 425.7 511.4 428.6 509.8C433.5 507.1 438.1 502.1 440.6 496.5L443 491.5V295.8C443 102.8 443 100 441 94.8C438.7 88.6 432.5 82 426.5 79.3C423 77.7 418.7 77.5 390.8 77.2L359 76.9V93.8C359 110.4 358.9 110.8 356.5 113.4L354.1 116H256H157.9L155.5 113.5C153 111.1 153 110.8 153 94V77L123.3 77.1C106.9 77.2 92.6 77.4 91.5 77.7ZM341 146.4C342.9 147.4 346.4 150 348.7 152.3C352.3 155.8 354.4 159.8 363.6 181.4C373 203.3 375 207.2 379.2 211.7C381.9 214.6 385.3 219.6 386.8 222.7L389.5 228.5V277C389.5 331.6 389.8 329.3 381.7 337.1C375.4 343.2 371.4 344.2 354.9 343.8C341.4 343.5 340.2 343.3 336 340.8C327.1 335.6 323.1 328.9 322.3 317.6L321.7 310H256H190.3L189.7 317.6C188.9 328.9 184.9 335.6 176 340.8C171.8 343.3 170.6 343.5 157.1 343.8C140.6 344.2 136.6 343.2 130.3 337.1C122.2 329.3 122.5 331.5 122.5 278V230.5L125.8 223.8C128.1 219.1 131 215.3 135.4 211.3C141.7 205.5 141.7 205.4 151.4 182.5C156.8 169.8 162.3 157.8 163.6 155.8C166.1 151.9 172.5 147 177.5 145.2C179.6 144.5 204.8 144.2 259 144.3C333.4 144.5 337.7 144.6 341 146.4ZM227.3 369.3C233.8 372.1 233.5 369.2 233.5 425.1V476L230.7 478.7L228 481.5H175.5H123L120.3 478.7L117.5 476V425.1V374.2L119.9 371.6C121.2 370.2 123.2 368.9 124.4 368.7C125.5 368.5 148.5 368.2 175.3 368.1C214.1 368 224.7 368.3 227.3 369.3ZM343.4 394.1C345.3 395.6 346 397.1 346 399.5C346 409 346 409 301.6 409H264.2L261.1 406.4C257.1 403.1 256.8 398.1 260.5 394.5L262.9 392H301.8C339.7 392 340.8 392.1 343.4 394.1ZM391.4 442.5C395.3 446.1 395.3 451.3 391.4 454.7L388.9 457H325.9H262.9L260.5 454.5C256.4 450.5 257.4 444.1 262.5 441.2C263.9 440.4 281.8 440.1 326.6 440H388.7L391.4 442.5Z" fill="#D21B60"/>
<path d="M181.4 162.4C178.2 163.8 178.3 163.6 166.1 191.7L162.1 201H211H259.8L260.5 198.2C261.4 194 267.9 184.6 272.5 180.9C274.7 179.2 279 176.6 282 175.1C289.7 171.5 302.7 171.4 311.5 174.9C319.5 178.1 328.9 187.5 331.8 195.1L333.8 200.5L343.5 200.8C352.1 201 353.2 200.9 352.6 199.5C347.8 186.9 338.2 165.9 336.3 164L334 161.5L259.2 161.3C198.2 161.1 183.9 161.3 181.4 162.4Z" fill="#D21B60"/>
<path d="M289.9 190.5C286.8 191.5 283.9 193.4 281.4 196.2L277.6 200.5L295.9 200.8C306 200.9 314.5 200.8 314.8 200.5C315.9 199.5 311.3 194.5 307.3 192.2C302 189.3 295.7 188.7 289.9 190.5Z" fill="#D21B60"/>
<path d="M146.8 224.2C142.9 227.9 140.9 230.7 140.1 233.5C139.5 235.8 139 247.3 139 261.3C139 286.1 139.6 289.9 143.5 291.4C145.7 292.2 366.3 292.2 368.5 291.4C372.5 289.8 373 286.2 373 259.5C373 230.9 372.7 229.4 366.2 222.7L362.6 219H257.5H152.4L146.8 224.2ZM203.3 236.2C204.5 236.8 206 238 206.7 238.9C208.4 241.1 208.4 274.9 206.7 277.1C204 280.6 201.4 281 180.5 281H159.8L156.9 278.1L154 275.2V258V240.8L156.9 237.9L159.8 235H180.5C194.3 235 201.9 235.4 203.3 236.2ZM355.9 237.6L359 240.2V258V275.8L355.9 278.4L352.8 281H331.8H310.8L307.9 278.1L305 275.2V258V240.8L307.9 237.9L310.8 235H331.8H352.8L355.9 237.6ZM280 254.1C287.2 256.6 287.2 267.4 280 269.9C275.6 271.4 236.4 271.4 232 269.9C225.2 267.5 224.7 257.3 231.4 254.4C235.4 252.7 275.1 252.4 280 254.1Z" fill="#D21B60"/>
<path d="M171 258.5V265H180.5H190V258.5V252H180.5H171V258.5Z" fill="#D21B60"/>
<path d="M322 258.5V265H331.5H341V258.5V252H331.5H322V258.5Z" fill="#D21B60"/>
<path d="M139.199 315.5C139.599 321.4 139.999 322.6 142.399 324.6C144.899 326.8 145.999 327 155.099 327C169.299 327 171.899 325.3 171.999 315.7V310H158.599C151.299 310 143.799 309.7 141.999 309.3L138.699 308.7L139.199 315.5Z" fill="#D21B60"/>
<path d="M354.8 309.7L340 310.1V315.8C340.1 325.3 342.7 327 356.9 327C366 327 367.1 326.8 369.6 324.6C372 322.6 372.4 321.4 372.8 315.6C373.2 309.6 373.1 309 371.4 309.2C370.3 309.3 362.9 309.6 354.8 309.7Z" fill="#D21B60"/>
<path d="M135 425V464H175.5H216V425V386H175.5H135V425ZM199.4 407.1C202.7 411 202.7 414 199.3 418.2C189.5 430.1 176.3 444.3 174.3 445.1C172.9 445.6 170.9 445.5 169.3 444.9C166.5 443.9 153.5 433.8 151.3 431C149.4 428.7 149.8 423.5 152.1 420.6C155.2 416.7 160.2 417 166 421.6L170.5 425.2L176.5 418.3C187.9 405.3 189.4 404 193.3 404C196 404 197.4 404.7 199.4 407.1Z" fill="#D21B60"/>
</svg>
