<svg width="429" height="501" viewBox="0 0 429 501" fill="none" xmlns="http://www.w3.org/2000/svg">
<g clip-path="url(#clip0_346_278)">
<path d="M182.666 65.9984L203.903 44.3187C212.896 35.139 227.437 35.139 236.333 44.3187L422.303 234.065C431.295 243.245 431.295 258.088 422.303 267.17L236.333 457.014C227.341 466.194 212.8 466.194 203.903 457.014L182.666 435.334C173.578 426.057 173.77 410.92 183.049 401.838L298.323 289.729L23.387 289.729C10.6638 289.729 0.427858 279.28 0.427858 266.291V235.041C0.427858 222.053 10.6638 211.604 23.387 211.604L298.323 211.604L183.049 99.4945C173.674 90.4125 173.483 75.2757 182.666 65.9984Z" fill="white"/>
</g>
<defs>
<clipPath id="clip0_346_278">
<rect width="428.571" height="500" fill="white" transform="translate(429 500.667) rotate(-180)"/>
</clipPath>
</defs>
</svg>
