<svg width="16" height="19" viewBox="0 0 16 19" fill="none" xmlns="http://www.w3.org/2000/svg">
<g clip-path="url(#clip0_46:132)">
<path d="M6.85714 3.79478V5.2134C6.85714 5.44842 6.66525 5.63898 6.42857 5.63898H5C4.76332 5.63898 4.57143 5.44842 4.57143 5.2134V3.79478C4.57143 3.55976 4.76332 3.3692 5 3.3692H6.42857C6.66525 3.3692 6.85714 3.55976 6.85714 3.79478ZM11 3.3692H9.57143C9.33475 3.3692 9.14286 3.55976 9.14286 3.79478V5.2134C9.14286 5.44842 9.33475 5.63898 9.57143 5.63898H11C11.2367 5.63898 11.4286 5.44842 11.4286 5.2134V3.79478C11.4286 3.55976 11.2367 3.3692 11 3.3692ZM6.42857 6.77387H5C4.76332 6.77387 4.57143 6.96442 4.57143 7.19945V8.61806C4.57143 8.85309 4.76332 9.04364 5 9.04364H6.42857C6.66525 9.04364 6.85714 8.85309 6.85714 8.61806V7.19945C6.85714 6.96442 6.66525 6.77387 6.42857 6.77387ZM11 6.77387H9.57143C9.33475 6.77387 9.14286 6.96442 9.14286 7.19945V8.61806C9.14286 8.85309 9.33475 9.04364 9.57143 9.04364H11C11.2367 9.04364 11.4286 8.85309 11.4286 8.61806V7.19945C11.4286 6.96442 11.2367 6.77387 11 6.77387ZM6.42857 10.1785H5C4.76332 10.1785 4.57143 10.3691 4.57143 10.6041V12.0227C4.57143 12.2578 4.76332 12.4483 5 12.4483H6.42857C6.66525 12.4483 6.85714 12.2578 6.85714 12.0227V10.6041C6.85714 10.3691 6.66525 10.1785 6.42857 10.1785ZM11 10.1785H9.57143C9.33475 10.1785 9.14286 10.3691 9.14286 10.6041V12.0227C9.14286 12.2578 9.33475 12.4483 9.57143 12.4483H11C11.2367 12.4483 11.4286 12.2578 11.4286 12.0227V10.6041C11.4286 10.3691 11.2367 10.1785 11 10.1785ZM16 17.4489V18.1582H0V17.4489C0 17.2139 0.191893 17.0233 0.428571 17.0233H1.14286V0.851167C1.14286 0.381074 1.52661 0 2 0H14C14.4734 0 14.8571 0.381074 14.8571 0.851167V17.0233H15.5714C15.8081 17.0233 16 17.2139 16 17.4489ZM13.7143 17.0233V1.13489H2.28571V17.0233H6.85714V14.0088C6.85714 13.7738 7.04904 13.5832 7.28571 13.5832H8.71429C8.95096 13.5832 9.14286 13.7738 9.14286 14.0088V17.0233H13.7143Z" fill="white"/>
</g>
<defs>
<clipPath id="clip0_46:132">
<rect width="16" height="18.1582" fill="white"/>
</clipPath>
</defs>
</svg>
