<svg width="23" height="19" viewBox="0 0 23 19" fill="none" xmlns="http://www.w3.org/2000/svg">
<path d="M5.39394 8.84238C4.23489 8.84238 3.39373 9.62988 3.39373 10.715C3.39373 11.8002 4.23489 12.5877 5.39394 12.5877L5.84667 12.5924C7.59731 12.5924 7.8585 11.6502 7.8585 11.0886C7.85805 9.93175 6.46995 8.84238 5.39394 8.84238ZM5.84667 11.4674C5.68996 11.4674 5.53325 11.4627 5.39394 11.4627C4.83674 11.4627 4.46527 11.1636 4.46527 10.715C4.46527 10.2664 4.83674 9.96738 5.39394 9.96738C5.95115 9.96738 6.78695 10.6405 6.78695 11.0891C6.78695 11.4252 6.31637 11.4674 5.84667 11.4674ZM17.4658 8.84238C16.3898 8.84238 15.0017 9.93175 15.0017 11.0891C15.0017 11.6507 15.2629 12.5928 17.0135 12.5928L17.4662 12.5882C18.6253 12.5882 19.4664 11.8007 19.4664 10.7155C19.466 9.62988 18.6248 8.84238 17.4658 8.84238ZM17.4658 11.4627C17.3265 11.4627 17.1698 11.4674 17.0131 11.4674C16.5429 11.4674 16.0728 11.4252 16.0728 11.0891C16.0728 10.6405 16.9086 9.96738 17.4658 9.96738C18.023 9.96738 18.3945 10.2664 18.3945 10.715C18.3945 11.1636 18.023 11.4627 17.4658 11.4627ZM22.5913 4.85613C22.2636 4.29925 21.6957 3.96691 21.072 3.96691H18.8548L18.4945 2.80628C18.0154 1.26222 16.6447 0.217377 15.0986 0.217377H7.76116C6.21457 0.217377 4.84433 1.26222 4.36526 2.80581L4.00495 3.96644H1.78775C1.16402 3.96644 0.596105 4.29878 0.26839 4.85566C-0.0593235 5.41253 -0.088791 6.0941 0.190257 6.67956L0.448321 7.22378C0.625125 7.59316 0.891226 7.88425 1.20733 8.09331C0.898816 8.64363 0.714867 9.28019 0.714867 9.96691V15.9674C0.714867 17.2082 1.67613 18.2174 2.85796 18.2174H3.57232C4.75414 18.2174 5.71541 17.2082 5.71541 15.9674V15.2174H17.1448V15.9674C17.1448 17.2082 18.106 18.2174 19.2879 18.2174H20.0022C21.184 18.2174 22.1453 17.2082 22.1453 15.9674V9.96691C22.1453 9.27972 21.9614 8.64363 21.6528 8.09284C21.9694 7.88378 22.235 7.59222 22.4119 7.22238L22.6699 6.6805C22.9485 6.09456 22.9191 5.41253 22.5913 4.85613ZM5.72389 3.27081C6.01231 2.34175 6.83115 1.71738 7.76161 1.71738H15.0986C16.029 1.71738 16.8479 2.34175 17.1363 3.27035L18.0502 6.21644H4.80995L5.72389 3.27081ZM1.72658 6.553L1.46852 6.00972C1.38771 5.84144 1.45334 5.69847 1.4837 5.64503C1.52254 5.57847 1.61496 5.46691 1.78775 5.46691H3.53973L3.25175 6.39597C2.88463 6.51378 2.53781 6.69244 2.22441 6.92519C2.01411 6.87831 1.82526 6.76019 1.72658 6.553ZM4.28668 15.9674C4.28668 16.3813 3.96567 16.7174 3.57232 16.7174H2.85796C2.46461 16.7174 2.14359 16.3813 2.14359 15.9674V15.2174H4.28668V15.9674ZM20.7161 15.9674C20.7161 16.3813 20.3951 16.7174 20.0018 16.7174H19.2874C18.8941 16.7174 18.573 16.3813 18.573 15.9674V15.2174H20.7161V15.9674ZM20.7161 12.2169V13.7169H2.14359V9.96691C2.14359 8.72613 3.10486 7.71691 4.28668 7.71691H18.573C19.7549 7.71691 20.7161 8.72613 20.7161 9.96691V12.2169ZM21.3912 6.01019L21.1331 6.5516C21.0345 6.75972 20.8456 6.87831 20.6353 6.92519C20.3255 6.6955 19.9795 6.51456 19.608 6.39597L19.32 5.46691H21.072C21.2448 5.46691 21.3372 5.57847 21.376 5.64503C21.4068 5.69847 21.4725 5.84097 21.3912 6.01019Z" fill="white"/>
</svg>
