<svg width="24" height="26" viewBox="0 0 24 26" fill="none" xmlns="http://www.w3.org/2000/svg">
<path d="M21.159 9.79045L19.912 5.96145C19.3755 4.31445 17.8405 3.19995 16.1085 3.19995H7.8915C6.1595 3.19995 4.6245 4.31445 4.088 5.96095L2.841 9.78995C1.201 10.2895 0 11.796 0 13.5995V20C0 21.3235 1.0765 22.4 2.4 22.4H3.2C4.5235 22.4 5.6 21.3235 5.6 20V19.2H18.4V20C18.4 21.3235 19.4765 22.4 20.8 22.4H21.6C22.9235 22.4 24 21.3235 24 20V13.5995C24 11.796 22.799 10.2895 21.159 9.79045ZM5.6095 6.45695C5.9325 5.46595 6.8495 4.79995 7.8915 4.79995H16.1085C17.1505 4.79995 18.0675 5.46595 18.3905 6.45645L19.414 9.59895H4.586L5.6095 6.45695ZM4 20C4 20.4415 3.6405 20.8 3.2 20.8H2.4C1.9595 20.8 1.6 20.4415 1.6 20V19.2H4V20ZM22.4 20C22.4 20.4415 22.0405 20.8 21.6 20.8H20.8C20.3595 20.8 20 20.4415 20 20V19.2H22.4V20ZM22.4 15.9994V17.5994H1.6V13.5995C1.6 12.276 2.6765 11.1995 4 11.1995H20C21.3235 11.1995 22.4 12.276 22.4 13.5995V15.9994ZM5.24 12.4C3.942 12.4 3 13.24 3 14.3975C3 15.555 3.942 16.395 5.24 16.395L5.747 16.4C7.7075 16.4 8 15.395 8 14.796C8 13.562 6.445 12.4 5.24 12.4ZM5.747 15.2C5.5715 15.2 5.396 15.195 5.24 15.195C4.616 15.195 4.2 14.876 4.2 14.3975C4.2 13.919 4.616 13.6 5.24 13.6C5.864 13.6 6.8 14.318 6.8 14.7965C6.8 15.155 6.2735 15.2 5.747 15.2ZM18.76 12.4C17.555 12.4 16 13.562 16 14.7965C16 15.3955 16.2925 16.4005 18.253 16.4005L18.76 16.3955C20.058 16.3955 21 15.5554 21 14.398C21 13.24 20.058 12.4 18.76 12.4V12.4ZM18.76 15.195C18.604 15.195 18.4285 15.2 18.253 15.2C17.7265 15.2 17.2 15.155 17.2 14.7965C17.2 14.318 18.136 13.6 18.76 13.6C19.384 13.6 19.8 13.919 19.8 14.3975C19.8 14.876 19.384 15.195 18.76 15.195Z" fill="white"/>
</svg>
