<svg width="512" height="512" viewBox="0 0 512 512" fill="none" xmlns="http://www.w3.org/2000/svg">
<path d="M504 416H32V72C32 67.58 28.42 64 24 64H8C3.58 64 0 67.58 0 72V432C0 440.84 7.16 448 16 448H504C508.42 448 512 444.42 512 440V424C512 419.58 508.42 416 504 416ZM98.34 263.03C95.22 266.15 95.22 271.22 98.34 274.34L109.65 285.65C112.77 288.77 117.84 288.77 120.96 285.65L193.65 213.64L278.34 298.33C284.59 304.58 294.72 304.58 300.97 298.33L394.5 204.8L438.54 248.84C443.49 253.79 449.57 256 455.54 256C468.02 256 480 246.3 480 231.66V112.19C480 103.25 472.75 96 463.81 96H344.34C322.7 96 311.87 122.16 327.17 137.46L371.88 182.17L289.66 264.39L205.03 179.76C198.8 173.53 188.71 173.51 182.46 179.71L98.34 263.03ZM362.96 128H448V213.04L362.96 128Z" fill="#FF5C00"/>
</svg>
