<svg width="12" height="18" viewBox="0 0 12 18" fill="none" xmlns="http://www.w3.org/2000/svg">
<g clip-path="url(#clip0_270_4)">
<path d="M6.8182 9L10.4238 5.39438L11.1674 4.65082C11.2771 4.54113 11.2771 4.36289 11.1674 4.2532L10.3718 3.45762C10.2621 3.34793 10.0839 3.34793 9.97418 3.45762L5.625 7.8068L1.27582 3.45727C1.16613 3.34758 0.987891 3.34758 0.878203 3.45727L0.0822656 4.25285C-0.0274219 4.36254 -0.0274219 4.54078 0.0822656 4.65047L4.4318 9L0.0822656 13.3492C-0.0274219 13.4589 -0.0274219 13.6371 0.0822656 13.7468L0.877852 14.5424C0.987539 14.6521 1.16578 14.6521 1.27547 14.5424L5.625 10.1932L9.23062 13.7988L9.97418 14.5424C10.0839 14.6521 10.2621 14.6521 10.3718 14.5424L11.1674 13.7468C11.2771 13.6371 11.2771 13.4589 11.1674 13.3492L6.8182 9Z" fill="white"/>
</g>
<defs>
<clipPath id="clip0_270_4">
<rect width="11.25" height="18" fill="white"/>
</clipPath>
</defs>
</svg>
