<svg width="16" height="18" viewBox="0 0 16 18" fill="none" xmlns="http://www.w3.org/2000/svg">
<g clip-path="url(#clip0_268_4)">
<path d="M10.4062 15.1875H10.9688C11.0433 15.1875 11.1149 15.1579 11.1676 15.1051C11.2204 15.0524 11.25 14.9808 11.25 14.9062V5.34375C11.25 5.26916 11.2204 5.19762 11.1676 5.14488C11.1149 5.09213 11.0433 5.0625 10.9688 5.0625H10.4062C10.3317 5.0625 10.2601 5.09213 10.2074 5.14488C10.1546 5.19762 10.125 5.26916 10.125 5.34375V14.9062C10.125 14.9808 10.1546 15.0524 10.2074 15.1051C10.2601 15.1579 10.3317 15.1875 10.4062 15.1875ZM4.78125 15.1875H5.34375C5.41834 15.1875 5.48988 15.1579 5.54262 15.1051C5.59537 15.0524 5.625 14.9808 5.625 14.9062V5.34375C5.625 5.26916 5.59537 5.19762 5.54262 5.14488C5.48988 5.09213 5.41834 5.0625 5.34375 5.0625H4.78125C4.70666 5.0625 4.63512 5.09213 4.58238 5.14488C4.52963 5.19762 4.5 5.26916 4.5 5.34375V14.9062C4.5 14.9808 4.52963 15.0524 4.58238 15.1051C4.63512 15.1579 4.70666 15.1875 4.78125 15.1875ZM15.4688 2.25H11.8125L10.6312 0.675C10.4741 0.465419 10.2702 0.295313 10.0359 0.178154C9.8016 0.0609948 9.54323 0 9.28125 0L6.46875 0C6.20677 0 5.9484 0.0609948 5.71408 0.178154C5.47976 0.295313 5.27594 0.465419 5.11875 0.675L3.9375 2.25H0.28125C0.206658 2.25 0.135121 2.27963 0.0823762 2.33238C0.0296316 2.38512 0 2.45666 0 2.53125L0 3.09375C0 3.16834 0.0296316 3.23988 0.0823762 3.29262C0.135121 3.34537 0.206658 3.375 0.28125 3.375H1.125V16.3125C1.125 16.7601 1.30279 17.1893 1.61926 17.5057C1.93572 17.8222 2.36495 18 2.8125 18H12.9375C13.3851 18 13.8143 17.8222 14.1307 17.5057C14.4472 17.1893 14.625 16.7601 14.625 16.3125V3.375H15.4688C15.5433 3.375 15.6149 3.34537 15.6676 3.29262C15.7204 3.23988 15.75 3.16834 15.75 3.09375V2.53125C15.75 2.45666 15.7204 2.38512 15.6676 2.33238C15.6149 2.27963 15.5433 2.25 15.4688 2.25ZM6.01875 1.35C6.07133 1.28034 6.13931 1.22378 6.21738 1.18475C6.29544 1.14572 6.38147 1.12527 6.46875 1.125H9.28125C9.36853 1.12527 9.45456 1.14572 9.53262 1.18475C9.61069 1.22378 9.67867 1.28034 9.73125 1.35L10.4062 2.25H5.34375L6.01875 1.35ZM13.5 16.3125C13.5 16.4617 13.4407 16.6048 13.3352 16.7102C13.2298 16.8157 13.0867 16.875 12.9375 16.875H2.8125C2.66332 16.875 2.52024 16.8157 2.41475 16.7102C2.30926 16.6048 2.25 16.4617 2.25 16.3125V3.375H13.5V16.3125ZM7.59375 15.1875H8.15625C8.23084 15.1875 8.30238 15.1579 8.35512 15.1051C8.40787 15.0524 8.4375 14.9808 8.4375 14.9062V5.34375C8.4375 5.26916 8.40787 5.19762 8.35512 5.14488C8.30238 5.09213 8.23084 5.0625 8.15625 5.0625H7.59375C7.51916 5.0625 7.44762 5.09213 7.39488 5.14488C7.34213 5.19762 7.3125 5.26916 7.3125 5.34375V14.9062C7.3125 14.9808 7.34213 15.0524 7.39488 15.1051C7.44762 15.1579 7.51916 15.1875 7.59375 15.1875Z" fill="white"/>
</g>
<defs>
<clipPath id="clip0_268_4">
<rect width="15.75" height="18" fill="white"/>
</clipPath>
</defs>
</svg>
