<svg width="48" height="48" viewBox="0 0 48 48" fill="none" xmlns="http://www.w3.org/2000/svg">
<path d="M8.40282 12.165V10.7763C8.29155 10.7755 8.18045 10.7672 8.07032 10.7513C7.91236 10.7324 7.76781 10.6532 7.66693 10.5302C7.56605 10.4071 7.51665 10.2499 7.52907 10.0913C7.54157 9.72878 7.75157 9.46628 8.14532 9.45628C8.52032 9.44003 8.89532 9.45628 9.27032 9.45628H14.4128C15.0828 9.45628 15.4003 9.66378 15.4053 10.1038C15.4103 10.5438 15.1153 10.74 14.4416 10.7838V12.1338H33.5666V10.835C33.3278 10.745 33.0516 10.72 32.9228 10.57C32.7941 10.42 32.6903 10.0913 32.7603 9.91503C32.8148 9.80371 32.8936 9.70611 32.991 9.6295C33.0884 9.55288 33.2018 9.49923 33.3228 9.47253C33.8928 9.41253 34.4741 9.45128 35.0516 9.45128H39.5891C40.2541 9.45128 40.5741 9.66377 40.5741 10.105C40.5741 10.525 40.2828 10.73 39.6078 10.78V12.1638C40.0116 12.1638 40.4116 12.1638 40.8116 12.1638C41.7353 12.1713 42.3841 12.7975 42.3841 13.7088C42.3841 21.4904 42.3841 29.2713 42.3841 37.0513C42.3841 37.9888 41.7253 38.64 40.7953 38.64C29.6287 38.64 18.462 38.64 7.29532 38.64C6.30907 38.64 5.61157 37.9488 5.61157 36.9713C5.61157 29.2379 5.61157 21.5038 5.61157 13.7688C5.60787 13.5579 5.64654 13.3485 5.7253 13.1529C5.80405 12.9573 5.92128 12.7795 6.07003 12.6301C6.21878 12.4806 6.39602 12.3626 6.59125 12.2829C6.78649 12.2032 6.99573 12.1636 7.20657 12.1663C7.59407 12.1588 7.98032 12.165 8.40282 12.165ZM24.0003 13.4738C18.527 13.4738 13.0537 13.4738 7.58032 13.4738C6.95532 13.4738 6.92407 13.5038 6.92407 14.14V36.64C6.92407 37.3113 6.94282 37.3313 7.60282 37.3313H40.3966C41.0578 37.3313 41.0766 37.3113 41.0766 36.64V14.1875C41.0766 13.4863 41.0641 13.4738 40.3741 13.4738C34.9166 13.4729 29.4587 13.4729 24.0003 13.4738ZM9.75032 12.1313H13.0628V10.785H9.75032V12.1313ZM34.9203 12.1313H38.2316V10.7838H34.9216L34.9203 12.1313Z" fill="white"/>
<path d="M24.9852 21.5662C25.8127 21.17 26.5664 20.8162 27.3164 20.4412C27.6302 20.2875 27.9414 20.2062 28.2264 20.4662C28.4939 20.7062 28.4764 21.0012 28.3714 21.325C27.1631 25.2417 25.9585 29.1612 24.7577 33.0837C24.7389 33.1425 24.7177 33.2012 24.6977 33.26C24.5727 33.635 24.3127 33.8375 23.9164 33.76C23.5414 33.6875 23.3889 33.4237 23.3902 33.0437C23.3902 31.1887 23.3902 29.3337 23.3902 27.4787V26.925C23.2002 27.0087 23.0614 27.065 22.9277 27.1312C22.2039 27.49 21.4927 27.8812 20.7514 28.1987C20.5152 28.3012 20.1264 28.3325 19.9439 28.1987C19.7614 28.065 19.6514 27.6875 19.6777 27.435C19.7639 26.6162 19.9277 25.81 20.0589 24.9937L21.4339 16.57C21.4614 16.4012 21.4864 16.2312 21.5264 16.07C21.6102 15.7275 21.8252 15.5337 22.1889 15.5337C23.4202 15.5337 24.6514 15.525 25.8827 15.5337C26.4364 15.5337 26.6852 15.93 26.5077 16.5075C26.0514 18.0237 25.5852 19.5387 25.1239 21.0537C25.0839 21.1987 25.0464 21.3437 24.9852 21.5662ZM24.7014 28.4262L24.7889 28.4425L26.7002 22.2275C25.8252 22.6462 25.0502 23.045 24.2477 23.3787C23.9933 23.4636 23.7157 23.4447 23.4752 23.3262C23.1964 23.1775 23.1677 22.8637 23.2752 22.5412C23.5039 21.8487 23.7052 21.1462 23.9177 20.4487L25.0114 16.8625H22.7414C22.2227 20.0575 21.7052 23.245 21.1739 26.5212C22.0614 26.075 22.8339 25.6787 23.6139 25.2975C24.2514 24.985 24.6964 25.2625 24.7002 25.9675C24.7052 26.7875 24.7014 27.6075 24.7014 28.4262Z" fill="white"/>
</svg>
