<svg width="48" height="48" viewBox="0 0 48 48" fill="none" xmlns="http://www.w3.org/2000/svg">
<path d="M11.8603 33.4463C10.8328 35.28 9.29906 36.1838 7.24531 35.885C5.26781 35.5963 4.09656 34.3225 3.59906 32.3713C3.07531 32.3713 2.54656 32.3713 2.01906 32.3713C1.36531 32.3625 0.944063 31.9438 0.936563 31.285C0.927396 30.4425 0.927396 29.6004 0.936563 28.7588C0.936563 28.1188 1.35281 27.7138 1.99031 27.6963C2.17656 27.6963 2.36531 27.6963 2.55156 27.6963C4.09531 27.645 5.65156 27.8675 7.17656 27.3288C7.92656 27.0625 8.71406 27.2775 9.46656 27.5213C9.75812 27.6155 10.0606 27.6718 10.3666 27.6888C10.8666 27.7163 11.3666 27.7 11.8666 27.6963C12.8666 27.6888 13.8666 27.74 14.8528 27.3713C15.7028 27.0563 16.6028 27.2263 17.4591 27.5525C17.6576 27.6349 17.8692 27.6815 18.0841 27.69C22.8732 27.6983 27.6616 27.6983 32.4491 27.69H32.8603V27.1013C32.8603 23.0004 32.8603 18.8992 32.8603 14.7975C32.8603 14.0038 33.0241 13.84 33.8103 13.84H44.5253C44.6502 13.8318 44.7755 13.8318 44.9003 13.84C45.2753 13.8888 45.4941 14.11 45.4903 14.4938C45.4866 14.8775 45.2703 15.1188 44.8903 15.1363C44.4416 15.1613 43.9891 15.1363 43.4691 15.1363C43.6903 16.045 43.8978 16.9125 44.1141 17.7788C44.3128 18.5775 44.5216 19.3738 44.7253 20.1725C44.7603 20.3075 44.7991 20.4425 44.8228 20.58C45.0291 21.7588 45.0353 21.7525 45.8741 22.5975C46.2906 22.9986 46.6213 23.4803 46.8458 24.0132C47.0704 24.5462 47.1842 25.1192 47.1803 25.6975C47.1803 27.6308 47.1803 29.5646 47.1803 31.4988C47.1803 32.1388 46.9566 32.3563 46.3053 32.3575C45.5891 32.3575 44.8716 32.3575 44.1241 32.3575C43.8403 33.5588 43.2491 34.55 42.2016 35.2325C41.3616 35.7788 40.4378 35.9713 39.4416 35.92C37.6291 35.8275 36.1916 34.5538 35.5053 32.3613H35.0578C30.2378 32.3613 25.4182 32.3588 20.5991 32.3538C20.2491 32.3538 20.1103 32.4363 19.9978 32.7975C19.4453 34.57 18.2241 35.6575 16.3866 35.885C14.5491 36.1125 13.1066 35.37 12.0953 33.81C12.0128 33.705 11.9441 33.5863 11.8603 33.4463ZM34.1803 31.0613C34.4878 31.0613 34.7528 31.0425 35.0141 31.0613C35.3603 31.0938 35.5041 31.0025 35.6003 30.6175C36.0116 28.9738 37.0566 27.8675 38.6941 27.4375C40.3603 27.0038 41.8378 27.4375 43.0316 28.7138C43.6441 29.365 43.9753 30.1588 44.1316 31.03H45.8466C45.8466 29.1688 45.9091 27.33 45.8266 25.4975C45.7628 24.1013 44.7641 22.9638 43.4853 22.7475C42.5916 22.5988 41.6678 22.6338 40.7866 22.5888C40.7588 22.6442 40.737 22.7024 40.7216 22.7625C40.7216 23.4008 40.7191 24.0396 40.7141 24.6788C40.7141 25.46 40.5466 25.6225 39.7478 25.6225H34.1803V31.0613ZM34.1928 15.1513V24.29H39.3753V22.5975C38.2391 22.255 37.3528 21.2925 37.4241 19.8413C37.4778 18.7538 37.4353 17.6625 37.4353 16.5725V15.1513H34.1853H34.1928ZM7.87531 28.5963C7.48061 28.5963 7.08979 28.6741 6.72524 28.8254C6.36069 28.9768 6.02958 29.1985 5.75089 29.478C5.4722 29.7575 5.25141 30.0893 5.10116 30.4543C4.95091 30.8193 4.87416 31.2103 4.87531 31.605C4.87531 32.406 5.19349 33.1741 5.75985 33.7405C6.32621 34.3068 7.09436 34.625 7.89531 34.625C8.69627 34.625 9.46442 34.3068 10.0308 33.7405C10.5971 33.1741 10.9153 32.406 10.9153 31.605C10.9165 31.2069 10.8385 30.8126 10.6857 30.4449C10.533 30.0773 10.3086 29.7438 10.0257 29.4637C9.74272 29.1837 9.40687 28.9628 9.03768 28.8138C8.6685 28.6649 8.27337 28.5909 7.87531 28.5963ZM39.8141 28.5963C39.4166 28.5938 39.0225 28.6701 38.6547 28.8207C38.2868 28.9713 37.9525 29.1933 37.6709 29.4738C37.3893 29.7544 37.1661 30.0879 37.0141 30.4552C36.8621 30.8225 36.7843 31.2163 36.7853 31.6138C36.7875 32.01 36.8678 32.402 37.0215 32.7672C37.1752 33.1325 37.3993 33.4639 37.6811 33.7425C37.9628 34.0211 38.2967 34.2415 38.6637 34.3911C39.0306 34.5407 39.4234 34.6166 39.8197 34.6144C40.216 34.6122 40.6079 34.5319 40.9732 34.3782C41.3384 34.2245 41.6698 34.0004 41.9484 33.7186C42.2271 33.4369 42.4475 33.103 42.5971 32.736C42.7467 32.3691 42.8225 31.9763 42.8203 31.58C42.8197 31.1868 42.7415 30.7975 42.5902 30.4345C42.439 30.0715 42.2177 29.7419 41.9389 29.4646C41.6601 29.1872 41.3294 28.9675 40.9657 28.8181C40.6019 28.6687 40.2123 28.5924 39.8191 28.5938L39.8141 28.5963ZM15.8028 28.5963C14.1141 28.5963 12.8028 29.9263 12.8028 31.6363C12.8159 32.4308 13.1405 33.1885 13.7068 33.7461C14.273 34.3037 15.0356 34.6166 15.8303 34.6175C17.4878 34.595 18.7991 33.2313 18.8016 31.5275C18.8141 29.9113 17.4603 28.5913 15.8078 28.5963H15.8028ZM20.2116 31.0288H32.8141V29.0388H19.4528C19.7078 29.7038 19.9566 30.35 20.2166 31.0288H20.2116ZM42.0866 15.1863H38.7503C38.7503 16.84 38.7353 18.4588 38.7578 20.0775C38.7678 20.8438 39.2991 21.3175 40.1016 21.3275C41.2266 21.3388 42.3616 21.3275 43.6103 21.3275L42.0866 15.1863ZM4.25031 29.0363H2.26531V31.0613C2.64031 31.0613 2.99656 31.0775 3.34906 31.0513C3.40875 31.0383 3.46469 31.0119 3.51257 30.9739C3.56046 30.936 3.59902 30.8876 3.62531 30.8325C3.84781 30.2413 4.04156 29.6425 4.25031 29.0363ZM11.8628 29.7625L12.2903 29.0325H11.4403L11.8628 29.7625Z" fill="white"/>
<path d="M28.3284 23.7612C27.8609 25.3737 26.7547 26.3075 25.2934 26.365C23.8322 26.4225 22.7384 25.5587 22.0647 23.7837C21.9397 23.7775 21.8147 23.7625 21.6734 23.7625C18.4926 23.7625 15.3105 23.7625 12.1272 23.7625C11.8122 23.7625 11.6509 23.8125 11.5447 24.17C11.1259 25.5662 9.88718 26.4137 8.39218 26.375C7.06343 26.345 5.89218 25.3975 5.50468 24.0487C5.46718 23.9137 5.43218 23.7787 5.40093 23.6612C4.99093 23.5512 4.56218 23.5012 4.19218 23.3275C2.75093 22.6562 1.98468 21.4837 1.88343 19.915C1.82093 18.9375 1.87718 17.9512 1.86843 16.9687C1.85956 16.6871 1.91534 16.4071 2.03148 16.1503C2.14762 15.8936 2.32104 15.6668 2.53843 15.4875C3.74343 14.45 4.93968 13.3987 6.18218 12.4075C6.52732 12.148 6.94432 12.0017 7.37593 11.9887C10.2147 11.9537 13.0547 11.94 15.8934 11.98C18.3384 12.0137 20.5647 12.8437 22.6247 14.105C23.5784 14.6875 24.4434 15.4137 25.3634 16.0525C25.6214 16.2395 25.9123 16.376 26.2209 16.455C27.3297 16.705 28.4509 16.8837 29.5597 17.125C30.3053 17.2851 30.9735 17.6958 31.453 18.2888C31.9325 18.8818 32.1942 19.6212 32.1947 20.3837C32.1947 21.1637 32.1947 21.9437 32.1947 22.7237C32.1947 23.3987 31.8322 23.7575 31.1547 23.7612C30.2209 23.765 29.2859 23.7612 28.3284 23.7612ZM16.5972 17.665V22.43H22.1259C22.6609 20.9362 23.7159 20.055 25.1009 20.0462C26.7322 20.0462 27.7709 20.9137 28.2872 22.4212H30.8759C30.8759 21.695 30.9097 20.9937 30.8672 20.2962C30.8084 19.325 30.1684 18.6237 29.2109 18.41C27.0372 17.9225 24.8584 17.5462 22.6059 17.6437C20.6259 17.7325 18.6259 17.665 16.5972 17.665ZM3.18718 17.7112C3.18718 18.45 3.15468 19.1212 3.19468 19.7875C3.26593 21.0087 4.01968 21.94 5.05218 22.2025C5.38093 22.2862 5.53593 22.235 5.69593 21.91C6.28343 20.7162 7.26718 20.05 8.60218 20.0762C9.95843 20.1025 10.9034 20.8262 11.4772 22.055C11.5347 22.18 11.5834 22.305 11.6284 22.4212H15.2284V17.7112H3.18718ZM10.5934 16.3275H15.2297V13.3075H10.5934V16.3275ZM16.5847 16.2987H23.3859C21.3647 14.73 19.1622 13.645 16.5847 13.35V16.2987ZM9.25093 13.28C8.68718 13.28 8.17218 13.245 7.66468 13.2937C7.36397 13.3157 7.07528 13.4209 6.83093 13.5975C5.84093 14.4012 4.88218 15.2425 3.91343 16.0725C3.82534 16.1567 3.74188 16.2455 3.66343 16.3387H9.25093V13.28ZM6.73218 23.2412C6.73476 23.7221 6.92598 24.1827 7.26472 24.524C7.60345 24.8653 8.06261 25.06 8.54343 25.0662C9.02331 25.0556 9.48083 24.8613 9.82174 24.5234C10.1627 24.1855 10.361 23.7298 10.3759 23.25C10.3754 23.0078 10.3271 22.7681 10.2337 22.5446C10.1403 22.3211 10.0037 22.1183 9.83163 21.9478C9.65961 21.7773 9.4556 21.6424 9.23131 21.551C9.00702 21.4596 8.76688 21.4134 8.52468 21.415C8.04495 21.4199 7.58679 21.615 7.25073 21.9574C6.91467 22.2998 6.72818 22.7615 6.73218 23.2412ZM25.2159 25.0137C25.4574 25.0201 25.6977 24.978 25.9226 24.89C26.1475 24.802 26.3525 24.6698 26.5255 24.5013C26.6986 24.3328 26.8361 24.1313 26.93 23.9088C27.0239 23.6862 27.0722 23.4472 27.0722 23.2056C27.0722 22.9641 27.0239 22.725 26.93 22.5025C26.8361 22.2799 26.6986 22.0785 26.5255 21.9099C26.3525 21.7414 26.1475 21.6092 25.9226 21.5212C25.6977 21.4332 25.4574 21.3911 25.2159 21.3975C24.9745 21.3911 24.7342 21.4332 24.5093 21.5212C24.2844 21.6092 24.0793 21.7414 23.9063 21.9099C23.7333 22.0785 23.5958 22.2799 23.5019 22.5025C23.408 22.725 23.3596 22.9641 23.3596 23.2056C23.3596 23.4472 23.408 23.6862 23.5019 23.9088C23.5958 24.1313 23.7333 24.3328 23.9063 24.5013C24.0793 24.6698 24.2844 24.802 24.5093 24.89C24.7342 24.978 24.9745 25.0201 25.2159 25.0137Z" fill="white"/>
</svg>
