<svg width="48" height="48" viewBox="0 0 48 48" fill="none" xmlns="http://www.w3.org/2000/svg">
<path d="M20.4862 32.125C20.4862 33.1388 20.4862 34.105 20.4862 35.0725C20.4862 36.8613 19.3975 38.2675 17.6637 38.73C17.59 38.7488 17.5162 38.7625 17.4225 38.7838V39.6188C17.455 39.6375 17.4787 39.665 17.505 39.6663C18.8725 39.74 19.3637 40.2538 19.3637 41.6163C19.3637 42.9575 19.3637 44.2988 19.3637 45.64C19.3637 46.62 18.7388 47.2563 17.7662 47.2575C13.0054 47.2525 8.25 47.25 3.5 47.25C2.5125 47.25 1.875 46.6013 1.875 45.6075C1.875 44.2034 1.875 42.7996 1.875 41.3963C1.875 40.3313 2.53 39.6738 3.585 39.6713H4.40125V39.1138C4.40125 34.715 4.40875 30.3175 4.40125 25.9188C4.40125 24.6425 4.885 23.6375 5.88125 22.8475C8.67875 20.6288 11.4625 18.3938 14.2562 16.1775C14.4913 15.9913 14.5062 15.7863 14.5062 15.5313C14.5062 11.4929 14.5062 7.45376 14.5062 3.41376C14.5 1.75001 15.6138 0.64376 17.29 0.64251C21.1562 0.64251 25.0237 0.64251 28.8912 0.64251C29.0675 0.63289 29.2437 0.661413 29.4078 0.726131C29.572 0.79085 29.7203 0.890239 29.8425 1.01751C32.3958 3.58084 34.9575 6.13585 37.5275 8.68251C37.6519 8.79797 37.7498 8.93897 37.8145 9.09583C37.8792 9.2527 37.9092 9.42171 37.9025 9.59126C37.8925 13.4904 37.8904 17.3896 37.8962 21.2888V21.875C39.0005 21.7171 40.1263 21.8142 41.1873 22.1588C42.2482 22.5034 43.2162 23.0864 44.017 23.863C44.8177 24.6396 45.43 25.5893 45.8069 26.6392C46.1838 27.6891 46.3153 28.8114 46.1912 29.92C45.8 33.295 43.26 35.8538 40.005 36.3075C36.8587 36.7463 33.935 35.24 32.45 32.4325C32.3687 32.2788 32.145 32.1013 31.9875 32.1C28.23 32.0825 24.4712 32.0863 20.7125 32.0875C20.6364 32.0958 20.5609 32.1083 20.4862 32.125ZM31.8025 30.7863C31.8078 30.703 31.8078 30.6195 31.8025 30.5363C31.1912 26.9563 32.9275 23.7638 36.2825 22.3388C36.5637 22.2138 36.5887 22.0513 36.5875 21.8025C36.5875 18.0117 36.5875 14.22 36.5875 10.4275C36.5875 10.2938 36.57 10.16 36.5625 10.0375C36.5217 10.0249 36.4799 10.0157 36.4375 10.01H31.2912C29.6825 10.01 28.55 8.88501 28.5412 7.28626C28.5325 5.68751 28.5412 4.07251 28.5412 2.46626V1.95126H17.5612C16.2863 1.95126 15.8112 2.42751 15.8112 3.70126V21.8113C16.62 21.4513 16.645 21.4563 17.28 22.0938C17.3575 22.17 17.435 22.2475 17.51 22.3263C18.0394 22.868 18.337 23.5946 18.3398 24.352C18.3426 25.1094 18.0504 25.8382 17.525 26.3838C17.2104 26.7512 16.8663 27.0923 16.4962 27.4038C15.92 27.85 15.7575 28.3925 15.7962 29.1025C15.8575 30.235 16.365 30.78 17.5125 30.78H31.8025V30.7863ZM14.46 29.74L14.3575 29.7688C14.475 30.1775 14.5537 30.6025 14.715 30.9938C15.1512 32.04 15.2787 33.1188 14.9112 34.1838C14.6212 35.0238 14.3025 35.8263 14.3862 36.745C14.393 36.8245 14.3816 36.9045 14.3527 36.9789C14.3239 37.0533 14.2784 37.1201 14.2198 37.1743C14.1612 37.2284 14.091 37.2685 14.0146 37.2913C13.9381 37.3142 13.8575 37.3193 13.7787 37.3063C13.5375 37.2688 13.1425 37.0075 13.14 36.8425C13.13 36.0525 12.9212 35.2513 13.3587 34.4675C13.6078 34.0025 13.7367 33.4826 13.7337 32.955C13.7079 32.3691 13.5846 31.7916 13.3687 31.2463C12.8687 29.8788 13.0112 29.0263 14.0212 28.0175C14.8487 27.1913 15.685 26.3738 16.4987 25.5338C17.2212 24.7838 17.175 23.8075 16.3975 23.145L12.7 26.0713C11.71 26.855 10.7238 27.6425 9.72875 28.42C9.34 28.7238 8.9425 28.695 8.7 28.3738C8.4575 28.0525 8.54375 27.6713 8.92125 27.36C8.9575 27.33 8.99625 27.3038 9.0325 27.275C10.755 25.91 12.4825 24.5513 14.1912 23.17C14.3648 23.013 14.4706 22.7948 14.4862 22.5613C14.5125 21.1738 14.5 19.7863 14.5 18.3975V17.6925C14.3512 17.8038 14.2787 17.855 14.2087 17.9113C11.7362 19.8825 9.2775 21.875 6.78625 23.8238C6.0125 24.4288 5.6925 25.1638 5.695 26.1188C5.7075 30.4538 5.695 34.7888 5.695 39.1188V39.64H16.0837C16.0837 39.1975 16.0837 38.7788 16.0837 38.3613C16.0837 37.7575 16.2612 37.5688 16.8725 37.505C18.275 37.3563 19.16 36.3863 19.17 34.9788C19.17 34.2775 19.17 33.575 19.17 32.8738V32.0838C18.4437 32.0838 17.795 32.0988 17.135 32.0838C16.0387 32.055 15.2437 31.5313 14.76 30.5538C14.6446 30.2863 14.5444 30.0126 14.46 29.7338V29.74ZM33 29.0588C32.9932 29.8435 33.142 30.6219 33.4378 31.3488C33.7336 32.0757 34.1705 32.7369 34.7233 33.2939C35.2761 33.851 35.9338 34.293 36.6584 34.5945C37.383 34.8959 38.1602 35.0507 38.945 35.05C42.165 35.0663 44.8812 32.3775 44.9075 29.1438C44.9131 28.3619 44.7646 27.5866 44.4706 26.8621C44.1765 26.1377 43.7426 25.4782 43.1937 24.9214C42.6448 24.3646 41.9916 23.9213 41.2714 23.617C40.5512 23.3126 39.7781 23.1531 38.9962 23.1475C38.2144 23.1419 37.4391 23.2904 36.7146 23.5845C35.9901 23.8785 35.3307 24.3124 34.7739 24.8613C34.2171 25.4102 33.7738 26.0634 33.4695 26.7836C33.1651 27.5038 33.0056 28.2769 33 29.0588ZM10.6137 40.9813C8.33792 40.9813 6.06125 40.9813 3.78375 40.9813C3.22 40.9813 3.175 41.0288 3.175 41.6063C3.175 42.87 3.18375 44.1325 3.175 45.3963C3.175 45.795 3.31125 45.9525 3.72 45.9525C8.32 45.9442 12.9204 45.9442 17.5212 45.9525C17.93 45.9525 18.0712 45.7938 18.0662 45.395C18.0512 44.1325 18.0662 42.8688 18.0662 41.605C18.0662 41.0313 18.0212 40.9863 17.4575 40.98C15.1717 40.9792 12.8904 40.9796 10.6137 40.9813ZM29.8462 3.07626C29.8462 4.43126 29.8275 5.86251 29.8537 7.29251C29.8687 8.16751 30.4437 8.68501 31.33 8.69001C32.3725 8.69001 33.415 8.69001 34.455 8.69001H35.625L29.8462 3.07626Z" fill="white"/>
<path d="M29.4704 21.1588H21.0467C21.0467 21.39 21.0467 21.6038 21.0467 21.8163C21.051 22.0763 20.9522 22.3275 20.7719 22.5149C20.5915 22.7023 20.3442 22.8107 20.0842 22.8163C19.6329 22.8363 19.1792 22.8375 18.7292 22.8163C18.6002 22.8132 18.4731 22.7845 18.3554 22.7318C18.2376 22.6791 18.1316 22.6035 18.0433 22.5094C17.9551 22.4152 17.8866 22.3044 17.8416 22.1835C17.7967 22.0626 17.7763 21.9339 17.7817 21.805C17.7917 21.3438 17.7654 20.955 17.3254 20.645C17.1192 20.4988 16.9904 20.145 16.9504 19.875C16.7742 18.69 16.6417 17.5 16.4967 16.3088C16.3942 15.4663 16.9429 14.5588 17.7292 14.1838C17.9566 14.0712 18.1486 13.8982 18.2842 13.6838C18.7354 12.9338 19.1429 12.1675 19.5767 11.4113C20.1779 10.3588 21.0092 9.76626 22.3017 9.80501C24.2954 9.86626 26.2929 9.86126 28.2879 9.80501C29.4017 9.77376 30.1867 10.235 30.7379 11.1288C31.2692 11.9888 31.7267 12.8938 32.2304 13.77C32.3172 13.926 32.4475 14.0532 32.6054 14.1363C33.5717 14.5775 34.0692 15.3863 33.9467 16.4625C33.8154 17.6225 33.6679 18.7813 33.4679 19.93C33.3942 20.2615 33.2131 20.5593 32.9529 20.7775C32.8453 20.8591 32.7606 20.9671 32.707 21.0911C32.6533 21.215 32.6326 21.3507 32.6467 21.485C32.6567 22.5575 32.3754 22.8288 31.2892 22.8288C31.0392 22.8288 30.7892 22.8288 30.5392 22.8288C29.8467 22.8213 29.4779 22.4538 29.4679 21.76C29.4692 21.5688 29.4704 21.3838 29.4704 21.1588ZM32.1604 19.8063C32.3029 18.7063 32.4367 17.63 32.5817 16.5563C32.7067 15.6263 32.4567 15.3375 31.5167 15.3375H18.8917C18.7979 15.3375 18.7042 15.3375 18.6104 15.3375C18.1579 15.36 17.8792 15.6175 17.8604 16.0613C17.8546 16.2791 17.8676 16.4969 17.8992 16.7125C18.0079 17.5775 18.1579 18.4388 18.2229 19.3063C18.2554 19.7388 18.3979 19.84 18.8129 19.8388C23.0992 19.8238 27.3867 19.83 31.6742 19.8288C31.8204 19.8288 31.9729 19.815 32.1604 19.8063ZM19.6242 14H26.1617C26.5367 13.0175 27.2142 12.4238 28.2679 12.4025C29.2904 12.3813 30.0042 12.8875 30.4192 13.8288C30.4642 13.93 30.6279 13.98 30.7367 14.0538L30.8254 13.9413C30.4267 13.2388 30.0404 12.53 29.6254 11.8388C29.3242 11.3388 28.8867 11.1013 28.2667 11.11C26.2584 11.1375 24.2488 11.1375 22.2379 11.11C21.6004 11.1025 21.1554 11.36 20.8454 11.8725C20.4392 12.5575 20.0567 13.25 19.6242 14ZM27.7829 13.84V13.9763H28.8517V13.84H27.7829ZM19.1129 21.1488C18.9879 21.6013 19.2967 21.5238 19.4954 21.4975C19.5967 21.4825 19.6779 21.3313 19.7679 21.2475L19.6742 21.155L19.1129 21.1488Z" fill="white"/>
<path d="M26.1327 24.9763H21.1327C20.579 24.9763 20.3027 24.7525 20.3027 24.32C20.3027 23.8875 20.5777 23.6675 21.1352 23.6675H31.1352C31.6602 23.6675 31.9802 23.9175 31.979 24.3225C31.9777 24.7275 31.659 24.975 31.1315 24.9763H26.1327Z" fill="white"/>
<path d="M23.8752 28.25C22.9564 28.25 22.0377 28.25 21.1177 28.25C20.5714 28.25 20.2927 28.0188 20.2989 27.585C20.3052 27.1513 20.5777 26.9438 21.0952 26.9425C22.9635 26.9425 24.8323 26.9425 26.7014 26.9425C27.2127 26.9425 27.4939 27.1738 27.5002 27.5838C27.5077 28.0125 27.2202 28.2488 26.6789 28.25C25.7502 28.25 24.8127 28.25 23.8752 28.25Z" fill="white"/>
<path d="M38.2675 32.875C37.3175 32.4838 36.7275 31.8425 36.6713 30.8038C36.645 30.3188 36.8675 30.0538 37.2725 30.0213C37.6775 29.9888 37.9075 30.1988 37.9888 30.6988C38.0875 31.3038 38.5588 31.6988 39.0788 31.61C39.2025 31.5913 39.3213 31.5482 39.4282 31.4831C39.5351 31.4181 39.628 31.3324 39.7014 31.231C39.7748 31.1297 39.8273 31.0147 39.8558 30.8928C39.8844 30.771 39.8883 30.6447 39.8675 30.5213C39.8125 30.0638 39.4738 29.7713 38.9238 29.7313C37.8988 29.6488 37.1488 29.17 36.785 28.1888C36.5951 27.6702 36.6035 27.0998 36.8086 26.5871C37.0137 26.0745 37.4011 25.6557 37.8963 25.4112C38.1375 25.2862 38.2888 25.1912 38.2825 24.875C38.2738 24.4862 38.5563 24.2775 38.9238 24.2775C39.2913 24.2775 39.5688 24.4887 39.5638 24.8775C39.5638 25.1887 39.7088 25.2887 39.9513 25.4112C40.2992 25.5746 40.5975 25.8274 40.8156 26.1439C41.0337 26.4604 41.1638 26.8292 41.1925 27.2125C41.2488 27.7125 41.045 28.035 40.6413 28.0813C40.2375 28.1275 39.9638 27.8888 39.8763 27.3863C39.7513 26.6963 39.2425 26.3425 38.655 26.5463C38.4539 26.6127 38.2806 26.744 38.1621 26.9195C38.0435 27.095 37.9865 27.3049 38 27.5163C38.0212 27.7271 38.1125 27.9247 38.2594 28.0775C38.4063 28.2303 38.6002 28.3293 38.81 28.3588C39.0881 28.389 39.3638 28.4387 39.635 28.5075C40.0773 28.6449 40.4662 28.9161 40.748 29.2837C41.0299 29.6513 41.1908 30.0972 41.2088 30.56C41.2304 31.0066 41.1195 31.4496 40.89 31.8333C40.6604 32.217 40.3225 32.5242 39.9188 32.7163C39.7163 32.815 39.5575 32.8788 39.5663 33.1688C39.5788 33.6413 39.3088 33.905 38.91 33.8988C38.5113 33.8925 38.285 33.625 38.2688 33.1488C38.2663 33.07 38.2675 32.9925 38.2675 32.875Z" fill="white"/>
<path d="M5.79585 45.3888C5.55818 45.3895 5.32278 45.3425 5.10365 45.2505C4.88453 45.1584 4.68615 45.0233 4.52032 44.853C4.35449 44.6827 4.22459 44.4809 4.13836 44.2594C4.05212 44.0379 4.01132 43.8013 4.01836 43.5638C4.02057 43.3243 4.06994 43.0876 4.16364 42.8671C4.25734 42.6467 4.39353 42.4469 4.56445 42.2791C4.73537 42.1114 4.93766 41.9789 5.15978 41.8893C5.38189 41.7997 5.61948 41.7547 5.85898 41.7569C6.09848 41.7591 6.33519 41.8085 6.55561 41.9022C6.77603 41.9959 6.97584 42.1321 7.14362 42.303C7.31141 42.4739 7.44388 42.6762 7.53349 42.8983C7.62309 43.1204 7.66807 43.358 7.66585 43.5975C7.65585 44.6163 6.8421 45.3963 5.79585 45.3888ZM5.82086 42.8575C5.59586 43.1863 5.34086 43.3975 5.36585 43.5675C5.39085 43.7375 5.67835 44.035 5.84835 44.0338C6.01835 44.0325 6.30085 43.7388 6.31585 43.555C6.33085 43.3713 6.0646 43.1813 5.82086 42.8575Z" fill="white"/>
<path d="M21.4837 17.8475C21.4866 18.1778 21.3912 18.5016 21.2095 18.7774C21.0279 19.0533 20.7682 19.2689 20.4636 19.3967C20.159 19.5245 19.8232 19.5587 19.4991 19.495C19.175 19.4312 18.8771 19.2725 18.6436 19.0389C18.41 18.8053 18.2512 18.5075 18.1875 18.1834C18.1238 17.8592 18.158 17.5235 18.2858 17.2189C18.4135 16.9143 18.6291 16.6546 18.905 16.4729C19.1809 16.2912 19.5046 16.1958 19.8349 16.1988C20.2676 16.2131 20.6787 16.3914 20.9849 16.6976C21.291 17.0037 21.4693 17.4148 21.4837 17.8475ZM19.7837 17.425C19.6587 17.6463 19.5174 17.7788 19.5274 17.9C19.5349 17.9963 19.7487 18.1688 19.8224 18.15C19.8907 18.1223 19.9515 18.0791 20.0001 18.0237C20.0487 17.9684 20.0837 17.9025 20.1024 17.8313C20.1162 17.74 19.9487 17.625 19.7837 17.425Z" fill="white"/>
<path d="M29.0001 17.8488C29.0072 17.524 29.1101 17.2087 29.2959 16.9422C29.4816 16.6758 29.7419 16.4701 30.0441 16.351C30.3463 16.232 30.6769 16.2048 30.9944 16.273C31.312 16.3411 31.6024 16.5016 31.8291 16.7342C32.0558 16.9667 32.2088 17.2611 32.2688 17.5803C32.3288 17.8995 32.2932 18.2293 32.1665 18.5284C32.0397 18.8274 31.8275 19.0824 31.5564 19.2612C31.2853 19.4401 30.9674 19.5349 30.6426 19.5338C30.2016 19.5272 29.7813 19.3462 29.4734 19.0304C29.1656 18.7146 28.9954 18.2897 29.0001 17.8488ZM31.1363 17.8738C30.8863 17.7188 30.7613 17.5663 30.6476 17.5838C30.5338 17.6013 30.4313 17.7763 30.3251 17.8825C30.4263 17.9775 30.5238 18.1438 30.6301 18.15C30.7363 18.1563 30.8863 18.0225 31.1413 17.875L31.1363 17.8738Z" fill="white"/>
<path d="M25.2634 18.8925C24.5322 18.8925 23.8009 18.8925 23.0709 18.8925C22.5934 18.8925 22.2797 18.6112 22.2934 18.22C22.3072 17.8287 22.6059 17.5875 23.0634 17.5862C24.5092 17.5862 25.9555 17.5862 27.4022 17.5862C27.9022 17.5862 28.1722 17.8362 28.1609 18.2587C28.1509 18.6612 27.8884 18.8837 27.4109 18.8925C26.6934 18.8962 25.9784 18.8925 25.2634 18.8925Z" fill="white"/>
</svg>
