<svg width="48" height="48" viewBox="0 0 48 48" fill="none" xmlns="http://www.w3.org/2000/svg">
<path d="M39.7797 42.6963C39.1147 45.1475 37.8847 46.3038 35.8759 46.375C33.9922 46.4413 32.7047 45.3613 31.8222 42.9675H16.5334C16.3272 44.0588 15.8059 44.9513 14.9084 45.605C14.2388 46.1018 13.4247 46.3652 12.5909 46.355C10.6859 46.345 9.30219 45.1513 8.66094 42.9513C7.41094 42.9513 6.14344 42.9513 4.87844 42.9513C4.01469 42.9513 3.64969 42.59 3.64844 41.735C3.64844 40.5808 3.64844 39.4267 3.64844 38.2725C3.64844 36.5125 4.68719 35.0913 6.36469 34.5363C7.98969 34.0013 9.64094 33.6325 11.3509 33.585C11.9009 33.57 12.3059 33.3738 12.7259 33.02C15.5222 30.645 18.6547 28.885 22.2847 28.145C23.3078 27.9335 24.3488 27.8205 25.3934 27.8075C29.3472 27.7688 33.3009 27.7963 37.2547 27.7875C37.8492 27.7761 38.4268 27.9854 38.8759 28.375C40.3935 29.675 41.9105 30.9754 43.4272 32.2763C43.7265 32.5141 43.9657 32.8191 44.1253 33.1666C44.2849 33.514 44.3605 33.8942 44.346 34.2763C44.3222 35.5263 44.3535 36.7763 44.3347 38.0188C44.3047 40.1875 42.6609 42.1775 40.5584 42.6075C40.306 42.665 40.0385 42.6688 39.7797 42.6963ZM5.01719 41.64C6.10719 41.64 7.19844 41.6263 8.28844 41.6475C8.62844 41.6538 8.75844 41.5538 8.85844 41.2175C9.11261 40.4179 9.61544 39.7204 10.2937 39.2266C10.9719 38.7328 11.7902 38.4684 12.6291 38.472C13.4681 38.4756 14.284 38.7471 14.958 39.2468C15.6319 39.7464 16.1287 40.4483 16.3759 41.25C16.4684 41.5675 16.5934 41.6563 16.9147 41.6538C19.2272 41.6388 21.5397 41.6463 23.8534 41.645C23.9872 41.645 24.1209 41.6275 24.2397 41.62V34.885C20.1547 34.885 16.1072 34.885 12.0609 34.885C10.249 34.9015 8.45229 35.2174 6.74344 35.82C5.78969 36.145 5.11844 36.7913 5.04094 37.79C4.94344 39.045 5.01719 40.3113 5.01719 41.64ZM31.9034 41.625C32.6072 39.625 33.8722 38.5738 35.6535 38.48C37.3422 38.3925 38.7472 39.4013 39.6247 41.33C41.7785 41.5463 43.1897 39.1625 42.9672 37.6163C42.5685 37.6163 42.1647 37.6163 41.761 37.6163C41.2934 37.6088 41.0297 37.3588 41.0372 36.9488C41.0447 36.5388 41.2997 36.3238 41.7435 36.3113C42.1597 36.3025 42.5772 36.3113 43.006 36.3113V34.9613H25.6172V41.625H31.9034ZM33.2509 33.5663V29.125H25.6159V33.5613L33.2509 33.5663ZM14.2609 33.53H24.2472V29.2025C20.9009 29.43 17.0184 31.205 14.2572 33.53H14.2609ZM42.8397 33.5775C42.731 33.4525 42.696 33.4 42.651 33.3613C41.1126 32.0404 39.571 30.7221 38.026 29.4063C37.8772 29.2813 37.6759 29.14 37.4959 29.135C36.5359 29.1088 35.576 29.1225 34.6297 29.1225V33.5775H42.8397ZM35.8397 39.8275C35.326 39.825 34.8232 39.9751 34.3949 40.2586C33.9665 40.5421 33.632 40.9464 33.4336 41.4202C33.2352 41.894 33.1819 42.416 33.2804 42.9201C33.3789 43.4243 33.6248 43.8878 33.987 44.2521C34.3491 44.6164 34.8112 44.865 35.3148 44.9664C35.8184 45.0678 36.3407 45.0175 36.8156 44.8219C37.2906 44.6262 37.6968 44.294 37.9828 43.8673C38.2688 43.4406 38.4217 42.9387 38.4222 42.425C38.4229 42.0846 38.3563 41.7474 38.2264 41.4327C38.0965 41.118 37.9058 40.8321 37.6652 40.5913C37.4246 40.3504 37.1389 40.1594 36.8243 40.0292C36.5098 39.899 36.1726 39.8322 35.8322 39.8325L35.8397 39.8275ZM15.2147 42.3975C15.2139 41.8845 15.0614 41.3832 14.7764 40.9567C14.4913 40.5302 14.0865 40.1975 13.6128 40.0006C13.1391 39.8037 12.6177 39.7513 12.1143 39.85C11.6109 39.9487 11.1479 40.1942 10.7837 40.5554C10.4195 40.9167 10.1703 41.3777 10.0675 41.8803C9.96463 42.3828 10.0128 42.9046 10.2059 43.3799C10.3989 43.8552 10.7283 44.2627 11.1525 44.5512C11.5767 44.8398 12.0767 44.9963 12.5897 45.0013C13.2816 45.0033 13.9461 44.7308 14.4375 44.2437C14.9288 43.7565 15.207 43.0944 15.2109 42.4025L15.2147 42.3975Z" fill="white"/>
<path d="M17.7131 9.06374C17.7131 8.24374 17.7131 7.46874 17.7131 6.68875C17.7131 6.09125 17.9244 5.87875 18.5306 5.8775C20.1081 5.8775 21.6856 5.8775 23.3381 5.8775V5.4225C23.3381 4.40916 23.3381 3.39541 23.3381 2.38125C23.3381 1.8325 23.5631 1.5375 23.9806 1.52875C24.3981 1.52 24.6481 1.825 24.6481 2.40375C24.6481 3.54 24.6481 4.6775 24.6481 5.88125H25.1644C26.5869 5.88125 28.009 5.88125 29.4306 5.88125C30.0081 5.88125 30.1806 6.055 30.1806 6.63125C30.1806 7.42375 30.1806 8.21499 30.1806 9.05749H30.7194C32.1569 9.05749 33.5944 9.05749 35.0319 9.05749C36.1269 9.05749 36.9344 9.86499 36.9306 10.9325C36.9335 11.1788 36.8869 11.4232 36.7935 11.6512C36.7001 11.8791 36.5619 12.086 36.387 12.2595C36.2121 12.433 36.0041 12.5696 35.7754 12.6611C35.5467 12.7527 35.3019 12.7974 35.0556 12.7925C27.6806 12.7925 20.3056 12.7925 12.9306 12.7925C12.6811 12.7974 12.4331 12.7514 12.2018 12.6574C11.9706 12.5634 11.7609 12.4233 11.5854 12.2457C11.41 12.0681 11.2726 11.8566 11.1815 11.6242C11.0905 11.3918 11.0476 11.1432 11.0556 10.8937C11.0631 9.85124 11.8744 9.05499 12.9469 9.05249C14.3681 9.05249 15.7906 9.05249 17.2119 9.05249L17.7131 9.06374ZM23.9481 11.5H34.6806C35.3056 11.5 35.5956 11.335 35.6156 10.9625C35.6356 10.5712 35.3256 10.3762 34.6806 10.3762H13.3056C13.1644 10.3762 12.9869 10.3287 12.8919 10.3962C12.6944 10.5362 12.4406 10.715 12.3919 10.92C12.3219 11.2237 12.5694 11.4312 12.8819 11.4875C13.0212 11.5042 13.1618 11.5084 13.3019 11.5H23.9481ZM28.8506 7.225H19.0631V9.03999H28.8506V7.225Z" fill="white"/>
<path d="M29.9035 17.2362C29.9035 16.3162 29.9035 15.3962 29.9035 14.4762C29.9035 13.9762 30.1635 13.6887 30.5722 13.6975C30.9809 13.7062 31.2122 13.99 31.2122 14.4575C31.2122 16.3142 31.2122 18.1696 31.2122 20.0237C31.2122 20.505 30.9784 20.7637 30.5672 20.7737C30.136 20.7737 29.906 20.5175 29.9035 20.0012C29.901 19.0762 29.9035 18.1562 29.9035 17.2362Z" fill="white"/>
<path d="M20.0583 21C20.0583 20.1125 20.0583 19.225 20.0583 18.3375C20.0583 17.8562 20.2871 17.5937 20.6895 17.5875C21.122 17.575 21.3658 17.8375 21.367 18.345C21.367 20.1033 21.367 21.8625 21.367 23.6225C21.367 24.08 21.1108 24.3825 20.7345 24.3975C20.3583 24.4125 20.0608 24.0962 20.0583 23.6212C20.0546 22.7425 20.0583 21.875 20.0583 21Z" fill="white"/>
<path d="M26.6264 21.4213C26.6264 20.6913 26.6264 19.96 26.6264 19.23C26.6264 18.7675 26.8764 18.48 27.2601 18.4638C27.6439 18.4475 27.9339 18.7537 27.9351 19.2375C27.9351 20.6983 27.9351 22.1596 27.9351 23.6213C27.9351 24.0763 27.6764 24.3775 27.3001 24.3913C26.9239 24.405 26.6289 24.0888 26.6264 23.6138C26.6189 22.8838 26.6264 22.1525 26.6264 21.4213Z" fill="white"/>
<path d="M33.0915 21.395C33.0915 20.665 33.0915 19.9337 33.0915 19.2037C33.0915 18.75 33.364 18.4537 33.7515 18.4637C34.139 18.4737 34.399 18.7587 34.4003 19.2137C34.4003 20.6912 34.4003 22.1683 34.4003 23.645C34.4003 24.0887 34.1165 24.395 33.739 24.3887C33.3615 24.3825 33.0953 24.0825 33.0915 23.6312C33.0878 22.8887 33.0915 22.1412 33.0915 21.395Z" fill="white"/>
<path d="M14.9004 16.625C14.9004 17.34 14.9004 18.055 14.9004 18.7713C14.9004 19.2175 14.6266 19.5213 14.2491 19.5213C13.8716 19.5213 13.5929 19.2175 13.5916 18.7713C13.5866 17.3246 13.5866 15.8783 13.5916 14.4325C13.5916 13.9712 13.8491 13.6825 14.2416 13.6825C14.6341 13.6825 14.8954 13.9637 14.8991 14.4212C14.9054 15.1675 14.9004 15.8987 14.9004 16.625Z" fill="white"/>
<path d="M16.7751 21.4188C16.7751 20.7187 16.7751 20.0187 16.7751 19.3187C16.7751 18.8587 17.0251 18.5687 17.4114 18.5525C17.7976 18.5362 18.0826 18.8475 18.0838 19.3287C18.0838 20.7604 18.0838 22.1913 18.0838 23.6213C18.0838 24.0763 17.8251 24.3788 17.4476 24.3913C17.0701 24.4038 16.7789 24.09 16.7751 23.6125C16.7714 22.8813 16.7751 22.15 16.7751 21.4188Z" fill="white"/>
<path d="M23.339 16.4175C23.339 15.7625 23.339 15.1075 23.339 14.4538C23.339 13.9875 23.589 13.7038 23.9828 13.7038C24.3765 13.7038 24.6453 13.9813 24.6478 14.44C24.6528 15.7642 24.6528 17.0888 24.6478 18.4138C24.6478 18.8688 24.3865 19.1638 24.004 19.1713C23.6215 19.1788 23.3415 18.8738 23.339 18.3863C23.3365 17.7263 23.339 17.0713 23.339 16.4175Z" fill="white"/>
<path d="M14.8992 22.375C14.8992 22.81 14.9067 23.25 14.8992 23.68C14.8905 24.0925 14.6142 24.385 14.2517 24.3888C14.1623 24.3878 14.0739 24.3689 13.992 24.3331C13.91 24.2973 13.8361 24.2454 13.7746 24.1804C13.7131 24.1155 13.6653 24.0388 13.6341 23.9549C13.6029 23.8711 13.5889 23.7819 13.593 23.6925C13.5842 22.8063 13.583 21.9213 13.593 21.0363C13.593 20.61 13.868 20.3488 14.2617 20.37C14.6555 20.3913 14.8867 20.62 14.898 21.0238C14.9067 21.4763 14.8992 21.9275 14.8992 22.375Z" fill="white"/>
<path d="M24.6516 22.4562C24.6516 22.8762 24.6516 23.2962 24.6516 23.7162C24.6516 24.1362 24.4016 24.3412 24.0141 24.385C23.6566 24.4237 23.3504 24.1087 23.3454 23.7037C23.3354 22.8804 23.3354 22.0563 23.3454 21.2313C23.3454 20.8013 23.6129 20.5425 24.0029 20.545C24.3929 20.5475 24.6416 20.8113 24.6516 21.2425C24.6591 21.6475 24.6516 22.0512 24.6516 22.4562Z" fill="white"/>
<path d="M18.1809 15.575C18.1809 15.965 18.1884 16.3537 18.1809 16.7425C18.1709 17.1612 17.9034 17.4525 17.5384 17.46C17.4486 17.4602 17.3597 17.4423 17.2771 17.4071C17.1945 17.3719 17.1198 17.3204 17.0578 17.2555C16.9957 17.1906 16.9474 17.1138 16.916 17.0297C16.8845 16.9455 16.8705 16.8559 16.8747 16.7662C16.8647 15.9729 16.8647 15.1787 16.8747 14.3837C16.8747 13.9637 17.1597 13.69 17.5384 13.6975C17.9172 13.705 18.1709 13.9787 18.1809 14.4075C18.1884 14.7962 18.1809 15.1862 18.1809 15.575Z" fill="white"/>
<path d="M27.9333 15.57C27.9333 15.975 27.9333 16.38 27.9333 16.785C27.9333 17.19 27.6834 17.41 27.2946 17.455C26.9346 17.4925 26.6321 17.1788 26.6271 16.7713C26.6159 15.9775 26.6171 15.1825 26.6271 14.3888C26.6271 13.9675 26.9084 13.6938 27.2871 13.6975C27.6658 13.7013 27.9233 13.975 27.9333 14.4025C27.9408 14.7913 27.9333 15.1813 27.9333 15.57Z" fill="white"/>
<path d="M34.4031 15.5588C34.4031 15.9638 34.4119 16.3688 34.4031 16.7738C34.3944 17.1788 34.0919 17.495 33.7319 17.455C33.3494 17.4113 33.0982 17.205 33.0957 16.7838C33.0957 15.9738 33.0869 15.1588 33.0957 14.3537C33.0944 14.181 33.1617 14.0149 33.2829 13.8918C33.4041 13.7687 33.5692 13.6988 33.7419 13.6975C33.9146 13.6962 34.0808 13.7635 34.2039 13.8847C34.3269 14.0059 34.3968 14.171 34.3981 14.3437C34.4144 14.75 34.4019 15.1538 34.4031 15.5588Z" fill="white"/>
<path d="M21.3678 15.0437C21.3816 15.2936 21.3795 15.5441 21.3615 15.7937C21.358 15.8762 21.3375 15.957 21.3013 16.0311C21.2651 16.1053 21.2141 16.1712 21.1514 16.2248C21.0887 16.2783 21.0156 16.3184 20.9367 16.3426C20.8578 16.3667 20.7748 16.3743 20.6928 16.365C20.3328 16.3562 20.0928 16.1512 20.0678 15.7987C20.0347 15.2868 20.0347 14.7732 20.0678 14.2612C20.0928 13.9012 20.3603 13.7112 20.7078 13.71C21.0553 13.7087 21.309 13.8975 21.354 14.2575C21.3734 14.5208 21.376 14.7851 21.3615 15.0487L21.3678 15.0437Z" fill="white"/>
<path d="M29.9062 23.0588C29.9062 22.8413 29.8887 22.6213 29.9062 22.4063C29.9425 22.025 30.1762 21.8088 30.5525 21.8063C30.9287 21.8038 31.1774 22.0188 31.2024 22.3988C31.2318 22.865 31.2318 23.3325 31.2024 23.7988C31.1774 24.185 30.8999 24.3887 30.5375 24.38C30.3787 24.3861 30.2239 24.3292 30.1068 24.2218C29.9898 24.1143 29.9199 23.965 29.9125 23.8063C29.8887 23.5563 29.9125 23.3063 29.9125 23.0563L29.9062 23.0588Z" fill="white"/>
<path d="M21.1847 35.555C21.5109 35.555 21.8384 35.5487 22.1647 35.555C22.5959 35.565 22.8609 35.8112 22.8684 36.1937C22.8759 36.5762 22.6122 36.8525 22.1909 36.8587C21.5222 36.87 20.8522 36.8662 20.1834 36.8587C19.7697 36.8587 19.5584 36.6025 19.5184 36.22C19.4822 35.8625 19.7997 35.575 20.2034 35.5537H21.1847V35.555Z" fill="white"/>
</svg>
