<svg width="48" height="48" viewBox="0 0 48 48" fill="none" xmlns="http://www.w3.org/2000/svg">
<path d="M10.4743 27.3175C11.4393 26.1425 11.8943 24.8175 11.9668 23.3463C11.9893 22.9113 11.9893 22.4713 11.9755 22.0375C11.9405 20.9763 12.3305 20.095 13.0743 19.355L16.4493 16.0025C16.2843 15.6275 16.0518 15.6213 15.7218 15.7125C14.9145 15.9442 14.067 16.0006 13.236 15.878C12.4051 15.7554 11.6101 15.4565 10.9041 15.0015C10.1981 14.5465 9.59756 13.9458 9.14271 13.2397C8.68787 12.5336 8.38922 11.7385 8.2668 10.9075C8.12731 10.0411 8.19718 9.15391 8.47055 8.32001C8.6918 7.65876 9.22055 7.52501 9.72055 8.01251C10.2205 8.50001 10.6993 9.01876 11.2118 9.50002C11.3571 9.61537 11.5405 9.67202 11.7255 9.65876C12.188 9.61501 12.6468 9.51627 13.1005 9.44377C13.2059 9.43791 13.3058 9.39488 13.3825 9.32234C13.4592 9.24979 13.5076 9.15242 13.5193 9.04751C13.8943 7.49251 13.8943 7.49501 12.778 6.37501C12.5568 6.15501 12.3343 5.93626 12.1155 5.71376C11.5618 5.14876 11.693 4.62751 12.4443 4.40126C13.8021 4.00035 15.259 4.10321 16.5469 4.69093C17.8349 5.27865 18.8673 6.31169 19.4543 7.60001C20.0582 8.88109 20.1695 10.3397 19.7668 11.6975C19.723 11.8525 19.703 12.1038 19.7918 12.1975C21.0855 13.5238 22.4005 14.8313 23.7568 16.1888C24.3055 15.6375 24.8193 15.1 25.3543 14.5838C26.2593 13.7088 27.4618 13.605 28.4155 14.3C29.068 14.7763 29.3405 15.4475 29.3855 16.2575C30.2243 16.3413 30.9005 16.7075 31.3205 17.455C31.7405 18.2025 31.7155 18.94 31.3505 19.6825C32.748 20.4138 33.0768 21.0888 32.858 22.74C34.4705 23.3775 35.0105 24.9425 34.048 26.52C34.4643 26.9213 34.878 27.345 35.323 27.7325C35.3928 27.7818 35.4721 27.8159 35.5559 27.8327C35.6396 27.8495 35.7259 27.8486 35.8093 27.83C39.4118 26.8888 42.703 28.955 43.3555 32.6225C43.5144 33.5179 43.4359 34.4393 43.128 35.295C42.9218 35.8775 42.4105 35.9975 41.958 35.5625C41.458 35.0763 40.9793 34.555 40.458 34.0825C40.2924 33.9504 40.0874 33.8774 39.8755 33.875C39.58 33.8983 39.2872 33.9481 39.0005 34.0238C38.1805 34.1813 38.1805 34.1813 38.013 34.9763C37.7793 36.0763 37.7793 36.0763 38.5905 36.885C38.933 37.225 39.2855 37.5575 39.6118 37.9138C40.0455 38.3863 39.8955 38.8975 39.283 39.1013C35.9505 40.2125 32.2118 37.8913 31.7155 34.425C31.5832 33.5313 31.6411 32.6198 31.8855 31.75C31.9022 31.6669 31.9008 31.5812 31.8817 31.4986C31.8625 31.4161 31.8259 31.3385 31.7743 31.2713C31.3905 30.8425 30.9718 30.4438 30.533 30.0013L30.158 30.36C28.533 31.9238 26.9743 33.58 25.2418 35.02C24.0555 36 22.6255 36.6875 21.3005 37.5C21.1755 37.58 21.0293 37.64 20.9255 37.69C21.1755 38.0863 21.498 38.43 21.6493 38.8363C21.7717 39.1444 21.7991 39.4822 21.728 39.806C21.657 40.1299 21.4907 40.4251 21.2505 40.6538C20.403 41.5288 19.5493 42.3925 18.6705 43.2325C17.9205 43.9525 16.868 43.9338 16.108 43.2038C15.3893 42.5113 14.693 41.7963 13.983 41.0913L5.42305 32.525C4.3968 31.4988 4.3993 30.525 5.42305 29.4875C6.11638 28.7925 6.81096 28.0979 7.5068 27.4038C8.48555 26.435 9.37555 26.3975 10.4743 27.3175ZM11.3905 28.3238C11.573 28.4825 11.7343 28.6075 11.8768 28.7513C14.436 31.3079 16.993 33.8654 19.548 36.4238C19.6943 36.57 19.798 36.75 20.0905 36.6125C21.618 35.8975 23.1268 35.1338 24.398 34.02C25.7905 32.7988 27.1068 31.49 28.4318 30.1938C29.903 28.755 31.3443 27.285 32.8068 25.8338C33.1118 25.53 33.3155 25.195 33.1905 24.7513C32.9818 24.0013 32.1068 23.78 31.5143 24.3425C30.8018 25.0188 30.1268 25.7338 29.4218 26.4175C28.993 26.8313 28.3518 26.7125 28.2893 26.1913C28.278 25.9069 28.378 25.6293 28.568 25.4175C29.413 24.5225 30.298 23.6675 31.168 22.7925C31.7205 22.2363 31.7818 21.69 31.3455 21.2413C30.9093 20.7925 30.3205 20.855 29.7568 21.4138C29.1168 22.0513 28.4776 22.6904 27.8393 23.3313C27.563 23.6063 27.293 23.8888 27.0043 24.15C26.7155 24.4113 26.408 24.4 26.118 24.15C25.991 24.0322 25.9147 23.8696 25.9051 23.6966C25.8955 23.5236 25.9535 23.3536 26.0668 23.2225C26.1483 23.1281 26.2351 23.0384 26.3268 22.9538C27.5168 21.7638 28.723 20.5875 29.8855 19.37C30.1121 19.1069 30.2441 18.7756 30.2605 18.4288C30.2768 18.0338 29.9793 17.76 29.583 17.6338C29.1518 17.4975 28.8218 17.6763 28.5318 17.965C27.4151 19.075 26.3014 20.1875 25.1905 21.3025C25.011 21.4973 24.8189 21.6802 24.6155 21.85C24.3318 22.0688 23.9755 22.0688 23.7843 21.7863C23.648 21.5838 23.6593 21.2525 23.6818 20.9825C23.6905 20.8575 23.8668 20.7438 23.9755 20.6338C25.198 19.4088 26.421 18.1846 27.6443 16.9613C28.1668 16.435 28.2055 15.8775 27.7693 15.4425C27.333 15.0075 26.778 15.0575 26.2493 15.5775C25.6605 16.1575 25.0793 16.7463 24.4993 17.3275C23.3743 18.4525 22.2593 19.585 21.1243 20.7025C19.7568 22.0425 17.7493 22.38 16.1243 21.5688C15.7255 21.37 15.5693 21.0463 15.7068 20.7013C15.8555 20.3263 16.2068 20.1888 16.6355 20.3375C16.738 20.3738 16.8343 20.4288 16.9355 20.4625C18.1418 20.8938 19.4968 20.5688 20.153 19.7513C19.2243 18.8238 18.3043 17.9013 17.3693 16.965C16.3143 18.0175 15.2318 19.1163 14.1268 20.1913C13.8567 20.4483 13.6434 20.759 13.5006 21.1035C13.3579 21.448 13.2889 21.8185 13.298 22.1913C13.3032 23.0348 13.2456 23.8776 13.1255 24.7125C12.918 26.0438 12.2993 27.2125 11.3905 28.3238ZM20.4705 39.4013C20.3939 39.2441 20.3005 39.0957 20.1918 38.9588C16.626 35.3838 13.0564 31.8142 9.48305 28.25C9.1318 27.8988 8.9168 27.8988 8.5693 28.2413C7.79346 29.0046 7.02055 29.7742 6.25055 30.55C5.8993 30.9063 5.89305 31.1163 6.2393 31.4625C9.8068 35.0367 13.3764 38.6079 16.948 42.1763C17.243 42.4725 17.5368 42.4938 17.8393 42.1925C18.6218 41.41 19.4068 40.6313 20.183 39.8425C20.2926 39.7049 20.3889 39.5571 20.4705 39.4013ZM22.7505 17.0875C22.736 17.0601 22.7188 17.0342 22.6993 17.01C21.3555 15.6638 20.0243 14.3063 18.6618 12.9813C18.248 12.5788 18.1443 12.2138 18.358 11.6613C18.5869 11.068 18.6884 10.4332 18.6557 9.79811C18.6231 9.16305 18.4571 8.54198 18.1685 7.97531C17.88 7.40864 17.4754 6.90906 16.9811 6.50907C16.4867 6.10909 15.9137 5.81767 15.2993 5.65376C14.8568 5.53626 14.383 5.52876 13.9243 5.47251L13.8755 5.63376C14.2368 5.97626 14.6255 6.29251 14.9443 6.67126C15.1182 6.87698 15.2075 7.14099 15.1943 7.41001C15.0693 8.23876 14.8505 9.05252 14.7155 9.87877C14.6368 10.3663 14.3693 10.5763 13.923 10.65C13.1255 10.775 12.323 10.8925 11.5343 11.0638C11.3626 11.1115 11.1808 11.1088 11.0106 11.0561C10.8404 11.0033 10.6889 10.9027 10.5743 10.7663C10.2618 10.4388 9.9343 10.1275 9.5743 9.76626C9.3668 13.1288 12.6818 15.4875 15.8093 14.2788C16.2768 14.0988 16.5905 14.1638 16.9343 14.51C17.913 15.51 18.918 16.4938 19.903 17.4913C20.3168 17.9113 20.708 18.3525 21.0955 18.77L22.7505 17.0875ZM42.068 33.8238C42.2543 30.4888 39.048 28.0175 35.8868 29.23C35.363 29.4313 35.0118 29.355 34.648 28.96C34.158 28.4263 33.6318 27.9263 33.168 27.46L31.5068 29.125C31.988 29.6025 32.4793 30.125 33.0068 30.6013C33.4168 30.9688 33.4743 31.3338 33.2768 31.8438C33.038 32.4504 32.9331 33.1014 32.9694 33.7523C33.0057 34.4032 33.1823 35.0385 33.487 35.6148C33.7918 36.1911 34.2175 36.6947 34.7351 37.091C35.2526 37.4874 35.8498 37.7672 36.4855 37.9113C36.8862 37.9843 37.2905 38.0352 37.6968 38.0638L37.7918 37.88C37.4243 37.5488 37.0255 37.2438 36.7018 36.8738C36.538 36.6875 36.4005 36.3675 36.4355 36.135C36.5668 35.26 36.778 34.3988 36.9518 33.53C36.9702 33.3746 37.0413 33.2302 37.1532 33.1208C37.2651 33.0115 37.411 32.9437 37.5668 32.9288C38.4555 32.7788 39.3393 32.5888 40.233 32.4788C40.5173 32.4717 40.7945 32.5681 41.013 32.75C41.3755 33.0325 41.6643 33.4013 42.068 33.8238Z" fill="white"/>
</svg>
