<svg width="48" height="48" viewBox="0 0 48 48" fill="none" xmlns="http://www.w3.org/2000/svg">
<g clip-path="url(#clip0_760_230)">
<path d="M1.83203 25.8838C1.8427 21.457 3.17623 17.1345 5.66142 13.4712C8.14661 9.80794 11.67 6.97105 15.7793 5.32482C19.8885 3.67858 24.396 3.29814 28.723 4.23234C33.0501 5.16654 36.9991 7.37274 40.0631 10.5677C43.1272 13.7626 45.1663 17.8005 45.9188 22.1628C46.6713 26.5251 46.1027 31.0127 44.2861 35.0495C42.4695 39.0864 39.4878 42.4881 35.7238 44.8179C31.9598 47.1478 27.5853 48.2994 23.162 48.125C11.3408 47.6825 1.83078 37.8988 1.83203 25.8838ZM44.9045 25.295C44.6745 20.0388 42.8095 15.5338 39.2408 11.6475C38.8183 12.0913 38.4383 12.5038 38.0433 12.8975C37.6483 13.2913 37.2308 13.3363 36.9433 13.0363C36.6558 12.7363 36.7145 12.3388 37.0908 11.9713C37.4995 11.5725 37.927 11.1913 38.3783 10.7725C34.4533 7.19 29.9545 5.31375 24.707 5.09875C24.707 5.71125 24.707 6.285 24.707 6.85875C24.707 7.4325 24.4883 7.6925 24.0583 7.695C23.6283 7.6975 23.3995 7.425 23.3983 6.875C23.3983 6.29 23.3983 5.70375 23.3983 5.1025C18.1358 5.33875 13.632 7.19875 9.77328 10.7475C10.2145 11.1825 10.617 11.5713 11.012 11.97C11.387 12.345 11.437 12.7475 11.167 13.0375C10.897 13.3275 10.4533 13.3038 10.0695 12.9125C9.68578 12.5213 9.29203 12.0713 8.87453 11.625C5.28078 15.5575 3.41578 20.0575 3.19578 25.295C3.83578 25.295 4.42578 25.295 5.01578 25.295C5.52328 25.295 5.79828 25.5363 5.79453 25.9563C5.79078 26.3763 5.51578 26.5988 5.00078 26.6025C4.41078 26.6025 3.82203 26.6025 3.19578 26.6025C3.41828 31.8525 5.28578 36.3525 8.86828 40.2613C9.28828 39.8138 9.67328 39.3863 10.0745 38.98C10.4408 38.605 10.8558 38.5638 11.1408 38.8413C11.4258 39.1188 11.3908 39.5438 11.0258 39.9088C10.6245 40.3163 10.1995 40.7063 9.74953 41.1363C13.6458 44.7075 18.1533 46.5763 23.397 46.795C23.397 46.1613 23.397 45.5863 23.397 45.0113C23.397 44.4675 23.6345 44.1875 24.0708 44.2C24.4858 44.2113 24.6958 44.4825 24.7045 45.005C24.7045 45.5938 24.7045 46.1825 24.7045 46.7975C29.9545 46.5725 34.4633 44.7038 38.3458 41.145C37.9008 40.715 37.482 40.32 37.0758 39.9125C36.7083 39.5438 36.667 39.1313 36.9508 38.8475C37.2345 38.5638 37.6495 38.6038 38.017 38.9725C38.422 39.38 38.8108 39.805 39.2345 40.2513C42.807 36.3563 44.6745 31.8525 44.8995 26.6013C44.2645 26.6013 43.6595 26.6013 43.0558 26.6013C42.5783 26.6013 42.3058 26.365 42.3058 25.9638C42.2958 25.5413 42.5695 25.2988 43.0745 25.295C43.6645 25.2913 44.2558 25.295 44.9045 25.295Z" fill="white"/>
<path d="M39.6819 25.975C39.6819 34.6 32.6819 41.5813 24.0269 41.5775C15.3719 41.5738 8.41064 34.56 8.42189 25.875C8.43314 17.2675 15.4569 10.31 24.1244 10.3225C32.7181 10.3337 39.6869 17.345 39.6819 25.975ZM24.0419 40.2675C31.8944 40.2788 38.3494 33.8388 38.3719 25.97C38.3944 18.12 31.9644 11.6675 24.0844 11.6312C16.2269 11.5962 9.73064 18.0763 9.73189 25.95C9.73314 33.8238 16.1794 40.2563 24.0419 40.2675Z" fill="white"/>
<path d="M16.1006 27.0725C17.2693 27.0725 18.4368 27.08 19.6006 27.0725C19.9406 27.0725 20.2356 27.1375 20.3681 27.4725C20.5006 27.8075 20.3756 28.0688 20.1306 28.3125C18.4518 29.9825 16.7818 31.6613 15.1031 33.33C14.6518 33.7788 14.2656 33.7438 13.8993 33.235C12.779 31.6765 12.0326 29.8809 11.7181 27.9875C11.6118 27.38 11.8781 27.075 12.5031 27.0738C13.7022 27.0713 14.9014 27.0708 16.1006 27.0725ZM18.0518 28.4038H13.1768C13.4476 29.63 13.9285 30.8002 14.5981 31.8625L18.0518 28.4038Z" fill="white"/>
<path d="M25.1758 17.9425C25.1758 16.7587 25.1758 15.575 25.1758 14.3912C25.1758 13.775 25.4883 13.5162 26.0983 13.6175C27.975 13.9334 29.7553 14.6721 31.3045 15.7775C31.8433 16.1625 31.8858 16.5475 31.4295 17.0125C29.7595 18.69 28.0808 20.36 26.4108 22.0375C26.167 22.2875 25.8895 22.3988 25.5695 22.2662C25.2495 22.1337 25.1745 21.8312 25.177 21.4937C25.182 20.31 25.1758 19.125 25.1758 17.9425ZM26.5083 19.8975L29.9395 16.4687C28.8854 15.8079 27.7243 15.3355 26.5083 15.0725V19.8975Z" fill="white"/>
<path d="M16.0484 24.8263C14.8647 24.8263 13.6809 24.8263 12.4972 24.8263C11.8722 24.8263 11.6122 24.5163 11.7184 23.9063C12.0366 22.0141 12.7855 20.2204 13.9072 18.6638C14.2634 18.1638 14.6572 18.1213 15.0784 18.5388C16.7822 20.2288 18.4834 21.9138 20.1584 23.6363C20.3259 23.8088 20.4297 24.215 20.3434 24.4188C20.2572 24.6225 19.8947 24.7938 19.6472 24.805C18.4484 24.8475 17.2509 24.8263 16.0484 24.8263ZM13.1734 23.4813H18.0559C16.9009 22.3263 15.7597 21.1863 14.6009 20.0263C13.9274 21.0861 13.444 22.2553 13.1722 23.4813H13.1734Z" fill="white"/>
<path d="M25.1754 33.9475C25.1754 32.7637 25.1817 31.58 25.1754 30.3962C25.1754 30.0562 25.2392 29.76 25.5754 29.6287C25.9117 29.4975 26.1704 29.6212 26.4154 29.8675C28.0854 31.5462 29.7642 33.215 31.4342 34.8925C31.8817 35.3438 31.8467 35.73 31.3379 36.0975C29.7794 37.2202 27.9828 37.968 26.0879 38.2825C25.4804 38.3888 25.1754 38.1213 25.1742 37.4975C25.1729 36.3138 25.1754 35.1312 25.1754 33.9475ZM29.9417 35.53L26.5192 32.1075V36.9512L29.9417 35.53Z" fill="white"/>
<path d="M32.0775 27.0725C33.2442 27.0725 34.4109 27.0725 35.5775 27.0725C36.2275 27.0725 36.4925 27.3825 36.38 28.0125C36.0633 29.8568 35.3399 31.6075 34.2625 33.1375C33.825 33.755 33.4638 33.7963 32.9388 33.2725C31.2963 31.6342 29.6542 29.9946 28.0125 28.3538C27.745 28.0888 27.5825 27.8063 27.7388 27.4425C27.895 27.0788 28.2238 27.0675 28.5688 27.0675C29.7413 27.0788 30.91 27.0725 32.0775 27.0725ZM30.1025 28.405L33.5088 31.8313C34.1 31.045 34.8575 29.1763 34.8838 28.405H30.1025Z" fill="white"/>
<path d="M32.0554 24.8262C30.8716 24.8262 29.6879 24.82 28.5041 24.8262C28.1654 24.8262 27.8666 24.7625 27.7341 24.4287C27.6016 24.095 27.7229 23.8337 27.9691 23.5875C29.6491 21.9237 31.3179 20.25 33.0004 18.575C33.4629 18.1137 33.8479 18.1587 34.2341 18.7C35.3371 20.2508 36.0747 22.0311 36.3916 23.9075C36.4979 24.515 36.2304 24.8225 35.6104 24.825C34.4229 24.8287 33.2391 24.8262 32.0554 24.8262ZM33.6254 20.0387L30.1504 23.4912H35.0591L33.6254 20.0387Z" fill="white"/>
<path d="M22.9284 17.9863C22.9284 19.17 22.9496 20.3538 22.9109 21.5363C22.9002 21.6745 22.8614 21.809 22.7969 21.9318C22.7324 22.0545 22.6436 22.1628 22.5359 22.25C22.2621 22.4388 21.9509 22.285 21.7059 22.0388C20.0246 20.35 18.3309 18.67 16.6559 16.98C16.2296 16.5525 16.2721 16.1638 16.7634 15.8088C18.3228 14.6864 20.1188 13.9368 22.0134 13.6175C22.6221 13.51 22.9371 13.775 22.9384 14.3888C22.9309 15.5875 22.9284 16.7875 22.9284 17.9863ZM21.5971 19.9588V14.9488L18.0546 16.4138L21.5971 19.9588Z" fill="white"/>
<path d="M22.9287 33.9513C22.9287 35.135 22.9287 36.3188 22.9287 37.5025C22.9287 38.1275 22.6187 38.3888 22.0112 38.2825C20.1171 37.963 18.3213 37.2143 16.7611 36.0938C16.2549 35.73 16.2236 35.3438 16.6736 34.89C18.3436 33.2125 20.0224 31.5425 21.6912 29.8637C21.9412 29.6137 22.2137 29.5037 22.5337 29.63C22.8537 29.7562 22.9324 30.0612 22.9299 30.4013C22.9224 31.5838 22.9287 32.7675 22.9287 33.9513ZM18.1661 35.4313C19.2219 36.0881 20.3818 36.5603 21.5962 36.8275V32L18.1661 35.4313Z" fill="white"/>
<path d="M26.5779 25.9525C26.5774 26.4527 26.4284 26.9414 26.1499 27.3569C25.8713 27.7723 25.4757 28.0957 25.0132 28.2861C24.5506 28.4764 24.042 28.5252 23.5517 28.4262C23.0614 28.3273 22.6116 28.085 22.2591 27.7301C21.9067 27.3752 21.6675 26.9236 21.5719 26.4327C21.4764 25.9417 21.5287 25.4334 21.7223 24.9722C21.9158 24.511 22.242 24.1177 22.6593 23.842C23.0767 23.5664 23.5665 23.4208 24.0666 23.4238C24.3983 23.4222 24.727 23.4867 25.0335 23.6135C25.34 23.7403 25.6182 23.9268 25.8519 24.1621C26.0857 24.3975 26.2702 24.677 26.3948 24.9843C26.5195 25.2917 26.5817 25.6208 26.5779 25.9525ZM24.0579 24.7375C23.817 24.7363 23.5813 24.8068 23.3806 24.9402C23.18 25.0735 23.0237 25.2635 22.9315 25.4861C22.8394 25.7086 22.8156 25.9536 22.8632 26.1897C22.9108 26.4258 23.0277 26.6424 23.1989 26.8118C23.3701 26.9812 23.5879 27.0958 23.8245 27.141C24.0611 27.1861 24.3058 27.1598 24.5273 27.0653C24.7489 26.9709 24.9373 26.8125 25.0685 26.6106C25.1998 26.4086 25.2679 26.1721 25.2641 25.9312C25.2502 25.617 25.1182 25.3196 24.8946 25.0983C24.6711 24.877 24.3723 24.7482 24.0579 24.7375Z" fill="white"/>
</g>
<defs>
<clipPath id="clip0_760_230">
<rect width="48" height="48" fill="white"/>
</clipPath>
</defs>
</svg>
