<svg width="48" height="48" viewBox="0 0 48 48" fill="none" xmlns="http://www.w3.org/2000/svg">
<path d="M20.2403 30.6662H25.5503V30.2387C25.5503 26.9804 25.5503 23.7212 25.5503 20.4612C25.5503 20.19 25.5128 20.02 25.2253 19.8875C18.9603 16.98 12.6983 14.0633 6.4391 11.1375C6.3441 11.0925 6.2441 11.0587 6.0791 10.9937C6.0791 11.8375 6.06535 12.6187 6.0941 13.41C6.0941 13.5237 6.2891 13.66 6.42035 13.735C6.86074 13.9794 7.2064 14.3645 7.40198 14.8286C7.59756 15.2928 7.63176 15.8091 7.49909 16.295C7.20285 17.3512 6.31285 17.9937 5.19535 17.9587C4.21535 17.9262 3.3366 17.1737 3.1191 16.1737C3.09747 16.0292 3.08453 15.8836 3.08035 15.7375H4.54285C4.58785 15.8375 4.61035 16.0112 4.70535 16.0737C4.9366 16.225 5.20535 16.4225 5.45535 16.4212C5.53867 16.4211 5.62105 16.4035 5.69723 16.3698C5.77341 16.336 5.84172 16.2868 5.89782 16.2251C5.95391 16.1635 5.99655 16.0909 6.02303 16.0119C6.04951 15.9329 6.05923 15.8492 6.0516 15.7662C6.02785 15.5162 5.8016 15.2787 5.6291 15.0575C5.57785 14.9887 5.4291 14.9862 5.32285 14.9687C4.7791 14.8737 4.58785 14.6525 4.5866 14.0837C4.5866 12.9587 4.59785 11.8337 4.5741 10.715C4.55703 10.4982 4.47318 10.2921 4.3341 10.125C4.11285 9.85124 4.03785 9.56874 4.1766 9.25999C4.5841 8.34999 4.9991 7.44374 5.4366 6.54999C5.6741 6.06624 6.0491 5.98249 6.6241 6.24999C9.41743 7.54666 12.2091 8.84583 14.9991 10.1475C19.9341 12.445 24.8695 14.7408 29.8053 17.035C30.0408 17.1435 30.2961 17.2022 30.5553 17.2075C33.7828 17.2183 37.0112 17.2183 40.2403 17.2075C41.2291 17.2075 41.9441 17.6162 42.4091 18.4775C43.6316 20.7362 44.8778 22.9837 46.0578 25.265C46.3332 25.8029 46.484 26.3959 46.4991 27C46.5403 30.1962 46.5203 33.3937 46.5191 36.5912C46.5191 37.9875 45.5741 38.9187 44.1628 38.92C43.1966 38.92 42.2316 38.92 41.2353 38.92C40.9653 40.2075 40.3191 41.235 39.2228 41.9525C38.3773 42.4971 37.3747 42.7451 36.3728 42.6575C34.4503 42.5325 32.8191 41.0437 32.3478 38.9512H13.5203C13.2566 40.2012 12.6153 41.2313 11.5203 41.9512C10.6884 42.4868 9.7046 42.7369 8.71784 42.6637C6.80285 42.5662 5.30535 41.2225 4.6041 38.9225C4.12035 38.9225 3.6241 38.9225 3.12785 38.9225C2.2241 38.915 1.5941 38.2975 1.5916 37.4012C1.5866 35.4679 1.5866 33.5337 1.5916 31.5987C1.5916 30.9425 1.8416 30.6937 2.4866 30.69L5.4341 30.6775C5.44535 30.6775 5.45535 30.665 5.50285 30.6362C5.18182 30.5359 4.8846 30.3711 4.62929 30.1522C4.37398 29.9332 4.16594 29.6645 4.01785 29.3625C3.97782 29.3127 3.92748 29.2722 3.8703 29.2437C3.81312 29.2152 3.75045 29.1995 3.6866 29.1975C3.25035 29.1787 2.8116 29.1975 2.3766 29.1875C1.8766 29.1762 1.59535 28.9075 1.5916 28.4037C1.5841 27.1412 1.5791 25.8775 1.5916 24.615C1.60166 24.2446 1.75311 23.8922 2.01485 23.63C2.27659 23.3678 2.62877 23.2157 2.9991 23.205C3.4991 23.1912 3.9991 23.185 4.4991 23.205C4.77535 23.2187 4.9166 23.1187 5.03285 22.875C5.47035 21.9625 5.93785 21.065 6.37785 20.155C6.85285 19.1725 7.60284 18.685 8.71659 18.7C10.7591 18.725 12.8028 18.6937 14.8416 18.7212C15.159 18.7311 15.4652 18.8409 15.7166 19.035C17.2049 20.2717 18.6741 21.5283 20.1241 22.805C20.4503 23.09 20.7716 23.2737 21.2078 23.2012C21.8716 23.0925 22.3091 23.4237 22.8091 23.8375C23.7978 24.6562 24.2453 25.6025 24.0591 26.8812C23.9866 27.3812 24.0591 27.9087 24.0441 28.4237C24.0341 28.8987 23.7591 29.1662 23.2866 29.1887C23.1466 29.195 23.0053 29.1962 22.8653 29.1887C22.1966 29.1525 21.5803 29.11 21.2128 29.9075C21.0591 30.25 20.5616 30.43 20.2403 30.6662ZM41.2403 37.4262C42.1241 37.4262 42.9841 37.3875 43.8378 37.4362C44.6916 37.485 45.2316 37.1575 44.9378 35.9125H42.8028V34.4125H44.9916V32.9375C43.9916 32.9375 43.0066 32.9437 42.0278 32.9375C41.8288 32.9422 41.631 32.9063 41.4463 32.832C41.2616 32.7577 41.094 32.6466 40.9536 32.5054C40.8133 32.3643 40.7032 32.196 40.63 32.0109C40.5568 31.8258 40.522 31.6277 40.5278 31.4287C40.5278 30.9925 40.5278 30.5537 40.5278 30.1187C40.5278 29.0212 41.0991 28.45 42.1941 28.4487H44.9841V26.9487H32.5516C31.7503 26.9487 31.5403 26.735 31.5403 25.9187V18.7312H30.0691V37.405H32.3191C33.0428 34.9325 34.6341 33.655 36.9441 33.6837C38.9891 33.7075 40.6241 35.1137 41.2403 37.4262ZM3.1066 37.3975H4.6366C5.1241 35.2875 6.78159 33.7875 8.70284 33.685C9.72132 33.606 10.7366 33.8734 11.5841 34.4437C12.6378 35.16 13.2603 36.1662 13.5191 37.4012H28.5191V32.2162H3.1066V37.3975ZM33.0703 18.71V25.4112H44.4453C43.2828 23.2687 42.1603 21.1725 40.9991 19.0975C40.8891 18.9012 40.5453 18.7287 40.3066 18.7225C37.9028 18.6987 35.4991 18.71 33.0703 18.71ZM3.1091 24.6975V27.65C3.8466 27.7462 3.8466 27.7462 4.2066 27.2037C4.41679 26.8784 4.70826 26.6136 5.05219 26.4355C5.39612 26.2573 5.7806 26.1721 6.16759 26.1881C6.55459 26.2041 6.93069 26.3209 7.25871 26.5269C7.58672 26.7329 7.85529 27.0209 8.03784 27.3625C8.08453 27.4732 8.16572 27.5659 8.26933 27.6267C8.37294 27.6875 8.49343 27.7132 8.61284 27.7C11.4178 27.6883 14.2237 27.6883 17.0303 27.7C17.3178 27.7 17.4591 27.6137 17.6028 27.36C18.4428 25.86 20.5391 25.765 21.4153 27.2187C21.7191 27.7187 22.0528 27.7387 22.5403 27.6575C22.5403 26.6687 22.8378 25.6075 21.7366 24.9575C21.5378 24.84 21.3053 24.7075 21.0878 24.7075C15.242 24.6942 9.39576 24.6904 3.5491 24.6962L3.1091 24.6975ZM6.4991 7.86124C6.28285 8.33124 6.08785 8.75124 5.8741 9.20124L28.5441 19.7662C28.5441 19.3287 28.5153 18.9675 28.5516 18.6137C28.5891 18.2387 28.4378 18.0762 28.1041 17.9225C23.0524 15.5817 18.0053 13.2325 12.9628 10.875C10.8203 9.87499 8.67534 8.87499 6.4991 7.86124ZM9.04909 35.18C8.26184 35.1971 7.51209 35.5197 6.95833 36.0796C6.40456 36.6394 6.09017 37.3926 6.0816 38.18C6.0816 39.8113 7.48159 41.1975 9.10034 41.1712C10.7491 41.1413 12.1003 39.75 12.0691 38.125C12.0464 37.3382 11.7186 36.591 11.155 36.0414C10.5915 35.4918 9.83626 35.1829 9.04909 35.18ZM36.7866 35.18C36.1917 35.1775 35.6095 35.352 35.114 35.6812C34.6185 36.0104 34.2321 36.4795 34.0038 37.0288C33.7756 37.5781 33.7158 38.183 33.832 38.7664C33.9483 39.3498 34.2354 39.8854 34.6569 40.3053C35.0783 40.7251 35.615 41.0102 36.1989 41.1243C36.7827 41.2384 37.3873 41.1763 37.9358 40.946C38.4843 40.7156 38.9519 40.3274 39.2792 39.8307C39.6065 39.334 39.7788 38.7511 39.7741 38.1562C39.7593 37.3696 39.4394 36.6195 38.882 36.0642C38.3246 35.5089 37.5733 35.1919 36.7866 35.18ZM6.70285 30.67H19.0778C18.2991 30.3987 17.8078 29.9862 17.4916 29.3587C17.4441 29.2625 17.2416 29.1975 17.1166 29.1962C14.2466 29.1879 11.3766 29.1879 8.50659 29.1962C8.43019 29.2038 8.35637 29.2279 8.29029 29.267C8.22421 29.3061 8.16749 29.3592 8.12409 29.4225C7.81271 29.9933 7.30917 30.4353 6.70285 30.67ZM28.5441 30.67C28.5441 27.6462 28.5441 24.66 28.5378 21.67C28.5356 21.6132 28.5207 21.5576 28.4944 21.5072C28.468 21.4568 28.4307 21.413 28.3853 21.3787C27.9616 21.1612 27.5241 20.9712 27.0703 20.7625V30.6662L28.5441 30.67ZM6.5741 23.17H11.2853V20.2062C10.3591 20.2062 9.46909 20.18 8.58284 20.2237C8.34159 20.235 8.00409 20.3962 7.89159 20.5987C7.42284 21.4125 7.0241 22.2725 6.5741 23.1675V23.17ZM18.2441 23.1812C17.0728 22.1812 15.9791 21.2425 14.8841 20.3062C14.8407 20.2617 14.785 20.2312 14.7241 20.2187C14.0991 20.2125 13.4641 20.2187 12.8491 20.2187V23.1837L18.2441 23.1812ZM44.9941 29.9712H42.0566V31.4162H44.9991L44.9941 29.9712ZM6.0741 29.185C6.17961 29.1972 6.28651 29.1868 6.38771 29.1545C6.48891 29.1223 6.58211 29.0689 6.66113 28.9979C6.74016 28.9269 6.8032 28.84 6.8461 28.7428C6.88899 28.6456 6.91076 28.5405 6.90996 28.4343C6.90915 28.328 6.8858 28.2232 6.84144 28.1267C6.79708 28.0302 6.73273 27.9442 6.65264 27.8744C6.57256 27.8047 6.47856 27.7527 6.37689 27.722C6.27521 27.6913 6.16817 27.6825 6.06285 27.6962C5.88132 27.72 5.71474 27.8092 5.59449 27.9473C5.47423 28.0853 5.40862 28.2625 5.41 28.4456C5.41138 28.6287 5.47967 28.8049 5.602 28.9411C5.72432 29.0773 5.89224 29.164 6.0741 29.185ZM20.3016 28.435C20.2904 28.2389 20.2059 28.0541 20.0649 27.9173C19.924 27.7804 19.7367 27.7016 19.5403 27.6962C19.392 27.6985 19.2477 27.7447 19.1256 27.8289C19.0036 27.9132 18.9092 28.0317 18.8545 28.1696C18.7998 28.3075 18.7872 28.4585 18.8184 28.6035C18.8495 28.7485 18.9229 28.8811 19.0294 28.9844C19.1358 29.0877 19.2705 29.1571 19.4164 29.1839C19.5623 29.2106 19.7128 29.1935 19.849 29.1347C19.9852 29.0759 20.1009 28.978 20.1814 28.8535C20.262 28.7289 20.3038 28.5833 20.3016 28.435Z" fill="white"/>
<path d="M34.5116 28.4675V29.9038H31.5703V28.4675H34.5116Z" fill="white"/>
<path d="M9.78992 38.9038H8.35742V37.45H9.78992V38.9038Z" fill="white"/>
<path d="M36.0605 37.4487H37.4993V38.89H36.0605V37.4487Z" fill="white"/>
</svg>
