<svg width="48" height="48" viewBox="0 0 48 48" fill="none" xmlns="http://www.w3.org/2000/svg">
<path d="M10.7598 32.125C10.7598 32.92 10.7598 33.68 10.7598 34.44C10.7598 35.415 10.1673 36.0188 9.19732 36.0288C8.38607 36.0363 7.57232 36.0288 6.76482 36.0288C5.77107 36.0288 5.17482 35.435 5.16232 34.4275C5.15357 33.665 5.16232 32.9025 5.16232 32.1475C4.01732 31.8238 3.37108 31.12 3.22358 29.9688C2.93358 27.7188 2.61233 25.4688 2.34858 23.2113C2.06233 20.8825 2.12483 20.6963 3.44482 18.8C2.86233 18.8 2.30858 18.8 1.75358 18.8C1.15108 18.8 0.893576 18.55 0.941076 17.9363C1.08733 16.0275 1.87483 14.82 4.17607 14.715C5.06357 14.675 5.95357 14.69 6.84232 14.7C6.94822 14.712 7.05517 14.6899 7.14759 14.6368C7.24001 14.5837 7.31306 14.5025 7.35607 14.405C7.80607 13.5513 8.27982 12.7113 8.73982 11.8625C9.45982 10.5363 10.3336 9.34751 11.7911 8.77001C12.3081 8.56131 12.8586 8.44781 13.4161 8.43501C18.8311 8.37501 24.2498 8.39376 29.6548 8.30001C31.5498 8.26626 32.9548 9.01376 33.9761 10.505C34.7648 11.6575 35.4298 12.8975 36.1261 14.1113C36.2861 14.3913 36.4548 14.4975 36.7773 14.4863C37.7898 14.4675 38.8098 14.415 39.8161 14.5025C41.9086 14.6838 42.5661 16.1738 42.5861 17.8925C42.5861 18.0563 42.4498 18.2213 42.3636 18.4163C43.7073 19.075 45.0661 19.7638 46.4473 20.4063C46.9873 20.6563 47.1973 20.9888 47.1861 21.5938C47.1536 24.1513 47.2036 26.7088 47.1636 29.265C47.1248 31.8875 45.9998 34 43.8936 35.5288C42.0811 36.8488 40.1886 38.0588 38.3448 39.3363C37.9061 39.6413 37.5548 39.6238 37.1198 39.3213C35.3815 38.1096 33.6315 36.9159 31.8698 35.74C30.616 34.9072 29.6277 33.7319 29.0223 32.3538C28.9061 32.095 28.7723 31.9788 28.4748 31.9788C22.674 32.0238 16.8723 32.0621 11.0698 32.0938C10.9911 32.0975 10.9136 32.1088 10.7598 32.125ZM31.5411 19.1775L31.5173 19.0938H31.1661C22.8248 19.1525 14.4836 19.235 6.14357 19.2488C4.41108 19.2488 3.35107 20.6775 3.53982 22.1238C3.86607 24.6238 4.19232 27.1238 4.53982 29.6175C4.68607 30.6688 4.97482 30.8788 6.05107 30.8675L27.8461 30.6863C28.0148 30.6863 28.1823 30.6863 28.3861 30.6863C28.3315 30.382 28.2943 30.0748 28.2748 29.7663C28.2661 26.9288 28.2573 24.0925 28.2836 21.255C28.2836 21.03 28.5073 20.775 28.6873 20.5925C28.8311 20.4463 29.0623 20.3913 29.2636 20.295L31.5411 19.1775ZM36.1898 16.935C35.2273 15.2263 34.3236 13.5913 33.3873 11.9763C33.1177 11.5387 32.8067 11.1281 32.4586 10.75C32.1426 10.3718 31.7423 10.073 31.2899 9.87758C30.8375 9.68219 30.3455 9.59568 29.8536 9.62501C28.4973 9.66751 27.1398 9.66626 25.7836 9.67626C21.7269 9.7046 17.6711 9.7296 13.6161 9.75126C12.6036 9.75126 11.7411 10.0975 11.0861 10.85C10.6826 11.3028 10.3254 11.7949 10.0198 12.3188C9.04107 14.0363 8.09982 15.775 7.14482 17.5075C7.07357 17.6325 7.01982 17.77 6.92982 17.94L25.4148 17.7875C25.9298 15.6075 27.4848 14.2 29.3936 14.1238C30.304 14.0777 31.2036 14.3383 31.9486 14.8638C32.9486 15.5563 33.5023 16.5325 33.7298 17.7075C34.7073 17.9375 35.3361 17.215 36.1898 16.935ZM45.7798 25.7713H45.8623C45.8623 24.5213 45.8498 23.2713 45.8723 22.03C45.8723 21.7113 45.7661 21.5675 45.4973 21.435C43.0198 20.235 40.5473 19.0267 38.0798 17.81C37.9665 17.7474 37.8388 17.7156 37.7094 17.7178C37.58 17.72 37.4534 17.7561 37.3423 17.8225C34.874 19.0375 32.4002 20.2459 29.9211 21.4475C29.8071 21.4885 29.7104 21.567 29.6468 21.6701C29.5833 21.7732 29.5566 21.8948 29.5711 22.015C29.5836 24.4313 29.5311 26.8488 29.5923 29.265C29.6473 31.4125 30.5798 33.18 32.3248 34.4413C33.9786 35.635 35.6998 36.74 37.3761 37.8975C37.6411 38.08 37.8286 38.1038 38.1098 37.9063C39.7598 36.7588 41.4348 35.65 43.0811 34.4988C44.6023 33.435 45.5361 31.935 45.7498 30.1238C45.9161 28.6825 45.7798 27.2188 45.7798 25.7713ZM26.8298 17.7413H32.3036C32.2173 16.55 30.9811 15.4825 29.6723 15.4375C28.3636 15.3925 27.0548 16.44 26.8298 17.7413ZM6.51982 32.1588C6.51982 32.9563 6.50732 33.6863 6.53357 34.4088C6.5549 34.4775 6.59342 34.5396 6.64548 34.5893C6.69755 34.6389 6.76143 34.6745 6.83107 34.6925C7.59357 34.7175 8.35732 34.7163 9.11982 34.6925C9.22982 34.6925 9.42857 34.5438 9.43107 34.4588C9.45607 33.69 9.44607 32.92 9.44607 32.15L6.51982 32.1588ZM6.40732 16.0925C5.45732 16.0925 4.57107 16.0413 3.69482 16.1075C2.89858 16.1675 2.44483 16.7025 2.44483 17.405C3.45233 17.405 4.46107 17.405 5.46857 17.395C5.53217 17.3865 5.59323 17.3646 5.64775 17.3308C5.70226 17.297 5.74898 17.252 5.78482 17.1988C5.99982 16.8588 6.18232 16.5 6.40732 16.0925ZM37.0323 15.8188C37.2061 16.0225 37.3386 16.2775 37.4248 16.2625C38.1361 16.1375 38.6436 16.5963 39.1823 16.8875C39.8248 17.2288 40.4573 17.1438 41.1186 17.1375C41.0036 16.355 40.5986 15.9063 39.7873 15.8438C38.9186 15.7663 38.0348 15.8188 37.0373 15.8188H37.0323Z" fill="white"/>
<path d="M10.4867 24.9588C10.4867 26.3112 9.44548 27.4012 8.13548 27.41C7.81604 27.4158 7.49858 27.3587 7.20123 27.2418C6.90387 27.125 6.63245 26.9507 6.40245 26.7289C6.17245 26.5072 5.98838 26.2423 5.86075 25.9494C5.73312 25.6565 5.66444 25.3413 5.65861 25.0219C5.65278 24.7024 5.70993 24.385 5.82679 24.0876C5.94365 23.7903 6.11794 23.5188 6.33969 23.2888C6.56145 23.0588 6.82634 22.8748 7.11923 22.7471C7.41213 22.6195 7.72729 22.5508 8.04673 22.545C8.36632 22.54 8.6837 22.5988 8.98027 22.718C9.27684 22.8372 9.54664 23.0144 9.77387 23.2392C10.0011 23.464 10.1812 23.7319 10.3036 24.0271C10.426 24.3224 10.4883 24.6391 10.4867 24.9588ZM9.17923 24.965C9.17154 24.7509 9.10072 24.5439 8.97568 24.37C8.85065 24.196 8.67697 24.063 8.4765 23.9875C8.27603 23.912 8.05772 23.8974 7.84901 23.9457C7.6403 23.9939 7.45052 24.1028 7.30353 24.2586C7.15654 24.4145 7.0589 24.6103 7.02289 24.8214C6.98688 25.0326 7.01411 25.2497 7.10116 25.4454C7.18821 25.6412 7.33118 25.8068 7.5121 25.9215C7.69303 26.0362 7.90382 26.0948 8.11798 26.09C8.40645 26.0773 8.67864 25.9528 8.87678 25.7427C9.07492 25.5327 9.18341 25.2537 9.17923 24.965Z" fill="white"/>
<path d="M21.7585 29.375H17.0372C16.5247 29.375 16.216 29.145 16.2072 28.7638C16.1985 28.3825 16.5047 28.1075 17.0097 28.105C20.2597 28.0875 23.5222 28.0813 26.7797 28.065C27.1959 28.065 27.4272 28.2725 27.4834 28.66C27.5359 29.0238 27.2184 29.3325 26.7597 29.3425C25.8097 29.365 24.8597 29.3588 23.9084 29.3625H21.7585V29.375Z" fill="white"/>
<path d="M13.6666 24.1625C13.6666 23.9125 13.6566 23.6625 13.6666 23.4125C13.6878 23.0025 13.9691 22.7113 14.3353 22.7325C14.7378 22.755 14.9603 22.9825 14.9766 23.3863C14.9966 23.9287 15.0066 24.4725 14.9941 25.0112C14.9841 25.4575 14.7341 25.71 14.3541 25.7162C13.9741 25.7225 13.6978 25.4325 13.6678 24.9912C13.6678 24.96 13.6678 24.9287 13.6678 24.8975V24.1625H13.6666Z" fill="white"/>
<path d="M17.9993 24.1988C17.9993 24.4788 18.013 24.76 17.9993 25.0388C17.9755 25.4225 17.6568 25.7438 17.3118 25.7188C16.9055 25.6888 16.698 25.4213 16.6868 25.0375C16.6643 24.4788 16.6593 23.9125 16.6868 23.3588C16.6852 23.2763 16.7004 23.1943 16.7312 23.1178C16.7621 23.0413 16.8081 22.9718 16.8664 22.9134C16.9248 22.8551 16.9943 22.8091 17.0708 22.7782C17.1473 22.7474 17.2293 22.7322 17.3118 22.7338C17.3976 22.7274 17.4839 22.7388 17.5652 22.7674C17.6464 22.7959 17.7209 22.841 17.7839 22.8996C17.8469 22.9583 17.8972 23.0294 17.9314 23.1084C17.9657 23.1874 17.9832 23.2726 17.983 23.3588C18.003 23.6375 17.983 23.9188 17.983 24.1988H17.9993Z" fill="white"/>
<path d="M20.9884 24.1475C20.9884 24.4288 21.0009 24.71 20.9884 24.99C20.9659 25.3938 20.7509 25.625 20.3359 25.63C20.2531 25.638 20.1695 25.6286 20.0904 25.6025C20.0114 25.5765 19.9386 25.5342 19.8768 25.4785C19.8149 25.4228 19.7654 25.3548 19.7312 25.2789C19.6971 25.2029 19.6791 25.1207 19.6784 25.0375C19.6384 24.4619 19.6384 23.8843 19.6784 23.3088C19.7047 22.9438 19.9622 22.7225 20.3497 22.7363C20.7372 22.75 20.9522 22.9688 20.9747 23.3525C20.9909 23.6175 20.9747 23.8825 20.9747 24.1475H20.9884Z" fill="white"/>
<path d="M23.9812 24.215C23.9812 24.48 23.9949 24.7463 23.9812 25.01C23.9562 25.385 23.7412 25.6125 23.3562 25.6288C22.9712 25.645 22.7087 25.4175 22.6812 25.0575C22.6349 24.4668 22.6349 23.8733 22.6812 23.2825C22.7087 22.9175 22.9812 22.71 23.3699 22.7363C23.7324 22.76 23.9474 22.9638 23.9699 23.3275C23.9899 23.6225 23.9699 23.9188 23.9699 24.215H23.9812Z" fill="white"/>
<path d="M25.6495 24.125C25.6495 23.875 25.6383 23.625 25.6495 23.375C25.672 22.9813 25.9333 22.73 26.3058 22.7363C26.7171 22.7425 26.9458 22.96 26.9596 23.37C26.9771 23.9 26.9896 24.4313 26.9733 24.96C26.9596 25.4 26.6921 25.6513 26.2983 25.63C25.8845 25.6088 25.6858 25.3525 25.6558 24.965C25.6333 24.6863 25.6558 24.4038 25.6558 24.1225L25.6495 24.125Z" fill="white"/>
<path d="M37.7614 21.41C38.6239 21.4099 39.4778 21.5815 40.2733 21.9147C41.0689 22.2479 41.7901 22.7361 42.3951 23.3508C43.0001 23.9655 43.4767 24.6946 43.7971 25.4953C44.1175 26.2961 44.2753 27.1526 44.2614 28.015C44.2314 31.5938 41.2614 34.4563 37.6039 34.4275C34.0764 34.3988 31.1914 31.415 31.2289 27.8363C31.2457 26.1187 31.9427 24.4779 33.1672 23.2733C34.3917 22.0687 36.0438 21.3987 37.7614 21.41ZM32.5639 27.9338C32.5561 28.6209 32.685 29.3027 32.9432 29.9395C33.2013 30.5763 33.5835 31.1554 34.0676 31.6432C34.5516 32.1309 35.1278 32.5175 35.7626 32.7805C36.3975 33.0434 37.0783 33.1776 37.7654 33.175C38.4526 33.1724 39.1323 33.0332 39.7652 32.7655C40.398 32.4978 40.9713 32.1069 41.4517 31.6156C41.9321 31.1242 42.31 30.5423 42.5633 29.9035C42.8167 29.2648 42.9406 28.5821 42.9276 27.895C42.9151 25.0675 40.5976 22.7363 37.7926 22.73C37.1064 22.7239 36.4257 22.8541 35.7902 23.1132C35.1547 23.3722 34.577 23.7549 34.0905 24.239C33.6041 24.7231 33.2187 25.299 32.9566 25.9332C32.6945 26.5675 32.561 27.2475 32.5639 27.9338Z" fill="white"/>
<path d="M36.9378 28.61C37.954 27.6825 38.9228 26.7788 39.9178 25.9063C40.112 25.7389 40.3615 25.6498 40.6178 25.6563C40.7928 25.6738 41.0603 25.9188 41.0778 26.085C41.0893 26.2164 41.0746 26.3488 41.0347 26.4745C40.9948 26.6002 40.9304 26.7168 40.8453 26.8175C40.0328 27.6138 39.1778 28.3675 38.339 29.1363C38.039 29.41 37.7453 29.69 37.4403 29.9563C37.0203 30.3238 36.7203 30.32 36.3453 29.9238C35.7536 29.3013 35.1703 28.6717 34.5953 28.035C34.2628 27.6663 34.2678 27.285 34.579 27.0088C34.8903 26.7325 35.2403 26.7863 35.5678 27.1338C36.0215 27.61 36.4615 28.095 36.9378 28.61Z" fill="white"/>
</svg>
