<svg width="18" height="32" viewBox="0 0 18 32" fill="none" xmlns="http://www.w3.org/2000/svg">
<path d="M5.03125 18.8375C5.03125 14.225 11.6 11.1812 11.6 6.15C11.6 3.20625 9.475 0.65 9.15625 0.5C9.18125 0.70625 9.19375 0.91875 9.19375 1.125C9.19375 6.88125 0 10.7438 0 17.9125C0 21.025 2.0125 22.8625 4.15625 24.6812C8.225 27.6 9.0375 29.1437 9.0375 30.0938C9.0375 30.725 8.7375 31.1562 8.7375 31.4875C9.55625 30.4437 9.825 29.4937 9.83125 28.5875C9.83125 26.7375 8.475 25.0688 7.06875 23.1812C6.06875 21.7875 5.03125 20.5187 5.03125 18.8375ZM17.8625 16.4C17.1062 12.225 12.9875 8.625 11.9438 8.21875L12.1938 8.66875C12.3438 8.9875 12.4062 9.35 12.4062 9.7375C12.4062 12.5312 9.01875 16.6875 8.86875 17.0312C8.73125 17.35 8.66875 17.6875 8.66875 18.0187C8.66875 19.275 9.61875 20.65 9.7875 20.65C9.9375 20.65 13.325 17.1875 13.4187 15.1687C13.8187 15.9 13.9875 16.5813 13.9875 17.2563C13.9875 19.8313 11.375 23.3125 11.375 23.3125C11.375 24.0375 13.3687 26.6375 13.5938 26.6375C13.6562 26.6375 13.7312 26.55 13.7937 26.4875C16.1625 24.0312 18 21.175 18 17.9375C18 17.4375 17.9562 16.925 17.8625 16.4Z" fill="#FF5C00"/>
</svg>
