<svg width="24" height="24" viewBox="0 0 24 24" fill="none" xmlns="http://www.w3.org/2000/svg">
<g clip-path="url(#clip0_40:703)">
<path d="M21.6704 2.93908C19.1157 0.764081 15.2954 1.12502 12.9235 3.57189L12.0001 4.52814L11.0767 3.57658C9.16415 1.59846 5.30634 0.407831 2.32977 2.93908C-0.613976 5.45158 -0.768663 9.96096 1.86571 12.6797L10.936 22.0453C11.2267 22.3453 11.611 22.5 11.9954 22.5C12.3798 22.5 12.7642 22.35 13.0548 22.0453L22.1251 12.6797C24.7688 9.96096 24.6142 5.45158 21.6704 2.93908ZM21.0563 11.6391L12.0188 21.0047L2.94384 11.6391C1.14384 9.78283 0.768837 6.24377 3.30477 4.08283C5.87353 1.88908 8.89228 3.47814 9.99853 4.62189L12.0001 6.68908L14.0017 4.62189C15.0892 3.49689 18.136 1.90314 20.6954 4.08283C23.2267 6.23908 22.8563 9.77814 21.0563 11.6391Z" fill="#FF5C00"/>
</g>
<defs>
<clipPath id="clip0_40:703">
<rect width="24" height="24" fill="white"/>
</clipPath>
</defs>
</svg>
