<svg width="576" height="512" viewBox="0 0 576 512" fill="none" xmlns="http://www.w3.org/2000/svg">
<path d="M541 229.16L308.15 39.16C302.431 34.5479 295.306 32.0326 287.96 32.0326C280.613 32.0326 273.488 34.5479 267.77 39.16L34.9998 229.16C33.3577 230.498 32.3135 232.433 32.096 234.54C31.8785 236.647 32.5057 238.755 33.8398 240.4L43.9398 252.81C45.2727 254.445 47.1974 255.487 49.2949 255.71C51.3924 255.933 53.4931 255.318 55.1398 254L95.9998 220.62V463.62C95.9998 467.863 97.6855 471.933 100.686 474.934C103.687 477.934 107.756 479.62 112 479.62H240C244.243 479.62 248.313 477.934 251.314 474.934C254.314 471.933 256 467.863 256 463.62V335.62L320 335.92V464C320 468.243 321.686 472.313 324.686 475.314C327.687 478.314 331.756 480 336 480L464 479.67C468.243 479.67 472.313 477.984 475.314 474.984C478.314 471.983 480 467.914 480 463.67V220.62L520.86 254C522.506 255.337 524.615 255.966 526.725 255.749C528.834 255.531 530.771 254.485 532.11 252.84L542.21 240.43C542.872 239.611 543.367 238.67 543.664 237.66C543.962 236.65 544.057 235.591 543.945 234.544C543.833 233.497 543.515 232.482 543.009 231.558C542.504 230.634 541.821 229.819 541 229.16V229.16ZM447.89 447.75H447.99L351.99 448.05V319.88C351.977 315.649 350.294 311.595 347.307 308.598C344.32 305.602 340.271 303.906 336.04 303.88L240.04 303.61C237.934 303.603 235.849 304.012 233.902 304.814C231.955 305.615 230.185 306.792 228.694 308.279C227.203 309.765 226.02 311.531 225.213 313.476C224.405 315.42 223.99 317.505 223.99 319.61V447.75H128V194.51L288 63.94L448 194.51L447.89 447.75Z" fill="#FF5C00"/>
</svg>
