<svg width="24" height="22" viewBox="0 0 24 22" fill="none" xmlns="http://www.w3.org/2000/svg">
<path d="M23.772 10.0814L21.3332 7.94598V1.99806C21.3332 1.82125 21.263 1.65168 21.138 1.52666C21.0129 1.40163 20.8434 1.33139 20.6665 1.33139H16.6665C16.4897 1.33139 16.3202 1.40163 16.1951 1.52666C16.0701 1.65168 15.9999 1.82125 15.9999 1.99806V3.27931L12.4386 0.164728C12.3171 0.0585283 12.1612 0 11.9999 0C11.8385 0 11.6826 0.0585283 11.5611 0.164728L0.227798 10.0814C0.0946929 10.1978 0.0132863 10.3623 0.00148716 10.5388C-0.010312 10.7152 0.0484628 10.8891 0.164882 11.0222C0.281301 11.1553 0.445828 11.2367 0.622268 11.2485C0.798709 11.2603 0.97261 11.2016 1.10572 11.0851L2.66655 9.71765V19.3314C2.6671 19.8617 2.87799 20.37 3.25294 20.745C3.6279 21.12 4.13628 21.3308 4.66655 21.3314H19.3332C19.8635 21.3308 20.3719 21.12 20.7468 20.745C21.1218 20.37 21.3327 19.8617 21.3332 19.3314V9.71765L22.8941 11.0839C23.0279 11.1933 23.1991 11.2465 23.3714 11.2322C23.5437 11.2178 23.7037 11.1371 23.8176 11.007C23.9315 10.8769 23.9904 10.7077 23.9819 10.535C23.9734 10.3623 23.8981 10.1996 23.772 10.0814ZM19.9999 19.3314C19.9999 19.5082 19.9296 19.6778 19.8046 19.8028C19.6796 19.9278 19.51 19.9981 19.3332 19.9981H4.66655C4.48974 19.9981 4.32017 19.9278 4.19514 19.8028C4.07012 19.6778 3.99988 19.5082 3.99988 19.3314V8.55098L11.9999 1.55098L19.9999 8.55098V19.3314ZM19.9999 6.77931L17.3332 4.44598V2.66473H19.9999V6.77931ZM8.66655 9.10931V13.5539C8.66754 13.8482 8.78489 14.1302 8.993 14.3383C9.2011 14.5464 9.48308 14.6637 9.77738 14.6647H14.2207C14.5153 14.6641 14.7976 14.5469 15.0061 14.3387C15.2145 14.1306 15.3321 13.8485 15.3332 13.5539V9.10931C15.3323 8.81464 15.2148 8.53232 15.0063 8.32407C14.7978 8.11583 14.5154 7.99861 14.2207 7.99806H9.77738C9.48297 7.99894 9.20087 8.11632 8.99273 8.32454C8.78459 8.53276 8.66732 8.8149 8.66655 9.10931ZM9.99988 9.3314H13.9999V13.3314H9.99988V9.3314Z" fill="#333333"/>
</svg>
