<?xml version="1.0" encoding="utf-8"?>
<!-- Generator: Adobe Illustrator 23.0.1, SVG Export Plug-In . SVG Version: 6.00 Build 0)  -->
<svg version="1.1" id="Layer_1" xmlns="http://www.w3.org/2000/svg" xmlns:xlink="http://www.w3.org/1999/xlink" x="0px" y="0px"
	 viewBox="0 0 44 44" style="enable-background:new 0 0 44 44;" xml:space="preserve">
<style type="text/css">
	.st0{fill-rule:evenodd;clip-rule:evenodd;fill:#DFE0E6;}
</style>
<title>A092EC9A-4609-4324-B383-10C47E57444C</title>
<desc>Created with sketchtool.</desc>
<g>
	<path id="path-1_1_" class="st0" d="M41,27c1.1,0,2,0.9,2,2s-0.9,2-2,2h-6v6c0,1.1-0.9,2-2,2s-2-0.9-2-2v-6h-6c-1.1,0-2-0.9-2-2
		s0.9-2,2-2h6v-6c0-1.1,0.9-2,2-2s2,0.9,2,2v6H41z M17,29c1.1,0,2,0.9,2,2s-0.9,2-2,2H9v1c0,1.7-1.4,3-3,3H4c-1.7,0-3-1.3-3-3v-2
		c0-0.2,0-0.4,0.1-0.6C1.1,31.2,1,31.1,1,31V19c0,0,0,0,0-0.1c0-0.2,0.1-0.4,0.1-0.6c0,0,0-0.1,0-0.1c0,0,0-0.1,0-0.1l6-12
		C7.6,5.4,8.2,5,9,5h20c0.8,0,1.5,0.4,1.8,1.1l2,4c0.5,1,0.1,2.2-0.9,2.7c-1,0.5-2.2,0.1-2.7-0.9L27.8,9H10.2l-4,8H17h8
		c1.1,0,2,0.9,2,2s-0.9,2-2,2h-8H5v2h4c1.1,0,2,0.9,2,2s-0.9,2-2,2H5v2h1H17z"/>
</g>
</svg>
