<?xml version="1.0" encoding="utf-8"?>
<!-- Generator: Adobe Illustrator 23.0.1, SVG Export Plug-In . SVG Version: 6.00 Build 0)  -->
<svg version="1.1" id="Layer_1" xmlns="http://www.w3.org/2000/svg" xmlns:xlink="http://www.w3.org/1999/xlink" x="0px" y="0px"
	 viewBox="0 0 44 44" style="enable-background:new 0 0 44 44;" xml:space="preserve">
<style type="text/css">
	.st0{fill-rule:evenodd;clip-rule:evenodd;fill:#DFE0E6;}
	.st1{fill:#DFE0E6;}
</style>
<title>Moto</title>
<desc>Created with Sketch.</desc>
<path class="st0" d="M39.5,26.8c1.1,0,2,0.9,2,2s-0.9,2-2,2h-6v6c0,1.1-0.9,2-2,2s-2-0.9-2-2v-6h-6c-1.1,0-2-0.9-2-2s0.9-2,2-2h6v-6
	c0-1.1,0.9-2,2-2s2,0.9,2,2v6H39.5z"/>
<path class="st1" d="M19.8,31.4l-0.4-0.8C19.1,30,19,29.4,19,28.8s0.1-1.2,0.4-1.8v-0.8c0-1.4-1.1-2.5-2.5-2.5h-1.7
	c-1.4,0-2.5,1.1-2.5,2.5v5.4c-2-1-3.4-3-3.4-5.4v-5.1c0-1.7,0.8-3.4,2.1-4.5c1.2,1.2,2.9,1.9,4.7,1.9s3.5-0.7,4.7-1.9
	c1.3,1.1,2.1,2.7,2.1,4.5v3.2c0.2,0,0.5-0.1,0.8-0.1h2.6v-3.2c0-3-1.4-5.7-3.7-7.4c0-0.1,0-0.1,0.1-0.2h5.3c0.9,0,1.7-0.8,1.7-1.7
	s-0.8-1.7-1.7-1.7h-5.3C21.8,7.2,19.1,5,16,5s-5.8,2.2-6.5,5.1H4.2c-0.9,0-1.7,0.8-1.7,1.7s0.8,1.7,1.7,1.7h5.3c0,0.1,0,0.1,0.1,0.2
	c-2.3,1.8-3.7,4.5-3.7,7.4v5.1c0,4.3,2.9,7.9,6.8,9v1.2c0,1.4,1.1,2.5,2.5,2.5h1.7c1.4,0,2.5-1.1,2.5-2.5v-1.2
	c1.4-0.4,2.6-1.1,3.6-2C21.7,33.1,20.5,32.4,19.8,31.4"/>
<ellipse class="st1" cx="16" cy="11.8" rx="3.4" ry="3.4"/>
</svg>
