<svg width="32" height="25" viewBox="0 0 32 25" fill="none" xmlns="http://www.w3.org/2000/svg">
<g clip-path="url(#clip0_247:280)">
<path d="M25.0116 9.375C24.1355 9.37339 23.3014 9.5523 22.5441 9.87627L21.2792 7.8125H25.3906C26.0378 7.8125 26.5625 7.28784 26.5625 6.64062V4.29688C26.5625 3.64966 26.0378 3.125 25.3906 3.125H22.4609C22.279 3.12501 22.0996 3.16737 21.9369 3.24873C21.7741 3.33009 21.6326 3.44821 21.5234 3.59375L19.9662 5.67012L18.6349 3.498C18.565 3.38405 18.4671 3.28993 18.3504 3.22462C18.2338 3.15932 18.1024 3.12502 17.9687 3.125H14.2578C13.9342 3.125 13.6719 3.38735 13.6719 3.71094V4.10156C13.6719 4.42515 13.9342 4.6875 14.2578 4.6875H17.5312L19.4466 7.8125H10.6242C9.80981 6.88164 8.58349 6.25 6.25 6.25H3.92832C3.50761 6.25 3.14565 6.57329 3.12592 6.99351C3.10478 7.44219 3.46225 7.8125 3.90625 7.8125H6.25C7.43496 7.8125 8.21025 8.2148 8.76787 8.78667L8.26181 9.70674C7.63689 9.49433 6.98221 9.38249 6.32221 9.37539C2.86665 9.33603 0.0132791 12.1447 4.66542e-05 15.6005C-0.0131858 19.0636 2.79009 21.875 6.25 21.875C9.16215 21.875 11.6086 19.8831 12.3025 17.1875H16.442C16.9002 17.1875 17.2614 16.7941 17.2201 16.336C16.97 13.5631 18.2058 10.9256 20.3759 9.32866L21.1958 10.6663C19.7002 11.8154 18.7391 13.6255 18.7502 15.6598C18.7687 19.0601 21.5429 21.8444 24.9431 21.8747C28.3894 21.9054 31.1985 19.1466 31.2494 15.7196C31.3007 12.2522 28.4794 9.3813 25.0116 9.375V9.375ZM22.5586 4.49219H25.1953V6.44531H21.0937L22.5586 4.49219ZM6.25 20.3125C3.66528 20.3125 1.5625 18.2097 1.5625 15.625C1.5625 13.0403 3.66528 10.9375 6.25 10.9375C6.66988 10.9373 7.08787 10.9938 7.49267 11.1053L4.78418 16.0297C4.49834 16.5495 4.8749 17.1875 5.46875 17.1875H10.6689C10.024 19.0062 8.28701 20.3125 6.25 20.3125ZM15.625 15.625H6.79008L10.2275 9.375H18.014C16.4931 11.0774 15.625 13.2989 15.625 15.625ZM24.8147 20.3089C22.382 20.2146 20.4105 18.2432 20.3161 15.8105C20.2568 14.2825 20.9334 12.9068 22.0192 12.0099L24.8266 16.5904C24.9957 16.8663 25.3565 16.9529 25.6324 16.7837L25.9654 16.5796C26.2413 16.4105 26.3279 16.0498 26.1588 15.7738L23.3731 11.2288C23.8937 11.0356 24.4447 10.937 25 10.9375C27.5847 10.9375 29.6875 13.0403 29.6875 15.625C29.6875 18.2712 27.4834 20.4123 24.8147 20.3089Z" fill="#333333"/>
</g>
<defs>
<clipPath id="clip0_247:280">
<rect width="31.25" height="25" fill="white"/>
</clipPath>
</defs>
</svg>
