<svg width="17" height="18" viewBox="0 0 17 18" fill="none" xmlns="http://www.w3.org/2000/svg">
<g clip-path="url(#clip0_46:140)">
<path d="M16.7649 13.7742C16.7285 13.623 16.5832 13.5352 16.4412 13.5738L15.7707 13.7637L14.4265 8.42695C14.2746 7.82578 13.6966 7.4707 13.1318 7.63242L8.93399 8.82773C8.96372 8.70117 8.98353 8.57109 8.98353 8.43398C8.98353 7.6043 8.41546 6.91523 7.67234 6.77461L6.86976 3.58242C6.83343 3.43125 6.68811 3.34336 6.54609 3.38203L6.03416 3.52617C5.89214 3.56484 5.80957 3.71953 5.8459 3.8707L6.56591 6.74648H6.46682L4.59746 4.75664C4.51819 4.67227 4.42901 4.60898 4.34314 4.53516C4.57764 4.34531 4.77911 4.11328 4.93764 3.83555C5.26792 3.25898 5.3637 2.57695 5.21177 1.91953C4.95416 0.791016 4.00296 0 2.90644 0C2.18974 0 1.36074 0.362109 0.871931 1.21992C0.541654 1.79648 0.445874 2.47852 0.597801 3.13594C0.710096 3.62109 0.951198 4.03594 1.27157 4.35938C0.515232 4.85508 0 5.74453 0 6.75V16.3125C0 17.2441 0.710096 18 1.58533 18C2.46056 18 3.17066 17.2441 3.17066 16.3125V13.9922L3.28956 14.1012L3.72222 16.6148C3.86754 17.4516 4.64039 18.1547 5.57177 17.9684C5.98462 17.8875 6.34462 17.6379 6.58572 17.2688C6.82683 16.8961 6.916 16.4496 6.84004 16.0066L6.37435 13.3137C6.26205 12.6703 5.94499 12.0797 5.47599 11.6578L4.22755 10.5152V9.13711L5.15562 10.125H7.3982C7.40481 10.125 7.41142 10.1215 7.41802 10.1215L8.35931 13.8656C7.78133 14.2664 7.3982 14.959 7.3982 15.75C7.3982 16.991 8.3461 18 9.51198 18C10.559 18 11.421 17.1879 11.5894 16.1227L16.7153 14.6602C16.8573 14.6215 16.9399 14.4668 16.9036 14.3156L16.7649 13.7742ZM2.90644 1.125C3.50094 1.125 4.03929 1.55391 4.18791 2.19727C4.4092 3.15 3.6991 3.9375 2.90644 3.9375C2.31194 3.9375 1.77359 3.50859 1.62496 2.86523C1.40368 1.9125 2.11377 1.125 2.90644 1.125ZM2.11377 16.3125C2.11377 16.6219 1.87597 16.875 1.58533 16.875C1.29469 16.875 1.05689 16.6219 1.05689 16.3125V12.0656L2.11377 13.0289V16.3125ZM5.59489 9L3.62314 6.90117C3.57029 6.84492 3.50424 6.8168 3.43818 6.8168C3.30277 6.8168 3.17066 6.9293 3.17066 7.09805V11.032L4.79562 12.5121C5.07966 12.7688 5.27122 13.1273 5.34058 13.5176L5.80627 16.2105C5.85911 16.5164 5.66755 16.8082 5.38352 16.8645C5.35049 16.8715 5.31746 16.875 5.28773 16.875C5.03672 16.875 4.81544 16.6852 4.7692 16.4145L4.30351 13.725C4.28039 13.5879 4.21103 13.4613 4.11195 13.3699L1.61505 11.0953C1.25836 10.7684 1.05689 10.3043 1.05689 9.80859V6.75C1.05689 5.85 1.72735 5.09062 2.57286 5.0625H2.64222C3.15084 5.0625 3.56039 5.2418 3.85433 5.5582L6.03086 7.875H7.3982C7.68885 7.875 7.92665 8.12813 7.92665 8.4375C7.92665 8.74687 7.68885 9 7.3982 9H5.59489ZM9.51198 16.875C8.93069 16.875 8.45509 16.3687 8.45509 15.75C8.45509 15.1313 8.93069 14.625 9.51198 14.625C10.0933 14.625 10.5689 15.1313 10.5689 15.75C10.5689 16.3687 10.0933 16.875 9.51198 16.875ZM11.4936 14.9836C11.1997 14.1188 10.4268 13.4965 9.51198 13.4965C9.46244 13.4965 9.4162 13.507 9.36666 13.5105L8.51124 10.1145L13.4059 8.71875L14.7502 14.0555L11.4936 14.9836Z" fill="white"/>
</g>
<defs>
<clipPath id="clip0_46:140">
<rect width="16.9102" height="18" fill="white"/>
</clipPath>
</defs>
</svg>
