<svg width="18" height="24" viewBox="0 0 18 24" fill="none" xmlns="http://www.w3.org/2000/svg">
<path d="M17.625 10.875H10.125V3.375C10.125 3.16781 9.95719 3 9.75 3H8.25C8.04281 3 7.875 3.16781 7.875 3.375V10.875H0.375C0.167812 10.875 0 11.0428 0 11.25V12.75C0 12.9572 0.167812 13.125 0.375 13.125H7.875V20.625C7.875 20.8322 8.04281 21 8.25 21H9.75C9.95719 21 10.125 20.8322 10.125 20.625V13.125H17.625C17.8322 13.125 18 12.9572 18 12.75V11.25C18 11.0428 17.8322 10.875 17.625 10.875Z" fill="#3446bd"/>
</svg>
