<svg width="18" height="16" viewBox="0 0 18 16" fill="none" xmlns="http://www.w3.org/2000/svg">
<g clip-path="url(#clip0_194:126)">
<path d="M17.2497 2H4.04L3.77972 0.611781C3.71319 0.257062 3.40347 0 3.04256 0H0.375C0.167906 0 0 0.167906 0 0.375V0.625C0 0.832094 0.167906 1 0.375 1H2.835L5.02022 12.6546C4.69703 13.0098 4.5 13.4819 4.5 14C4.5 15.1046 5.39544 16 6.5 16C7.60456 16 8.5 15.1046 8.5 14C8.50039 13.6488 8.40785 13.3038 8.23178 13H12.7683C12.5922 13.3038 12.4996 13.6488 12.5 14C12.5 15.1046 13.3955 16 14.5 16C15.6046 16 16.5 15.1046 16.5 14C16.5 13.4377 16.2677 12.93 15.8942 12.5666C15.8132 12.2466 15.5238 12 15.1665 12H5.915L5.54 10H15.8957C16.2509 10 16.5574 9.75075 16.6299 9.40297L17.984 2.90297C18.081 2.43722 17.7255 2 17.2497 2ZM7.5 14C7.5 14.5514 7.05141 15 6.5 15C5.94859 15 5.5 14.5514 5.5 14C5.5 13.4486 5.94859 13 6.5 13C7.05141 13 7.5 13.4486 7.5 14ZM14.5 15C13.9486 15 13.5 14.5514 13.5 14C13.5 13.4486 13.9486 13 14.5 13C15.0514 13 15.5 13.4486 15.5 14C15.5 14.5514 15.0514 15 14.5 15ZM15.6924 9H5.3525L4.2275 3H16.9424L15.6924 9Z" fill="#FF5C00"/>
</g>
<defs>
<clipPath id="clip0_194:126">
<rect width="18" height="16" fill="white"/>
</clipPath>
</defs>
</svg>
