<svg width="18" height="18" viewBox="0 0 18 18" fill="none" xmlns="http://www.w3.org/2000/svg">
<path d="M5.625 7.63242C5.625 7.32305 5.87813 7.06992 6.1875 7.06992H11.25V3.76875C11.25 3.51914 11.5523 3.39258 11.7281 3.56836L16.7063 8.59922C16.9277 8.8207 16.9277 9.17578 16.7063 9.39727L11.7281 14.4281C11.5523 14.6039 11.25 14.4809 11.25 14.2277V10.9266H6.1875C5.87813 10.9266 5.625 10.6734 5.625 10.3641V7.63242ZM4.5 7.63242V10.3641C4.5 11.2957 5.25586 12.0516 6.1875 12.0516H10.125V14.2277C10.125 15.4758 11.6367 16.1086 12.5227 15.2227L17.5043 10.1953C18.1652 9.53438 18.1652 8.46562 17.5043 7.80469L12.5227 2.77383C11.6402 1.89141 10.125 2.51719 10.125 3.76875V5.94492H6.1875C5.25586 5.94492 4.5 6.7043 4.5 7.63242ZM0 3.9375V14.0625C0 14.9941 0.755859 15.75 1.6875 15.75H6.32812C6.56016 15.75 6.75 15.5602 6.75 15.3281V15.0469C6.75 14.8148 6.56016 14.625 6.32812 14.625H1.6875C1.37812 14.625 1.125 14.3719 1.125 14.0625V3.9375C1.125 3.62812 1.37812 3.375 1.6875 3.375H6.32812C6.56016 3.375 6.75 3.18516 6.75 2.95312V2.67188C6.75 2.43984 6.56016 2.25 6.32812 2.25H1.6875C0.755859 2.25 0 3.00586 0 3.9375Z" fill="#FF5C00"/>
</svg>
