<svg width="18" height="18" viewBox="0 0 18 18" fill="none" xmlns="http://www.w3.org/2000/svg">
<path d="M0.28125 4.5H15.4688C15.6241 4.5 15.75 4.37414 15.75 4.21875V3.65625C15.75 3.50086 15.6241 3.375 15.4688 3.375H0.28125C0.125859 3.375 0 3.50086 0 3.65625V4.21875C0 4.37414 0.125859 4.5 0.28125 4.5ZM17.7188 8.4375H2.53125C2.37586 8.4375 2.25 8.56336 2.25 8.71875V9.28125C2.25 9.43664 2.37586 9.5625 2.53125 9.5625H17.7188C17.8741 9.5625 18 9.43664 18 9.28125V8.71875C18 8.56336 17.8741 8.4375 17.7188 8.4375ZM15.4688 13.5H0.28125C0.125859 13.5 0 13.6259 0 13.7812V14.3438C0 14.4991 0.125859 14.625 0.28125 14.625H15.4688C15.6241 14.625 15.75 14.4991 15.75 14.3438V13.7812C15.75 13.6259 15.6241 13.5 15.4688 13.5Z" fill="#FF5C00"/>
</svg>
