<svg width="24" height="24" viewBox="0 0 24 24" fill="none" xmlns="http://www.w3.org/2000/svg">
<path d="M21.75 6H16.5V3.75C16.5 2.50922 15.4908 1.5 14.25 1.5H9.75C8.50922 1.5 7.5 2.50922 7.5 3.75V6H2.25C1.00781 6 0 7.00781 0 8.25V20.25C0 21.4922 1.00781 22.5 2.25 22.5H21.75C22.9922 22.5 24 21.4922 24 20.25V8.25C24 7.00781 22.9922 6 21.75 6ZM9 3.75C9 3.33609 9.33703 3 9.75 3H14.25C14.663 3 15 3.33609 15 3.75V6H9V3.75ZM4.5 21H2.25C1.8375 21 1.5 20.6625 1.5 20.25V8.25C1.5 7.8375 1.8375 7.5 2.25 7.5H4.5V21ZM18 21H6V7.5H18V21ZM22.5 20.25C22.5 20.6625 22.1625 21 21.75 21H19.5V7.5H21.75C22.1625 7.5 22.5 7.8375 22.5 8.25V20.25Z" fill="#333333"/>
</svg>
