<svg width="16" height="19" viewBox="0 0 16 19" fill="none" xmlns="http://www.w3.org/2000/svg">
<g clip-path="url(#clip0_40:375)">
<path d="M11.2 10.2857C10.175 10.2857 9.68214 10.8571 8 10.8571C6.31786 10.8571 5.82857 10.2857 4.8 10.2857C2.15 10.2857 0 12.4357 0 15.0857V16.5714C0 17.5179 0.767857 18.2857 1.71429 18.2857H14.2857C15.2321 18.2857 16 17.5179 16 16.5714V15.0857C16 12.4357 13.85 10.2857 11.2 10.2857ZM14.8571 16.5714C14.8571 16.8857 14.6 17.1429 14.2857 17.1429H1.71429C1.4 17.1429 1.14286 16.8857 1.14286 16.5714V15.0857C1.14286 13.0679 2.78214 11.4286 4.8 11.4286C5.5 11.4286 6.19643 12 8 12C9.8 12 10.5 11.4286 11.2 11.4286C13.2179 11.4286 14.8571 13.0679 14.8571 15.0857V16.5714ZM8 9.14286C10.525 9.14286 12.5714 7.09643 12.5714 4.57143C12.5714 2.04643 10.525 0 8 0C5.475 0 3.42857 2.04643 3.42857 4.57143C3.42857 7.09643 5.475 9.14286 8 9.14286ZM8 1.14286C9.88929 1.14286 11.4286 2.68214 11.4286 4.57143C11.4286 6.46071 9.88929 8 8 8C6.11071 8 4.57143 6.46071 4.57143 4.57143C4.57143 2.68214 6.11071 1.14286 8 1.14286Z" fill="#FF5C00"/>
</g>
<defs>
<clipPath id="clip0_40:375">
<rect width="16" height="18.2857" fill="white"/>
</clipPath>
</defs>
</svg>
