<svg width="18" height="18" viewBox="0 0 18 18" fill="none" xmlns="http://www.w3.org/2000/svg">
<g clip-path="url(#clip0_268_2)">
<path d="M11.2426 7.17188V7.45313C11.2426 7.68516 11.0528 7.875 10.8207 7.875H7.86761V10.8281C7.86761 11.0602 7.67776 11.25 7.44573 11.25H7.16448C6.93245 11.25 6.74261 11.0602 6.74261 10.8281V7.875H3.78948C3.55745 7.875 3.36761 7.68516 3.36761 7.45313V7.17188C3.36761 6.93984 3.55745 6.75 3.78948 6.75H6.74261V3.79688C6.74261 3.56484 6.93245 3.375 7.16448 3.375H7.44573C7.67776 3.375 7.86761 3.56484 7.86761 3.79688V6.75H10.8207C11.0528 6.75 11.2426 6.93984 11.2426 7.17188ZM17.8696 17.4727L17.4723 17.8699C17.3071 18.0352 17.0399 18.0352 16.8746 17.8699L12.3395 13.3348C12.2586 13.2539 12.2164 13.1484 12.2164 13.0359V12.7371C10.9192 13.9113 9.20003 14.625 7.31214 14.625C3.29729 14.625 0.0523726 11.4223 -0.000361821 7.40742C-0.0530962 3.29414 3.29378 -0.0527338 7.40706 5.75354e-07C11.4219 0.052735 14.6246 3.29766 14.6246 7.3125C14.6246 9.20039 13.911 10.9195 12.7367 12.2168H13.0356C13.1481 12.2168 13.2535 12.2625 13.3344 12.3398L17.8696 16.875C18.0348 17.0402 18.0348 17.3074 17.8696 17.4727ZM13.4996 7.3125C13.4996 3.8918 10.7328 1.125 7.31214 1.125C3.89143 1.125 1.12464 3.8918 1.12464 7.3125C1.12464 10.7332 3.89143 13.5 7.31214 13.5C10.7328 13.5 13.4996 10.7332 13.4996 7.3125Z" fill="white"/>
</g>
<defs>
<clipPath id="clip0_268_2">
<rect width="18" height="18" fill="white"/>
</clipPath>
</defs>
</svg>
